G75*
%MOIN*%
%OFA0B0*%
%FSLAX25Y25*%
%IPPOS*%
%LPD*%
%AMOC8*
5,1,8,0,0,1.08239X$1,22.5*
%
%ADD10C,0.00000*%
%ADD11OC8,0.05600*%
%ADD12OC8,0.05200*%
%ADD13C,0.16598*%
%ADD14C,0.15024*%
%ADD15C,0.05150*%
%ADD16C,0.05200*%
%ADD17C,0.06000*%
%ADD18C,0.05200*%
%ADD19OC8,0.06600*%
%ADD20C,0.07087*%
%ADD21C,0.09449*%
%ADD22C,0.01600*%
%ADD23R,0.07677X0.07677*%
%ADD24R,0.04356X0.04356*%
%ADD25C,0.05000*%
D10*
X0011800Y0001800D02*
X0011800Y0221761D01*
X0410501Y0221761D01*
X0410501Y0001800D01*
X0011800Y0001800D01*
X0018650Y0011800D02*
X0018652Y0011912D01*
X0018658Y0012023D01*
X0018668Y0012135D01*
X0018682Y0012246D01*
X0018699Y0012356D01*
X0018721Y0012466D01*
X0018747Y0012575D01*
X0018776Y0012683D01*
X0018809Y0012789D01*
X0018846Y0012895D01*
X0018887Y0012999D01*
X0018932Y0013102D01*
X0018980Y0013203D01*
X0019031Y0013302D01*
X0019086Y0013399D01*
X0019145Y0013494D01*
X0019206Y0013588D01*
X0019271Y0013679D01*
X0019340Y0013767D01*
X0019411Y0013853D01*
X0019485Y0013937D01*
X0019563Y0014017D01*
X0019643Y0014095D01*
X0019726Y0014171D01*
X0019811Y0014243D01*
X0019899Y0014312D01*
X0019989Y0014378D01*
X0020082Y0014440D01*
X0020177Y0014500D01*
X0020274Y0014556D01*
X0020372Y0014608D01*
X0020473Y0014657D01*
X0020575Y0014702D01*
X0020679Y0014744D01*
X0020784Y0014782D01*
X0020891Y0014816D01*
X0020998Y0014846D01*
X0021107Y0014873D01*
X0021216Y0014895D01*
X0021327Y0014914D01*
X0021437Y0014929D01*
X0021549Y0014940D01*
X0021660Y0014947D01*
X0021772Y0014950D01*
X0021884Y0014949D01*
X0021996Y0014944D01*
X0022107Y0014935D01*
X0022218Y0014922D01*
X0022329Y0014905D01*
X0022439Y0014885D01*
X0022548Y0014860D01*
X0022656Y0014832D01*
X0022763Y0014799D01*
X0022869Y0014763D01*
X0022973Y0014723D01*
X0023076Y0014680D01*
X0023178Y0014633D01*
X0023277Y0014582D01*
X0023375Y0014528D01*
X0023471Y0014470D01*
X0023565Y0014409D01*
X0023656Y0014345D01*
X0023745Y0014278D01*
X0023832Y0014207D01*
X0023916Y0014133D01*
X0023998Y0014057D01*
X0024076Y0013977D01*
X0024152Y0013895D01*
X0024225Y0013810D01*
X0024295Y0013723D01*
X0024361Y0013633D01*
X0024425Y0013541D01*
X0024485Y0013447D01*
X0024542Y0013351D01*
X0024595Y0013252D01*
X0024645Y0013152D01*
X0024691Y0013051D01*
X0024734Y0012947D01*
X0024773Y0012842D01*
X0024808Y0012736D01*
X0024839Y0012629D01*
X0024867Y0012520D01*
X0024890Y0012411D01*
X0024910Y0012301D01*
X0024926Y0012190D01*
X0024938Y0012079D01*
X0024946Y0011968D01*
X0024950Y0011856D01*
X0024950Y0011744D01*
X0024946Y0011632D01*
X0024938Y0011521D01*
X0024926Y0011410D01*
X0024910Y0011299D01*
X0024890Y0011189D01*
X0024867Y0011080D01*
X0024839Y0010971D01*
X0024808Y0010864D01*
X0024773Y0010758D01*
X0024734Y0010653D01*
X0024691Y0010549D01*
X0024645Y0010448D01*
X0024595Y0010348D01*
X0024542Y0010249D01*
X0024485Y0010153D01*
X0024425Y0010059D01*
X0024361Y0009967D01*
X0024295Y0009877D01*
X0024225Y0009790D01*
X0024152Y0009705D01*
X0024076Y0009623D01*
X0023998Y0009543D01*
X0023916Y0009467D01*
X0023832Y0009393D01*
X0023745Y0009322D01*
X0023656Y0009255D01*
X0023565Y0009191D01*
X0023471Y0009130D01*
X0023375Y0009072D01*
X0023277Y0009018D01*
X0023178Y0008967D01*
X0023076Y0008920D01*
X0022973Y0008877D01*
X0022869Y0008837D01*
X0022763Y0008801D01*
X0022656Y0008768D01*
X0022548Y0008740D01*
X0022439Y0008715D01*
X0022329Y0008695D01*
X0022218Y0008678D01*
X0022107Y0008665D01*
X0021996Y0008656D01*
X0021884Y0008651D01*
X0021772Y0008650D01*
X0021660Y0008653D01*
X0021549Y0008660D01*
X0021437Y0008671D01*
X0021327Y0008686D01*
X0021216Y0008705D01*
X0021107Y0008727D01*
X0020998Y0008754D01*
X0020891Y0008784D01*
X0020784Y0008818D01*
X0020679Y0008856D01*
X0020575Y0008898D01*
X0020473Y0008943D01*
X0020372Y0008992D01*
X0020274Y0009044D01*
X0020177Y0009100D01*
X0020082Y0009160D01*
X0019989Y0009222D01*
X0019899Y0009288D01*
X0019811Y0009357D01*
X0019726Y0009429D01*
X0019643Y0009505D01*
X0019563Y0009583D01*
X0019485Y0009663D01*
X0019411Y0009747D01*
X0019340Y0009833D01*
X0019271Y0009921D01*
X0019206Y0010012D01*
X0019145Y0010106D01*
X0019086Y0010201D01*
X0019031Y0010298D01*
X0018980Y0010397D01*
X0018932Y0010498D01*
X0018887Y0010601D01*
X0018846Y0010705D01*
X0018809Y0010811D01*
X0018776Y0010917D01*
X0018747Y0011025D01*
X0018721Y0011134D01*
X0018699Y0011244D01*
X0018682Y0011354D01*
X0018668Y0011465D01*
X0018658Y0011577D01*
X0018652Y0011688D01*
X0018650Y0011800D01*
X0096150Y0194300D02*
X0096152Y0194412D01*
X0096158Y0194523D01*
X0096168Y0194635D01*
X0096182Y0194746D01*
X0096199Y0194856D01*
X0096221Y0194966D01*
X0096247Y0195075D01*
X0096276Y0195183D01*
X0096309Y0195289D01*
X0096346Y0195395D01*
X0096387Y0195499D01*
X0096432Y0195602D01*
X0096480Y0195703D01*
X0096531Y0195802D01*
X0096586Y0195899D01*
X0096645Y0195994D01*
X0096706Y0196088D01*
X0096771Y0196179D01*
X0096840Y0196267D01*
X0096911Y0196353D01*
X0096985Y0196437D01*
X0097063Y0196517D01*
X0097143Y0196595D01*
X0097226Y0196671D01*
X0097311Y0196743D01*
X0097399Y0196812D01*
X0097489Y0196878D01*
X0097582Y0196940D01*
X0097677Y0197000D01*
X0097774Y0197056D01*
X0097872Y0197108D01*
X0097973Y0197157D01*
X0098075Y0197202D01*
X0098179Y0197244D01*
X0098284Y0197282D01*
X0098391Y0197316D01*
X0098498Y0197346D01*
X0098607Y0197373D01*
X0098716Y0197395D01*
X0098827Y0197414D01*
X0098937Y0197429D01*
X0099049Y0197440D01*
X0099160Y0197447D01*
X0099272Y0197450D01*
X0099384Y0197449D01*
X0099496Y0197444D01*
X0099607Y0197435D01*
X0099718Y0197422D01*
X0099829Y0197405D01*
X0099939Y0197385D01*
X0100048Y0197360D01*
X0100156Y0197332D01*
X0100263Y0197299D01*
X0100369Y0197263D01*
X0100473Y0197223D01*
X0100576Y0197180D01*
X0100678Y0197133D01*
X0100777Y0197082D01*
X0100875Y0197028D01*
X0100971Y0196970D01*
X0101065Y0196909D01*
X0101156Y0196845D01*
X0101245Y0196778D01*
X0101332Y0196707D01*
X0101416Y0196633D01*
X0101498Y0196557D01*
X0101576Y0196477D01*
X0101652Y0196395D01*
X0101725Y0196310D01*
X0101795Y0196223D01*
X0101861Y0196133D01*
X0101925Y0196041D01*
X0101985Y0195947D01*
X0102042Y0195851D01*
X0102095Y0195752D01*
X0102145Y0195652D01*
X0102191Y0195551D01*
X0102234Y0195447D01*
X0102273Y0195342D01*
X0102308Y0195236D01*
X0102339Y0195129D01*
X0102367Y0195020D01*
X0102390Y0194911D01*
X0102410Y0194801D01*
X0102426Y0194690D01*
X0102438Y0194579D01*
X0102446Y0194468D01*
X0102450Y0194356D01*
X0102450Y0194244D01*
X0102446Y0194132D01*
X0102438Y0194021D01*
X0102426Y0193910D01*
X0102410Y0193799D01*
X0102390Y0193689D01*
X0102367Y0193580D01*
X0102339Y0193471D01*
X0102308Y0193364D01*
X0102273Y0193258D01*
X0102234Y0193153D01*
X0102191Y0193049D01*
X0102145Y0192948D01*
X0102095Y0192848D01*
X0102042Y0192749D01*
X0101985Y0192653D01*
X0101925Y0192559D01*
X0101861Y0192467D01*
X0101795Y0192377D01*
X0101725Y0192290D01*
X0101652Y0192205D01*
X0101576Y0192123D01*
X0101498Y0192043D01*
X0101416Y0191967D01*
X0101332Y0191893D01*
X0101245Y0191822D01*
X0101156Y0191755D01*
X0101065Y0191691D01*
X0100971Y0191630D01*
X0100875Y0191572D01*
X0100777Y0191518D01*
X0100678Y0191467D01*
X0100576Y0191420D01*
X0100473Y0191377D01*
X0100369Y0191337D01*
X0100263Y0191301D01*
X0100156Y0191268D01*
X0100048Y0191240D01*
X0099939Y0191215D01*
X0099829Y0191195D01*
X0099718Y0191178D01*
X0099607Y0191165D01*
X0099496Y0191156D01*
X0099384Y0191151D01*
X0099272Y0191150D01*
X0099160Y0191153D01*
X0099049Y0191160D01*
X0098937Y0191171D01*
X0098827Y0191186D01*
X0098716Y0191205D01*
X0098607Y0191227D01*
X0098498Y0191254D01*
X0098391Y0191284D01*
X0098284Y0191318D01*
X0098179Y0191356D01*
X0098075Y0191398D01*
X0097973Y0191443D01*
X0097872Y0191492D01*
X0097774Y0191544D01*
X0097677Y0191600D01*
X0097582Y0191660D01*
X0097489Y0191722D01*
X0097399Y0191788D01*
X0097311Y0191857D01*
X0097226Y0191929D01*
X0097143Y0192005D01*
X0097063Y0192083D01*
X0096985Y0192163D01*
X0096911Y0192247D01*
X0096840Y0192333D01*
X0096771Y0192421D01*
X0096706Y0192512D01*
X0096645Y0192606D01*
X0096586Y0192701D01*
X0096531Y0192798D01*
X0096480Y0192897D01*
X0096432Y0192998D01*
X0096387Y0193101D01*
X0096346Y0193205D01*
X0096309Y0193311D01*
X0096276Y0193417D01*
X0096247Y0193525D01*
X0096221Y0193634D01*
X0096199Y0193744D01*
X0096182Y0193854D01*
X0096168Y0193965D01*
X0096158Y0194077D01*
X0096152Y0194188D01*
X0096150Y0194300D01*
X0066150Y0214300D02*
X0066152Y0214412D01*
X0066158Y0214523D01*
X0066168Y0214635D01*
X0066182Y0214746D01*
X0066199Y0214856D01*
X0066221Y0214966D01*
X0066247Y0215075D01*
X0066276Y0215183D01*
X0066309Y0215289D01*
X0066346Y0215395D01*
X0066387Y0215499D01*
X0066432Y0215602D01*
X0066480Y0215703D01*
X0066531Y0215802D01*
X0066586Y0215899D01*
X0066645Y0215994D01*
X0066706Y0216088D01*
X0066771Y0216179D01*
X0066840Y0216267D01*
X0066911Y0216353D01*
X0066985Y0216437D01*
X0067063Y0216517D01*
X0067143Y0216595D01*
X0067226Y0216671D01*
X0067311Y0216743D01*
X0067399Y0216812D01*
X0067489Y0216878D01*
X0067582Y0216940D01*
X0067677Y0217000D01*
X0067774Y0217056D01*
X0067872Y0217108D01*
X0067973Y0217157D01*
X0068075Y0217202D01*
X0068179Y0217244D01*
X0068284Y0217282D01*
X0068391Y0217316D01*
X0068498Y0217346D01*
X0068607Y0217373D01*
X0068716Y0217395D01*
X0068827Y0217414D01*
X0068937Y0217429D01*
X0069049Y0217440D01*
X0069160Y0217447D01*
X0069272Y0217450D01*
X0069384Y0217449D01*
X0069496Y0217444D01*
X0069607Y0217435D01*
X0069718Y0217422D01*
X0069829Y0217405D01*
X0069939Y0217385D01*
X0070048Y0217360D01*
X0070156Y0217332D01*
X0070263Y0217299D01*
X0070369Y0217263D01*
X0070473Y0217223D01*
X0070576Y0217180D01*
X0070678Y0217133D01*
X0070777Y0217082D01*
X0070875Y0217028D01*
X0070971Y0216970D01*
X0071065Y0216909D01*
X0071156Y0216845D01*
X0071245Y0216778D01*
X0071332Y0216707D01*
X0071416Y0216633D01*
X0071498Y0216557D01*
X0071576Y0216477D01*
X0071652Y0216395D01*
X0071725Y0216310D01*
X0071795Y0216223D01*
X0071861Y0216133D01*
X0071925Y0216041D01*
X0071985Y0215947D01*
X0072042Y0215851D01*
X0072095Y0215752D01*
X0072145Y0215652D01*
X0072191Y0215551D01*
X0072234Y0215447D01*
X0072273Y0215342D01*
X0072308Y0215236D01*
X0072339Y0215129D01*
X0072367Y0215020D01*
X0072390Y0214911D01*
X0072410Y0214801D01*
X0072426Y0214690D01*
X0072438Y0214579D01*
X0072446Y0214468D01*
X0072450Y0214356D01*
X0072450Y0214244D01*
X0072446Y0214132D01*
X0072438Y0214021D01*
X0072426Y0213910D01*
X0072410Y0213799D01*
X0072390Y0213689D01*
X0072367Y0213580D01*
X0072339Y0213471D01*
X0072308Y0213364D01*
X0072273Y0213258D01*
X0072234Y0213153D01*
X0072191Y0213049D01*
X0072145Y0212948D01*
X0072095Y0212848D01*
X0072042Y0212749D01*
X0071985Y0212653D01*
X0071925Y0212559D01*
X0071861Y0212467D01*
X0071795Y0212377D01*
X0071725Y0212290D01*
X0071652Y0212205D01*
X0071576Y0212123D01*
X0071498Y0212043D01*
X0071416Y0211967D01*
X0071332Y0211893D01*
X0071245Y0211822D01*
X0071156Y0211755D01*
X0071065Y0211691D01*
X0070971Y0211630D01*
X0070875Y0211572D01*
X0070777Y0211518D01*
X0070678Y0211467D01*
X0070576Y0211420D01*
X0070473Y0211377D01*
X0070369Y0211337D01*
X0070263Y0211301D01*
X0070156Y0211268D01*
X0070048Y0211240D01*
X0069939Y0211215D01*
X0069829Y0211195D01*
X0069718Y0211178D01*
X0069607Y0211165D01*
X0069496Y0211156D01*
X0069384Y0211151D01*
X0069272Y0211150D01*
X0069160Y0211153D01*
X0069049Y0211160D01*
X0068937Y0211171D01*
X0068827Y0211186D01*
X0068716Y0211205D01*
X0068607Y0211227D01*
X0068498Y0211254D01*
X0068391Y0211284D01*
X0068284Y0211318D01*
X0068179Y0211356D01*
X0068075Y0211398D01*
X0067973Y0211443D01*
X0067872Y0211492D01*
X0067774Y0211544D01*
X0067677Y0211600D01*
X0067582Y0211660D01*
X0067489Y0211722D01*
X0067399Y0211788D01*
X0067311Y0211857D01*
X0067226Y0211929D01*
X0067143Y0212005D01*
X0067063Y0212083D01*
X0066985Y0212163D01*
X0066911Y0212247D01*
X0066840Y0212333D01*
X0066771Y0212421D01*
X0066706Y0212512D01*
X0066645Y0212606D01*
X0066586Y0212701D01*
X0066531Y0212798D01*
X0066480Y0212897D01*
X0066432Y0212998D01*
X0066387Y0213101D01*
X0066346Y0213205D01*
X0066309Y0213311D01*
X0066276Y0213417D01*
X0066247Y0213525D01*
X0066221Y0213634D01*
X0066199Y0213744D01*
X0066182Y0213854D01*
X0066168Y0213965D01*
X0066158Y0214077D01*
X0066152Y0214188D01*
X0066150Y0214300D01*
X0018650Y0214300D02*
X0018652Y0214412D01*
X0018658Y0214523D01*
X0018668Y0214635D01*
X0018682Y0214746D01*
X0018699Y0214856D01*
X0018721Y0214966D01*
X0018747Y0215075D01*
X0018776Y0215183D01*
X0018809Y0215289D01*
X0018846Y0215395D01*
X0018887Y0215499D01*
X0018932Y0215602D01*
X0018980Y0215703D01*
X0019031Y0215802D01*
X0019086Y0215899D01*
X0019145Y0215994D01*
X0019206Y0216088D01*
X0019271Y0216179D01*
X0019340Y0216267D01*
X0019411Y0216353D01*
X0019485Y0216437D01*
X0019563Y0216517D01*
X0019643Y0216595D01*
X0019726Y0216671D01*
X0019811Y0216743D01*
X0019899Y0216812D01*
X0019989Y0216878D01*
X0020082Y0216940D01*
X0020177Y0217000D01*
X0020274Y0217056D01*
X0020372Y0217108D01*
X0020473Y0217157D01*
X0020575Y0217202D01*
X0020679Y0217244D01*
X0020784Y0217282D01*
X0020891Y0217316D01*
X0020998Y0217346D01*
X0021107Y0217373D01*
X0021216Y0217395D01*
X0021327Y0217414D01*
X0021437Y0217429D01*
X0021549Y0217440D01*
X0021660Y0217447D01*
X0021772Y0217450D01*
X0021884Y0217449D01*
X0021996Y0217444D01*
X0022107Y0217435D01*
X0022218Y0217422D01*
X0022329Y0217405D01*
X0022439Y0217385D01*
X0022548Y0217360D01*
X0022656Y0217332D01*
X0022763Y0217299D01*
X0022869Y0217263D01*
X0022973Y0217223D01*
X0023076Y0217180D01*
X0023178Y0217133D01*
X0023277Y0217082D01*
X0023375Y0217028D01*
X0023471Y0216970D01*
X0023565Y0216909D01*
X0023656Y0216845D01*
X0023745Y0216778D01*
X0023832Y0216707D01*
X0023916Y0216633D01*
X0023998Y0216557D01*
X0024076Y0216477D01*
X0024152Y0216395D01*
X0024225Y0216310D01*
X0024295Y0216223D01*
X0024361Y0216133D01*
X0024425Y0216041D01*
X0024485Y0215947D01*
X0024542Y0215851D01*
X0024595Y0215752D01*
X0024645Y0215652D01*
X0024691Y0215551D01*
X0024734Y0215447D01*
X0024773Y0215342D01*
X0024808Y0215236D01*
X0024839Y0215129D01*
X0024867Y0215020D01*
X0024890Y0214911D01*
X0024910Y0214801D01*
X0024926Y0214690D01*
X0024938Y0214579D01*
X0024946Y0214468D01*
X0024950Y0214356D01*
X0024950Y0214244D01*
X0024946Y0214132D01*
X0024938Y0214021D01*
X0024926Y0213910D01*
X0024910Y0213799D01*
X0024890Y0213689D01*
X0024867Y0213580D01*
X0024839Y0213471D01*
X0024808Y0213364D01*
X0024773Y0213258D01*
X0024734Y0213153D01*
X0024691Y0213049D01*
X0024645Y0212948D01*
X0024595Y0212848D01*
X0024542Y0212749D01*
X0024485Y0212653D01*
X0024425Y0212559D01*
X0024361Y0212467D01*
X0024295Y0212377D01*
X0024225Y0212290D01*
X0024152Y0212205D01*
X0024076Y0212123D01*
X0023998Y0212043D01*
X0023916Y0211967D01*
X0023832Y0211893D01*
X0023745Y0211822D01*
X0023656Y0211755D01*
X0023565Y0211691D01*
X0023471Y0211630D01*
X0023375Y0211572D01*
X0023277Y0211518D01*
X0023178Y0211467D01*
X0023076Y0211420D01*
X0022973Y0211377D01*
X0022869Y0211337D01*
X0022763Y0211301D01*
X0022656Y0211268D01*
X0022548Y0211240D01*
X0022439Y0211215D01*
X0022329Y0211195D01*
X0022218Y0211178D01*
X0022107Y0211165D01*
X0021996Y0211156D01*
X0021884Y0211151D01*
X0021772Y0211150D01*
X0021660Y0211153D01*
X0021549Y0211160D01*
X0021437Y0211171D01*
X0021327Y0211186D01*
X0021216Y0211205D01*
X0021107Y0211227D01*
X0020998Y0211254D01*
X0020891Y0211284D01*
X0020784Y0211318D01*
X0020679Y0211356D01*
X0020575Y0211398D01*
X0020473Y0211443D01*
X0020372Y0211492D01*
X0020274Y0211544D01*
X0020177Y0211600D01*
X0020082Y0211660D01*
X0019989Y0211722D01*
X0019899Y0211788D01*
X0019811Y0211857D01*
X0019726Y0211929D01*
X0019643Y0212005D01*
X0019563Y0212083D01*
X0019485Y0212163D01*
X0019411Y0212247D01*
X0019340Y0212333D01*
X0019271Y0212421D01*
X0019206Y0212512D01*
X0019145Y0212606D01*
X0019086Y0212701D01*
X0019031Y0212798D01*
X0018980Y0212897D01*
X0018932Y0212998D01*
X0018887Y0213101D01*
X0018846Y0213205D01*
X0018809Y0213311D01*
X0018776Y0213417D01*
X0018747Y0213525D01*
X0018721Y0213634D01*
X0018699Y0213744D01*
X0018682Y0213854D01*
X0018668Y0213965D01*
X0018658Y0214077D01*
X0018652Y0214188D01*
X0018650Y0214300D01*
X0168650Y0216800D02*
X0168652Y0216912D01*
X0168658Y0217023D01*
X0168668Y0217135D01*
X0168682Y0217246D01*
X0168699Y0217356D01*
X0168721Y0217466D01*
X0168747Y0217575D01*
X0168776Y0217683D01*
X0168809Y0217789D01*
X0168846Y0217895D01*
X0168887Y0217999D01*
X0168932Y0218102D01*
X0168980Y0218203D01*
X0169031Y0218302D01*
X0169086Y0218399D01*
X0169145Y0218494D01*
X0169206Y0218588D01*
X0169271Y0218679D01*
X0169340Y0218767D01*
X0169411Y0218853D01*
X0169485Y0218937D01*
X0169563Y0219017D01*
X0169643Y0219095D01*
X0169726Y0219171D01*
X0169811Y0219243D01*
X0169899Y0219312D01*
X0169989Y0219378D01*
X0170082Y0219440D01*
X0170177Y0219500D01*
X0170274Y0219556D01*
X0170372Y0219608D01*
X0170473Y0219657D01*
X0170575Y0219702D01*
X0170679Y0219744D01*
X0170784Y0219782D01*
X0170891Y0219816D01*
X0170998Y0219846D01*
X0171107Y0219873D01*
X0171216Y0219895D01*
X0171327Y0219914D01*
X0171437Y0219929D01*
X0171549Y0219940D01*
X0171660Y0219947D01*
X0171772Y0219950D01*
X0171884Y0219949D01*
X0171996Y0219944D01*
X0172107Y0219935D01*
X0172218Y0219922D01*
X0172329Y0219905D01*
X0172439Y0219885D01*
X0172548Y0219860D01*
X0172656Y0219832D01*
X0172763Y0219799D01*
X0172869Y0219763D01*
X0172973Y0219723D01*
X0173076Y0219680D01*
X0173178Y0219633D01*
X0173277Y0219582D01*
X0173375Y0219528D01*
X0173471Y0219470D01*
X0173565Y0219409D01*
X0173656Y0219345D01*
X0173745Y0219278D01*
X0173832Y0219207D01*
X0173916Y0219133D01*
X0173998Y0219057D01*
X0174076Y0218977D01*
X0174152Y0218895D01*
X0174225Y0218810D01*
X0174295Y0218723D01*
X0174361Y0218633D01*
X0174425Y0218541D01*
X0174485Y0218447D01*
X0174542Y0218351D01*
X0174595Y0218252D01*
X0174645Y0218152D01*
X0174691Y0218051D01*
X0174734Y0217947D01*
X0174773Y0217842D01*
X0174808Y0217736D01*
X0174839Y0217629D01*
X0174867Y0217520D01*
X0174890Y0217411D01*
X0174910Y0217301D01*
X0174926Y0217190D01*
X0174938Y0217079D01*
X0174946Y0216968D01*
X0174950Y0216856D01*
X0174950Y0216744D01*
X0174946Y0216632D01*
X0174938Y0216521D01*
X0174926Y0216410D01*
X0174910Y0216299D01*
X0174890Y0216189D01*
X0174867Y0216080D01*
X0174839Y0215971D01*
X0174808Y0215864D01*
X0174773Y0215758D01*
X0174734Y0215653D01*
X0174691Y0215549D01*
X0174645Y0215448D01*
X0174595Y0215348D01*
X0174542Y0215249D01*
X0174485Y0215153D01*
X0174425Y0215059D01*
X0174361Y0214967D01*
X0174295Y0214877D01*
X0174225Y0214790D01*
X0174152Y0214705D01*
X0174076Y0214623D01*
X0173998Y0214543D01*
X0173916Y0214467D01*
X0173832Y0214393D01*
X0173745Y0214322D01*
X0173656Y0214255D01*
X0173565Y0214191D01*
X0173471Y0214130D01*
X0173375Y0214072D01*
X0173277Y0214018D01*
X0173178Y0213967D01*
X0173076Y0213920D01*
X0172973Y0213877D01*
X0172869Y0213837D01*
X0172763Y0213801D01*
X0172656Y0213768D01*
X0172548Y0213740D01*
X0172439Y0213715D01*
X0172329Y0213695D01*
X0172218Y0213678D01*
X0172107Y0213665D01*
X0171996Y0213656D01*
X0171884Y0213651D01*
X0171772Y0213650D01*
X0171660Y0213653D01*
X0171549Y0213660D01*
X0171437Y0213671D01*
X0171327Y0213686D01*
X0171216Y0213705D01*
X0171107Y0213727D01*
X0170998Y0213754D01*
X0170891Y0213784D01*
X0170784Y0213818D01*
X0170679Y0213856D01*
X0170575Y0213898D01*
X0170473Y0213943D01*
X0170372Y0213992D01*
X0170274Y0214044D01*
X0170177Y0214100D01*
X0170082Y0214160D01*
X0169989Y0214222D01*
X0169899Y0214288D01*
X0169811Y0214357D01*
X0169726Y0214429D01*
X0169643Y0214505D01*
X0169563Y0214583D01*
X0169485Y0214663D01*
X0169411Y0214747D01*
X0169340Y0214833D01*
X0169271Y0214921D01*
X0169206Y0215012D01*
X0169145Y0215106D01*
X0169086Y0215201D01*
X0169031Y0215298D01*
X0168980Y0215397D01*
X0168932Y0215498D01*
X0168887Y0215601D01*
X0168846Y0215705D01*
X0168809Y0215811D01*
X0168776Y0215917D01*
X0168747Y0216025D01*
X0168721Y0216134D01*
X0168699Y0216244D01*
X0168682Y0216354D01*
X0168668Y0216465D01*
X0168658Y0216577D01*
X0168652Y0216688D01*
X0168650Y0216800D01*
X0198650Y0196800D02*
X0198652Y0196912D01*
X0198658Y0197023D01*
X0198668Y0197135D01*
X0198682Y0197246D01*
X0198699Y0197356D01*
X0198721Y0197466D01*
X0198747Y0197575D01*
X0198776Y0197683D01*
X0198809Y0197789D01*
X0198846Y0197895D01*
X0198887Y0197999D01*
X0198932Y0198102D01*
X0198980Y0198203D01*
X0199031Y0198302D01*
X0199086Y0198399D01*
X0199145Y0198494D01*
X0199206Y0198588D01*
X0199271Y0198679D01*
X0199340Y0198767D01*
X0199411Y0198853D01*
X0199485Y0198937D01*
X0199563Y0199017D01*
X0199643Y0199095D01*
X0199726Y0199171D01*
X0199811Y0199243D01*
X0199899Y0199312D01*
X0199989Y0199378D01*
X0200082Y0199440D01*
X0200177Y0199500D01*
X0200274Y0199556D01*
X0200372Y0199608D01*
X0200473Y0199657D01*
X0200575Y0199702D01*
X0200679Y0199744D01*
X0200784Y0199782D01*
X0200891Y0199816D01*
X0200998Y0199846D01*
X0201107Y0199873D01*
X0201216Y0199895D01*
X0201327Y0199914D01*
X0201437Y0199929D01*
X0201549Y0199940D01*
X0201660Y0199947D01*
X0201772Y0199950D01*
X0201884Y0199949D01*
X0201996Y0199944D01*
X0202107Y0199935D01*
X0202218Y0199922D01*
X0202329Y0199905D01*
X0202439Y0199885D01*
X0202548Y0199860D01*
X0202656Y0199832D01*
X0202763Y0199799D01*
X0202869Y0199763D01*
X0202973Y0199723D01*
X0203076Y0199680D01*
X0203178Y0199633D01*
X0203277Y0199582D01*
X0203375Y0199528D01*
X0203471Y0199470D01*
X0203565Y0199409D01*
X0203656Y0199345D01*
X0203745Y0199278D01*
X0203832Y0199207D01*
X0203916Y0199133D01*
X0203998Y0199057D01*
X0204076Y0198977D01*
X0204152Y0198895D01*
X0204225Y0198810D01*
X0204295Y0198723D01*
X0204361Y0198633D01*
X0204425Y0198541D01*
X0204485Y0198447D01*
X0204542Y0198351D01*
X0204595Y0198252D01*
X0204645Y0198152D01*
X0204691Y0198051D01*
X0204734Y0197947D01*
X0204773Y0197842D01*
X0204808Y0197736D01*
X0204839Y0197629D01*
X0204867Y0197520D01*
X0204890Y0197411D01*
X0204910Y0197301D01*
X0204926Y0197190D01*
X0204938Y0197079D01*
X0204946Y0196968D01*
X0204950Y0196856D01*
X0204950Y0196744D01*
X0204946Y0196632D01*
X0204938Y0196521D01*
X0204926Y0196410D01*
X0204910Y0196299D01*
X0204890Y0196189D01*
X0204867Y0196080D01*
X0204839Y0195971D01*
X0204808Y0195864D01*
X0204773Y0195758D01*
X0204734Y0195653D01*
X0204691Y0195549D01*
X0204645Y0195448D01*
X0204595Y0195348D01*
X0204542Y0195249D01*
X0204485Y0195153D01*
X0204425Y0195059D01*
X0204361Y0194967D01*
X0204295Y0194877D01*
X0204225Y0194790D01*
X0204152Y0194705D01*
X0204076Y0194623D01*
X0203998Y0194543D01*
X0203916Y0194467D01*
X0203832Y0194393D01*
X0203745Y0194322D01*
X0203656Y0194255D01*
X0203565Y0194191D01*
X0203471Y0194130D01*
X0203375Y0194072D01*
X0203277Y0194018D01*
X0203178Y0193967D01*
X0203076Y0193920D01*
X0202973Y0193877D01*
X0202869Y0193837D01*
X0202763Y0193801D01*
X0202656Y0193768D01*
X0202548Y0193740D01*
X0202439Y0193715D01*
X0202329Y0193695D01*
X0202218Y0193678D01*
X0202107Y0193665D01*
X0201996Y0193656D01*
X0201884Y0193651D01*
X0201772Y0193650D01*
X0201660Y0193653D01*
X0201549Y0193660D01*
X0201437Y0193671D01*
X0201327Y0193686D01*
X0201216Y0193705D01*
X0201107Y0193727D01*
X0200998Y0193754D01*
X0200891Y0193784D01*
X0200784Y0193818D01*
X0200679Y0193856D01*
X0200575Y0193898D01*
X0200473Y0193943D01*
X0200372Y0193992D01*
X0200274Y0194044D01*
X0200177Y0194100D01*
X0200082Y0194160D01*
X0199989Y0194222D01*
X0199899Y0194288D01*
X0199811Y0194357D01*
X0199726Y0194429D01*
X0199643Y0194505D01*
X0199563Y0194583D01*
X0199485Y0194663D01*
X0199411Y0194747D01*
X0199340Y0194833D01*
X0199271Y0194921D01*
X0199206Y0195012D01*
X0199145Y0195106D01*
X0199086Y0195201D01*
X0199031Y0195298D01*
X0198980Y0195397D01*
X0198932Y0195498D01*
X0198887Y0195601D01*
X0198846Y0195705D01*
X0198809Y0195811D01*
X0198776Y0195917D01*
X0198747Y0196025D01*
X0198721Y0196134D01*
X0198699Y0196244D01*
X0198682Y0196354D01*
X0198668Y0196465D01*
X0198658Y0196577D01*
X0198652Y0196688D01*
X0198650Y0196800D01*
X0398650Y0211800D02*
X0398652Y0211912D01*
X0398658Y0212023D01*
X0398668Y0212135D01*
X0398682Y0212246D01*
X0398699Y0212356D01*
X0398721Y0212466D01*
X0398747Y0212575D01*
X0398776Y0212683D01*
X0398809Y0212789D01*
X0398846Y0212895D01*
X0398887Y0212999D01*
X0398932Y0213102D01*
X0398980Y0213203D01*
X0399031Y0213302D01*
X0399086Y0213399D01*
X0399145Y0213494D01*
X0399206Y0213588D01*
X0399271Y0213679D01*
X0399340Y0213767D01*
X0399411Y0213853D01*
X0399485Y0213937D01*
X0399563Y0214017D01*
X0399643Y0214095D01*
X0399726Y0214171D01*
X0399811Y0214243D01*
X0399899Y0214312D01*
X0399989Y0214378D01*
X0400082Y0214440D01*
X0400177Y0214500D01*
X0400274Y0214556D01*
X0400372Y0214608D01*
X0400473Y0214657D01*
X0400575Y0214702D01*
X0400679Y0214744D01*
X0400784Y0214782D01*
X0400891Y0214816D01*
X0400998Y0214846D01*
X0401107Y0214873D01*
X0401216Y0214895D01*
X0401327Y0214914D01*
X0401437Y0214929D01*
X0401549Y0214940D01*
X0401660Y0214947D01*
X0401772Y0214950D01*
X0401884Y0214949D01*
X0401996Y0214944D01*
X0402107Y0214935D01*
X0402218Y0214922D01*
X0402329Y0214905D01*
X0402439Y0214885D01*
X0402548Y0214860D01*
X0402656Y0214832D01*
X0402763Y0214799D01*
X0402869Y0214763D01*
X0402973Y0214723D01*
X0403076Y0214680D01*
X0403178Y0214633D01*
X0403277Y0214582D01*
X0403375Y0214528D01*
X0403471Y0214470D01*
X0403565Y0214409D01*
X0403656Y0214345D01*
X0403745Y0214278D01*
X0403832Y0214207D01*
X0403916Y0214133D01*
X0403998Y0214057D01*
X0404076Y0213977D01*
X0404152Y0213895D01*
X0404225Y0213810D01*
X0404295Y0213723D01*
X0404361Y0213633D01*
X0404425Y0213541D01*
X0404485Y0213447D01*
X0404542Y0213351D01*
X0404595Y0213252D01*
X0404645Y0213152D01*
X0404691Y0213051D01*
X0404734Y0212947D01*
X0404773Y0212842D01*
X0404808Y0212736D01*
X0404839Y0212629D01*
X0404867Y0212520D01*
X0404890Y0212411D01*
X0404910Y0212301D01*
X0404926Y0212190D01*
X0404938Y0212079D01*
X0404946Y0211968D01*
X0404950Y0211856D01*
X0404950Y0211744D01*
X0404946Y0211632D01*
X0404938Y0211521D01*
X0404926Y0211410D01*
X0404910Y0211299D01*
X0404890Y0211189D01*
X0404867Y0211080D01*
X0404839Y0210971D01*
X0404808Y0210864D01*
X0404773Y0210758D01*
X0404734Y0210653D01*
X0404691Y0210549D01*
X0404645Y0210448D01*
X0404595Y0210348D01*
X0404542Y0210249D01*
X0404485Y0210153D01*
X0404425Y0210059D01*
X0404361Y0209967D01*
X0404295Y0209877D01*
X0404225Y0209790D01*
X0404152Y0209705D01*
X0404076Y0209623D01*
X0403998Y0209543D01*
X0403916Y0209467D01*
X0403832Y0209393D01*
X0403745Y0209322D01*
X0403656Y0209255D01*
X0403565Y0209191D01*
X0403471Y0209130D01*
X0403375Y0209072D01*
X0403277Y0209018D01*
X0403178Y0208967D01*
X0403076Y0208920D01*
X0402973Y0208877D01*
X0402869Y0208837D01*
X0402763Y0208801D01*
X0402656Y0208768D01*
X0402548Y0208740D01*
X0402439Y0208715D01*
X0402329Y0208695D01*
X0402218Y0208678D01*
X0402107Y0208665D01*
X0401996Y0208656D01*
X0401884Y0208651D01*
X0401772Y0208650D01*
X0401660Y0208653D01*
X0401549Y0208660D01*
X0401437Y0208671D01*
X0401327Y0208686D01*
X0401216Y0208705D01*
X0401107Y0208727D01*
X0400998Y0208754D01*
X0400891Y0208784D01*
X0400784Y0208818D01*
X0400679Y0208856D01*
X0400575Y0208898D01*
X0400473Y0208943D01*
X0400372Y0208992D01*
X0400274Y0209044D01*
X0400177Y0209100D01*
X0400082Y0209160D01*
X0399989Y0209222D01*
X0399899Y0209288D01*
X0399811Y0209357D01*
X0399726Y0209429D01*
X0399643Y0209505D01*
X0399563Y0209583D01*
X0399485Y0209663D01*
X0399411Y0209747D01*
X0399340Y0209833D01*
X0399271Y0209921D01*
X0399206Y0210012D01*
X0399145Y0210106D01*
X0399086Y0210201D01*
X0399031Y0210298D01*
X0398980Y0210397D01*
X0398932Y0210498D01*
X0398887Y0210601D01*
X0398846Y0210705D01*
X0398809Y0210811D01*
X0398776Y0210917D01*
X0398747Y0211025D01*
X0398721Y0211134D01*
X0398699Y0211244D01*
X0398682Y0211354D01*
X0398668Y0211465D01*
X0398658Y0211577D01*
X0398652Y0211688D01*
X0398650Y0211800D01*
X0398650Y0011800D02*
X0398652Y0011912D01*
X0398658Y0012023D01*
X0398668Y0012135D01*
X0398682Y0012246D01*
X0398699Y0012356D01*
X0398721Y0012466D01*
X0398747Y0012575D01*
X0398776Y0012683D01*
X0398809Y0012789D01*
X0398846Y0012895D01*
X0398887Y0012999D01*
X0398932Y0013102D01*
X0398980Y0013203D01*
X0399031Y0013302D01*
X0399086Y0013399D01*
X0399145Y0013494D01*
X0399206Y0013588D01*
X0399271Y0013679D01*
X0399340Y0013767D01*
X0399411Y0013853D01*
X0399485Y0013937D01*
X0399563Y0014017D01*
X0399643Y0014095D01*
X0399726Y0014171D01*
X0399811Y0014243D01*
X0399899Y0014312D01*
X0399989Y0014378D01*
X0400082Y0014440D01*
X0400177Y0014500D01*
X0400274Y0014556D01*
X0400372Y0014608D01*
X0400473Y0014657D01*
X0400575Y0014702D01*
X0400679Y0014744D01*
X0400784Y0014782D01*
X0400891Y0014816D01*
X0400998Y0014846D01*
X0401107Y0014873D01*
X0401216Y0014895D01*
X0401327Y0014914D01*
X0401437Y0014929D01*
X0401549Y0014940D01*
X0401660Y0014947D01*
X0401772Y0014950D01*
X0401884Y0014949D01*
X0401996Y0014944D01*
X0402107Y0014935D01*
X0402218Y0014922D01*
X0402329Y0014905D01*
X0402439Y0014885D01*
X0402548Y0014860D01*
X0402656Y0014832D01*
X0402763Y0014799D01*
X0402869Y0014763D01*
X0402973Y0014723D01*
X0403076Y0014680D01*
X0403178Y0014633D01*
X0403277Y0014582D01*
X0403375Y0014528D01*
X0403471Y0014470D01*
X0403565Y0014409D01*
X0403656Y0014345D01*
X0403745Y0014278D01*
X0403832Y0014207D01*
X0403916Y0014133D01*
X0403998Y0014057D01*
X0404076Y0013977D01*
X0404152Y0013895D01*
X0404225Y0013810D01*
X0404295Y0013723D01*
X0404361Y0013633D01*
X0404425Y0013541D01*
X0404485Y0013447D01*
X0404542Y0013351D01*
X0404595Y0013252D01*
X0404645Y0013152D01*
X0404691Y0013051D01*
X0404734Y0012947D01*
X0404773Y0012842D01*
X0404808Y0012736D01*
X0404839Y0012629D01*
X0404867Y0012520D01*
X0404890Y0012411D01*
X0404910Y0012301D01*
X0404926Y0012190D01*
X0404938Y0012079D01*
X0404946Y0011968D01*
X0404950Y0011856D01*
X0404950Y0011744D01*
X0404946Y0011632D01*
X0404938Y0011521D01*
X0404926Y0011410D01*
X0404910Y0011299D01*
X0404890Y0011189D01*
X0404867Y0011080D01*
X0404839Y0010971D01*
X0404808Y0010864D01*
X0404773Y0010758D01*
X0404734Y0010653D01*
X0404691Y0010549D01*
X0404645Y0010448D01*
X0404595Y0010348D01*
X0404542Y0010249D01*
X0404485Y0010153D01*
X0404425Y0010059D01*
X0404361Y0009967D01*
X0404295Y0009877D01*
X0404225Y0009790D01*
X0404152Y0009705D01*
X0404076Y0009623D01*
X0403998Y0009543D01*
X0403916Y0009467D01*
X0403832Y0009393D01*
X0403745Y0009322D01*
X0403656Y0009255D01*
X0403565Y0009191D01*
X0403471Y0009130D01*
X0403375Y0009072D01*
X0403277Y0009018D01*
X0403178Y0008967D01*
X0403076Y0008920D01*
X0402973Y0008877D01*
X0402869Y0008837D01*
X0402763Y0008801D01*
X0402656Y0008768D01*
X0402548Y0008740D01*
X0402439Y0008715D01*
X0402329Y0008695D01*
X0402218Y0008678D01*
X0402107Y0008665D01*
X0401996Y0008656D01*
X0401884Y0008651D01*
X0401772Y0008650D01*
X0401660Y0008653D01*
X0401549Y0008660D01*
X0401437Y0008671D01*
X0401327Y0008686D01*
X0401216Y0008705D01*
X0401107Y0008727D01*
X0400998Y0008754D01*
X0400891Y0008784D01*
X0400784Y0008818D01*
X0400679Y0008856D01*
X0400575Y0008898D01*
X0400473Y0008943D01*
X0400372Y0008992D01*
X0400274Y0009044D01*
X0400177Y0009100D01*
X0400082Y0009160D01*
X0399989Y0009222D01*
X0399899Y0009288D01*
X0399811Y0009357D01*
X0399726Y0009429D01*
X0399643Y0009505D01*
X0399563Y0009583D01*
X0399485Y0009663D01*
X0399411Y0009747D01*
X0399340Y0009833D01*
X0399271Y0009921D01*
X0399206Y0010012D01*
X0399145Y0010106D01*
X0399086Y0010201D01*
X0399031Y0010298D01*
X0398980Y0010397D01*
X0398932Y0010498D01*
X0398887Y0010601D01*
X0398846Y0010705D01*
X0398809Y0010811D01*
X0398776Y0010917D01*
X0398747Y0011025D01*
X0398721Y0011134D01*
X0398699Y0011244D01*
X0398682Y0011354D01*
X0398668Y0011465D01*
X0398658Y0011577D01*
X0398652Y0011688D01*
X0398650Y0011800D01*
D11*
X0316800Y0076800D03*
X0316800Y0086800D03*
X0326800Y0136800D03*
X0336800Y0136800D03*
X0336800Y0146800D03*
X0326800Y0146800D03*
X0106800Y0091800D03*
X0096800Y0091800D03*
X0049300Y0079300D03*
X0039300Y0079300D03*
X0049300Y0136800D03*
X0059300Y0136800D03*
D12*
X0301800Y0201800D03*
X0311800Y0201800D03*
X0321800Y0201800D03*
X0331800Y0201800D03*
X0341800Y0201800D03*
X0351800Y0201800D03*
X0361800Y0201800D03*
X0371800Y0201800D03*
X0381800Y0201800D03*
X0381800Y0211800D03*
X0371800Y0211800D03*
X0361800Y0211800D03*
X0351800Y0211800D03*
X0341800Y0211800D03*
X0331800Y0211800D03*
X0321800Y0211800D03*
X0311800Y0211800D03*
X0301800Y0211800D03*
X0331800Y0046800D03*
X0351800Y0046800D03*
X0351800Y0026800D03*
X0331800Y0026800D03*
D13*
X0266800Y0183257D03*
D14*
X0247902Y0194477D03*
X0266800Y0207863D03*
D15*
X0241800Y0139300D03*
X0231800Y0139300D03*
X0221800Y0139300D03*
X0211800Y0139300D03*
D16*
X0256800Y0129400D02*
X0256800Y0124200D01*
X0266800Y0124200D02*
X0266800Y0129400D01*
X0276800Y0129400D02*
X0276800Y0124200D01*
X0286800Y0124200D02*
X0286800Y0129400D01*
X0296800Y0129400D02*
X0296800Y0124200D01*
X0306800Y0124200D02*
X0306800Y0129400D01*
X0316800Y0129400D02*
X0316800Y0124200D01*
X0326800Y0124200D02*
X0326800Y0129400D01*
X0336800Y0129400D02*
X0336800Y0124200D01*
X0346800Y0124200D02*
X0346800Y0129400D01*
X0356800Y0129400D02*
X0356800Y0124200D01*
X0366800Y0124200D02*
X0366800Y0129400D01*
X0376800Y0129400D02*
X0376800Y0124200D01*
X0386800Y0124200D02*
X0386800Y0129400D01*
X0386800Y0099400D02*
X0386800Y0094200D01*
X0376800Y0094200D02*
X0376800Y0099400D01*
X0366800Y0099400D02*
X0366800Y0094200D01*
X0356800Y0094200D02*
X0356800Y0099400D01*
X0346800Y0099400D02*
X0346800Y0094200D01*
X0336800Y0094200D02*
X0336800Y0099400D01*
X0326800Y0099400D02*
X0326800Y0094200D01*
X0316800Y0094200D02*
X0316800Y0099400D01*
X0306800Y0099400D02*
X0306800Y0094200D01*
X0296800Y0094200D02*
X0296800Y0099400D01*
X0286800Y0099400D02*
X0286800Y0094200D01*
X0276800Y0094200D02*
X0276800Y0099400D01*
X0266800Y0099400D02*
X0266800Y0094200D01*
X0256800Y0094200D02*
X0256800Y0099400D01*
X0181800Y0082000D02*
X0181800Y0076800D01*
X0171800Y0076800D02*
X0171800Y0082000D01*
X0161800Y0082000D02*
X0161800Y0076800D01*
X0151800Y0076800D02*
X0151800Y0082000D01*
X0136800Y0082000D02*
X0136800Y0076800D01*
X0126800Y0076800D02*
X0126800Y0082000D01*
X0116800Y0082000D02*
X0116800Y0076800D01*
X0106800Y0076800D02*
X0106800Y0082000D01*
X0086800Y0082000D02*
X0086800Y0076800D01*
X0076800Y0076800D02*
X0076800Y0082000D01*
X0066800Y0082000D02*
X0066800Y0076800D01*
X0056800Y0076800D02*
X0056800Y0082000D01*
X0066800Y0104200D02*
X0066800Y0109400D01*
X0076800Y0109400D02*
X0076800Y0104200D01*
X0086800Y0104200D02*
X0086800Y0109400D01*
X0096800Y0109400D02*
X0096800Y0104200D01*
X0096800Y0134200D02*
X0096800Y0139400D01*
X0086800Y0139400D02*
X0086800Y0134200D01*
X0076800Y0134200D02*
X0076800Y0139400D01*
X0066800Y0139400D02*
X0066800Y0134200D01*
X0066800Y0046800D02*
X0066800Y0041600D01*
X0056800Y0041600D02*
X0056800Y0046800D01*
X0076800Y0046800D02*
X0076800Y0041600D01*
X0086800Y0041600D02*
X0086800Y0046800D01*
X0106800Y0046800D02*
X0106800Y0041600D01*
X0116800Y0041600D02*
X0116800Y0046800D01*
X0126800Y0046800D02*
X0126800Y0041600D01*
X0136800Y0041600D02*
X0136800Y0046800D01*
X0151800Y0046800D02*
X0151800Y0041600D01*
X0161800Y0041600D02*
X0161800Y0046800D01*
X0171800Y0046800D02*
X0171800Y0041600D01*
X0181800Y0041600D02*
X0181800Y0046800D01*
D17*
X0251800Y0034800D02*
X0251800Y0028800D01*
X0261800Y0028800D02*
X0261800Y0034800D01*
X0271800Y0034800D02*
X0271800Y0028800D01*
X0281800Y0028800D02*
X0281800Y0034800D01*
X0278800Y0051800D02*
X0284800Y0051800D01*
X0284800Y0061800D02*
X0278800Y0061800D01*
X0278800Y0071800D02*
X0284800Y0071800D01*
X0368800Y0056800D02*
X0374800Y0056800D01*
X0388800Y0056800D02*
X0394800Y0056800D01*
X0394800Y0046800D02*
X0388800Y0046800D01*
X0374800Y0046800D02*
X0368800Y0046800D01*
X0368800Y0036800D02*
X0374800Y0036800D01*
X0388800Y0036800D02*
X0394800Y0036800D01*
X0369800Y0141800D02*
X0363800Y0141800D01*
X0349800Y0141800D02*
X0343800Y0141800D01*
X0343800Y0151800D02*
X0349800Y0151800D01*
X0363800Y0151800D02*
X0369800Y0151800D01*
X0369800Y0161800D02*
X0363800Y0161800D01*
X0349800Y0161800D02*
X0343800Y0161800D01*
D18*
X0351300Y0061800D03*
X0332300Y0061800D03*
D19*
X0306800Y0071800D03*
X0296800Y0066800D03*
X0266800Y0051800D03*
X0226800Y0051800D03*
X0181800Y0031800D03*
X0161800Y0031800D03*
X0146800Y0024300D03*
X0126800Y0024300D03*
X0096800Y0011800D03*
X0076800Y0011800D03*
X0161800Y0091800D03*
X0176800Y0101800D03*
X0161800Y0111800D03*
X0176800Y0121800D03*
X0226800Y0096800D03*
X0246800Y0096800D03*
X0296800Y0086800D03*
X0331800Y0081800D03*
X0351800Y0081800D03*
X0361800Y0076800D03*
X0366800Y0086800D03*
X0381800Y0076800D03*
X0386800Y0086800D03*
X0306800Y0031800D03*
X0286800Y0016800D03*
X0326800Y0016800D03*
X0034300Y0121800D03*
X0034300Y0141800D03*
D20*
X0084300Y0161780D03*
X0051820Y0201820D03*
X0186800Y0181800D03*
X0186800Y0161800D03*
D21*
X0171800Y0161800D03*
X0201800Y0161800D03*
X0099300Y0176800D03*
X0069300Y0179300D03*
D22*
X0070075Y0179235D02*
X0074851Y0179235D01*
X0075044Y0179428D02*
X0074172Y0178556D01*
X0074159Y0178525D01*
X0070075Y0178525D01*
X0070075Y0180075D01*
X0068525Y0180075D01*
X0068525Y0185779D01*
X0068024Y0185713D01*
X0067198Y0185491D01*
X0066408Y0185164D01*
X0065667Y0184736D01*
X0064989Y0184216D01*
X0064384Y0183611D01*
X0063864Y0182933D01*
X0063436Y0182192D01*
X0063109Y0181402D01*
X0062887Y0180576D01*
X0062821Y0180075D01*
X0068525Y0180075D01*
X0068525Y0178525D01*
X0070075Y0178525D01*
X0070075Y0172821D01*
X0070576Y0172887D01*
X0071402Y0173109D01*
X0072192Y0173436D01*
X0072933Y0173864D01*
X0073611Y0174384D01*
X0073700Y0174473D01*
X0073700Y0143230D01*
X0072646Y0142176D01*
X0071900Y0140375D01*
X0071900Y0133225D01*
X0072646Y0131424D01*
X0074024Y0130046D01*
X0075825Y0129300D01*
X0077775Y0129300D01*
X0079576Y0130046D01*
X0080954Y0131424D01*
X0081700Y0133225D01*
X0081700Y0140375D01*
X0080954Y0142176D01*
X0079900Y0143230D01*
X0079900Y0157917D01*
X0080990Y0156827D01*
X0083138Y0155937D01*
X0085462Y0155937D01*
X0087610Y0156827D01*
X0089254Y0158470D01*
X0090143Y0160618D01*
X0090143Y0162943D01*
X0089254Y0165090D01*
X0087610Y0166734D01*
X0085462Y0167624D01*
X0083138Y0167624D01*
X0080990Y0166734D01*
X0079900Y0165644D01*
X0079900Y0173700D01*
X0092981Y0173700D01*
X0093345Y0172821D01*
X0095321Y0170845D01*
X0097903Y0169776D01*
X0100697Y0169776D01*
X0103279Y0170845D01*
X0105255Y0172821D01*
X0105619Y0173700D01*
X0168700Y0173700D01*
X0168700Y0168119D01*
X0167821Y0167755D01*
X0165845Y0165779D01*
X0164776Y0163197D01*
X0164776Y0160403D01*
X0165845Y0157821D01*
X0167821Y0155845D01*
X0170403Y0154776D01*
X0173197Y0154776D01*
X0175779Y0155845D01*
X0177755Y0157821D01*
X0178824Y0160403D01*
X0178824Y0163197D01*
X0177755Y0165779D01*
X0175779Y0167755D01*
X0174900Y0168119D01*
X0174900Y0177417D01*
X0174428Y0178556D01*
X0173556Y0179428D01*
X0172417Y0179900D01*
X0105619Y0179900D01*
X0105255Y0180779D01*
X0103279Y0182755D01*
X0100697Y0183824D01*
X0097903Y0183824D01*
X0095321Y0182755D01*
X0093345Y0180779D01*
X0092981Y0179900D01*
X0076183Y0179900D01*
X0075044Y0179428D01*
X0075779Y0180075D02*
X0075713Y0180576D01*
X0075491Y0181402D01*
X0075164Y0182192D01*
X0074736Y0182933D01*
X0074216Y0183611D01*
X0073611Y0184216D01*
X0072933Y0184736D01*
X0072192Y0185164D01*
X0071402Y0185491D01*
X0070576Y0185713D01*
X0070075Y0185779D01*
X0070075Y0180075D01*
X0075779Y0180075D01*
X0075644Y0180833D02*
X0093399Y0180833D01*
X0094998Y0182432D02*
X0075026Y0182432D01*
X0073797Y0184030D02*
X0181939Y0184030D01*
X0181848Y0183851D02*
X0181588Y0183051D01*
X0181457Y0182221D01*
X0181457Y0182181D01*
X0186419Y0182181D01*
X0186419Y0181419D01*
X0187181Y0181419D01*
X0187181Y0182181D01*
X0192143Y0182181D01*
X0192143Y0182221D01*
X0192012Y0183051D01*
X0191752Y0183851D01*
X0191370Y0184600D01*
X0190876Y0185281D01*
X0190281Y0185876D01*
X0189600Y0186370D01*
X0188851Y0186752D01*
X0188051Y0187012D01*
X0187221Y0187143D01*
X0187181Y0187143D01*
X0187181Y0182181D01*
X0186419Y0182181D01*
X0186419Y0187143D01*
X0186379Y0187143D01*
X0185549Y0187012D01*
X0184749Y0186752D01*
X0183999Y0186370D01*
X0183319Y0185876D01*
X0182724Y0185281D01*
X0182230Y0184600D01*
X0181848Y0183851D01*
X0181490Y0182432D02*
X0103602Y0182432D01*
X0105201Y0180833D02*
X0181543Y0180833D01*
X0181588Y0180549D02*
X0181457Y0181379D01*
X0181457Y0181419D01*
X0186419Y0181419D01*
X0186419Y0176457D01*
X0186379Y0176457D01*
X0185549Y0176588D01*
X0184749Y0176848D01*
X0183999Y0177230D01*
X0183319Y0177724D01*
X0182724Y0178319D01*
X0182230Y0178999D01*
X0181848Y0179749D01*
X0181588Y0180549D01*
X0182110Y0179235D02*
X0173749Y0179235D01*
X0174809Y0177636D02*
X0183440Y0177636D01*
X0186419Y0177636D02*
X0187181Y0177636D01*
X0187181Y0176457D02*
X0187221Y0176457D01*
X0188051Y0176588D01*
X0188851Y0176848D01*
X0189600Y0177230D01*
X0190281Y0177724D01*
X0190876Y0178319D01*
X0191370Y0178999D01*
X0191752Y0179749D01*
X0192012Y0180549D01*
X0192143Y0181379D01*
X0192143Y0181419D01*
X0187181Y0181419D01*
X0187181Y0176457D01*
X0187181Y0179235D02*
X0186419Y0179235D01*
X0186419Y0180833D02*
X0187181Y0180833D01*
X0187181Y0182432D02*
X0186419Y0182432D01*
X0186419Y0184030D02*
X0187181Y0184030D01*
X0187181Y0185629D02*
X0186419Y0185629D01*
X0183072Y0185629D02*
X0070889Y0185629D01*
X0070075Y0185629D02*
X0068525Y0185629D01*
X0067711Y0185629D02*
X0016600Y0185629D01*
X0016600Y0187227D02*
X0095602Y0187227D01*
X0094797Y0187561D02*
X0097719Y0186350D01*
X0100881Y0186350D01*
X0103803Y0187561D01*
X0106039Y0189797D01*
X0107250Y0192719D01*
X0107250Y0195881D01*
X0106039Y0198803D01*
X0103803Y0201039D01*
X0100881Y0202250D01*
X0097719Y0202250D01*
X0094797Y0201039D01*
X0092561Y0198803D01*
X0091350Y0195881D01*
X0091350Y0192719D01*
X0092561Y0189797D01*
X0094797Y0187561D01*
X0093532Y0188826D02*
X0016600Y0188826D01*
X0016600Y0190424D02*
X0092301Y0190424D01*
X0091639Y0192023D02*
X0016600Y0192023D01*
X0016600Y0193621D02*
X0091350Y0193621D01*
X0091350Y0195220D02*
X0016600Y0195220D01*
X0016600Y0196818D02*
X0049921Y0196818D01*
X0049769Y0196868D02*
X0050568Y0196608D01*
X0051399Y0196476D01*
X0051439Y0196476D01*
X0051439Y0201438D01*
X0052201Y0201438D01*
X0052201Y0196476D01*
X0052240Y0196476D01*
X0053071Y0196608D01*
X0053871Y0196868D01*
X0054620Y0197250D01*
X0055301Y0197744D01*
X0055895Y0198339D01*
X0056390Y0199019D01*
X0056772Y0199769D01*
X0057031Y0200568D01*
X0057163Y0201399D01*
X0057163Y0201439D01*
X0052201Y0201439D01*
X0052201Y0202201D01*
X0057163Y0202201D01*
X0057163Y0202240D01*
X0057031Y0203071D01*
X0056772Y0203871D01*
X0056390Y0204620D01*
X0055895Y0205301D01*
X0055301Y0205895D01*
X0054620Y0206390D01*
X0053871Y0206772D01*
X0053071Y0207031D01*
X0052240Y0207163D01*
X0052201Y0207163D01*
X0052201Y0202201D01*
X0051439Y0202201D01*
X0051439Y0207163D01*
X0051399Y0207163D01*
X0050568Y0207031D01*
X0049769Y0206772D01*
X0049019Y0206390D01*
X0048339Y0205895D01*
X0047744Y0205301D01*
X0047250Y0204620D01*
X0046868Y0203871D01*
X0046608Y0203071D01*
X0046476Y0202240D01*
X0046476Y0202201D01*
X0051438Y0202201D01*
X0051438Y0201439D01*
X0046476Y0201439D01*
X0046476Y0201399D01*
X0046608Y0200568D01*
X0046868Y0199769D01*
X0047250Y0199019D01*
X0047744Y0198339D01*
X0048339Y0197744D01*
X0049019Y0197250D01*
X0049769Y0196868D01*
X0051439Y0196818D02*
X0052201Y0196818D01*
X0053719Y0196818D02*
X0091739Y0196818D01*
X0092401Y0198417D02*
X0055952Y0198417D01*
X0056852Y0200015D02*
X0093773Y0200015D01*
X0096184Y0201614D02*
X0052201Y0201614D01*
X0051438Y0201614D02*
X0016600Y0201614D01*
X0016600Y0203212D02*
X0046654Y0203212D01*
X0047388Y0204811D02*
X0016600Y0204811D01*
X0016600Y0206409D02*
X0020076Y0206409D01*
X0020219Y0206350D02*
X0023381Y0206350D01*
X0026303Y0207561D01*
X0028539Y0209797D01*
X0029750Y0212719D01*
X0029750Y0215881D01*
X0029302Y0216961D01*
X0061797Y0216961D01*
X0061350Y0215881D01*
X0061350Y0212719D01*
X0062561Y0209797D01*
X0064797Y0207561D01*
X0067719Y0206350D01*
X0070881Y0206350D01*
X0073803Y0207561D01*
X0076039Y0209797D01*
X0077250Y0212719D01*
X0077250Y0215881D01*
X0076803Y0216961D01*
X0163850Y0216961D01*
X0163850Y0215219D01*
X0165061Y0212297D01*
X0167297Y0210061D01*
X0170219Y0208850D01*
X0173381Y0208850D01*
X0176303Y0210061D01*
X0178539Y0212297D01*
X0179750Y0215219D01*
X0179750Y0216961D01*
X0221800Y0216961D01*
X0221800Y0139300D01*
X0221800Y0139300D01*
X0221800Y0143675D01*
X0221456Y0143675D01*
X0220776Y0143567D01*
X0220121Y0143354D01*
X0219507Y0143042D01*
X0218950Y0142637D01*
X0218463Y0142150D01*
X0218058Y0141593D01*
X0217746Y0140979D01*
X0217533Y0140324D01*
X0217425Y0139644D01*
X0217425Y0139300D01*
X0221800Y0139300D01*
X0221800Y0139300D01*
X0217425Y0139300D01*
X0217425Y0138956D01*
X0217533Y0138276D01*
X0217746Y0137621D01*
X0218058Y0137007D01*
X0218209Y0136800D01*
X0216041Y0136800D01*
X0216675Y0138330D01*
X0216675Y0140270D01*
X0215933Y0142061D01*
X0214561Y0143433D01*
X0212770Y0144175D01*
X0210830Y0144175D01*
X0209039Y0143433D01*
X0207667Y0142061D01*
X0206925Y0140270D01*
X0206925Y0138330D01*
X0207559Y0136800D01*
X0191800Y0136800D01*
X0191800Y0061800D01*
X0016600Y0061800D01*
X0016600Y0208258D01*
X0017297Y0207561D01*
X0020219Y0206350D01*
X0023524Y0206409D02*
X0049058Y0206409D01*
X0051439Y0206409D02*
X0052201Y0206409D01*
X0052201Y0204811D02*
X0051439Y0204811D01*
X0051439Y0203212D02*
X0052201Y0203212D01*
X0052201Y0200015D02*
X0051439Y0200015D01*
X0051439Y0198417D02*
X0052201Y0198417D01*
X0047687Y0198417D02*
X0016600Y0198417D01*
X0016600Y0200015D02*
X0046788Y0200015D01*
X0054581Y0206409D02*
X0067576Y0206409D01*
X0071024Y0206409D02*
X0221800Y0206409D01*
X0221800Y0204811D02*
X0056251Y0204811D01*
X0056985Y0203212D02*
X0196970Y0203212D01*
X0197297Y0203539D02*
X0195061Y0201303D01*
X0193850Y0198381D01*
X0193850Y0195219D01*
X0195061Y0192297D01*
X0197297Y0190061D01*
X0200219Y0188850D01*
X0203381Y0188850D01*
X0206303Y0190061D01*
X0208539Y0192297D01*
X0209750Y0195219D01*
X0209750Y0198381D01*
X0208539Y0201303D01*
X0206303Y0203539D01*
X0203381Y0204750D01*
X0200219Y0204750D01*
X0197297Y0203539D01*
X0195371Y0201614D02*
X0102416Y0201614D01*
X0104827Y0200015D02*
X0194527Y0200015D01*
X0193865Y0198417D02*
X0106199Y0198417D01*
X0106861Y0196818D02*
X0193850Y0196818D01*
X0193850Y0195220D02*
X0107250Y0195220D01*
X0107250Y0193621D02*
X0194512Y0193621D01*
X0195335Y0192023D02*
X0106961Y0192023D01*
X0106299Y0190424D02*
X0196933Y0190424D01*
X0190528Y0185629D02*
X0221800Y0185629D01*
X0221800Y0187227D02*
X0102998Y0187227D01*
X0105068Y0188826D02*
X0221800Y0188826D01*
X0221800Y0190424D02*
X0206667Y0190424D01*
X0208265Y0192023D02*
X0221800Y0192023D01*
X0221800Y0193621D02*
X0209088Y0193621D01*
X0209750Y0195220D02*
X0221800Y0195220D01*
X0221800Y0196818D02*
X0209750Y0196818D01*
X0209735Y0198417D02*
X0221800Y0198417D01*
X0221800Y0200015D02*
X0209073Y0200015D01*
X0208229Y0201614D02*
X0221800Y0201614D01*
X0221800Y0203212D02*
X0206630Y0203212D01*
X0221800Y0208008D02*
X0074250Y0208008D01*
X0075849Y0209606D02*
X0168393Y0209606D01*
X0166153Y0211205D02*
X0076623Y0211205D01*
X0077250Y0212803D02*
X0164851Y0212803D01*
X0164189Y0214402D02*
X0077250Y0214402D01*
X0077200Y0216001D02*
X0163850Y0216001D01*
X0175207Y0209606D02*
X0221800Y0209606D01*
X0221800Y0211205D02*
X0177447Y0211205D01*
X0178749Y0212803D02*
X0221800Y0212803D01*
X0221800Y0214402D02*
X0179411Y0214402D01*
X0179750Y0216001D02*
X0221800Y0216001D01*
X0226800Y0216001D02*
X0262248Y0216001D01*
X0262289Y0216026D02*
X0261403Y0215469D01*
X0260585Y0214817D01*
X0259846Y0214078D01*
X0259194Y0213260D01*
X0258637Y0212374D01*
X0258183Y0211432D01*
X0257838Y0210445D01*
X0257605Y0209425D01*
X0257519Y0208663D01*
X0266000Y0208663D01*
X0266000Y0207063D01*
X0257519Y0207063D01*
X0257605Y0206301D01*
X0257838Y0205281D01*
X0258183Y0204294D01*
X0258637Y0203352D01*
X0259194Y0202466D01*
X0259846Y0201648D01*
X0260585Y0200909D01*
X0261403Y0200257D01*
X0262289Y0199700D01*
X0263231Y0199246D01*
X0264218Y0198901D01*
X0265238Y0198668D01*
X0266000Y0198582D01*
X0266000Y0207063D01*
X0267600Y0207063D01*
X0267600Y0208663D01*
X0276081Y0208663D01*
X0275995Y0209425D01*
X0275762Y0210445D01*
X0275417Y0211432D01*
X0274963Y0212374D01*
X0274406Y0213260D01*
X0273754Y0214078D01*
X0273015Y0214817D01*
X0272197Y0215469D01*
X0271311Y0216026D01*
X0270369Y0216480D01*
X0269382Y0216825D01*
X0268787Y0216961D01*
X0395718Y0216961D01*
X0395061Y0216303D01*
X0393850Y0213381D01*
X0393850Y0210219D01*
X0395061Y0207297D01*
X0397297Y0205061D01*
X0400219Y0203850D01*
X0403381Y0203850D01*
X0405701Y0204811D01*
X0405700Y0204811D01*
X0405701Y0204811D02*
X0405701Y0049687D01*
X0404519Y0050869D01*
X0402755Y0051600D01*
X0397061Y0051600D01*
X0396578Y0051800D01*
X0397802Y0052307D01*
X0399293Y0053798D01*
X0400100Y0055746D01*
X0400100Y0057854D01*
X0399293Y0059802D01*
X0397802Y0061293D01*
X0395854Y0062100D01*
X0394900Y0062100D01*
X0394900Y0087417D01*
X0394428Y0088556D01*
X0393556Y0089428D01*
X0392417Y0089900D01*
X0391620Y0089900D01*
X0390525Y0090995D01*
X0390954Y0091424D01*
X0391700Y0093225D01*
X0391700Y0093700D01*
X0402417Y0093700D01*
X0403556Y0094172D01*
X0404428Y0095044D01*
X0404900Y0096183D01*
X0404900Y0197417D01*
X0404428Y0198556D01*
X0403556Y0199428D01*
X0402417Y0199900D01*
X0386700Y0199900D01*
X0386700Y0203830D01*
X0383830Y0206700D01*
X0379770Y0206700D01*
X0376900Y0203830D01*
X0376900Y0199770D01*
X0378700Y0197970D01*
X0378700Y0196183D01*
X0379172Y0195044D01*
X0379316Y0194900D01*
X0374900Y0194900D01*
X0374900Y0197970D01*
X0376700Y0199770D01*
X0376700Y0203830D01*
X0373830Y0206700D01*
X0369770Y0206700D01*
X0366900Y0203830D01*
X0366900Y0199770D01*
X0368700Y0197970D01*
X0368700Y0191183D01*
X0369172Y0190044D01*
X0370044Y0189172D01*
X0371183Y0188700D01*
X0393700Y0188700D01*
X0393700Y0184284D01*
X0393556Y0184428D01*
X0392417Y0184900D01*
X0364900Y0184900D01*
X0364900Y0197970D01*
X0366700Y0199770D01*
X0366700Y0203830D01*
X0363830Y0206700D01*
X0359770Y0206700D01*
X0356900Y0203830D01*
X0356900Y0199770D01*
X0358700Y0197970D01*
X0358700Y0181183D01*
X0359172Y0180044D01*
X0360044Y0179172D01*
X0361183Y0178700D01*
X0388700Y0178700D01*
X0388700Y0133917D01*
X0387775Y0134300D01*
X0385825Y0134300D01*
X0384024Y0133554D01*
X0382646Y0132176D01*
X0381900Y0130375D01*
X0381900Y0123225D01*
X0382646Y0121424D01*
X0384024Y0120046D01*
X0384377Y0119900D01*
X0379223Y0119900D01*
X0379576Y0120046D01*
X0380954Y0121424D01*
X0381700Y0123225D01*
X0381700Y0130375D01*
X0380954Y0132176D01*
X0379576Y0133554D01*
X0377775Y0134300D01*
X0375825Y0134300D01*
X0374024Y0133554D01*
X0372646Y0132176D01*
X0371900Y0130375D01*
X0371900Y0123225D01*
X0372646Y0121424D01*
X0374024Y0120046D01*
X0374377Y0119900D01*
X0371183Y0119900D01*
X0370044Y0119428D01*
X0369172Y0118556D01*
X0368700Y0117417D01*
X0368700Y0109900D01*
X0306183Y0109900D01*
X0305044Y0109428D01*
X0304172Y0108556D01*
X0303700Y0107417D01*
X0303700Y0103230D01*
X0302646Y0102176D01*
X0301900Y0100375D01*
X0301900Y0093225D01*
X0302646Y0091424D01*
X0304024Y0090046D01*
X0305825Y0089300D01*
X0307775Y0089300D01*
X0309576Y0090046D01*
X0310954Y0091424D01*
X0311700Y0093225D01*
X0311700Y0100375D01*
X0310954Y0102176D01*
X0309900Y0103230D01*
X0309900Y0103700D01*
X0314377Y0103700D01*
X0314024Y0103554D01*
X0312646Y0102176D01*
X0311900Y0100375D01*
X0311900Y0093225D01*
X0312646Y0091424D01*
X0313782Y0090288D01*
X0312200Y0088705D01*
X0312200Y0086800D01*
X0316800Y0086800D01*
X0321400Y0086800D01*
X0321400Y0088705D01*
X0319817Y0090288D01*
X0320954Y0091424D01*
X0321700Y0093225D01*
X0321700Y0100375D01*
X0320954Y0102176D01*
X0319576Y0103554D01*
X0319223Y0103700D01*
X0325822Y0103700D01*
X0325770Y0103692D01*
X0325111Y0103478D01*
X0324494Y0103163D01*
X0323934Y0102756D01*
X0323444Y0102266D01*
X0323037Y0101706D01*
X0322722Y0101089D01*
X0322508Y0100430D01*
X0322400Y0099746D01*
X0322400Y0096800D01*
X0326800Y0096800D01*
X0331200Y0096800D01*
X0331200Y0099746D01*
X0331092Y0100430D01*
X0330878Y0101089D01*
X0330563Y0101706D01*
X0330156Y0102266D01*
X0329666Y0102756D01*
X0329106Y0103163D01*
X0328489Y0103478D01*
X0327830Y0103692D01*
X0327778Y0103700D01*
X0334377Y0103700D01*
X0334024Y0103554D01*
X0332646Y0102176D01*
X0331900Y0100375D01*
X0331900Y0093225D01*
X0332646Y0091424D01*
X0333700Y0090370D01*
X0333700Y0087400D01*
X0329480Y0087400D01*
X0326200Y0084120D01*
X0326200Y0079480D01*
X0328700Y0076980D01*
X0328700Y0065130D01*
X0328146Y0064576D01*
X0327400Y0062775D01*
X0327400Y0060825D01*
X0328146Y0059024D01*
X0328700Y0058470D01*
X0328700Y0050630D01*
X0326900Y0048830D01*
X0326900Y0044770D01*
X0329770Y0041900D01*
X0333830Y0041900D01*
X0336700Y0044770D01*
X0336700Y0048830D01*
X0334900Y0050630D01*
X0334900Y0057573D01*
X0335076Y0057646D01*
X0336454Y0059024D01*
X0337200Y0060825D01*
X0337200Y0062775D01*
X0336454Y0064576D01*
X0335076Y0065954D01*
X0334900Y0066027D01*
X0334900Y0076980D01*
X0336620Y0078700D01*
X0337417Y0078700D01*
X0338556Y0079172D01*
X0339428Y0080044D01*
X0339900Y0081183D01*
X0339900Y0090370D01*
X0340954Y0091424D01*
X0341700Y0093225D01*
X0341700Y0100375D01*
X0340954Y0102176D01*
X0339576Y0103554D01*
X0339223Y0103700D01*
X0344377Y0103700D01*
X0344024Y0103554D01*
X0342646Y0102176D01*
X0341900Y0100375D01*
X0341900Y0093225D01*
X0342646Y0091424D01*
X0343700Y0090370D01*
X0343700Y0081183D01*
X0344172Y0080044D01*
X0345044Y0079172D01*
X0346183Y0078700D01*
X0346980Y0078700D01*
X0348700Y0076980D01*
X0348700Y0066027D01*
X0348524Y0065954D01*
X0347146Y0064576D01*
X0346400Y0062775D01*
X0346400Y0060825D01*
X0347146Y0059024D01*
X0348524Y0057646D01*
X0348700Y0057573D01*
X0348700Y0050630D01*
X0346900Y0048830D01*
X0346900Y0044770D01*
X0349770Y0041900D01*
X0353830Y0041900D01*
X0356700Y0044770D01*
X0356700Y0048830D01*
X0354900Y0050630D01*
X0354900Y0058470D01*
X0355454Y0059024D01*
X0356200Y0060825D01*
X0356200Y0062775D01*
X0355454Y0064576D01*
X0354900Y0065130D01*
X0354900Y0076980D01*
X0356200Y0078280D01*
X0356200Y0074480D01*
X0359480Y0071200D01*
X0364120Y0071200D01*
X0367400Y0074480D01*
X0367400Y0079120D01*
X0365320Y0081200D01*
X0369120Y0081200D01*
X0372400Y0084480D01*
X0372400Y0089120D01*
X0370525Y0090995D01*
X0370954Y0091424D01*
X0371700Y0093225D01*
X0371700Y0100375D01*
X0370954Y0102176D01*
X0369576Y0103554D01*
X0369223Y0103700D01*
X0372417Y0103700D01*
X0373556Y0104172D01*
X0373700Y0104316D01*
X0373700Y0103230D01*
X0372646Y0102176D01*
X0371900Y0100375D01*
X0371900Y0093225D01*
X0372646Y0091424D01*
X0374024Y0090046D01*
X0375825Y0089300D01*
X0377775Y0089300D01*
X0379576Y0090046D01*
X0380954Y0091424D01*
X0381700Y0093225D01*
X0381700Y0100375D01*
X0380954Y0102176D01*
X0379900Y0103230D01*
X0379900Y0103700D01*
X0384377Y0103700D01*
X0384024Y0103554D01*
X0382646Y0102176D01*
X0381900Y0100375D01*
X0381900Y0093225D01*
X0382646Y0091424D01*
X0383075Y0090995D01*
X0381200Y0089120D01*
X0381200Y0084480D01*
X0383280Y0082400D01*
X0379480Y0082400D01*
X0376980Y0079900D01*
X0371183Y0079900D01*
X0370044Y0079428D01*
X0369172Y0078556D01*
X0368700Y0077417D01*
X0368700Y0062100D01*
X0367746Y0062100D01*
X0365798Y0061293D01*
X0364307Y0059802D01*
X0363500Y0057854D01*
X0363500Y0055746D01*
X0364307Y0053798D01*
X0365798Y0052307D01*
X0367022Y0051800D01*
X0366539Y0051600D01*
X0360845Y0051600D01*
X0359081Y0050869D01*
X0357731Y0049519D01*
X0357000Y0047755D01*
X0357000Y0043788D01*
X0354812Y0041600D01*
X0325260Y0041600D01*
X0321600Y0052579D01*
X0321600Y0052755D01*
X0321300Y0053479D01*
X0321052Y0054224D01*
X0320937Y0054357D01*
X0320869Y0054519D01*
X0320315Y0055074D01*
X0319801Y0055666D01*
X0319643Y0055745D01*
X0319519Y0055869D01*
X0318794Y0056169D01*
X0318093Y0056520D01*
X0317917Y0056533D01*
X0317755Y0056600D01*
X0316970Y0056600D01*
X0316188Y0056656D01*
X0316021Y0056600D01*
X0311600Y0056600D01*
X0311600Y0068680D01*
X0312400Y0069480D01*
X0312400Y0073988D01*
X0314688Y0071700D01*
X0318912Y0071700D01*
X0321900Y0074688D01*
X0321900Y0078912D01*
X0318912Y0081900D01*
X0314688Y0081900D01*
X0311700Y0078912D01*
X0311700Y0074820D01*
X0309120Y0077400D01*
X0304480Y0077400D01*
X0301200Y0074120D01*
X0301200Y0070320D01*
X0299900Y0071620D01*
X0299900Y0072417D01*
X0299428Y0073556D01*
X0298556Y0074428D01*
X0297417Y0074900D01*
X0289195Y0074900D01*
X0287802Y0076293D01*
X0287722Y0076326D01*
X0288556Y0076672D01*
X0289428Y0077544D01*
X0289900Y0078683D01*
X0289900Y0090370D01*
X0290954Y0091424D01*
X0291700Y0093225D01*
X0291700Y0100375D01*
X0290954Y0102176D01*
X0289576Y0103554D01*
X0287775Y0104300D01*
X0285825Y0104300D01*
X0284024Y0103554D01*
X0282646Y0102176D01*
X0281900Y0100375D01*
X0281900Y0093225D01*
X0282646Y0091424D01*
X0283700Y0090370D01*
X0283700Y0082400D01*
X0206183Y0082400D01*
X0205044Y0081928D01*
X0204900Y0081784D01*
X0204900Y0083700D01*
X0277417Y0083700D01*
X0278556Y0084172D01*
X0279428Y0085044D01*
X0279900Y0086183D01*
X0279900Y0090370D01*
X0280954Y0091424D01*
X0281700Y0093225D01*
X0281700Y0100375D01*
X0280954Y0102176D01*
X0279576Y0103554D01*
X0277775Y0104300D01*
X0275825Y0104300D01*
X0274024Y0103554D01*
X0272646Y0102176D01*
X0271900Y0100375D01*
X0271900Y0093225D01*
X0272646Y0091424D01*
X0273700Y0090370D01*
X0273700Y0089900D01*
X0269223Y0089900D01*
X0269576Y0090046D01*
X0270954Y0091424D01*
X0271700Y0093225D01*
X0271700Y0100375D01*
X0270954Y0102176D01*
X0269900Y0103230D01*
X0269900Y0107417D01*
X0269428Y0108556D01*
X0268556Y0109428D01*
X0267417Y0109900D01*
X0196800Y0109900D01*
X0196800Y0131800D01*
X0226800Y0131800D01*
X0226800Y0216961D01*
X0264813Y0216961D01*
X0264218Y0216825D01*
X0263231Y0216480D01*
X0262289Y0216026D01*
X0260170Y0214402D02*
X0226800Y0214402D01*
X0226800Y0212803D02*
X0258907Y0212803D01*
X0258104Y0211205D02*
X0226800Y0211205D01*
X0226800Y0209606D02*
X0257647Y0209606D01*
X0257593Y0206409D02*
X0226800Y0206409D01*
X0226800Y0204811D02*
X0258003Y0204811D01*
X0258725Y0203212D02*
X0251132Y0203212D01*
X0251471Y0203094D02*
X0250484Y0203439D01*
X0249465Y0203672D01*
X0248702Y0203758D01*
X0248702Y0195277D01*
X0247102Y0195277D01*
X0247102Y0193677D01*
X0238622Y0193677D01*
X0238708Y0192915D01*
X0238940Y0191895D01*
X0239286Y0190908D01*
X0239740Y0189966D01*
X0240296Y0189080D01*
X0240948Y0188262D01*
X0241688Y0187523D01*
X0242505Y0186871D01*
X0243391Y0186314D01*
X0244333Y0185861D01*
X0245320Y0185515D01*
X0246340Y0185282D01*
X0247102Y0185197D01*
X0247102Y0193677D01*
X0248702Y0193677D01*
X0248702Y0185197D01*
X0249465Y0185282D01*
X0250484Y0185515D01*
X0251471Y0185861D01*
X0252414Y0186314D01*
X0253299Y0186871D01*
X0254117Y0187523D01*
X0254857Y0188262D01*
X0255509Y0189080D01*
X0256065Y0189966D01*
X0256519Y0190908D01*
X0256864Y0191895D01*
X0257097Y0192915D01*
X0257183Y0193677D01*
X0248702Y0193677D01*
X0248702Y0195277D01*
X0257183Y0195277D01*
X0257097Y0196039D01*
X0256864Y0197059D01*
X0256519Y0198046D01*
X0256065Y0198989D01*
X0255509Y0199874D01*
X0254857Y0200692D01*
X0254117Y0201431D01*
X0253299Y0202083D01*
X0252414Y0202640D01*
X0251471Y0203094D01*
X0248702Y0203212D02*
X0247102Y0203212D01*
X0247102Y0203758D02*
X0246340Y0203672D01*
X0245320Y0203439D01*
X0244333Y0203094D01*
X0243391Y0202640D01*
X0242505Y0202083D01*
X0241688Y0201431D01*
X0240948Y0200692D01*
X0240296Y0199874D01*
X0239740Y0198989D01*
X0239286Y0198046D01*
X0238940Y0197059D01*
X0238708Y0196039D01*
X0238622Y0195277D01*
X0247102Y0195277D01*
X0247102Y0203758D01*
X0247102Y0201614D02*
X0248702Y0201614D01*
X0248702Y0200015D02*
X0247102Y0200015D01*
X0247102Y0198417D02*
X0248702Y0198417D01*
X0248702Y0196818D02*
X0247102Y0196818D01*
X0247102Y0195220D02*
X0226800Y0195220D01*
X0226800Y0196818D02*
X0238885Y0196818D01*
X0239464Y0198417D02*
X0226800Y0198417D01*
X0226800Y0200015D02*
X0240409Y0200015D01*
X0241917Y0201614D02*
X0226800Y0201614D01*
X0226800Y0203212D02*
X0244673Y0203212D01*
X0253888Y0201614D02*
X0259880Y0201614D01*
X0261787Y0200015D02*
X0255396Y0200015D01*
X0256340Y0198417D02*
X0298253Y0198417D01*
X0296900Y0199770D02*
X0299770Y0196900D01*
X0303830Y0196900D01*
X0306700Y0199770D01*
X0306700Y0203830D01*
X0303830Y0206700D01*
X0299770Y0206700D01*
X0296900Y0203830D01*
X0296900Y0199770D01*
X0296900Y0200015D02*
X0271813Y0200015D01*
X0272197Y0200257D02*
X0273015Y0200909D01*
X0273754Y0201648D01*
X0274406Y0202466D01*
X0274963Y0203352D01*
X0275417Y0204294D01*
X0275762Y0205281D01*
X0275995Y0206301D01*
X0276081Y0207063D01*
X0267600Y0207063D01*
X0267600Y0198582D01*
X0268362Y0198668D01*
X0269382Y0198901D01*
X0270369Y0199246D01*
X0271311Y0199700D01*
X0272197Y0200257D01*
X0273720Y0201614D02*
X0296900Y0201614D01*
X0296900Y0203212D02*
X0274875Y0203212D01*
X0275597Y0204811D02*
X0297881Y0204811D01*
X0299480Y0206409D02*
X0276007Y0206409D01*
X0275953Y0209606D02*
X0297771Y0209606D01*
X0297400Y0209977D02*
X0299977Y0207400D01*
X0301800Y0207400D01*
X0303623Y0207400D01*
X0306200Y0209977D01*
X0306200Y0211800D01*
X0306200Y0213623D01*
X0303623Y0216200D01*
X0301800Y0216200D01*
X0301800Y0211800D01*
X0306200Y0211800D01*
X0301800Y0211800D01*
X0301800Y0211800D01*
X0301800Y0211800D01*
X0301800Y0207400D01*
X0301800Y0211800D01*
X0301800Y0211800D01*
X0301800Y0211800D01*
X0297400Y0211800D01*
X0297400Y0213623D01*
X0299977Y0216200D01*
X0301800Y0216200D01*
X0301800Y0211800D01*
X0297400Y0211800D01*
X0297400Y0209977D01*
X0297400Y0211205D02*
X0275496Y0211205D01*
X0274693Y0212803D02*
X0297400Y0212803D01*
X0298179Y0214402D02*
X0273430Y0214402D01*
X0271352Y0216001D02*
X0299778Y0216001D01*
X0301800Y0216001D02*
X0301800Y0216001D01*
X0301800Y0214402D02*
X0301800Y0214402D01*
X0301800Y0212803D02*
X0301800Y0212803D01*
X0301800Y0211205D02*
X0301800Y0211205D01*
X0301800Y0209606D02*
X0301800Y0209606D01*
X0301800Y0208008D02*
X0301800Y0208008D01*
X0304230Y0208008D02*
X0309370Y0208008D01*
X0309977Y0207400D02*
X0311800Y0207400D01*
X0313623Y0207400D01*
X0316200Y0209977D01*
X0316200Y0211800D01*
X0316200Y0213623D01*
X0313623Y0216200D01*
X0311800Y0216200D01*
X0311800Y0211800D01*
X0316200Y0211800D01*
X0311800Y0211800D01*
X0311800Y0211800D01*
X0311800Y0211800D01*
X0311800Y0207400D01*
X0311800Y0211800D01*
X0311800Y0211800D01*
X0311800Y0211800D01*
X0307400Y0211800D01*
X0307400Y0213623D01*
X0309977Y0216200D01*
X0311800Y0216200D01*
X0311800Y0211800D01*
X0307400Y0211800D01*
X0307400Y0209977D01*
X0309977Y0207400D01*
X0309770Y0206700D02*
X0306900Y0203830D01*
X0306900Y0199770D01*
X0308700Y0197970D01*
X0308700Y0187400D01*
X0306183Y0187400D01*
X0305044Y0186928D01*
X0304172Y0186056D01*
X0303700Y0184917D01*
X0303700Y0149900D01*
X0266183Y0149900D01*
X0265044Y0149428D01*
X0264172Y0148556D01*
X0263700Y0147417D01*
X0263700Y0133230D01*
X0262646Y0132176D01*
X0261900Y0130375D01*
X0261900Y0123225D01*
X0262646Y0121424D01*
X0264024Y0120046D01*
X0265825Y0119300D01*
X0267775Y0119300D01*
X0269576Y0120046D01*
X0270954Y0121424D01*
X0271700Y0123225D01*
X0271700Y0130375D01*
X0270954Y0132176D01*
X0269900Y0133230D01*
X0269900Y0143700D01*
X0284316Y0143700D01*
X0284172Y0143556D01*
X0283700Y0142417D01*
X0283700Y0133230D01*
X0282646Y0132176D01*
X0281900Y0130375D01*
X0281900Y0123225D01*
X0282646Y0121424D01*
X0284024Y0120046D01*
X0285825Y0119300D01*
X0287775Y0119300D01*
X0289576Y0120046D01*
X0290954Y0121424D01*
X0291700Y0123225D01*
X0291700Y0130375D01*
X0290954Y0132176D01*
X0289900Y0133230D01*
X0289900Y0138700D01*
X0304316Y0138700D01*
X0304172Y0138556D01*
X0303700Y0137417D01*
X0303700Y0133230D01*
X0302646Y0132176D01*
X0301900Y0130375D01*
X0301900Y0123225D01*
X0302646Y0121424D01*
X0304024Y0120046D01*
X0305825Y0119300D01*
X0307775Y0119300D01*
X0309576Y0120046D01*
X0310954Y0121424D01*
X0311700Y0123225D01*
X0311700Y0130375D01*
X0310954Y0132176D01*
X0309900Y0133230D01*
X0309900Y0133700D01*
X0315822Y0133700D01*
X0315770Y0133692D01*
X0315111Y0133478D01*
X0314494Y0133163D01*
X0313934Y0132756D01*
X0313444Y0132266D01*
X0313037Y0131706D01*
X0312722Y0131089D01*
X0312508Y0130430D01*
X0312400Y0129746D01*
X0312400Y0126800D01*
X0316800Y0126800D01*
X0321200Y0126800D01*
X0321200Y0129746D01*
X0321092Y0130430D01*
X0320878Y0131089D01*
X0320563Y0131706D01*
X0320156Y0132266D01*
X0319666Y0132756D01*
X0319106Y0133163D01*
X0318489Y0133478D01*
X0317830Y0133692D01*
X0317516Y0133741D01*
X0318556Y0134172D01*
X0319428Y0135044D01*
X0319900Y0136183D01*
X0319900Y0153700D01*
X0332417Y0153700D01*
X0333556Y0154172D01*
X0334428Y0155044D01*
X0334900Y0156183D01*
X0334900Y0168700D01*
X0352417Y0168700D01*
X0353556Y0169172D01*
X0354428Y0170044D01*
X0354900Y0171183D01*
X0354900Y0197970D01*
X0356700Y0199770D01*
X0356700Y0203830D01*
X0353830Y0206700D01*
X0349770Y0206700D01*
X0346900Y0203830D01*
X0346900Y0199770D01*
X0348700Y0197970D01*
X0348700Y0174900D01*
X0331183Y0174900D01*
X0330044Y0174428D01*
X0329172Y0173556D01*
X0328700Y0172417D01*
X0328700Y0159900D01*
X0316183Y0159900D01*
X0315044Y0159428D01*
X0314900Y0159284D01*
X0314900Y0176200D01*
X0332417Y0176200D01*
X0333556Y0176672D01*
X0334428Y0177544D01*
X0334900Y0178683D01*
X0334900Y0197970D01*
X0336700Y0199770D01*
X0336700Y0203830D01*
X0333830Y0206700D01*
X0329770Y0206700D01*
X0326900Y0203830D01*
X0326900Y0199770D01*
X0328700Y0197970D01*
X0328700Y0182400D01*
X0314284Y0182400D01*
X0314428Y0182544D01*
X0314900Y0183683D01*
X0314900Y0197970D01*
X0316700Y0199770D01*
X0316700Y0203830D01*
X0313830Y0206700D01*
X0309770Y0206700D01*
X0309480Y0206409D02*
X0304120Y0206409D01*
X0305719Y0204811D02*
X0307881Y0204811D01*
X0306900Y0203212D02*
X0306700Y0203212D01*
X0306700Y0201614D02*
X0306900Y0201614D01*
X0306900Y0200015D02*
X0306700Y0200015D01*
X0305347Y0198417D02*
X0308253Y0198417D01*
X0308700Y0196818D02*
X0256919Y0196818D01*
X0257177Y0193621D02*
X0264529Y0193621D01*
X0265405Y0193856D02*
X0262709Y0193134D01*
X0260292Y0191738D01*
X0258319Y0189765D01*
X0256923Y0187348D01*
X0256201Y0184652D01*
X0256201Y0181861D01*
X0256923Y0179166D01*
X0258319Y0176749D01*
X0260292Y0174775D01*
X0262709Y0173380D01*
X0265405Y0172657D01*
X0268195Y0172657D01*
X0270891Y0173380D01*
X0273308Y0174775D01*
X0275281Y0176749D01*
X0276677Y0179166D01*
X0277399Y0181861D01*
X0277399Y0184652D01*
X0276677Y0187348D01*
X0275281Y0189765D01*
X0273308Y0191738D01*
X0270891Y0193134D01*
X0268195Y0193856D01*
X0265405Y0193856D01*
X0269071Y0193621D02*
X0308700Y0193621D01*
X0308700Y0192023D02*
X0272815Y0192023D01*
X0274622Y0190424D02*
X0308700Y0190424D01*
X0308700Y0188826D02*
X0275824Y0188826D01*
X0276709Y0187227D02*
X0305766Y0187227D01*
X0303995Y0185629D02*
X0277138Y0185629D01*
X0277399Y0184030D02*
X0303700Y0184030D01*
X0303700Y0182432D02*
X0277399Y0182432D01*
X0277124Y0180833D02*
X0303700Y0180833D01*
X0303700Y0179235D02*
X0276695Y0179235D01*
X0275794Y0177636D02*
X0303700Y0177636D01*
X0303700Y0176038D02*
X0274571Y0176038D01*
X0272726Y0174439D02*
X0303700Y0174439D01*
X0303700Y0172841D02*
X0268879Y0172841D01*
X0264721Y0172841D02*
X0226800Y0172841D01*
X0226800Y0174439D02*
X0260874Y0174439D01*
X0259029Y0176038D02*
X0226800Y0176038D01*
X0226800Y0177636D02*
X0257806Y0177636D01*
X0256905Y0179235D02*
X0226800Y0179235D01*
X0226800Y0180833D02*
X0256476Y0180833D01*
X0256201Y0182432D02*
X0226800Y0182432D01*
X0226800Y0184030D02*
X0256201Y0184030D01*
X0256462Y0185629D02*
X0250809Y0185629D01*
X0248702Y0185629D02*
X0247102Y0185629D01*
X0247102Y0187227D02*
X0248702Y0187227D01*
X0248702Y0188826D02*
X0247102Y0188826D01*
X0247102Y0190424D02*
X0248702Y0190424D01*
X0248702Y0192023D02*
X0247102Y0192023D01*
X0247102Y0193621D02*
X0248702Y0193621D01*
X0248702Y0195220D02*
X0308700Y0195220D01*
X0314900Y0195220D02*
X0328700Y0195220D01*
X0328700Y0196818D02*
X0314900Y0196818D01*
X0315347Y0198417D02*
X0318253Y0198417D01*
X0316900Y0199770D02*
X0319770Y0196900D01*
X0323830Y0196900D01*
X0326700Y0199770D01*
X0326700Y0203830D01*
X0323830Y0206700D01*
X0319770Y0206700D01*
X0316900Y0203830D01*
X0316900Y0199770D01*
X0316900Y0200015D02*
X0316700Y0200015D01*
X0316700Y0201614D02*
X0316900Y0201614D01*
X0316900Y0203212D02*
X0316700Y0203212D01*
X0315719Y0204811D02*
X0317881Y0204811D01*
X0319480Y0206409D02*
X0314120Y0206409D01*
X0314230Y0208008D02*
X0319370Y0208008D01*
X0319977Y0207400D02*
X0321800Y0207400D01*
X0323623Y0207400D01*
X0326200Y0209977D01*
X0326200Y0211800D01*
X0326200Y0213623D01*
X0323623Y0216200D01*
X0321800Y0216200D01*
X0321800Y0211800D01*
X0326200Y0211800D01*
X0321800Y0211800D01*
X0321800Y0211800D01*
X0321800Y0211800D01*
X0321800Y0207400D01*
X0321800Y0211800D01*
X0321800Y0211800D01*
X0321800Y0211800D01*
X0317400Y0211800D01*
X0317400Y0213623D01*
X0319977Y0216200D01*
X0321800Y0216200D01*
X0321800Y0211800D01*
X0317400Y0211800D01*
X0317400Y0209977D01*
X0319977Y0207400D01*
X0321800Y0208008D02*
X0321800Y0208008D01*
X0321800Y0209606D02*
X0321800Y0209606D01*
X0321800Y0211205D02*
X0321800Y0211205D01*
X0321800Y0212803D02*
X0321800Y0212803D01*
X0321800Y0214402D02*
X0321800Y0214402D01*
X0321800Y0216001D02*
X0321800Y0216001D01*
X0323822Y0216001D02*
X0329778Y0216001D01*
X0329977Y0216200D02*
X0327400Y0213623D01*
X0327400Y0211800D01*
X0331800Y0211800D01*
X0336200Y0211800D01*
X0336200Y0213623D01*
X0333623Y0216200D01*
X0331800Y0216200D01*
X0331800Y0211800D01*
X0331800Y0211800D01*
X0331800Y0211800D01*
X0336200Y0211800D01*
X0336200Y0209977D01*
X0333623Y0207400D01*
X0331800Y0207400D01*
X0331800Y0211800D01*
X0331800Y0211800D01*
X0331800Y0211800D01*
X0331800Y0216200D01*
X0329977Y0216200D01*
X0331800Y0216001D02*
X0331800Y0216001D01*
X0331800Y0214402D02*
X0331800Y0214402D01*
X0331800Y0212803D02*
X0331800Y0212803D01*
X0331800Y0211800D02*
X0327400Y0211800D01*
X0327400Y0209977D01*
X0329977Y0207400D01*
X0331800Y0207400D01*
X0331800Y0211800D01*
X0331800Y0211205D02*
X0331800Y0211205D01*
X0331800Y0209606D02*
X0331800Y0209606D01*
X0331800Y0208008D02*
X0331800Y0208008D01*
X0334230Y0208008D02*
X0339370Y0208008D01*
X0339977Y0207400D02*
X0337400Y0209977D01*
X0337400Y0211800D01*
X0341800Y0211800D01*
X0346200Y0211800D01*
X0346200Y0213623D01*
X0343623Y0216200D01*
X0341800Y0216200D01*
X0341800Y0211800D01*
X0341800Y0211800D01*
X0341800Y0211800D01*
X0346200Y0211800D01*
X0346200Y0209977D01*
X0343623Y0207400D01*
X0341800Y0207400D01*
X0341800Y0211800D01*
X0341800Y0211800D01*
X0341800Y0211800D01*
X0341800Y0216200D01*
X0339977Y0216200D01*
X0337400Y0213623D01*
X0337400Y0211800D01*
X0341800Y0211800D01*
X0341800Y0207400D01*
X0339977Y0207400D01*
X0339770Y0206700D02*
X0336900Y0203830D01*
X0336900Y0199770D01*
X0339770Y0196900D01*
X0343830Y0196900D01*
X0346700Y0199770D01*
X0346700Y0203830D01*
X0343830Y0206700D01*
X0339770Y0206700D01*
X0339480Y0206409D02*
X0334120Y0206409D01*
X0335719Y0204811D02*
X0337881Y0204811D01*
X0336900Y0203212D02*
X0336700Y0203212D01*
X0336700Y0201614D02*
X0336900Y0201614D01*
X0336900Y0200015D02*
X0336700Y0200015D01*
X0335347Y0198417D02*
X0338253Y0198417D01*
X0334900Y0196818D02*
X0348700Y0196818D01*
X0348700Y0195220D02*
X0334900Y0195220D01*
X0334900Y0193621D02*
X0348700Y0193621D01*
X0348700Y0192023D02*
X0334900Y0192023D01*
X0334900Y0190424D02*
X0348700Y0190424D01*
X0348700Y0188826D02*
X0334900Y0188826D01*
X0334900Y0187227D02*
X0348700Y0187227D01*
X0348700Y0185629D02*
X0334900Y0185629D01*
X0334900Y0184030D02*
X0348700Y0184030D01*
X0348700Y0182432D02*
X0334900Y0182432D01*
X0334900Y0180833D02*
X0348700Y0180833D01*
X0348700Y0179235D02*
X0334900Y0179235D01*
X0334466Y0177636D02*
X0348700Y0177636D01*
X0348700Y0176038D02*
X0314900Y0176038D01*
X0314900Y0174439D02*
X0330071Y0174439D01*
X0328876Y0172841D02*
X0314900Y0172841D01*
X0314900Y0171242D02*
X0328700Y0171242D01*
X0328700Y0169644D02*
X0314900Y0169644D01*
X0314900Y0168045D02*
X0328700Y0168045D01*
X0328700Y0166447D02*
X0314900Y0166447D01*
X0314900Y0164848D02*
X0328700Y0164848D01*
X0328700Y0163250D02*
X0314900Y0163250D01*
X0314900Y0161651D02*
X0328700Y0161651D01*
X0328700Y0160053D02*
X0314900Y0160053D01*
X0316800Y0156800D02*
X0331800Y0156800D01*
X0331800Y0171800D01*
X0351800Y0171800D01*
X0351800Y0201800D01*
X0356700Y0201614D02*
X0356900Y0201614D01*
X0356900Y0203212D02*
X0356700Y0203212D01*
X0355719Y0204811D02*
X0357881Y0204811D01*
X0359480Y0206409D02*
X0354120Y0206409D01*
X0353623Y0207400D02*
X0351800Y0207400D01*
X0351800Y0211800D01*
X0356200Y0211800D01*
X0356200Y0213623D01*
X0353623Y0216200D01*
X0351800Y0216200D01*
X0351800Y0211800D01*
X0351800Y0211800D01*
X0351800Y0211800D01*
X0356200Y0211800D01*
X0356200Y0209977D01*
X0353623Y0207400D01*
X0354230Y0208008D02*
X0359370Y0208008D01*
X0359977Y0207400D02*
X0361800Y0207400D01*
X0363623Y0207400D01*
X0366200Y0209977D01*
X0366200Y0211800D01*
X0366200Y0213623D01*
X0363623Y0216200D01*
X0361800Y0216200D01*
X0361800Y0211800D01*
X0366200Y0211800D01*
X0361800Y0211800D01*
X0361800Y0211800D01*
X0361800Y0211800D01*
X0361800Y0207400D01*
X0361800Y0211800D01*
X0361800Y0211800D01*
X0361800Y0211800D01*
X0357400Y0211800D01*
X0357400Y0213623D01*
X0359977Y0216200D01*
X0361800Y0216200D01*
X0361800Y0211800D01*
X0357400Y0211800D01*
X0357400Y0209977D01*
X0359977Y0207400D01*
X0361800Y0208008D02*
X0361800Y0208008D01*
X0361800Y0209606D02*
X0361800Y0209606D01*
X0361800Y0211205D02*
X0361800Y0211205D01*
X0361800Y0212803D02*
X0361800Y0212803D01*
X0361800Y0214402D02*
X0361800Y0214402D01*
X0361800Y0216001D02*
X0361800Y0216001D01*
X0363822Y0216001D02*
X0369778Y0216001D01*
X0369977Y0216200D02*
X0367400Y0213623D01*
X0367400Y0211800D01*
X0371800Y0211800D01*
X0376200Y0211800D01*
X0376200Y0213623D01*
X0373623Y0216200D01*
X0371800Y0216200D01*
X0371800Y0211800D01*
X0371800Y0211800D01*
X0371800Y0211800D01*
X0376200Y0211800D01*
X0376200Y0209977D01*
X0373623Y0207400D01*
X0371800Y0207400D01*
X0371800Y0211800D01*
X0371800Y0211800D01*
X0371800Y0211800D01*
X0371800Y0216200D01*
X0369977Y0216200D01*
X0371800Y0216001D02*
X0371800Y0216001D01*
X0371800Y0214402D02*
X0371800Y0214402D01*
X0371800Y0212803D02*
X0371800Y0212803D01*
X0371800Y0211800D02*
X0367400Y0211800D01*
X0367400Y0209977D01*
X0369977Y0207400D01*
X0371800Y0207400D01*
X0371800Y0211800D01*
X0371800Y0211205D02*
X0371800Y0211205D01*
X0371800Y0209606D02*
X0371800Y0209606D01*
X0371800Y0208008D02*
X0371800Y0208008D01*
X0374230Y0208008D02*
X0379370Y0208008D01*
X0379977Y0207400D02*
X0377400Y0209977D01*
X0377400Y0211800D01*
X0381800Y0211800D01*
X0386200Y0211800D01*
X0386200Y0213623D01*
X0383623Y0216200D01*
X0381800Y0216200D01*
X0381800Y0211800D01*
X0381800Y0211800D01*
X0381800Y0211800D01*
X0386200Y0211800D01*
X0386200Y0209977D01*
X0383623Y0207400D01*
X0381800Y0207400D01*
X0381800Y0211800D01*
X0381800Y0211800D01*
X0381800Y0211800D01*
X0381800Y0216200D01*
X0379977Y0216200D01*
X0377400Y0213623D01*
X0377400Y0211800D01*
X0381800Y0211800D01*
X0381800Y0207400D01*
X0379977Y0207400D01*
X0379480Y0206409D02*
X0374120Y0206409D01*
X0375719Y0204811D02*
X0377881Y0204811D01*
X0376900Y0203212D02*
X0376700Y0203212D01*
X0376700Y0201614D02*
X0376900Y0201614D01*
X0376900Y0200015D02*
X0376700Y0200015D01*
X0375347Y0198417D02*
X0378253Y0198417D01*
X0378700Y0196818D02*
X0374900Y0196818D01*
X0374900Y0195220D02*
X0379099Y0195220D01*
X0381800Y0196800D02*
X0381800Y0201800D01*
X0386700Y0201614D02*
X0405701Y0201614D01*
X0405701Y0203212D02*
X0386700Y0203212D01*
X0385719Y0204811D02*
X0397900Y0204811D01*
X0395948Y0206409D02*
X0384120Y0206409D01*
X0384230Y0208008D02*
X0394766Y0208008D01*
X0394104Y0209606D02*
X0385829Y0209606D01*
X0386200Y0211205D02*
X0393850Y0211205D01*
X0393850Y0212803D02*
X0386200Y0212803D01*
X0385421Y0214402D02*
X0394273Y0214402D01*
X0394935Y0216001D02*
X0383822Y0216001D01*
X0381800Y0216001D02*
X0381800Y0216001D01*
X0381800Y0214402D02*
X0381800Y0214402D01*
X0381800Y0212803D02*
X0381800Y0212803D01*
X0381800Y0211205D02*
X0381800Y0211205D01*
X0381800Y0209606D02*
X0381800Y0209606D01*
X0381800Y0208008D02*
X0381800Y0208008D01*
X0377771Y0209606D02*
X0375829Y0209606D01*
X0376200Y0211205D02*
X0377400Y0211205D01*
X0377400Y0212803D02*
X0376200Y0212803D01*
X0375421Y0214402D02*
X0378179Y0214402D01*
X0379778Y0216001D02*
X0373822Y0216001D01*
X0368179Y0214402D02*
X0365421Y0214402D01*
X0366200Y0212803D02*
X0367400Y0212803D01*
X0367400Y0211205D02*
X0366200Y0211205D01*
X0365829Y0209606D02*
X0367771Y0209606D01*
X0369370Y0208008D02*
X0364230Y0208008D01*
X0364120Y0206409D02*
X0369480Y0206409D01*
X0367881Y0204811D02*
X0365719Y0204811D01*
X0366700Y0203212D02*
X0366900Y0203212D01*
X0366900Y0201614D02*
X0366700Y0201614D01*
X0366700Y0200015D02*
X0366900Y0200015D01*
X0368253Y0198417D02*
X0365347Y0198417D01*
X0364900Y0196818D02*
X0368700Y0196818D01*
X0368700Y0195220D02*
X0364900Y0195220D01*
X0364900Y0193621D02*
X0368700Y0193621D01*
X0368700Y0192023D02*
X0364900Y0192023D01*
X0364900Y0190424D02*
X0369014Y0190424D01*
X0370880Y0188826D02*
X0364900Y0188826D01*
X0364900Y0187227D02*
X0393700Y0187227D01*
X0393700Y0185629D02*
X0364900Y0185629D01*
X0361800Y0181800D02*
X0361800Y0201800D01*
X0356900Y0200015D02*
X0356700Y0200015D01*
X0355347Y0198417D02*
X0358253Y0198417D01*
X0358700Y0196818D02*
X0354900Y0196818D01*
X0354900Y0195220D02*
X0358700Y0195220D01*
X0358700Y0193621D02*
X0354900Y0193621D01*
X0354900Y0192023D02*
X0358700Y0192023D01*
X0358700Y0190424D02*
X0354900Y0190424D01*
X0354900Y0188826D02*
X0358700Y0188826D01*
X0358700Y0187227D02*
X0354900Y0187227D01*
X0354900Y0185629D02*
X0358700Y0185629D01*
X0358700Y0184030D02*
X0354900Y0184030D01*
X0354900Y0182432D02*
X0358700Y0182432D01*
X0358845Y0180833D02*
X0354900Y0180833D01*
X0354900Y0179235D02*
X0359981Y0179235D01*
X0361800Y0181800D02*
X0391800Y0181800D01*
X0391800Y0116800D01*
X0371800Y0116800D01*
X0371800Y0106800D01*
X0306800Y0106800D01*
X0306800Y0096800D01*
X0311700Y0096112D02*
X0311900Y0096112D01*
X0311900Y0094514D02*
X0311700Y0094514D01*
X0311572Y0092915D02*
X0312028Y0092915D01*
X0312754Y0091317D02*
X0310846Y0091317D01*
X0308784Y0089718D02*
X0313213Y0089718D01*
X0312200Y0088120D02*
X0302400Y0088120D01*
X0302400Y0089120D02*
X0300525Y0090995D01*
X0300954Y0091424D01*
X0301700Y0093225D01*
X0301700Y0100375D01*
X0300954Y0102176D01*
X0299576Y0103554D01*
X0297775Y0104300D01*
X0295825Y0104300D01*
X0294024Y0103554D01*
X0292646Y0102176D01*
X0291900Y0100375D01*
X0291900Y0093225D01*
X0292646Y0091424D01*
X0293075Y0090995D01*
X0291200Y0089120D01*
X0291200Y0084480D01*
X0294480Y0081200D01*
X0299120Y0081200D01*
X0302400Y0084480D01*
X0302400Y0089120D01*
X0301801Y0089718D02*
X0304816Y0089718D01*
X0302754Y0091317D02*
X0300846Y0091317D01*
X0301572Y0092915D02*
X0302028Y0092915D01*
X0301900Y0094514D02*
X0301700Y0094514D01*
X0301700Y0096112D02*
X0301900Y0096112D01*
X0301900Y0097711D02*
X0301700Y0097711D01*
X0301700Y0099309D02*
X0301900Y0099309D01*
X0302121Y0100908D02*
X0301479Y0100908D01*
X0300623Y0102506D02*
X0302977Y0102506D01*
X0303700Y0104105D02*
X0298246Y0104105D01*
X0295354Y0104105D02*
X0288246Y0104105D01*
X0290623Y0102506D02*
X0292977Y0102506D01*
X0292121Y0100908D02*
X0291479Y0100908D01*
X0291700Y0099309D02*
X0291900Y0099309D01*
X0291900Y0097711D02*
X0291700Y0097711D01*
X0291700Y0096112D02*
X0291900Y0096112D01*
X0291900Y0094514D02*
X0291700Y0094514D01*
X0291572Y0092915D02*
X0292028Y0092915D01*
X0292754Y0091317D02*
X0290846Y0091317D01*
X0289900Y0089718D02*
X0291799Y0089718D01*
X0291200Y0088120D02*
X0289900Y0088120D01*
X0289900Y0086521D02*
X0291200Y0086521D01*
X0291200Y0084923D02*
X0289900Y0084923D01*
X0289900Y0083324D02*
X0292356Y0083324D01*
X0293955Y0081726D02*
X0289900Y0081726D01*
X0289900Y0080127D02*
X0312915Y0080127D01*
X0311700Y0078529D02*
X0289836Y0078529D01*
X0288814Y0076930D02*
X0304010Y0076930D01*
X0302412Y0075332D02*
X0288764Y0075332D01*
X0286800Y0079300D02*
X0286800Y0096800D01*
X0281900Y0096112D02*
X0281700Y0096112D01*
X0281700Y0094514D02*
X0281900Y0094514D01*
X0282028Y0092915D02*
X0281572Y0092915D01*
X0280846Y0091317D02*
X0282754Y0091317D01*
X0283700Y0089718D02*
X0279900Y0089718D01*
X0279900Y0088120D02*
X0283700Y0088120D01*
X0283700Y0086521D02*
X0279900Y0086521D01*
X0279307Y0084923D02*
X0283700Y0084923D01*
X0283700Y0083324D02*
X0204900Y0083324D01*
X0201800Y0086800D02*
X0276800Y0086800D01*
X0276800Y0096800D01*
X0271900Y0096112D02*
X0271700Y0096112D01*
X0271700Y0094514D02*
X0271900Y0094514D01*
X0272028Y0092915D02*
X0271572Y0092915D01*
X0270846Y0091317D02*
X0272754Y0091317D01*
X0271900Y0097711D02*
X0271700Y0097711D01*
X0271700Y0099309D02*
X0271900Y0099309D01*
X0272121Y0100908D02*
X0271479Y0100908D01*
X0270623Y0102506D02*
X0272977Y0102506D01*
X0275354Y0104105D02*
X0269900Y0104105D01*
X0269900Y0105703D02*
X0303700Y0105703D01*
X0303700Y0107302D02*
X0269900Y0107302D01*
X0269084Y0108900D02*
X0304516Y0108900D01*
X0310623Y0102506D02*
X0312977Y0102506D01*
X0312121Y0100908D02*
X0311479Y0100908D01*
X0311700Y0099309D02*
X0311900Y0099309D01*
X0311900Y0097711D02*
X0311700Y0097711D01*
X0321700Y0097711D02*
X0322400Y0097711D01*
X0322400Y0096800D02*
X0322400Y0093854D01*
X0322508Y0093170D01*
X0322722Y0092511D01*
X0323037Y0091894D01*
X0323444Y0091334D01*
X0323934Y0090844D01*
X0324494Y0090437D01*
X0325111Y0090122D01*
X0325770Y0089908D01*
X0326454Y0089800D01*
X0326800Y0089800D01*
X0327146Y0089800D01*
X0327830Y0089908D01*
X0328489Y0090122D01*
X0329106Y0090437D01*
X0329666Y0090844D01*
X0330156Y0091334D01*
X0330563Y0091894D01*
X0330878Y0092511D01*
X0331092Y0093170D01*
X0331200Y0093854D01*
X0331200Y0096800D01*
X0326800Y0096800D01*
X0326800Y0096800D01*
X0326800Y0089800D01*
X0326800Y0096800D01*
X0326800Y0096800D01*
X0326800Y0096800D01*
X0322400Y0096800D01*
X0322400Y0096112D02*
X0321700Y0096112D01*
X0321700Y0094514D02*
X0322400Y0094514D01*
X0322591Y0092915D02*
X0321572Y0092915D01*
X0320846Y0091317D02*
X0323461Y0091317D01*
X0326800Y0091317D02*
X0326800Y0091317D01*
X0326800Y0092915D02*
X0326800Y0092915D01*
X0326800Y0094514D02*
X0326800Y0094514D01*
X0326800Y0096112D02*
X0326800Y0096112D01*
X0331200Y0096112D02*
X0331900Y0096112D01*
X0331900Y0094514D02*
X0331200Y0094514D01*
X0331009Y0092915D02*
X0332028Y0092915D01*
X0332754Y0091317D02*
X0330139Y0091317D01*
X0333700Y0089718D02*
X0320387Y0089718D01*
X0321400Y0088120D02*
X0333700Y0088120D01*
X0328602Y0086521D02*
X0321400Y0086521D01*
X0321400Y0086800D02*
X0316800Y0086800D01*
X0316800Y0086800D01*
X0316800Y0082200D01*
X0318705Y0082200D01*
X0321400Y0084895D01*
X0321400Y0086800D01*
X0321400Y0084923D02*
X0327003Y0084923D01*
X0326200Y0083324D02*
X0319829Y0083324D01*
X0319087Y0081726D02*
X0326200Y0081726D01*
X0326200Y0080127D02*
X0320685Y0080127D01*
X0321900Y0078529D02*
X0327152Y0078529D01*
X0328700Y0076930D02*
X0321900Y0076930D01*
X0321900Y0075332D02*
X0328700Y0075332D01*
X0328700Y0073733D02*
X0320945Y0073733D01*
X0319347Y0072134D02*
X0328700Y0072134D01*
X0328700Y0070536D02*
X0312400Y0070536D01*
X0312400Y0072134D02*
X0314253Y0072134D01*
X0312655Y0073733D02*
X0312400Y0073733D01*
X0311700Y0075332D02*
X0311188Y0075332D01*
X0311700Y0076930D02*
X0309590Y0076930D01*
X0314513Y0081726D02*
X0299645Y0081726D01*
X0301244Y0083324D02*
X0313771Y0083324D01*
X0314895Y0082200D02*
X0316800Y0082200D01*
X0316800Y0086800D01*
X0316800Y0086800D01*
X0316800Y0086800D01*
X0312200Y0086800D01*
X0312200Y0084895D01*
X0314895Y0082200D01*
X0316800Y0083324D02*
X0316800Y0083324D01*
X0316800Y0084923D02*
X0316800Y0084923D01*
X0316800Y0086521D02*
X0316800Y0086521D01*
X0312200Y0086521D02*
X0302400Y0086521D01*
X0302400Y0084923D02*
X0312200Y0084923D01*
X0296800Y0086800D02*
X0296800Y0096800D01*
X0285354Y0104105D02*
X0278246Y0104105D01*
X0280623Y0102506D02*
X0282977Y0102506D01*
X0282121Y0100908D02*
X0281479Y0100908D01*
X0281700Y0099309D02*
X0281900Y0099309D01*
X0281900Y0097711D02*
X0281700Y0097711D01*
X0266800Y0096800D02*
X0266800Y0106800D01*
X0196800Y0106800D01*
X0196800Y0056800D01*
X0161800Y0056800D01*
X0161800Y0046800D01*
X0161800Y0031800D01*
X0157449Y0035369D02*
X0129900Y0035369D01*
X0129900Y0036967D02*
X0135180Y0036967D01*
X0135825Y0036700D02*
X0137775Y0036700D01*
X0139576Y0037446D01*
X0140954Y0038824D01*
X0141700Y0040625D01*
X0141700Y0047775D01*
X0140954Y0049576D01*
X0139576Y0050954D01*
X0137775Y0051700D01*
X0135825Y0051700D01*
X0134024Y0050954D01*
X0132646Y0049576D01*
X0131900Y0047775D01*
X0131900Y0040625D01*
X0132646Y0038824D01*
X0134024Y0037446D01*
X0135825Y0036700D01*
X0138420Y0036967D02*
X0158700Y0036967D01*
X0158700Y0036620D02*
X0156200Y0034120D01*
X0156200Y0029480D01*
X0158280Y0027400D01*
X0151620Y0027400D01*
X0149120Y0029900D01*
X0144480Y0029900D01*
X0141200Y0026620D01*
X0141200Y0021980D01*
X0144480Y0018700D01*
X0149120Y0018700D01*
X0151620Y0021200D01*
X0202417Y0021200D01*
X0203556Y0021672D01*
X0203700Y0021816D01*
X0203700Y0014900D01*
X0101620Y0014900D01*
X0099120Y0017400D01*
X0094480Y0017400D01*
X0091200Y0014120D01*
X0091200Y0009480D01*
X0094080Y0006600D01*
X0079520Y0006600D01*
X0082400Y0009480D01*
X0082400Y0014120D01*
X0079900Y0016620D01*
X0079900Y0037770D01*
X0080954Y0038824D01*
X0081700Y0040625D01*
X0081700Y0047775D01*
X0080954Y0049576D01*
X0079576Y0050954D01*
X0077775Y0051700D01*
X0075825Y0051700D01*
X0074024Y0050954D01*
X0072646Y0049576D01*
X0071900Y0047775D01*
X0071900Y0040625D01*
X0072646Y0038824D01*
X0073700Y0037770D01*
X0073700Y0016620D01*
X0071200Y0014120D01*
X0071200Y0009480D01*
X0074080Y0006600D01*
X0027842Y0006600D01*
X0028539Y0007297D01*
X0029750Y0010219D01*
X0029750Y0013381D01*
X0028539Y0016303D01*
X0026303Y0018539D01*
X0023381Y0019750D01*
X0020219Y0019750D01*
X0017297Y0018539D01*
X0016600Y0017842D01*
X0016600Y0056800D01*
X0158700Y0056800D01*
X0158700Y0050630D01*
X0157646Y0049576D01*
X0156900Y0047775D01*
X0156900Y0040625D01*
X0157646Y0038824D01*
X0158700Y0037770D01*
X0158700Y0036620D01*
X0157905Y0038566D02*
X0154988Y0038566D01*
X0155156Y0038734D02*
X0154666Y0038244D01*
X0154106Y0037837D01*
X0153489Y0037522D01*
X0152830Y0037308D01*
X0152146Y0037200D01*
X0151800Y0037200D01*
X0151800Y0046800D01*
X0151800Y0046800D01*
X0151800Y0051200D01*
X0152146Y0051200D01*
X0152830Y0051092D01*
X0153489Y0050878D01*
X0154106Y0050563D01*
X0154666Y0050156D01*
X0155156Y0049666D01*
X0155563Y0049106D01*
X0155878Y0048489D01*
X0156092Y0047830D01*
X0156200Y0047146D01*
X0156200Y0046800D01*
X0151800Y0046800D01*
X0151800Y0046800D01*
X0151800Y0046800D01*
X0147400Y0046800D01*
X0147400Y0047146D01*
X0147508Y0047830D01*
X0147722Y0048489D01*
X0148037Y0049106D01*
X0148444Y0049666D01*
X0148934Y0050156D01*
X0149494Y0050563D01*
X0150111Y0050878D01*
X0150770Y0051092D01*
X0151454Y0051200D01*
X0151800Y0051200D01*
X0151800Y0046800D01*
X0156200Y0046800D01*
X0156200Y0041254D01*
X0156092Y0040570D01*
X0155878Y0039911D01*
X0155563Y0039294D01*
X0155156Y0038734D01*
X0155960Y0040164D02*
X0157091Y0040164D01*
X0156900Y0041763D02*
X0156200Y0041763D01*
X0156200Y0043361D02*
X0156900Y0043361D01*
X0156900Y0044960D02*
X0156200Y0044960D01*
X0156200Y0046558D02*
X0156900Y0046558D01*
X0157058Y0048157D02*
X0155986Y0048157D01*
X0155067Y0049755D02*
X0157826Y0049755D01*
X0158700Y0051354D02*
X0138610Y0051354D01*
X0140774Y0049755D02*
X0148533Y0049755D01*
X0147614Y0048157D02*
X0141542Y0048157D01*
X0141700Y0046558D02*
X0147400Y0046558D01*
X0147400Y0046800D02*
X0147400Y0041254D01*
X0147508Y0040570D01*
X0147722Y0039911D01*
X0148037Y0039294D01*
X0148444Y0038734D01*
X0148934Y0038244D01*
X0149494Y0037837D01*
X0150111Y0037522D01*
X0150770Y0037308D01*
X0151454Y0037200D01*
X0151800Y0037200D01*
X0151800Y0046800D01*
X0151800Y0046800D01*
X0147400Y0046800D01*
X0147400Y0044960D02*
X0141700Y0044960D01*
X0141700Y0043361D02*
X0147400Y0043361D01*
X0147400Y0041763D02*
X0141700Y0041763D01*
X0141509Y0040164D02*
X0147640Y0040164D01*
X0148612Y0038566D02*
X0140695Y0038566D01*
X0132905Y0038566D02*
X0130695Y0038566D01*
X0130954Y0038824D02*
X0129900Y0037770D01*
X0129900Y0029120D01*
X0132400Y0026620D01*
X0132400Y0021980D01*
X0129120Y0018700D01*
X0124480Y0018700D01*
X0121200Y0021980D01*
X0121200Y0026620D01*
X0123700Y0029120D01*
X0123700Y0037770D01*
X0122646Y0038824D01*
X0121900Y0040625D01*
X0121900Y0047775D01*
X0122646Y0049576D01*
X0124024Y0050954D01*
X0125825Y0051700D01*
X0127775Y0051700D01*
X0129576Y0050954D01*
X0130954Y0049576D01*
X0131700Y0047775D01*
X0131700Y0040625D01*
X0130954Y0038824D01*
X0131509Y0040164D02*
X0132091Y0040164D01*
X0131900Y0041763D02*
X0131700Y0041763D01*
X0131700Y0043361D02*
X0131900Y0043361D01*
X0131900Y0044960D02*
X0131700Y0044960D01*
X0131700Y0046558D02*
X0131900Y0046558D01*
X0132058Y0048157D02*
X0131542Y0048157D01*
X0130774Y0049755D02*
X0132826Y0049755D01*
X0134990Y0051354D02*
X0128610Y0051354D01*
X0124990Y0051354D02*
X0118610Y0051354D01*
X0117775Y0051700D02*
X0119576Y0050954D01*
X0120954Y0049576D01*
X0121700Y0047775D01*
X0121700Y0040625D01*
X0120954Y0038824D01*
X0119576Y0037446D01*
X0117775Y0036700D01*
X0115825Y0036700D01*
X0114024Y0037446D01*
X0112646Y0038824D01*
X0111900Y0040625D01*
X0111900Y0047775D01*
X0112646Y0049576D01*
X0114024Y0050954D01*
X0115825Y0051700D01*
X0117775Y0051700D01*
X0114990Y0051354D02*
X0108610Y0051354D01*
X0107775Y0051700D02*
X0109576Y0050954D01*
X0110954Y0049576D01*
X0111700Y0047775D01*
X0111700Y0040625D01*
X0110954Y0038824D01*
X0109576Y0037446D01*
X0107775Y0036700D01*
X0105825Y0036700D01*
X0104024Y0037446D01*
X0102646Y0038824D01*
X0101900Y0040625D01*
X0101900Y0047775D01*
X0102646Y0049576D01*
X0104024Y0050954D01*
X0105825Y0051700D01*
X0107775Y0051700D01*
X0104990Y0051354D02*
X0088610Y0051354D01*
X0087775Y0051700D02*
X0085825Y0051700D01*
X0084024Y0050954D01*
X0082646Y0049576D01*
X0081900Y0047775D01*
X0081900Y0040625D01*
X0082646Y0038824D01*
X0084024Y0037446D01*
X0085825Y0036700D01*
X0087775Y0036700D01*
X0089576Y0037446D01*
X0090954Y0038824D01*
X0091700Y0040625D01*
X0091700Y0047775D01*
X0090954Y0049576D01*
X0089576Y0050954D01*
X0087775Y0051700D01*
X0084990Y0051354D02*
X0078610Y0051354D01*
X0080774Y0049755D02*
X0082826Y0049755D01*
X0082058Y0048157D02*
X0081542Y0048157D01*
X0081700Y0046558D02*
X0081900Y0046558D01*
X0081900Y0044960D02*
X0081700Y0044960D01*
X0081700Y0043361D02*
X0081900Y0043361D01*
X0081900Y0041763D02*
X0081700Y0041763D01*
X0081509Y0040164D02*
X0082091Y0040164D01*
X0082905Y0038566D02*
X0080695Y0038566D01*
X0079900Y0036967D02*
X0085180Y0036967D01*
X0088420Y0036967D02*
X0105180Y0036967D01*
X0102905Y0038566D02*
X0090695Y0038566D01*
X0091509Y0040164D02*
X0102091Y0040164D01*
X0101900Y0041763D02*
X0091700Y0041763D01*
X0091700Y0043361D02*
X0101900Y0043361D01*
X0101900Y0044960D02*
X0091700Y0044960D01*
X0091700Y0046558D02*
X0101900Y0046558D01*
X0102058Y0048157D02*
X0091542Y0048157D01*
X0090774Y0049755D02*
X0102826Y0049755D01*
X0110774Y0049755D02*
X0112826Y0049755D01*
X0112058Y0048157D02*
X0111542Y0048157D01*
X0111700Y0046558D02*
X0111900Y0046558D01*
X0111900Y0044960D02*
X0111700Y0044960D01*
X0111700Y0043361D02*
X0111900Y0043361D01*
X0111900Y0041763D02*
X0111700Y0041763D01*
X0111509Y0040164D02*
X0112091Y0040164D01*
X0112905Y0038566D02*
X0110695Y0038566D01*
X0108420Y0036967D02*
X0115180Y0036967D01*
X0118420Y0036967D02*
X0123700Y0036967D01*
X0123700Y0035369D02*
X0079900Y0035369D01*
X0079900Y0033770D02*
X0123700Y0033770D01*
X0123700Y0032172D02*
X0079900Y0032172D01*
X0079900Y0030573D02*
X0123700Y0030573D01*
X0123555Y0028975D02*
X0079900Y0028975D01*
X0079900Y0027376D02*
X0121957Y0027376D01*
X0121200Y0025778D02*
X0079900Y0025778D01*
X0079900Y0024179D02*
X0121200Y0024179D01*
X0121200Y0022581D02*
X0079900Y0022581D01*
X0079900Y0020982D02*
X0122198Y0020982D01*
X0123797Y0019384D02*
X0079900Y0019384D01*
X0079900Y0017785D02*
X0203700Y0017785D01*
X0203700Y0016187D02*
X0100333Y0016187D01*
X0096800Y0011800D02*
X0206800Y0011800D01*
X0206800Y0079300D01*
X0286800Y0079300D01*
X0299251Y0073733D02*
X0301200Y0073733D01*
X0301200Y0072134D02*
X0299900Y0072134D01*
X0300984Y0070536D02*
X0301200Y0070536D01*
X0296800Y0071800D02*
X0296800Y0066800D01*
X0300463Y0062543D02*
X0302000Y0062543D01*
X0302000Y0064080D02*
X0302000Y0050845D01*
X0302731Y0049081D01*
X0304081Y0047731D01*
X0305845Y0047000D01*
X0313340Y0047000D01*
X0317000Y0036021D01*
X0317000Y0035845D01*
X0317300Y0035121D01*
X0317548Y0034376D01*
X0317663Y0034243D01*
X0317731Y0034081D01*
X0318285Y0033526D01*
X0318799Y0032934D01*
X0318957Y0032855D01*
X0319081Y0032731D01*
X0319806Y0032431D01*
X0320507Y0032080D01*
X0320683Y0032067D01*
X0320845Y0032000D01*
X0321630Y0032000D01*
X0322412Y0031944D01*
X0322579Y0032000D01*
X0357755Y0032000D01*
X0359519Y0032731D01*
X0364006Y0037218D01*
X0364000Y0037178D01*
X0364000Y0037000D01*
X0371600Y0037000D01*
X0371600Y0036600D01*
X0372000Y0036600D01*
X0372000Y0037000D01*
X0379600Y0037000D01*
X0379600Y0037178D01*
X0379482Y0037924D01*
X0379248Y0038643D01*
X0378905Y0039316D01*
X0378461Y0039927D01*
X0377927Y0040461D01*
X0377316Y0040905D01*
X0376643Y0041248D01*
X0375924Y0041482D01*
X0375809Y0041500D01*
X0375854Y0041500D01*
X0377802Y0042307D01*
X0379293Y0043798D01*
X0380100Y0045746D01*
X0380100Y0047854D01*
X0379293Y0049802D01*
X0377802Y0051293D01*
X0376578Y0051800D01*
X0377802Y0052307D01*
X0379293Y0053798D01*
X0380100Y0055746D01*
X0380100Y0057854D01*
X0379293Y0059802D01*
X0377802Y0061293D01*
X0375854Y0062100D01*
X0374900Y0062100D01*
X0374900Y0073700D01*
X0376980Y0073700D01*
X0379480Y0071200D01*
X0384120Y0071200D01*
X0387400Y0074480D01*
X0387400Y0079120D01*
X0385320Y0081200D01*
X0388700Y0081200D01*
X0388700Y0062100D01*
X0387746Y0062100D01*
X0385798Y0061293D01*
X0384307Y0059802D01*
X0383500Y0057854D01*
X0383500Y0055746D01*
X0384307Y0053798D01*
X0385798Y0052307D01*
X0387022Y0051800D01*
X0385798Y0051293D01*
X0384307Y0049802D01*
X0383500Y0047854D01*
X0383500Y0045746D01*
X0384307Y0043798D01*
X0385798Y0042307D01*
X0387746Y0041500D01*
X0387791Y0041500D01*
X0387676Y0041482D01*
X0386957Y0041248D01*
X0386284Y0040905D01*
X0385673Y0040461D01*
X0385139Y0039927D01*
X0384695Y0039316D01*
X0384352Y0038643D01*
X0384118Y0037924D01*
X0384000Y0037178D01*
X0384000Y0037000D01*
X0391600Y0037000D01*
X0391600Y0036600D01*
X0392000Y0036600D01*
X0392000Y0032000D01*
X0395178Y0032000D01*
X0395924Y0032118D01*
X0396643Y0032352D01*
X0397000Y0032534D01*
X0397000Y0028644D01*
X0355741Y0024518D01*
X0356200Y0024977D01*
X0356200Y0026800D01*
X0356200Y0028623D01*
X0353623Y0031200D01*
X0351800Y0031200D01*
X0351800Y0026800D01*
X0351800Y0026800D01*
X0356200Y0026800D01*
X0351800Y0026800D01*
X0351800Y0026800D01*
X0351800Y0026800D01*
X0347400Y0026800D01*
X0347400Y0028623D01*
X0349977Y0031200D01*
X0351800Y0031200D01*
X0351800Y0026800D01*
X0347400Y0026800D01*
X0347400Y0024977D01*
X0348576Y0023802D01*
X0329614Y0021905D01*
X0329120Y0022400D01*
X0324480Y0022400D01*
X0321200Y0019120D01*
X0321200Y0014480D01*
X0324480Y0011200D01*
X0329120Y0011200D01*
X0330240Y0012320D01*
X0398845Y0019181D01*
X0397297Y0018539D01*
X0395061Y0016303D01*
X0393850Y0013381D01*
X0393850Y0010219D01*
X0395061Y0007297D01*
X0395758Y0006600D01*
X0099520Y0006600D01*
X0101620Y0008700D01*
X0207417Y0008700D01*
X0208556Y0009172D01*
X0209428Y0010044D01*
X0209900Y0011183D01*
X0209900Y0076200D01*
X0275705Y0076200D01*
X0274307Y0074802D01*
X0273500Y0072854D01*
X0273500Y0070746D01*
X0274307Y0068798D01*
X0275798Y0067307D01*
X0277022Y0066800D01*
X0276539Y0066600D01*
X0265845Y0066600D01*
X0264081Y0065869D01*
X0262731Y0064519D01*
X0262000Y0062755D01*
X0262000Y0054920D01*
X0261200Y0054120D01*
X0261200Y0049480D01*
X0264080Y0046600D01*
X0260845Y0046600D01*
X0259081Y0045869D01*
X0257731Y0044519D01*
X0257000Y0042755D01*
X0257000Y0037061D01*
X0256800Y0036578D01*
X0256293Y0037802D01*
X0254802Y0039293D01*
X0252854Y0040100D01*
X0250746Y0040100D01*
X0248798Y0039293D01*
X0247307Y0037802D01*
X0246809Y0036600D01*
X0231600Y0036600D01*
X0231600Y0048680D01*
X0232400Y0049480D01*
X0232400Y0054120D01*
X0229120Y0057400D01*
X0224480Y0057400D01*
X0221200Y0054120D01*
X0221200Y0049480D01*
X0222000Y0048680D01*
X0222000Y0030845D01*
X0222731Y0029081D01*
X0224081Y0027731D01*
X0225845Y0027000D01*
X0246809Y0027000D01*
X0247307Y0025798D01*
X0248798Y0024307D01*
X0250746Y0023500D01*
X0252854Y0023500D01*
X0254802Y0024307D01*
X0256293Y0025798D01*
X0256800Y0027022D01*
X0257307Y0025798D01*
X0258798Y0024307D01*
X0260746Y0023500D01*
X0262854Y0023500D01*
X0264802Y0024307D01*
X0266293Y0025798D01*
X0266800Y0027022D01*
X0267000Y0026539D01*
X0267000Y0015845D01*
X0267731Y0014081D01*
X0269081Y0012731D01*
X0270845Y0012000D01*
X0283680Y0012000D01*
X0284480Y0011200D01*
X0289120Y0011200D01*
X0292400Y0014480D01*
X0292400Y0019120D01*
X0289120Y0022400D01*
X0284480Y0022400D01*
X0283680Y0021600D01*
X0276600Y0021600D01*
X0276600Y0026539D01*
X0276800Y0027022D01*
X0277307Y0025798D01*
X0278798Y0024307D01*
X0280746Y0023500D01*
X0282854Y0023500D01*
X0284802Y0024307D01*
X0286293Y0025798D01*
X0287100Y0027746D01*
X0287100Y0035854D01*
X0286625Y0037000D01*
X0289812Y0037000D01*
X0293285Y0033526D01*
X0293799Y0032934D01*
X0293957Y0032855D01*
X0294081Y0032731D01*
X0294806Y0032431D01*
X0301694Y0028986D01*
X0304480Y0026200D01*
X0309120Y0026200D01*
X0312400Y0029480D01*
X0312400Y0034120D01*
X0309120Y0037400D01*
X0306333Y0037400D01*
X0299643Y0040745D01*
X0294519Y0045869D01*
X0292755Y0046600D01*
X0269520Y0046600D01*
X0272400Y0049480D01*
X0272400Y0054120D01*
X0271600Y0054920D01*
X0271600Y0057000D01*
X0276539Y0057000D01*
X0277746Y0056500D01*
X0277791Y0056500D01*
X0277676Y0056482D01*
X0276957Y0056248D01*
X0276284Y0055905D01*
X0275673Y0055461D01*
X0275139Y0054927D01*
X0274695Y0054316D01*
X0274352Y0053643D01*
X0274118Y0052924D01*
X0274000Y0052178D01*
X0274000Y0052000D01*
X0281600Y0052000D01*
X0281600Y0051600D01*
X0282000Y0051600D01*
X0282000Y0052000D01*
X0289600Y0052000D01*
X0289600Y0052178D01*
X0289482Y0052924D01*
X0289248Y0053643D01*
X0288905Y0054316D01*
X0288461Y0054927D01*
X0287927Y0055461D01*
X0287316Y0055905D01*
X0286643Y0056248D01*
X0285924Y0056482D01*
X0285809Y0056500D01*
X0285854Y0056500D01*
X0287802Y0057307D01*
X0289293Y0058798D01*
X0290100Y0060746D01*
X0290100Y0062854D01*
X0289293Y0064802D01*
X0287802Y0066293D01*
X0286578Y0066800D01*
X0287802Y0067307D01*
X0289195Y0068700D01*
X0291200Y0068700D01*
X0291200Y0064480D01*
X0294480Y0061200D01*
X0299120Y0061200D01*
X0302000Y0064080D01*
X0302000Y0060945D02*
X0290100Y0060945D01*
X0290100Y0062543D02*
X0293137Y0062543D01*
X0291538Y0064142D02*
X0289567Y0064142D01*
X0288355Y0065740D02*
X0291200Y0065740D01*
X0291200Y0067339D02*
X0287834Y0067339D01*
X0281800Y0071800D02*
X0296800Y0071800D01*
X0311857Y0068937D02*
X0328700Y0068937D01*
X0328700Y0067339D02*
X0311600Y0067339D01*
X0311600Y0065740D02*
X0328700Y0065740D01*
X0327966Y0064142D02*
X0311600Y0064142D01*
X0311600Y0062543D02*
X0327400Y0062543D01*
X0327400Y0060945D02*
X0311600Y0060945D01*
X0311600Y0059346D02*
X0328013Y0059346D01*
X0328700Y0057748D02*
X0311600Y0057748D01*
X0318843Y0056149D02*
X0328700Y0056149D01*
X0328700Y0054551D02*
X0320837Y0054551D01*
X0321518Y0052952D02*
X0328700Y0052952D01*
X0328700Y0051354D02*
X0322008Y0051354D01*
X0322541Y0049755D02*
X0327826Y0049755D01*
X0326900Y0048157D02*
X0323074Y0048157D01*
X0323607Y0046558D02*
X0326900Y0046558D01*
X0326900Y0044960D02*
X0324140Y0044960D01*
X0324673Y0043361D02*
X0328309Y0043361D01*
X0325205Y0041763D02*
X0354975Y0041763D01*
X0355291Y0043361D02*
X0356573Y0043361D01*
X0356700Y0044960D02*
X0357000Y0044960D01*
X0357000Y0046558D02*
X0356700Y0046558D01*
X0356700Y0048157D02*
X0357167Y0048157D01*
X0357967Y0049755D02*
X0355774Y0049755D01*
X0354900Y0051354D02*
X0360251Y0051354D01*
X0365152Y0052952D02*
X0354900Y0052952D01*
X0354900Y0054551D02*
X0363995Y0054551D01*
X0363500Y0056149D02*
X0354900Y0056149D01*
X0354900Y0057748D02*
X0363500Y0057748D01*
X0364118Y0059346D02*
X0355587Y0059346D01*
X0356200Y0060945D02*
X0365450Y0060945D01*
X0368700Y0062543D02*
X0356200Y0062543D01*
X0355634Y0064142D02*
X0368700Y0064142D01*
X0368700Y0065740D02*
X0354900Y0065740D01*
X0354900Y0067339D02*
X0368700Y0067339D01*
X0368700Y0068937D02*
X0354900Y0068937D01*
X0354900Y0070536D02*
X0368700Y0070536D01*
X0368700Y0072134D02*
X0365054Y0072134D01*
X0366653Y0073733D02*
X0368700Y0073733D01*
X0368700Y0075332D02*
X0367400Y0075332D01*
X0367400Y0076930D02*
X0368700Y0076930D01*
X0369161Y0078529D02*
X0367400Y0078529D01*
X0366393Y0080127D02*
X0377207Y0080127D01*
X0378806Y0081726D02*
X0369645Y0081726D01*
X0371244Y0083324D02*
X0382356Y0083324D01*
X0381200Y0084923D02*
X0372400Y0084923D01*
X0372400Y0086521D02*
X0381200Y0086521D01*
X0381200Y0088120D02*
X0372400Y0088120D01*
X0371801Y0089718D02*
X0374816Y0089718D01*
X0372754Y0091317D02*
X0370846Y0091317D01*
X0371572Y0092915D02*
X0372028Y0092915D01*
X0371900Y0094514D02*
X0371700Y0094514D01*
X0371700Y0096112D02*
X0371900Y0096112D01*
X0371900Y0097711D02*
X0371700Y0097711D01*
X0371700Y0099309D02*
X0371900Y0099309D01*
X0372121Y0100908D02*
X0371479Y0100908D01*
X0370623Y0102506D02*
X0372977Y0102506D01*
X0373394Y0104105D02*
X0373700Y0104105D01*
X0376800Y0106800D02*
X0376800Y0096800D01*
X0381700Y0096112D02*
X0381900Y0096112D01*
X0381900Y0094514D02*
X0381700Y0094514D01*
X0381572Y0092915D02*
X0382028Y0092915D01*
X0382754Y0091317D02*
X0380846Y0091317D01*
X0381799Y0089718D02*
X0378784Y0089718D01*
X0386800Y0086800D02*
X0391800Y0086800D01*
X0391800Y0056800D01*
X0385450Y0060945D02*
X0378150Y0060945D01*
X0379482Y0059346D02*
X0384118Y0059346D01*
X0383500Y0057748D02*
X0380100Y0057748D01*
X0380100Y0056149D02*
X0383500Y0056149D01*
X0383995Y0054551D02*
X0379605Y0054551D01*
X0378448Y0052952D02*
X0385152Y0052952D01*
X0385944Y0051354D02*
X0377656Y0051354D01*
X0379313Y0049755D02*
X0384287Y0049755D01*
X0383625Y0048157D02*
X0379975Y0048157D01*
X0380100Y0046558D02*
X0383500Y0046558D01*
X0383826Y0044960D02*
X0379774Y0044960D01*
X0378857Y0043361D02*
X0384743Y0043361D01*
X0387111Y0041763D02*
X0376489Y0041763D01*
X0378224Y0040164D02*
X0385376Y0040164D01*
X0384327Y0038566D02*
X0379273Y0038566D01*
X0379600Y0036600D02*
X0372000Y0036600D01*
X0372000Y0032000D01*
X0375178Y0032000D01*
X0375924Y0032118D01*
X0376643Y0032352D01*
X0377316Y0032695D01*
X0377927Y0033139D01*
X0378461Y0033673D01*
X0378905Y0034284D01*
X0379248Y0034957D01*
X0379482Y0035676D01*
X0379600Y0036422D01*
X0379600Y0036600D01*
X0379382Y0035369D02*
X0384218Y0035369D01*
X0384118Y0035676D02*
X0384352Y0034957D01*
X0384695Y0034284D01*
X0385139Y0033673D01*
X0385673Y0033139D01*
X0386284Y0032695D01*
X0386957Y0032352D01*
X0387676Y0032118D01*
X0388422Y0032000D01*
X0391600Y0032000D01*
X0391600Y0036600D01*
X0384000Y0036600D01*
X0384000Y0036422D01*
X0384118Y0035676D01*
X0385068Y0033770D02*
X0378532Y0033770D01*
X0376089Y0032172D02*
X0387511Y0032172D01*
X0391600Y0032172D02*
X0392000Y0032172D01*
X0392000Y0033770D02*
X0391600Y0033770D01*
X0391600Y0035369D02*
X0392000Y0035369D01*
X0391600Y0036967D02*
X0372000Y0036967D01*
X0371600Y0036967D02*
X0363755Y0036967D01*
X0364000Y0036600D02*
X0364000Y0036422D01*
X0364118Y0035676D01*
X0364352Y0034957D01*
X0364695Y0034284D01*
X0365139Y0033673D01*
X0365673Y0033139D01*
X0366284Y0032695D01*
X0366957Y0032352D01*
X0367676Y0032118D01*
X0368422Y0032000D01*
X0371600Y0032000D01*
X0371600Y0036600D01*
X0364000Y0036600D01*
X0364218Y0035369D02*
X0362157Y0035369D01*
X0360558Y0033770D02*
X0365068Y0033770D01*
X0367511Y0032172D02*
X0358169Y0032172D01*
X0355848Y0028975D02*
X0397000Y0028975D01*
X0397000Y0030573D02*
X0354249Y0030573D01*
X0351800Y0030573D02*
X0351800Y0030573D01*
X0351800Y0028975D02*
X0351800Y0028975D01*
X0351800Y0027376D02*
X0351800Y0027376D01*
X0349351Y0030573D02*
X0334249Y0030573D01*
X0333623Y0031200D02*
X0331800Y0031200D01*
X0331800Y0026800D01*
X0331800Y0026800D01*
X0336200Y0026800D01*
X0336200Y0028623D01*
X0333623Y0031200D01*
X0331800Y0031200D02*
X0329977Y0031200D01*
X0327400Y0028623D01*
X0327400Y0026800D01*
X0331800Y0026800D01*
X0331800Y0026800D01*
X0331800Y0026800D01*
X0331800Y0031200D01*
X0331800Y0030573D02*
X0331800Y0030573D01*
X0331800Y0028975D02*
X0331800Y0028975D01*
X0331800Y0027376D02*
X0331800Y0027376D01*
X0331800Y0026800D02*
X0327400Y0026800D01*
X0327400Y0024977D01*
X0329977Y0022400D01*
X0331800Y0022400D01*
X0333623Y0022400D01*
X0336200Y0024977D01*
X0336200Y0026800D01*
X0331800Y0026800D01*
X0331800Y0022400D01*
X0331800Y0026800D01*
X0331800Y0026800D01*
X0331800Y0025778D02*
X0331800Y0025778D01*
X0331800Y0024179D02*
X0331800Y0024179D01*
X0331800Y0022581D02*
X0331800Y0022581D01*
X0333803Y0022581D02*
X0336367Y0022581D01*
X0335402Y0024179D02*
X0348198Y0024179D01*
X0347400Y0025778D02*
X0336200Y0025778D01*
X0336200Y0027376D02*
X0347400Y0027376D01*
X0347752Y0028975D02*
X0335848Y0028975D01*
X0329351Y0030573D02*
X0312400Y0030573D01*
X0312400Y0032172D02*
X0320323Y0032172D01*
X0318042Y0033770D02*
X0312400Y0033770D01*
X0311151Y0035369D02*
X0317197Y0035369D01*
X0316685Y0036967D02*
X0309552Y0036967D01*
X0304002Y0038566D02*
X0316152Y0038566D01*
X0315619Y0040164D02*
X0300805Y0040164D01*
X0298625Y0041763D02*
X0315086Y0041763D01*
X0314553Y0043361D02*
X0297027Y0043361D01*
X0295428Y0044960D02*
X0314020Y0044960D01*
X0313488Y0046558D02*
X0292855Y0046558D01*
X0288905Y0049284D02*
X0289248Y0049957D01*
X0289482Y0050676D01*
X0289600Y0051422D01*
X0289600Y0051600D01*
X0282000Y0051600D01*
X0282000Y0047000D01*
X0285178Y0047000D01*
X0285924Y0047118D01*
X0286643Y0047352D01*
X0287316Y0047695D01*
X0287927Y0048139D01*
X0288461Y0048673D01*
X0288905Y0049284D01*
X0289145Y0049755D02*
X0302451Y0049755D01*
X0302000Y0051354D02*
X0289589Y0051354D01*
X0289473Y0052952D02*
X0302000Y0052952D01*
X0302000Y0054551D02*
X0288734Y0054551D01*
X0286837Y0056149D02*
X0302000Y0056149D01*
X0302000Y0057748D02*
X0288243Y0057748D01*
X0289520Y0059346D02*
X0302000Y0059346D01*
X0303655Y0048157D02*
X0287945Y0048157D01*
X0282000Y0048157D02*
X0281600Y0048157D01*
X0281600Y0047000D02*
X0281600Y0051600D01*
X0274000Y0051600D01*
X0274000Y0051422D01*
X0274118Y0050676D01*
X0274352Y0049957D01*
X0274695Y0049284D01*
X0275139Y0048673D01*
X0275673Y0048139D01*
X0276284Y0047695D01*
X0276957Y0047352D01*
X0277676Y0047118D01*
X0278422Y0047000D01*
X0281600Y0047000D01*
X0281600Y0049755D02*
X0282000Y0049755D01*
X0282000Y0051354D02*
X0281600Y0051354D01*
X0275655Y0048157D02*
X0271076Y0048157D01*
X0272400Y0049755D02*
X0274455Y0049755D01*
X0274011Y0051354D02*
X0272400Y0051354D01*
X0272400Y0052952D02*
X0274127Y0052952D01*
X0274866Y0054551D02*
X0271969Y0054551D01*
X0271600Y0056149D02*
X0276763Y0056149D01*
X0262000Y0056149D02*
X0230370Y0056149D01*
X0231969Y0054551D02*
X0261631Y0054551D01*
X0261200Y0052952D02*
X0232400Y0052952D01*
X0232400Y0051354D02*
X0261200Y0051354D01*
X0261200Y0049755D02*
X0232400Y0049755D01*
X0231600Y0048157D02*
X0262524Y0048157D01*
X0260745Y0046558D02*
X0231600Y0046558D01*
X0231600Y0044960D02*
X0258172Y0044960D01*
X0257251Y0043361D02*
X0231600Y0043361D01*
X0231600Y0041763D02*
X0257000Y0041763D01*
X0257000Y0040164D02*
X0231600Y0040164D01*
X0231600Y0038566D02*
X0248070Y0038566D01*
X0246961Y0036967D02*
X0231600Y0036967D01*
X0222000Y0036967D02*
X0209900Y0036967D01*
X0209900Y0035369D02*
X0222000Y0035369D01*
X0222000Y0033770D02*
X0209900Y0033770D01*
X0209900Y0032172D02*
X0222000Y0032172D01*
X0222113Y0030573D02*
X0209900Y0030573D01*
X0209900Y0028975D02*
X0222837Y0028975D01*
X0224937Y0027376D02*
X0209900Y0027376D01*
X0209900Y0025778D02*
X0247327Y0025778D01*
X0249106Y0024179D02*
X0209900Y0024179D01*
X0209900Y0022581D02*
X0267000Y0022581D01*
X0267000Y0024179D02*
X0264494Y0024179D01*
X0266273Y0025778D02*
X0267000Y0025778D01*
X0267000Y0020982D02*
X0209900Y0020982D01*
X0209900Y0019384D02*
X0267000Y0019384D01*
X0267000Y0017785D02*
X0209900Y0017785D01*
X0209900Y0016187D02*
X0267000Y0016187D01*
X0267521Y0014588D02*
X0209900Y0014588D01*
X0209900Y0012990D02*
X0268822Y0012990D01*
X0276600Y0022581D02*
X0329797Y0022581D01*
X0328198Y0024179D02*
X0284494Y0024179D01*
X0286273Y0025778D02*
X0327400Y0025778D01*
X0327400Y0027376D02*
X0310296Y0027376D01*
X0311894Y0028975D02*
X0327752Y0028975D01*
X0323063Y0020982D02*
X0290537Y0020982D01*
X0292136Y0019384D02*
X0321464Y0019384D01*
X0321200Y0017785D02*
X0292400Y0017785D01*
X0292400Y0016187D02*
X0321200Y0016187D01*
X0321200Y0014588D02*
X0292400Y0014588D01*
X0290909Y0012990D02*
X0322691Y0012990D01*
X0324289Y0011391D02*
X0289311Y0011391D01*
X0284289Y0011391D02*
X0209900Y0011391D01*
X0209177Y0009793D02*
X0394027Y0009793D01*
X0393850Y0011391D02*
X0329311Y0011391D01*
X0336935Y0012990D02*
X0393850Y0012990D01*
X0394350Y0014588D02*
X0352920Y0014588D01*
X0356200Y0025778D02*
X0368337Y0025778D01*
X0371600Y0032172D02*
X0372000Y0032172D01*
X0372000Y0033770D02*
X0371600Y0033770D01*
X0371600Y0035369D02*
X0372000Y0035369D01*
X0384323Y0027376D02*
X0356200Y0027376D01*
X0368905Y0016187D02*
X0395012Y0016187D01*
X0396543Y0017785D02*
X0384891Y0017785D01*
X0394689Y0008194D02*
X0101114Y0008194D01*
X0092486Y0008194D02*
X0081114Y0008194D01*
X0082400Y0009793D02*
X0091200Y0009793D01*
X0091200Y0011391D02*
X0082400Y0011391D01*
X0082400Y0012990D02*
X0091200Y0012990D01*
X0091669Y0014588D02*
X0081931Y0014588D01*
X0080333Y0016187D02*
X0093267Y0016187D01*
X0076800Y0011800D02*
X0076800Y0046800D01*
X0074990Y0051354D02*
X0068610Y0051354D01*
X0067775Y0051700D02*
X0069576Y0050954D01*
X0070954Y0049576D01*
X0071700Y0047775D01*
X0071700Y0040625D01*
X0070954Y0038824D01*
X0069576Y0037446D01*
X0067775Y0036700D01*
X0065825Y0036700D01*
X0064024Y0037446D01*
X0062646Y0038824D01*
X0061900Y0040625D01*
X0061900Y0047775D01*
X0062646Y0049576D01*
X0064024Y0050954D01*
X0065825Y0051700D01*
X0067775Y0051700D01*
X0064990Y0051354D02*
X0058610Y0051354D01*
X0057775Y0051700D02*
X0059576Y0050954D01*
X0060954Y0049576D01*
X0061700Y0047775D01*
X0061700Y0040625D01*
X0060954Y0038824D01*
X0059576Y0037446D01*
X0057775Y0036700D01*
X0055825Y0036700D01*
X0054024Y0037446D01*
X0052646Y0038824D01*
X0051900Y0040625D01*
X0051900Y0047775D01*
X0052646Y0049576D01*
X0054024Y0050954D01*
X0055825Y0051700D01*
X0057775Y0051700D01*
X0054990Y0051354D02*
X0016600Y0051354D01*
X0016600Y0052952D02*
X0158700Y0052952D01*
X0158700Y0054551D02*
X0016600Y0054551D01*
X0016600Y0056149D02*
X0158700Y0056149D01*
X0151800Y0049755D02*
X0151800Y0049755D01*
X0151800Y0048157D02*
X0151800Y0048157D01*
X0151800Y0046558D02*
X0151800Y0046558D01*
X0151800Y0044960D02*
X0151800Y0044960D01*
X0151800Y0043361D02*
X0151800Y0043361D01*
X0151800Y0041763D02*
X0151800Y0041763D01*
X0151800Y0040164D02*
X0151800Y0040164D01*
X0151800Y0038566D02*
X0151800Y0038566D01*
X0156200Y0033770D02*
X0129900Y0033770D01*
X0129900Y0032172D02*
X0156200Y0032172D01*
X0156200Y0030573D02*
X0129900Y0030573D01*
X0130045Y0028975D02*
X0143555Y0028975D01*
X0141957Y0027376D02*
X0131643Y0027376D01*
X0132400Y0025778D02*
X0141200Y0025778D01*
X0141200Y0024179D02*
X0132400Y0024179D01*
X0132400Y0022581D02*
X0141200Y0022581D01*
X0142198Y0020982D02*
X0131402Y0020982D01*
X0129803Y0019384D02*
X0143797Y0019384D01*
X0149803Y0019384D02*
X0203700Y0019384D01*
X0203700Y0020982D02*
X0151402Y0020982D01*
X0146800Y0024300D02*
X0201800Y0024300D01*
X0201800Y0086800D01*
X0191800Y0086521D02*
X0183689Y0086521D01*
X0184576Y0086154D02*
X0182775Y0086900D01*
X0180825Y0086900D01*
X0179024Y0086154D01*
X0177646Y0084776D01*
X0176900Y0082975D01*
X0176900Y0075825D01*
X0177646Y0074024D01*
X0179024Y0072646D01*
X0180825Y0071900D01*
X0182775Y0071900D01*
X0184576Y0072646D01*
X0185954Y0074024D01*
X0186700Y0075825D01*
X0186700Y0082975D01*
X0185954Y0084776D01*
X0184576Y0086154D01*
X0185807Y0084923D02*
X0191800Y0084923D01*
X0191800Y0083324D02*
X0186555Y0083324D01*
X0186700Y0081726D02*
X0191800Y0081726D01*
X0191800Y0080127D02*
X0186700Y0080127D01*
X0186700Y0078529D02*
X0191800Y0078529D01*
X0191800Y0076930D02*
X0186700Y0076930D01*
X0186495Y0075332D02*
X0191800Y0075332D01*
X0191800Y0073733D02*
X0185663Y0073733D01*
X0183341Y0072134D02*
X0191800Y0072134D01*
X0191800Y0070536D02*
X0016600Y0070536D01*
X0016600Y0072134D02*
X0055259Y0072134D01*
X0055825Y0071900D02*
X0057775Y0071900D01*
X0059576Y0072646D01*
X0060954Y0074024D01*
X0061700Y0075825D01*
X0061700Y0082975D01*
X0060954Y0084776D01*
X0059576Y0086154D01*
X0057775Y0086900D01*
X0055825Y0086900D01*
X0054024Y0086154D01*
X0052646Y0084776D01*
X0052175Y0083638D01*
X0051412Y0084400D01*
X0047188Y0084400D01*
X0044200Y0081412D01*
X0044200Y0077188D01*
X0047188Y0074200D01*
X0051412Y0074200D01*
X0052233Y0075021D01*
X0052646Y0074024D01*
X0054024Y0072646D01*
X0055825Y0071900D01*
X0058341Y0072134D02*
X0065259Y0072134D01*
X0065825Y0071900D02*
X0067775Y0071900D01*
X0069576Y0072646D01*
X0070954Y0074024D01*
X0071700Y0075825D01*
X0071700Y0082975D01*
X0070954Y0084776D01*
X0069576Y0086154D01*
X0067775Y0086900D01*
X0065825Y0086900D01*
X0064024Y0086154D01*
X0062646Y0084776D01*
X0061900Y0082975D01*
X0061900Y0075825D01*
X0062646Y0074024D01*
X0064024Y0072646D01*
X0065825Y0071900D01*
X0068341Y0072134D02*
X0075259Y0072134D01*
X0075825Y0071900D02*
X0077775Y0071900D01*
X0079576Y0072646D01*
X0080954Y0074024D01*
X0081700Y0075825D01*
X0081700Y0082975D01*
X0080954Y0084776D01*
X0079900Y0085830D01*
X0079900Y0100370D01*
X0080954Y0101424D01*
X0081700Y0103225D01*
X0081700Y0103700D01*
X0081900Y0103700D01*
X0081900Y0103225D01*
X0082646Y0101424D01*
X0084024Y0100046D01*
X0085825Y0099300D01*
X0087775Y0099300D01*
X0089576Y0100046D01*
X0090954Y0101424D01*
X0091700Y0103225D01*
X0091700Y0110375D01*
X0090954Y0112176D01*
X0089576Y0113554D01*
X0087775Y0114300D01*
X0085825Y0114300D01*
X0084024Y0113554D01*
X0082646Y0112176D01*
X0081900Y0110375D01*
X0081900Y0109900D01*
X0081700Y0109900D01*
X0081700Y0110375D01*
X0080954Y0112176D01*
X0079900Y0113230D01*
X0079900Y0122417D01*
X0079428Y0123556D01*
X0078556Y0124428D01*
X0077417Y0124900D01*
X0039120Y0124900D01*
X0036620Y0127400D01*
X0031980Y0127400D01*
X0028700Y0124120D01*
X0028700Y0119480D01*
X0031980Y0116200D01*
X0036620Y0116200D01*
X0039120Y0118700D01*
X0073700Y0118700D01*
X0073700Y0113230D01*
X0072646Y0112176D01*
X0071900Y0110375D01*
X0071900Y0103225D01*
X0072646Y0101424D01*
X0073700Y0100370D01*
X0073700Y0085830D01*
X0072646Y0084776D01*
X0071900Y0082975D01*
X0071900Y0075825D01*
X0072646Y0074024D01*
X0074024Y0072646D01*
X0075825Y0071900D01*
X0078341Y0072134D02*
X0105259Y0072134D01*
X0105825Y0071900D02*
X0107775Y0071900D01*
X0109576Y0072646D01*
X0110954Y0074024D01*
X0111700Y0075825D01*
X0111700Y0082975D01*
X0110954Y0084776D01*
X0109576Y0086154D01*
X0108257Y0086700D01*
X0108912Y0086700D01*
X0111900Y0089688D01*
X0111900Y0093912D01*
X0108912Y0096900D01*
X0104688Y0096900D01*
X0101700Y0093912D01*
X0101700Y0089688D01*
X0104688Y0086700D01*
X0105343Y0086700D01*
X0104024Y0086154D01*
X0102646Y0084776D01*
X0101900Y0082975D01*
X0101900Y0075825D01*
X0102646Y0074024D01*
X0104024Y0072646D01*
X0105825Y0071900D01*
X0108341Y0072134D02*
X0115259Y0072134D01*
X0115825Y0071900D02*
X0117775Y0071900D01*
X0119576Y0072646D01*
X0120954Y0074024D01*
X0121700Y0075825D01*
X0121700Y0082975D01*
X0120954Y0084776D01*
X0119576Y0086154D01*
X0117775Y0086900D01*
X0115825Y0086900D01*
X0114024Y0086154D01*
X0112646Y0084776D01*
X0111900Y0082975D01*
X0111900Y0075825D01*
X0112646Y0074024D01*
X0114024Y0072646D01*
X0115825Y0071900D01*
X0118341Y0072134D02*
X0125259Y0072134D01*
X0125825Y0071900D02*
X0127775Y0071900D01*
X0129576Y0072646D01*
X0130954Y0074024D01*
X0131700Y0075825D01*
X0131700Y0082975D01*
X0130954Y0084776D01*
X0129900Y0085830D01*
X0129900Y0098700D01*
X0171980Y0098700D01*
X0174480Y0096200D01*
X0179120Y0096200D01*
X0182400Y0099480D01*
X0182400Y0104120D01*
X0179120Y0107400D01*
X0174480Y0107400D01*
X0171980Y0104900D01*
X0129900Y0104900D01*
X0129900Y0107417D01*
X0129428Y0108556D01*
X0128556Y0109428D01*
X0127417Y0109900D01*
X0101700Y0109900D01*
X0101700Y0110375D01*
X0100954Y0112176D01*
X0099576Y0113554D01*
X0097775Y0114300D01*
X0095825Y0114300D01*
X0094024Y0113554D01*
X0092646Y0112176D01*
X0091900Y0110375D01*
X0091900Y0103225D01*
X0092646Y0101424D01*
X0094024Y0100046D01*
X0095825Y0099300D01*
X0097775Y0099300D01*
X0099576Y0100046D01*
X0100954Y0101424D01*
X0101700Y0103225D01*
X0101700Y0103700D01*
X0123700Y0103700D01*
X0123700Y0085830D01*
X0122646Y0084776D01*
X0121900Y0082975D01*
X0121900Y0075825D01*
X0122646Y0074024D01*
X0124024Y0072646D01*
X0125825Y0071900D01*
X0128341Y0072134D02*
X0150259Y0072134D01*
X0150825Y0071900D02*
X0152775Y0071900D01*
X0154576Y0072646D01*
X0155954Y0074024D01*
X0156700Y0075825D01*
X0156700Y0082975D01*
X0155954Y0084776D01*
X0154576Y0086154D01*
X0152775Y0086900D01*
X0150825Y0086900D01*
X0149024Y0086154D01*
X0147646Y0084776D01*
X0146900Y0082975D01*
X0146900Y0075825D01*
X0147646Y0074024D01*
X0149024Y0072646D01*
X0150825Y0071900D01*
X0153341Y0072134D02*
X0160259Y0072134D01*
X0160825Y0071900D02*
X0162775Y0071900D01*
X0164576Y0072646D01*
X0165954Y0074024D01*
X0166700Y0075825D01*
X0166700Y0082975D01*
X0165954Y0084776D01*
X0164900Y0085830D01*
X0164900Y0086980D01*
X0167400Y0089480D01*
X0167400Y0094120D01*
X0164120Y0097400D01*
X0159480Y0097400D01*
X0156200Y0094120D01*
X0156200Y0089480D01*
X0158700Y0086980D01*
X0158700Y0085830D01*
X0157646Y0084776D01*
X0156900Y0082975D01*
X0156900Y0075825D01*
X0157646Y0074024D01*
X0159024Y0072646D01*
X0160825Y0071900D01*
X0163341Y0072134D02*
X0170259Y0072134D01*
X0170825Y0071900D02*
X0172775Y0071900D01*
X0174576Y0072646D01*
X0175954Y0074024D01*
X0176700Y0075825D01*
X0176700Y0082975D01*
X0175954Y0084776D01*
X0174576Y0086154D01*
X0172775Y0086900D01*
X0170825Y0086900D01*
X0169024Y0086154D01*
X0167646Y0084776D01*
X0166900Y0082975D01*
X0166900Y0075825D01*
X0167646Y0074024D01*
X0169024Y0072646D01*
X0170825Y0071900D01*
X0173341Y0072134D02*
X0180259Y0072134D01*
X0177937Y0073733D02*
X0175663Y0073733D01*
X0176495Y0075332D02*
X0177105Y0075332D01*
X0176900Y0076930D02*
X0176700Y0076930D01*
X0176700Y0078529D02*
X0176900Y0078529D01*
X0176900Y0080127D02*
X0176700Y0080127D01*
X0176700Y0081726D02*
X0176900Y0081726D01*
X0177045Y0083324D02*
X0176555Y0083324D01*
X0175807Y0084923D02*
X0177793Y0084923D01*
X0179911Y0086521D02*
X0173689Y0086521D01*
X0169911Y0086521D02*
X0164900Y0086521D01*
X0165807Y0084923D02*
X0167793Y0084923D01*
X0167045Y0083324D02*
X0166555Y0083324D01*
X0166700Y0081726D02*
X0166900Y0081726D01*
X0166900Y0080127D02*
X0166700Y0080127D01*
X0166700Y0078529D02*
X0166900Y0078529D01*
X0166900Y0076930D02*
X0166700Y0076930D01*
X0166495Y0075332D02*
X0167105Y0075332D01*
X0167937Y0073733D02*
X0165663Y0073733D01*
X0161800Y0076800D02*
X0161800Y0091800D01*
X0166039Y0088120D02*
X0191800Y0088120D01*
X0191800Y0089718D02*
X0167400Y0089718D01*
X0167400Y0091317D02*
X0191800Y0091317D01*
X0191800Y0092915D02*
X0167400Y0092915D01*
X0167006Y0094514D02*
X0191800Y0094514D01*
X0191800Y0096112D02*
X0165407Y0096112D01*
X0172970Y0097711D02*
X0129900Y0097711D01*
X0129900Y0096112D02*
X0158193Y0096112D01*
X0156594Y0094514D02*
X0129900Y0094514D01*
X0129900Y0092915D02*
X0156200Y0092915D01*
X0156200Y0091317D02*
X0129900Y0091317D01*
X0129900Y0089718D02*
X0156200Y0089718D01*
X0157561Y0088120D02*
X0129900Y0088120D01*
X0129900Y0086521D02*
X0149911Y0086521D01*
X0147793Y0084923D02*
X0140100Y0084923D01*
X0140156Y0084866D02*
X0139666Y0085356D01*
X0139106Y0085763D01*
X0138489Y0086078D01*
X0137830Y0086292D01*
X0137146Y0086400D01*
X0136800Y0086400D01*
X0136800Y0076800D01*
X0141200Y0076800D01*
X0141200Y0082346D01*
X0141092Y0083030D01*
X0140878Y0083689D01*
X0140563Y0084306D01*
X0140156Y0084866D01*
X0140996Y0083324D02*
X0147045Y0083324D01*
X0146900Y0081726D02*
X0141200Y0081726D01*
X0141200Y0080127D02*
X0146900Y0080127D01*
X0146900Y0078529D02*
X0141200Y0078529D01*
X0141200Y0076930D02*
X0146900Y0076930D01*
X0147105Y0075332D02*
X0140949Y0075332D01*
X0140878Y0075111D02*
X0141092Y0075770D01*
X0141200Y0076454D01*
X0141200Y0076800D01*
X0136800Y0076800D01*
X0136800Y0076800D01*
X0136800Y0076800D01*
X0136800Y0072400D01*
X0137146Y0072400D01*
X0137830Y0072508D01*
X0138489Y0072722D01*
X0139106Y0073037D01*
X0139666Y0073444D01*
X0140156Y0073934D01*
X0140563Y0074494D01*
X0140878Y0075111D01*
X0139956Y0073733D02*
X0147937Y0073733D01*
X0155663Y0073733D02*
X0157937Y0073733D01*
X0157105Y0075332D02*
X0156495Y0075332D01*
X0156700Y0076930D02*
X0156900Y0076930D01*
X0156900Y0078529D02*
X0156700Y0078529D01*
X0156700Y0080127D02*
X0156900Y0080127D01*
X0156900Y0081726D02*
X0156700Y0081726D01*
X0156555Y0083324D02*
X0157045Y0083324D01*
X0157793Y0084923D02*
X0155807Y0084923D01*
X0153689Y0086521D02*
X0158700Y0086521D01*
X0136800Y0086400D02*
X0136800Y0076800D01*
X0136800Y0076800D01*
X0136800Y0076800D01*
X0132400Y0076800D01*
X0132400Y0082346D01*
X0132508Y0083030D01*
X0132722Y0083689D01*
X0133037Y0084306D01*
X0133444Y0084866D01*
X0133934Y0085356D01*
X0134494Y0085763D01*
X0135111Y0086078D01*
X0135770Y0086292D01*
X0136454Y0086400D01*
X0136800Y0086400D01*
X0136800Y0084923D02*
X0136800Y0084923D01*
X0136800Y0083324D02*
X0136800Y0083324D01*
X0136800Y0081726D02*
X0136800Y0081726D01*
X0136800Y0080127D02*
X0136800Y0080127D01*
X0136800Y0078529D02*
X0136800Y0078529D01*
X0136800Y0076930D02*
X0136800Y0076930D01*
X0136800Y0076800D02*
X0132400Y0076800D01*
X0132400Y0076454D01*
X0132508Y0075770D01*
X0132722Y0075111D01*
X0133037Y0074494D01*
X0133444Y0073934D01*
X0133934Y0073444D01*
X0134494Y0073037D01*
X0135111Y0072722D01*
X0135770Y0072508D01*
X0136454Y0072400D01*
X0136800Y0072400D01*
X0136800Y0076800D01*
X0136800Y0075332D02*
X0136800Y0075332D01*
X0136800Y0073733D02*
X0136800Y0073733D01*
X0133644Y0073733D02*
X0130663Y0073733D01*
X0131495Y0075332D02*
X0132651Y0075332D01*
X0132400Y0076930D02*
X0131700Y0076930D01*
X0131700Y0078529D02*
X0132400Y0078529D01*
X0132400Y0080127D02*
X0131700Y0080127D01*
X0131700Y0081726D02*
X0132400Y0081726D01*
X0132604Y0083324D02*
X0131555Y0083324D01*
X0130807Y0084923D02*
X0133500Y0084923D01*
X0123700Y0086521D02*
X0118689Y0086521D01*
X0120807Y0084923D02*
X0122793Y0084923D01*
X0122045Y0083324D02*
X0121555Y0083324D01*
X0121700Y0081726D02*
X0121900Y0081726D01*
X0121900Y0080127D02*
X0121700Y0080127D01*
X0121700Y0078529D02*
X0121900Y0078529D01*
X0121900Y0076930D02*
X0121700Y0076930D01*
X0121495Y0075332D02*
X0122105Y0075332D01*
X0122937Y0073733D02*
X0120663Y0073733D01*
X0112937Y0073733D02*
X0110663Y0073733D01*
X0111495Y0075332D02*
X0112105Y0075332D01*
X0111900Y0076930D02*
X0111700Y0076930D01*
X0111700Y0078529D02*
X0111900Y0078529D01*
X0111900Y0080127D02*
X0111700Y0080127D01*
X0111700Y0081726D02*
X0111900Y0081726D01*
X0112045Y0083324D02*
X0111555Y0083324D01*
X0110807Y0084923D02*
X0112793Y0084923D01*
X0114911Y0086521D02*
X0108689Y0086521D01*
X0110332Y0088120D02*
X0123700Y0088120D01*
X0123700Y0089718D02*
X0111900Y0089718D01*
X0111900Y0091317D02*
X0123700Y0091317D01*
X0123700Y0092915D02*
X0111900Y0092915D01*
X0111299Y0094514D02*
X0123700Y0094514D01*
X0123700Y0096112D02*
X0109700Y0096112D01*
X0103900Y0096112D02*
X0098993Y0096112D01*
X0098705Y0096400D02*
X0096800Y0096400D01*
X0096800Y0091800D01*
X0101400Y0091800D01*
X0101400Y0093705D01*
X0098705Y0096400D01*
X0096800Y0096400D02*
X0094895Y0096400D01*
X0092200Y0093705D01*
X0092200Y0091800D01*
X0096800Y0091800D01*
X0096800Y0091800D01*
X0096800Y0091800D01*
X0101400Y0091800D01*
X0101400Y0089895D01*
X0098705Y0087200D01*
X0096800Y0087200D01*
X0096800Y0091800D01*
X0096800Y0091800D01*
X0096800Y0091800D01*
X0096800Y0096400D01*
X0096800Y0096112D02*
X0096800Y0096112D01*
X0096800Y0094514D02*
X0096800Y0094514D01*
X0096800Y0092915D02*
X0096800Y0092915D01*
X0096800Y0091800D02*
X0092200Y0091800D01*
X0092200Y0089895D01*
X0094895Y0087200D01*
X0096800Y0087200D01*
X0096800Y0091800D01*
X0096800Y0091317D02*
X0096800Y0091317D01*
X0096800Y0089718D02*
X0096800Y0089718D01*
X0096800Y0088120D02*
X0096800Y0088120D01*
X0099625Y0088120D02*
X0103268Y0088120D01*
X0101700Y0089718D02*
X0101223Y0089718D01*
X0101400Y0091317D02*
X0101700Y0091317D01*
X0101700Y0092915D02*
X0101400Y0092915D01*
X0100592Y0094514D02*
X0102301Y0094514D01*
X0094607Y0096112D02*
X0079900Y0096112D01*
X0079900Y0094514D02*
X0093008Y0094514D01*
X0092200Y0092915D02*
X0079900Y0092915D01*
X0079900Y0091317D02*
X0092200Y0091317D01*
X0092376Y0089718D02*
X0079900Y0089718D01*
X0079900Y0088120D02*
X0093975Y0088120D01*
X0090156Y0084866D02*
X0089666Y0085356D01*
X0089106Y0085763D01*
X0088489Y0086078D01*
X0087830Y0086292D01*
X0087146Y0086400D01*
X0086800Y0086400D01*
X0086800Y0076800D01*
X0091200Y0076800D01*
X0091200Y0082346D01*
X0091092Y0083030D01*
X0090878Y0083689D01*
X0090563Y0084306D01*
X0090156Y0084866D01*
X0090100Y0084923D02*
X0102793Y0084923D01*
X0102045Y0083324D02*
X0090996Y0083324D01*
X0091200Y0081726D02*
X0101900Y0081726D01*
X0101900Y0080127D02*
X0091200Y0080127D01*
X0091200Y0078529D02*
X0101900Y0078529D01*
X0101900Y0076930D02*
X0091200Y0076930D01*
X0091200Y0076800D02*
X0086800Y0076800D01*
X0086800Y0076800D01*
X0086800Y0076800D01*
X0086800Y0072400D01*
X0087146Y0072400D01*
X0087830Y0072508D01*
X0088489Y0072722D01*
X0089106Y0073037D01*
X0089666Y0073444D01*
X0090156Y0073934D01*
X0090563Y0074494D01*
X0090878Y0075111D01*
X0091092Y0075770D01*
X0091200Y0076454D01*
X0091200Y0076800D01*
X0090949Y0075332D02*
X0102105Y0075332D01*
X0102937Y0073733D02*
X0089956Y0073733D01*
X0086800Y0073733D02*
X0086800Y0073733D01*
X0086800Y0072400D02*
X0086800Y0076800D01*
X0086800Y0076800D01*
X0086800Y0076800D01*
X0082400Y0076800D01*
X0082400Y0082346D01*
X0082508Y0083030D01*
X0082722Y0083689D01*
X0083037Y0084306D01*
X0083444Y0084866D01*
X0083934Y0085356D01*
X0084494Y0085763D01*
X0085111Y0086078D01*
X0085770Y0086292D01*
X0086454Y0086400D01*
X0086800Y0086400D01*
X0086800Y0076800D01*
X0082400Y0076800D01*
X0082400Y0076454D01*
X0082508Y0075770D01*
X0082722Y0075111D01*
X0083037Y0074494D01*
X0083444Y0073934D01*
X0083934Y0073444D01*
X0084494Y0073037D01*
X0085111Y0072722D01*
X0085770Y0072508D01*
X0086454Y0072400D01*
X0086800Y0072400D01*
X0086800Y0075332D02*
X0086800Y0075332D01*
X0086800Y0076930D02*
X0086800Y0076930D01*
X0086800Y0078529D02*
X0086800Y0078529D01*
X0086800Y0080127D02*
X0086800Y0080127D01*
X0086800Y0081726D02*
X0086800Y0081726D01*
X0086800Y0083324D02*
X0086800Y0083324D01*
X0086800Y0084923D02*
X0086800Y0084923D01*
X0083500Y0084923D02*
X0080807Y0084923D01*
X0081555Y0083324D02*
X0082604Y0083324D01*
X0082400Y0081726D02*
X0081700Y0081726D01*
X0081700Y0080127D02*
X0082400Y0080127D01*
X0082400Y0078529D02*
X0081700Y0078529D01*
X0081700Y0076930D02*
X0082400Y0076930D01*
X0082651Y0075332D02*
X0081495Y0075332D01*
X0080663Y0073733D02*
X0083644Y0073733D01*
X0076800Y0076800D02*
X0076800Y0106800D01*
X0076800Y0121800D01*
X0034300Y0121800D01*
X0028700Y0121688D02*
X0016600Y0121688D01*
X0016600Y0120090D02*
X0028700Y0120090D01*
X0029689Y0118491D02*
X0016600Y0118491D01*
X0016600Y0116893D02*
X0031288Y0116893D01*
X0037312Y0116893D02*
X0073700Y0116893D01*
X0073700Y0118491D02*
X0038911Y0118491D01*
X0028700Y0123287D02*
X0016600Y0123287D01*
X0016600Y0124885D02*
X0029466Y0124885D01*
X0031064Y0126484D02*
X0016600Y0126484D01*
X0016600Y0128082D02*
X0191800Y0128082D01*
X0191800Y0126484D02*
X0180036Y0126484D01*
X0179120Y0127400D02*
X0174480Y0127400D01*
X0171200Y0124120D01*
X0171200Y0119480D01*
X0174480Y0116200D01*
X0179120Y0116200D01*
X0182400Y0119480D01*
X0182400Y0124120D01*
X0179120Y0127400D01*
X0181634Y0124885D02*
X0191800Y0124885D01*
X0191800Y0123287D02*
X0182400Y0123287D01*
X0182400Y0121688D02*
X0191800Y0121688D01*
X0191800Y0120090D02*
X0182400Y0120090D01*
X0181411Y0118491D02*
X0191800Y0118491D01*
X0191800Y0116893D02*
X0179812Y0116893D01*
X0173788Y0116893D02*
X0164627Y0116893D01*
X0164120Y0117400D02*
X0159480Y0117400D01*
X0156200Y0114120D01*
X0156200Y0109480D01*
X0159480Y0106200D01*
X0164120Y0106200D01*
X0167400Y0109480D01*
X0167400Y0114120D01*
X0164120Y0117400D01*
X0166225Y0115294D02*
X0191800Y0115294D01*
X0191800Y0113696D02*
X0167400Y0113696D01*
X0167400Y0112097D02*
X0191800Y0112097D01*
X0191800Y0110499D02*
X0167400Y0110499D01*
X0166820Y0108900D02*
X0191800Y0108900D01*
X0191800Y0107302D02*
X0179218Y0107302D01*
X0180816Y0105703D02*
X0191800Y0105703D01*
X0191800Y0104105D02*
X0182400Y0104105D01*
X0182400Y0102506D02*
X0191800Y0102506D01*
X0191800Y0100908D02*
X0182400Y0100908D01*
X0182229Y0099309D02*
X0191800Y0099309D01*
X0191800Y0097711D02*
X0180630Y0097711D01*
X0176800Y0101800D02*
X0126800Y0101800D01*
X0126800Y0076800D01*
X0104911Y0086521D02*
X0079900Y0086521D01*
X0073700Y0086521D02*
X0068689Y0086521D01*
X0070807Y0084923D02*
X0072793Y0084923D01*
X0072045Y0083324D02*
X0071555Y0083324D01*
X0071700Y0081726D02*
X0071900Y0081726D01*
X0071900Y0080127D02*
X0071700Y0080127D01*
X0071700Y0078529D02*
X0071900Y0078529D01*
X0071900Y0076930D02*
X0071700Y0076930D01*
X0071495Y0075332D02*
X0072105Y0075332D01*
X0072937Y0073733D02*
X0070663Y0073733D01*
X0062937Y0073733D02*
X0060663Y0073733D01*
X0061495Y0075332D02*
X0062105Y0075332D01*
X0061900Y0076930D02*
X0061700Y0076930D01*
X0061700Y0078529D02*
X0061900Y0078529D01*
X0061900Y0080127D02*
X0061700Y0080127D01*
X0061700Y0081726D02*
X0061900Y0081726D01*
X0062045Y0083324D02*
X0061555Y0083324D01*
X0060807Y0084923D02*
X0062793Y0084923D01*
X0064911Y0086521D02*
X0058689Y0086521D01*
X0054911Y0086521D02*
X0016600Y0086521D01*
X0016600Y0084923D02*
X0052793Y0084923D01*
X0046112Y0083324D02*
X0041781Y0083324D01*
X0041205Y0083900D02*
X0039300Y0083900D01*
X0039300Y0079300D01*
X0043900Y0079300D01*
X0043900Y0081205D01*
X0041205Y0083900D01*
X0039300Y0083900D02*
X0037395Y0083900D01*
X0034700Y0081205D01*
X0034700Y0079300D01*
X0039300Y0079300D01*
X0039300Y0079300D01*
X0039300Y0079300D01*
X0043900Y0079300D01*
X0043900Y0077395D01*
X0041205Y0074700D01*
X0039300Y0074700D01*
X0039300Y0079300D01*
X0039300Y0079300D01*
X0039300Y0079300D01*
X0039300Y0083900D01*
X0039300Y0083324D02*
X0039300Y0083324D01*
X0039300Y0081726D02*
X0039300Y0081726D01*
X0039300Y0080127D02*
X0039300Y0080127D01*
X0039300Y0079300D02*
X0034700Y0079300D01*
X0034700Y0077395D01*
X0037395Y0074700D01*
X0039300Y0074700D01*
X0039300Y0079300D01*
X0039300Y0078529D02*
X0039300Y0078529D01*
X0039300Y0076930D02*
X0039300Y0076930D01*
X0039300Y0075332D02*
X0039300Y0075332D01*
X0041837Y0075332D02*
X0046056Y0075332D01*
X0044457Y0076930D02*
X0043435Y0076930D01*
X0043900Y0078529D02*
X0044200Y0078529D01*
X0044200Y0080127D02*
X0043900Y0080127D01*
X0043380Y0081726D02*
X0044513Y0081726D01*
X0036819Y0083324D02*
X0016600Y0083324D01*
X0016600Y0081726D02*
X0035220Y0081726D01*
X0034700Y0080127D02*
X0016600Y0080127D01*
X0016600Y0078529D02*
X0034700Y0078529D01*
X0035165Y0076930D02*
X0016600Y0076930D01*
X0016600Y0075332D02*
X0036763Y0075332D01*
X0052937Y0073733D02*
X0016600Y0073733D01*
X0016600Y0068937D02*
X0191800Y0068937D01*
X0191800Y0067339D02*
X0016600Y0067339D01*
X0016600Y0065740D02*
X0191800Y0065740D01*
X0191800Y0064142D02*
X0016600Y0064142D01*
X0016600Y0062543D02*
X0191800Y0062543D01*
X0209900Y0062543D02*
X0262000Y0062543D01*
X0262000Y0060945D02*
X0209900Y0060945D01*
X0209900Y0059346D02*
X0262000Y0059346D01*
X0262000Y0057748D02*
X0209900Y0057748D01*
X0209900Y0056149D02*
X0223230Y0056149D01*
X0221631Y0054551D02*
X0209900Y0054551D01*
X0209900Y0052952D02*
X0221200Y0052952D01*
X0221200Y0051354D02*
X0209900Y0051354D01*
X0209900Y0049755D02*
X0221200Y0049755D01*
X0222000Y0048157D02*
X0209900Y0048157D01*
X0209900Y0046558D02*
X0222000Y0046558D01*
X0222000Y0044960D02*
X0209900Y0044960D01*
X0209900Y0043361D02*
X0222000Y0043361D01*
X0222000Y0041763D02*
X0209900Y0041763D01*
X0209900Y0040164D02*
X0222000Y0040164D01*
X0222000Y0038566D02*
X0209900Y0038566D01*
X0209900Y0064142D02*
X0262575Y0064142D01*
X0263952Y0065740D02*
X0209900Y0065740D01*
X0209900Y0067339D02*
X0275766Y0067339D01*
X0274249Y0068937D02*
X0209900Y0068937D01*
X0209900Y0070536D02*
X0273587Y0070536D01*
X0273500Y0072134D02*
X0209900Y0072134D01*
X0209900Y0073733D02*
X0273864Y0073733D01*
X0274836Y0075332D02*
X0209900Y0075332D01*
X0246800Y0096800D02*
X0256800Y0096800D01*
X0255825Y0119300D02*
X0254024Y0120046D01*
X0252646Y0121424D01*
X0251900Y0123225D01*
X0251900Y0130375D01*
X0252646Y0132176D01*
X0254024Y0133554D01*
X0255825Y0134300D01*
X0257775Y0134300D01*
X0259576Y0133554D01*
X0260954Y0132176D01*
X0261700Y0130375D01*
X0261700Y0123225D01*
X0260954Y0121424D01*
X0259576Y0120046D01*
X0257775Y0119300D01*
X0255825Y0119300D01*
X0253981Y0120090D02*
X0196800Y0120090D01*
X0196800Y0121688D02*
X0252537Y0121688D01*
X0251900Y0123287D02*
X0196800Y0123287D01*
X0196800Y0124885D02*
X0251900Y0124885D01*
X0251900Y0126484D02*
X0196800Y0126484D01*
X0196800Y0128082D02*
X0251900Y0128082D01*
X0251900Y0129681D02*
X0196800Y0129681D01*
X0196800Y0131279D02*
X0252275Y0131279D01*
X0253348Y0132878D02*
X0226800Y0132878D01*
X0226800Y0134476D02*
X0230707Y0134476D01*
X0230830Y0134425D02*
X0232770Y0134425D01*
X0234561Y0135167D01*
X0235933Y0136539D01*
X0236675Y0138330D01*
X0236675Y0140270D01*
X0235933Y0142061D01*
X0234561Y0143433D01*
X0232770Y0144175D01*
X0230830Y0144175D01*
X0229039Y0143433D01*
X0227667Y0142061D01*
X0226925Y0140270D01*
X0226925Y0138330D01*
X0227667Y0136539D01*
X0229039Y0135167D01*
X0230830Y0134425D01*
X0232893Y0134476D02*
X0263700Y0134476D01*
X0263700Y0136075D02*
X0244762Y0136075D01*
X0244650Y0135963D02*
X0245137Y0136450D01*
X0245542Y0137007D01*
X0245854Y0137621D01*
X0246067Y0138276D01*
X0246175Y0138956D01*
X0246175Y0139300D01*
X0246175Y0139644D01*
X0246067Y0140324D01*
X0245854Y0140979D01*
X0245542Y0141593D01*
X0245137Y0142150D01*
X0244650Y0142637D01*
X0244093Y0143042D01*
X0243479Y0143354D01*
X0242824Y0143567D01*
X0242144Y0143675D01*
X0241800Y0143675D01*
X0241800Y0139300D01*
X0246175Y0139300D01*
X0241800Y0139300D01*
X0241800Y0139300D01*
X0241800Y0139300D01*
X0241800Y0134925D01*
X0242144Y0134925D01*
X0242824Y0135033D01*
X0243479Y0135246D01*
X0244093Y0135558D01*
X0244650Y0135963D01*
X0245871Y0137673D02*
X0263700Y0137673D01*
X0263700Y0139272D02*
X0246175Y0139272D01*
X0245890Y0140870D02*
X0263700Y0140870D01*
X0263700Y0142469D02*
X0244818Y0142469D01*
X0241800Y0142469D02*
X0241800Y0142469D01*
X0241800Y0143675D02*
X0241456Y0143675D01*
X0240776Y0143567D01*
X0240121Y0143354D01*
X0239507Y0143042D01*
X0238950Y0142637D01*
X0238463Y0142150D01*
X0238058Y0141593D01*
X0237746Y0140979D01*
X0237533Y0140324D01*
X0237425Y0139644D01*
X0237425Y0139300D01*
X0241800Y0139300D01*
X0241800Y0139300D01*
X0241800Y0139300D01*
X0241800Y0143675D01*
X0241800Y0140870D02*
X0241800Y0140870D01*
X0241800Y0139300D02*
X0237425Y0139300D01*
X0237425Y0138956D01*
X0237533Y0138276D01*
X0237746Y0137621D01*
X0238058Y0137007D01*
X0238463Y0136450D01*
X0238950Y0135963D01*
X0239507Y0135558D01*
X0240121Y0135246D01*
X0240776Y0135033D01*
X0241456Y0134925D01*
X0241800Y0134925D01*
X0241800Y0139300D01*
X0241800Y0139272D02*
X0241800Y0139272D01*
X0241800Y0137673D02*
X0241800Y0137673D01*
X0241800Y0136075D02*
X0241800Y0136075D01*
X0238838Y0136075D02*
X0235469Y0136075D01*
X0236403Y0137673D02*
X0237729Y0137673D01*
X0237425Y0139272D02*
X0236675Y0139272D01*
X0236426Y0140870D02*
X0237710Y0140870D01*
X0238782Y0142469D02*
X0235525Y0142469D01*
X0233029Y0144068D02*
X0263700Y0144068D01*
X0263700Y0145666D02*
X0226800Y0145666D01*
X0226800Y0144068D02*
X0230571Y0144068D01*
X0228075Y0142469D02*
X0226800Y0142469D01*
X0226800Y0140870D02*
X0227174Y0140870D01*
X0226925Y0139272D02*
X0226800Y0139272D01*
X0226800Y0137673D02*
X0227197Y0137673D01*
X0226800Y0136075D02*
X0228131Y0136075D01*
X0221800Y0140870D02*
X0221800Y0140870D01*
X0221800Y0142469D02*
X0221800Y0142469D01*
X0221800Y0144068D02*
X0213029Y0144068D01*
X0210571Y0144068D02*
X0088336Y0144068D01*
X0087775Y0144300D02*
X0085825Y0144300D01*
X0084024Y0143554D01*
X0082646Y0142176D01*
X0081900Y0140375D01*
X0081900Y0133225D01*
X0082646Y0131424D01*
X0084024Y0130046D01*
X0085825Y0129300D01*
X0087775Y0129300D01*
X0089576Y0130046D01*
X0090954Y0131424D01*
X0091700Y0133225D01*
X0091700Y0140375D01*
X0090954Y0142176D01*
X0089576Y0143554D01*
X0087775Y0144300D01*
X0085264Y0144068D02*
X0079900Y0144068D01*
X0079900Y0145666D02*
X0221800Y0145666D01*
X0221800Y0147265D02*
X0079900Y0147265D01*
X0079900Y0148863D02*
X0221800Y0148863D01*
X0221800Y0150462D02*
X0079900Y0150462D01*
X0079900Y0152060D02*
X0221800Y0152060D01*
X0221800Y0153659D02*
X0079900Y0153659D01*
X0079900Y0155257D02*
X0169240Y0155257D01*
X0166810Y0156856D02*
X0087639Y0156856D01*
X0089237Y0158454D02*
X0165583Y0158454D01*
X0164921Y0160053D02*
X0089909Y0160053D01*
X0090143Y0161651D02*
X0164776Y0161651D01*
X0164797Y0163250D02*
X0090016Y0163250D01*
X0089354Y0164848D02*
X0165459Y0164848D01*
X0166513Y0166447D02*
X0087897Y0166447D01*
X0080703Y0166447D02*
X0079900Y0166447D01*
X0079900Y0168045D02*
X0168522Y0168045D01*
X0168700Y0169644D02*
X0079900Y0169644D01*
X0079900Y0171242D02*
X0094924Y0171242D01*
X0093337Y0172841D02*
X0079900Y0172841D01*
X0073700Y0172841D02*
X0070222Y0172841D01*
X0070075Y0172841D02*
X0068525Y0172841D01*
X0068525Y0172821D02*
X0068525Y0178525D01*
X0062821Y0178525D01*
X0062887Y0178024D01*
X0063109Y0177198D01*
X0063436Y0176408D01*
X0063864Y0175667D01*
X0064384Y0174989D01*
X0064989Y0174384D01*
X0065667Y0173864D01*
X0066408Y0173436D01*
X0067198Y0173109D01*
X0068024Y0172887D01*
X0068525Y0172821D01*
X0068378Y0172841D02*
X0016600Y0172841D01*
X0016600Y0174439D02*
X0064934Y0174439D01*
X0063650Y0176038D02*
X0016600Y0176038D01*
X0016600Y0177636D02*
X0062991Y0177636D01*
X0068525Y0177636D02*
X0070075Y0177636D01*
X0070075Y0176038D02*
X0068525Y0176038D01*
X0068525Y0174439D02*
X0070075Y0174439D01*
X0073666Y0174439D02*
X0073700Y0174439D01*
X0073700Y0171242D02*
X0016600Y0171242D01*
X0016600Y0169644D02*
X0073700Y0169644D01*
X0073700Y0168045D02*
X0016600Y0168045D01*
X0016600Y0166447D02*
X0073700Y0166447D01*
X0073700Y0164848D02*
X0016600Y0164848D01*
X0016600Y0163250D02*
X0073700Y0163250D01*
X0073700Y0161651D02*
X0016600Y0161651D01*
X0016600Y0160053D02*
X0073700Y0160053D01*
X0073700Y0158454D02*
X0016600Y0158454D01*
X0016600Y0156856D02*
X0073700Y0156856D01*
X0073700Y0155257D02*
X0016600Y0155257D01*
X0016600Y0153659D02*
X0073700Y0153659D01*
X0073700Y0152060D02*
X0016600Y0152060D01*
X0016600Y0150462D02*
X0073700Y0150462D01*
X0073700Y0148863D02*
X0016600Y0148863D01*
X0016600Y0147265D02*
X0031845Y0147265D01*
X0031980Y0147400D02*
X0028700Y0144120D01*
X0028700Y0139480D01*
X0031980Y0136200D01*
X0036620Y0136200D01*
X0039900Y0139480D01*
X0039900Y0144120D01*
X0036620Y0147400D01*
X0031980Y0147400D01*
X0030246Y0145666D02*
X0016600Y0145666D01*
X0016600Y0144068D02*
X0028700Y0144068D01*
X0028700Y0142469D02*
X0016600Y0142469D01*
X0016600Y0140870D02*
X0028700Y0140870D01*
X0028908Y0139272D02*
X0016600Y0139272D01*
X0016600Y0137673D02*
X0030507Y0137673D01*
X0038093Y0137673D02*
X0044700Y0137673D01*
X0044700Y0136800D02*
X0044700Y0138705D01*
X0047395Y0141400D01*
X0049300Y0141400D01*
X0051205Y0141400D01*
X0053900Y0138705D01*
X0053900Y0136800D01*
X0049300Y0136800D01*
X0049300Y0136800D01*
X0049300Y0136800D01*
X0049300Y0141400D01*
X0049300Y0136800D01*
X0053900Y0136800D01*
X0053900Y0134895D01*
X0051205Y0132200D01*
X0049300Y0132200D01*
X0049300Y0136800D01*
X0049300Y0136800D01*
X0049300Y0136800D01*
X0044700Y0136800D01*
X0044700Y0134895D01*
X0047395Y0132200D01*
X0049300Y0132200D01*
X0049300Y0136800D01*
X0044700Y0136800D01*
X0044700Y0136075D02*
X0016600Y0136075D01*
X0016600Y0134476D02*
X0045118Y0134476D01*
X0046717Y0132878D02*
X0016600Y0132878D01*
X0016600Y0131279D02*
X0062791Y0131279D01*
X0062646Y0131424D02*
X0064024Y0130046D01*
X0065825Y0129300D01*
X0067775Y0129300D01*
X0069576Y0130046D01*
X0070954Y0131424D01*
X0071700Y0133225D01*
X0071700Y0140375D01*
X0070954Y0142176D01*
X0069576Y0143554D01*
X0067775Y0144300D01*
X0065825Y0144300D01*
X0064024Y0143554D01*
X0062646Y0142176D01*
X0062204Y0141108D01*
X0061412Y0141900D01*
X0057188Y0141900D01*
X0054200Y0138912D01*
X0054200Y0134688D01*
X0057188Y0131700D01*
X0061412Y0131700D01*
X0062204Y0132491D01*
X0062646Y0131424D01*
X0064906Y0129681D02*
X0016600Y0129681D01*
X0037536Y0126484D02*
X0173564Y0126484D01*
X0171966Y0124885D02*
X0077452Y0124885D01*
X0079540Y0123287D02*
X0171200Y0123287D01*
X0171200Y0121688D02*
X0079900Y0121688D01*
X0079900Y0120090D02*
X0171200Y0120090D01*
X0172189Y0118491D02*
X0079900Y0118491D01*
X0079900Y0116893D02*
X0158973Y0116893D01*
X0157375Y0115294D02*
X0079900Y0115294D01*
X0079900Y0113696D02*
X0084367Y0113696D01*
X0082614Y0112097D02*
X0080986Y0112097D01*
X0081649Y0110499D02*
X0081951Y0110499D01*
X0086800Y0106800D02*
X0076800Y0106800D01*
X0071900Y0107302D02*
X0071700Y0107302D01*
X0071700Y0108900D02*
X0071900Y0108900D01*
X0071700Y0110375D02*
X0070954Y0112176D01*
X0069576Y0113554D01*
X0067775Y0114300D01*
X0065825Y0114300D01*
X0064024Y0113554D01*
X0062646Y0112176D01*
X0061900Y0110375D01*
X0061900Y0103225D01*
X0062646Y0101424D01*
X0064024Y0100046D01*
X0065825Y0099300D01*
X0067775Y0099300D01*
X0069576Y0100046D01*
X0070954Y0101424D01*
X0071700Y0103225D01*
X0071700Y0110375D01*
X0071649Y0110499D02*
X0071951Y0110499D01*
X0072614Y0112097D02*
X0070986Y0112097D01*
X0069233Y0113696D02*
X0073700Y0113696D01*
X0073700Y0115294D02*
X0016600Y0115294D01*
X0016600Y0113696D02*
X0064367Y0113696D01*
X0062614Y0112097D02*
X0016600Y0112097D01*
X0016600Y0110499D02*
X0061951Y0110499D01*
X0061900Y0108900D02*
X0016600Y0108900D01*
X0016600Y0107302D02*
X0061900Y0107302D01*
X0061900Y0105703D02*
X0016600Y0105703D01*
X0016600Y0104105D02*
X0061900Y0104105D01*
X0062198Y0102506D02*
X0016600Y0102506D01*
X0016600Y0100908D02*
X0063163Y0100908D01*
X0065803Y0099309D02*
X0016600Y0099309D01*
X0016600Y0097711D02*
X0073700Y0097711D01*
X0073700Y0099309D02*
X0067797Y0099309D01*
X0070437Y0100908D02*
X0073163Y0100908D01*
X0072198Y0102506D02*
X0071402Y0102506D01*
X0071700Y0104105D02*
X0071900Y0104105D01*
X0071900Y0105703D02*
X0071700Y0105703D01*
X0080437Y0100908D02*
X0083163Y0100908D01*
X0082198Y0102506D02*
X0081402Y0102506D01*
X0079900Y0099309D02*
X0085803Y0099309D01*
X0087797Y0099309D02*
X0095803Y0099309D01*
X0097797Y0099309D02*
X0123700Y0099309D01*
X0123700Y0097711D02*
X0079900Y0097711D01*
X0073700Y0096112D02*
X0016600Y0096112D01*
X0016600Y0094514D02*
X0073700Y0094514D01*
X0073700Y0092915D02*
X0016600Y0092915D01*
X0016600Y0091317D02*
X0073700Y0091317D01*
X0073700Y0089718D02*
X0016600Y0089718D01*
X0016600Y0088120D02*
X0073700Y0088120D01*
X0090437Y0100908D02*
X0093163Y0100908D01*
X0092198Y0102506D02*
X0091402Y0102506D01*
X0091700Y0104105D02*
X0091900Y0104105D01*
X0091900Y0105703D02*
X0091700Y0105703D01*
X0091700Y0107302D02*
X0091900Y0107302D01*
X0091900Y0108900D02*
X0091700Y0108900D01*
X0091649Y0110499D02*
X0091951Y0110499D01*
X0092614Y0112097D02*
X0090986Y0112097D01*
X0089233Y0113696D02*
X0094367Y0113696D01*
X0099233Y0113696D02*
X0156200Y0113696D01*
X0156200Y0112097D02*
X0100986Y0112097D01*
X0101649Y0110499D02*
X0156200Y0110499D01*
X0156780Y0108900D02*
X0129084Y0108900D01*
X0129900Y0107302D02*
X0158379Y0107302D01*
X0165221Y0107302D02*
X0174382Y0107302D01*
X0172784Y0105703D02*
X0129900Y0105703D01*
X0126800Y0106800D02*
X0126800Y0101800D01*
X0123700Y0102506D02*
X0101402Y0102506D01*
X0100437Y0100908D02*
X0123700Y0100908D01*
X0126800Y0106800D02*
X0096800Y0106800D01*
X0096800Y0129800D02*
X0097146Y0129800D01*
X0097830Y0129908D01*
X0098489Y0130122D01*
X0099106Y0130437D01*
X0099666Y0130844D01*
X0100156Y0131334D01*
X0100563Y0131894D01*
X0100878Y0132511D01*
X0101092Y0133170D01*
X0101200Y0133854D01*
X0101200Y0136800D01*
X0101200Y0139746D01*
X0101092Y0140430D01*
X0100878Y0141089D01*
X0100563Y0141706D01*
X0100156Y0142266D01*
X0099666Y0142756D01*
X0099106Y0143163D01*
X0098489Y0143478D01*
X0097830Y0143692D01*
X0097146Y0143800D01*
X0096800Y0143800D01*
X0096800Y0136800D01*
X0101200Y0136800D01*
X0096800Y0136800D01*
X0096800Y0136800D01*
X0096800Y0136800D01*
X0096800Y0129800D01*
X0096800Y0136800D01*
X0096800Y0136800D01*
X0096800Y0136800D01*
X0092400Y0136800D01*
X0092400Y0139746D01*
X0092508Y0140430D01*
X0092722Y0141089D01*
X0093037Y0141706D01*
X0093444Y0142266D01*
X0093934Y0142756D01*
X0094494Y0143163D01*
X0095111Y0143478D01*
X0095770Y0143692D01*
X0096454Y0143800D01*
X0096800Y0143800D01*
X0096800Y0136800D01*
X0092400Y0136800D01*
X0092400Y0133854D01*
X0092508Y0133170D01*
X0092722Y0132511D01*
X0093037Y0131894D01*
X0093444Y0131334D01*
X0093934Y0130844D01*
X0094494Y0130437D01*
X0095111Y0130122D01*
X0095770Y0129908D01*
X0096454Y0129800D01*
X0096800Y0129800D01*
X0096800Y0131279D02*
X0096800Y0131279D01*
X0096800Y0132878D02*
X0096800Y0132878D01*
X0096800Y0134476D02*
X0096800Y0134476D01*
X0096800Y0136075D02*
X0096800Y0136075D01*
X0096800Y0137673D02*
X0096800Y0137673D01*
X0096800Y0139272D02*
X0096800Y0139272D01*
X0096800Y0140870D02*
X0096800Y0140870D01*
X0096800Y0142469D02*
X0096800Y0142469D01*
X0099954Y0142469D02*
X0208075Y0142469D01*
X0207174Y0140870D02*
X0100949Y0140870D01*
X0101200Y0139272D02*
X0206925Y0139272D01*
X0207197Y0137673D02*
X0101200Y0137673D01*
X0101200Y0136075D02*
X0191800Y0136075D01*
X0191800Y0134476D02*
X0101200Y0134476D01*
X0100997Y0132878D02*
X0191800Y0132878D01*
X0191800Y0131279D02*
X0100102Y0131279D01*
X0093498Y0131279D02*
X0090809Y0131279D01*
X0091556Y0132878D02*
X0092603Y0132878D01*
X0092400Y0134476D02*
X0091700Y0134476D01*
X0091700Y0136075D02*
X0092400Y0136075D01*
X0092400Y0137673D02*
X0091700Y0137673D01*
X0091700Y0139272D02*
X0092400Y0139272D01*
X0092651Y0140870D02*
X0091495Y0140870D01*
X0090661Y0142469D02*
X0093646Y0142469D01*
X0082939Y0142469D02*
X0080661Y0142469D01*
X0081495Y0140870D02*
X0082105Y0140870D01*
X0081900Y0139272D02*
X0081700Y0139272D01*
X0081700Y0137673D02*
X0081900Y0137673D01*
X0081900Y0136075D02*
X0081700Y0136075D01*
X0081700Y0134476D02*
X0081900Y0134476D01*
X0082044Y0132878D02*
X0081556Y0132878D01*
X0080809Y0131279D02*
X0082791Y0131279D01*
X0084906Y0129681D02*
X0078694Y0129681D01*
X0074906Y0129681D02*
X0068694Y0129681D01*
X0070809Y0131279D02*
X0072791Y0131279D01*
X0072044Y0132878D02*
X0071556Y0132878D01*
X0071700Y0134476D02*
X0071900Y0134476D01*
X0071900Y0136075D02*
X0071700Y0136075D01*
X0071700Y0137673D02*
X0071900Y0137673D01*
X0071900Y0139272D02*
X0071700Y0139272D01*
X0071495Y0140870D02*
X0072105Y0140870D01*
X0072939Y0142469D02*
X0070661Y0142469D01*
X0068336Y0144068D02*
X0073700Y0144068D01*
X0073700Y0145666D02*
X0038354Y0145666D01*
X0039900Y0144068D02*
X0065264Y0144068D01*
X0062939Y0142469D02*
X0039900Y0142469D01*
X0039900Y0140870D02*
X0046865Y0140870D01*
X0045267Y0139272D02*
X0039692Y0139272D01*
X0049300Y0139272D02*
X0049300Y0139272D01*
X0049300Y0140870D02*
X0049300Y0140870D01*
X0051735Y0140870D02*
X0056158Y0140870D01*
X0054559Y0139272D02*
X0053333Y0139272D01*
X0053900Y0137673D02*
X0054200Y0137673D01*
X0054200Y0136075D02*
X0053900Y0136075D01*
X0053482Y0134476D02*
X0054411Y0134476D01*
X0056010Y0132878D02*
X0051883Y0132878D01*
X0049300Y0132878D02*
X0049300Y0132878D01*
X0049300Y0134476D02*
X0049300Y0134476D01*
X0049300Y0136075D02*
X0049300Y0136075D01*
X0049300Y0137673D02*
X0049300Y0137673D01*
X0036755Y0147265D02*
X0073700Y0147265D01*
X0079900Y0156856D02*
X0080961Y0156856D01*
X0103676Y0171242D02*
X0168700Y0171242D01*
X0168700Y0172841D02*
X0105263Y0172841D01*
X0099300Y0176800D02*
X0076800Y0176800D01*
X0076800Y0136800D01*
X0088694Y0129681D02*
X0191800Y0129681D01*
X0196800Y0118491D02*
X0369145Y0118491D01*
X0367775Y0119300D02*
X0365825Y0119300D01*
X0364024Y0120046D01*
X0362646Y0121424D01*
X0361900Y0123225D01*
X0361900Y0128861D01*
X0361700Y0128561D01*
X0361700Y0123225D01*
X0360954Y0121424D01*
X0359576Y0120046D01*
X0357775Y0119300D01*
X0355825Y0119300D01*
X0354024Y0120046D01*
X0352646Y0121424D01*
X0351900Y0123225D01*
X0351900Y0130375D01*
X0352646Y0132176D01*
X0354024Y0133554D01*
X0355825Y0134300D01*
X0357775Y0134300D01*
X0358009Y0134203D01*
X0360366Y0137738D01*
X0359307Y0138798D01*
X0358500Y0140746D01*
X0358500Y0142854D01*
X0359307Y0144802D01*
X0360798Y0146293D01*
X0362022Y0146800D01*
X0360798Y0147307D01*
X0359307Y0148798D01*
X0358500Y0150746D01*
X0358500Y0152854D01*
X0359307Y0154802D01*
X0360798Y0156293D01*
X0362746Y0157100D01*
X0362791Y0157100D01*
X0362676Y0157118D01*
X0361957Y0157352D01*
X0361284Y0157695D01*
X0360673Y0158139D01*
X0360139Y0158673D01*
X0359695Y0159284D01*
X0359352Y0159957D01*
X0359118Y0160676D01*
X0359000Y0161422D01*
X0359000Y0161600D01*
X0366600Y0161600D01*
X0366600Y0162000D01*
X0366600Y0166600D01*
X0363422Y0166600D01*
X0362676Y0166482D01*
X0361957Y0166248D01*
X0361284Y0165905D01*
X0360673Y0165461D01*
X0360139Y0164927D01*
X0359695Y0164316D01*
X0359352Y0163643D01*
X0359118Y0162924D01*
X0359000Y0162178D01*
X0359000Y0162000D01*
X0366600Y0162000D01*
X0367000Y0162000D01*
X0367000Y0166600D01*
X0370178Y0166600D01*
X0370924Y0166482D01*
X0371643Y0166248D01*
X0372316Y0165905D01*
X0372927Y0165461D01*
X0373461Y0164927D01*
X0373905Y0164316D01*
X0374248Y0163643D01*
X0374482Y0162924D01*
X0374600Y0162178D01*
X0374600Y0162000D01*
X0367000Y0162000D01*
X0367000Y0161600D01*
X0374600Y0161600D01*
X0374600Y0161422D01*
X0374482Y0160676D01*
X0374248Y0159957D01*
X0373905Y0159284D01*
X0373461Y0158673D01*
X0372927Y0158139D01*
X0372316Y0157695D01*
X0371643Y0157352D01*
X0370924Y0157118D01*
X0370809Y0157100D01*
X0370854Y0157100D01*
X0372802Y0156293D01*
X0374293Y0154802D01*
X0375100Y0152854D01*
X0375100Y0150746D01*
X0374293Y0148798D01*
X0372802Y0147307D01*
X0371578Y0146800D01*
X0372802Y0146293D01*
X0374293Y0144802D01*
X0375100Y0142854D01*
X0375100Y0140746D01*
X0374293Y0138798D01*
X0372802Y0137307D01*
X0370854Y0136500D01*
X0366992Y0136500D01*
X0365411Y0134129D01*
X0365825Y0134300D01*
X0367775Y0134300D01*
X0369576Y0133554D01*
X0370954Y0132176D01*
X0371700Y0130375D01*
X0371700Y0123225D01*
X0370954Y0121424D01*
X0369576Y0120046D01*
X0367775Y0119300D01*
X0369619Y0120090D02*
X0373981Y0120090D01*
X0372537Y0121688D02*
X0371063Y0121688D01*
X0371700Y0123287D02*
X0371900Y0123287D01*
X0371900Y0124885D02*
X0371700Y0124885D01*
X0371700Y0126484D02*
X0371900Y0126484D01*
X0371900Y0128082D02*
X0371700Y0128082D01*
X0371700Y0129681D02*
X0371900Y0129681D01*
X0372275Y0131279D02*
X0371325Y0131279D01*
X0370252Y0132878D02*
X0373348Y0132878D01*
X0366709Y0136075D02*
X0388700Y0136075D01*
X0388700Y0137673D02*
X0373169Y0137673D01*
X0374490Y0139272D02*
X0388700Y0139272D01*
X0388700Y0140870D02*
X0375100Y0140870D01*
X0375100Y0142469D02*
X0388700Y0142469D01*
X0388700Y0144068D02*
X0374597Y0144068D01*
X0373429Y0145666D02*
X0388700Y0145666D01*
X0388700Y0147265D02*
X0372700Y0147265D01*
X0374320Y0148863D02*
X0388700Y0148863D01*
X0388700Y0150462D02*
X0374982Y0150462D01*
X0375100Y0152060D02*
X0388700Y0152060D01*
X0388700Y0153659D02*
X0374767Y0153659D01*
X0373838Y0155257D02*
X0388700Y0155257D01*
X0388700Y0156856D02*
X0371444Y0156856D01*
X0373242Y0158454D02*
X0388700Y0158454D01*
X0388700Y0160053D02*
X0374279Y0160053D01*
X0374376Y0163250D02*
X0388700Y0163250D01*
X0388700Y0164848D02*
X0373518Y0164848D01*
X0371032Y0166447D02*
X0388700Y0166447D01*
X0388700Y0168045D02*
X0334900Y0168045D01*
X0334900Y0166447D02*
X0342568Y0166447D01*
X0342676Y0166482D02*
X0341957Y0166248D01*
X0341284Y0165905D01*
X0340673Y0165461D01*
X0340139Y0164927D01*
X0339695Y0164316D01*
X0339352Y0163643D01*
X0339118Y0162924D01*
X0339000Y0162178D01*
X0339000Y0162000D01*
X0346600Y0162000D01*
X0346600Y0166600D01*
X0343422Y0166600D01*
X0342676Y0166482D01*
X0340082Y0164848D02*
X0334900Y0164848D01*
X0334900Y0163250D02*
X0339224Y0163250D01*
X0339000Y0161600D02*
X0339000Y0161422D01*
X0339118Y0160676D01*
X0339352Y0159957D01*
X0339695Y0159284D01*
X0340139Y0158673D01*
X0340673Y0158139D01*
X0341284Y0157695D01*
X0341957Y0157352D01*
X0342676Y0157118D01*
X0342791Y0157100D01*
X0342746Y0157100D01*
X0340798Y0156293D01*
X0339307Y0154802D01*
X0338500Y0152854D01*
X0338500Y0151400D01*
X0336800Y0151400D01*
X0336800Y0146800D01*
X0336800Y0146800D01*
X0341400Y0146800D01*
X0341400Y0147057D01*
X0342022Y0146800D01*
X0341400Y0146543D01*
X0341400Y0146800D01*
X0336800Y0146800D01*
X0336800Y0146800D01*
X0336800Y0142200D01*
X0338500Y0142200D01*
X0338500Y0141900D01*
X0334688Y0141900D01*
X0331800Y0139012D01*
X0328912Y0141900D01*
X0324688Y0141900D01*
X0321700Y0138912D01*
X0321700Y0134688D01*
X0323429Y0132959D01*
X0322646Y0132176D01*
X0321900Y0130375D01*
X0321900Y0123225D01*
X0322646Y0121424D01*
X0324024Y0120046D01*
X0325825Y0119300D01*
X0327775Y0119300D01*
X0329576Y0120046D01*
X0330954Y0121424D01*
X0331700Y0123225D01*
X0331700Y0130375D01*
X0330954Y0132176D01*
X0330171Y0132959D01*
X0331800Y0134588D01*
X0333429Y0132959D01*
X0332646Y0132176D01*
X0331900Y0130375D01*
X0331900Y0123225D01*
X0332646Y0121424D01*
X0334024Y0120046D01*
X0335825Y0119300D01*
X0337775Y0119300D01*
X0339576Y0120046D01*
X0340954Y0121424D01*
X0341700Y0123225D01*
X0341700Y0130375D01*
X0340954Y0132176D01*
X0340171Y0132959D01*
X0341900Y0134688D01*
X0341900Y0136850D01*
X0342746Y0136500D01*
X0343700Y0136500D01*
X0343700Y0133230D01*
X0342646Y0132176D01*
X0341900Y0130375D01*
X0341900Y0123225D01*
X0342646Y0121424D01*
X0344024Y0120046D01*
X0345825Y0119300D01*
X0347775Y0119300D01*
X0349576Y0120046D01*
X0350954Y0121424D01*
X0351700Y0123225D01*
X0351700Y0130375D01*
X0350954Y0132176D01*
X0349900Y0133230D01*
X0349900Y0136500D01*
X0350854Y0136500D01*
X0352802Y0137307D01*
X0354293Y0138798D01*
X0355100Y0140746D01*
X0355100Y0142854D01*
X0354293Y0144802D01*
X0352802Y0146293D01*
X0351578Y0146800D01*
X0352802Y0147307D01*
X0354293Y0148798D01*
X0355100Y0150746D01*
X0355100Y0152854D01*
X0354293Y0154802D01*
X0352802Y0156293D01*
X0350854Y0157100D01*
X0350809Y0157100D01*
X0350924Y0157118D01*
X0351643Y0157352D01*
X0352316Y0157695D01*
X0352927Y0158139D01*
X0353461Y0158673D01*
X0353905Y0159284D01*
X0354248Y0159957D01*
X0354482Y0160676D01*
X0354600Y0161422D01*
X0354600Y0161600D01*
X0347000Y0161600D01*
X0347000Y0162000D01*
X0346600Y0162000D01*
X0346600Y0161600D01*
X0339000Y0161600D01*
X0339321Y0160053D02*
X0334900Y0160053D01*
X0334900Y0161651D02*
X0346600Y0161651D01*
X0347000Y0161651D02*
X0366600Y0161651D01*
X0367000Y0161651D02*
X0388700Y0161651D01*
X0388700Y0169644D02*
X0354028Y0169644D01*
X0354900Y0171242D02*
X0388700Y0171242D01*
X0388700Y0172841D02*
X0354900Y0172841D01*
X0354900Y0174439D02*
X0388700Y0174439D01*
X0388700Y0176038D02*
X0354900Y0176038D01*
X0354900Y0177636D02*
X0388700Y0177636D01*
X0404900Y0177636D02*
X0405701Y0177636D01*
X0405701Y0176038D02*
X0404900Y0176038D01*
X0404900Y0174439D02*
X0405701Y0174439D01*
X0405701Y0172841D02*
X0404900Y0172841D01*
X0404900Y0171242D02*
X0405701Y0171242D01*
X0405701Y0169644D02*
X0404900Y0169644D01*
X0404900Y0168045D02*
X0405701Y0168045D01*
X0405701Y0166447D02*
X0404900Y0166447D01*
X0404900Y0164848D02*
X0405701Y0164848D01*
X0405701Y0163250D02*
X0404900Y0163250D01*
X0404900Y0161651D02*
X0405701Y0161651D01*
X0405701Y0160053D02*
X0404900Y0160053D01*
X0404900Y0158454D02*
X0405701Y0158454D01*
X0405701Y0156856D02*
X0404900Y0156856D01*
X0404900Y0155257D02*
X0405701Y0155257D01*
X0405701Y0153659D02*
X0404900Y0153659D01*
X0404900Y0152060D02*
X0405701Y0152060D01*
X0405701Y0150462D02*
X0404900Y0150462D01*
X0404900Y0148863D02*
X0405701Y0148863D01*
X0405701Y0147265D02*
X0404900Y0147265D01*
X0404900Y0145666D02*
X0405701Y0145666D01*
X0405701Y0144068D02*
X0404900Y0144068D01*
X0404900Y0142469D02*
X0405701Y0142469D01*
X0405701Y0140870D02*
X0404900Y0140870D01*
X0404900Y0139272D02*
X0405701Y0139272D01*
X0405701Y0137673D02*
X0404900Y0137673D01*
X0404900Y0136075D02*
X0405701Y0136075D01*
X0405701Y0134476D02*
X0404900Y0134476D01*
X0404900Y0132878D02*
X0405701Y0132878D01*
X0405701Y0131279D02*
X0404900Y0131279D01*
X0404900Y0129681D02*
X0405701Y0129681D01*
X0405701Y0128082D02*
X0404900Y0128082D01*
X0404900Y0126484D02*
X0405701Y0126484D01*
X0405701Y0124885D02*
X0404900Y0124885D01*
X0404900Y0123287D02*
X0405701Y0123287D01*
X0405701Y0121688D02*
X0404900Y0121688D01*
X0404900Y0120090D02*
X0405701Y0120090D01*
X0405701Y0118491D02*
X0404900Y0118491D01*
X0404900Y0116893D02*
X0405701Y0116893D01*
X0405701Y0115294D02*
X0404900Y0115294D01*
X0404900Y0113696D02*
X0405701Y0113696D01*
X0405701Y0112097D02*
X0404900Y0112097D01*
X0404900Y0110499D02*
X0405701Y0110499D01*
X0405701Y0108900D02*
X0404900Y0108900D01*
X0404900Y0107302D02*
X0405701Y0107302D01*
X0405701Y0105703D02*
X0404900Y0105703D01*
X0404900Y0104105D02*
X0405701Y0104105D01*
X0405701Y0102506D02*
X0404900Y0102506D01*
X0404900Y0100908D02*
X0405701Y0100908D01*
X0405701Y0099309D02*
X0404900Y0099309D01*
X0404900Y0097711D02*
X0405701Y0097711D01*
X0405701Y0096112D02*
X0404870Y0096112D01*
X0405701Y0094514D02*
X0403898Y0094514D01*
X0405701Y0092915D02*
X0391572Y0092915D01*
X0390846Y0091317D02*
X0405701Y0091317D01*
X0405701Y0089718D02*
X0392856Y0089718D01*
X0394609Y0088120D02*
X0405701Y0088120D01*
X0405701Y0086521D02*
X0394900Y0086521D01*
X0394900Y0084923D02*
X0405701Y0084923D01*
X0405701Y0083324D02*
X0394900Y0083324D01*
X0394900Y0081726D02*
X0405701Y0081726D01*
X0405701Y0080127D02*
X0394900Y0080127D01*
X0394900Y0078529D02*
X0405701Y0078529D01*
X0405701Y0076930D02*
X0394900Y0076930D01*
X0394900Y0075332D02*
X0405701Y0075332D01*
X0405701Y0073733D02*
X0394900Y0073733D01*
X0394900Y0072134D02*
X0405701Y0072134D01*
X0405701Y0070536D02*
X0394900Y0070536D01*
X0394900Y0068937D02*
X0405701Y0068937D01*
X0405701Y0067339D02*
X0394900Y0067339D01*
X0394900Y0065740D02*
X0405701Y0065740D01*
X0405701Y0064142D02*
X0394900Y0064142D01*
X0394900Y0062543D02*
X0405701Y0062543D01*
X0405701Y0060945D02*
X0398150Y0060945D01*
X0399482Y0059346D02*
X0405701Y0059346D01*
X0405701Y0057748D02*
X0400100Y0057748D01*
X0400100Y0056149D02*
X0405701Y0056149D01*
X0405701Y0054551D02*
X0399605Y0054551D01*
X0398448Y0052952D02*
X0405701Y0052952D01*
X0405701Y0051354D02*
X0403349Y0051354D01*
X0405633Y0049755D02*
X0405701Y0049755D01*
X0388700Y0062543D02*
X0374900Y0062543D01*
X0374900Y0064142D02*
X0388700Y0064142D01*
X0388700Y0065740D02*
X0374900Y0065740D01*
X0374900Y0067339D02*
X0388700Y0067339D01*
X0388700Y0068937D02*
X0374900Y0068937D01*
X0374900Y0070536D02*
X0388700Y0070536D01*
X0388700Y0072134D02*
X0385054Y0072134D01*
X0386653Y0073733D02*
X0388700Y0073733D01*
X0388700Y0075332D02*
X0387400Y0075332D01*
X0387400Y0076930D02*
X0388700Y0076930D01*
X0388700Y0078529D02*
X0387400Y0078529D01*
X0386393Y0080127D02*
X0388700Y0080127D01*
X0381800Y0076800D02*
X0371800Y0076800D01*
X0371800Y0056800D01*
X0374900Y0072134D02*
X0378546Y0072134D01*
X0361800Y0076800D02*
X0356800Y0096800D01*
X0346800Y0096800D02*
X0346800Y0081800D01*
X0351800Y0081800D01*
X0351800Y0046800D01*
X0346900Y0046558D02*
X0336700Y0046558D01*
X0336700Y0044960D02*
X0346900Y0044960D01*
X0348309Y0043361D02*
X0335291Y0043361D01*
X0331800Y0046800D02*
X0331800Y0061800D01*
X0331800Y0081800D01*
X0336800Y0081800D01*
X0336800Y0096800D01*
X0341700Y0096112D02*
X0341900Y0096112D01*
X0341900Y0094514D02*
X0341700Y0094514D01*
X0341572Y0092915D02*
X0342028Y0092915D01*
X0342754Y0091317D02*
X0340846Y0091317D01*
X0339900Y0089718D02*
X0343700Y0089718D01*
X0343700Y0088120D02*
X0339900Y0088120D01*
X0339900Y0086521D02*
X0343700Y0086521D01*
X0343700Y0084923D02*
X0339900Y0084923D01*
X0339900Y0083324D02*
X0343700Y0083324D01*
X0343700Y0081726D02*
X0339900Y0081726D01*
X0339462Y0080127D02*
X0344138Y0080127D01*
X0347152Y0078529D02*
X0336448Y0078529D01*
X0334900Y0076930D02*
X0348700Y0076930D01*
X0348700Y0075332D02*
X0334900Y0075332D01*
X0334900Y0073733D02*
X0348700Y0073733D01*
X0348700Y0072134D02*
X0334900Y0072134D01*
X0334900Y0070536D02*
X0348700Y0070536D01*
X0348700Y0068937D02*
X0334900Y0068937D01*
X0334900Y0067339D02*
X0348700Y0067339D01*
X0348311Y0065740D02*
X0335289Y0065740D01*
X0336634Y0064142D02*
X0346966Y0064142D01*
X0346400Y0062543D02*
X0337200Y0062543D01*
X0337200Y0060945D02*
X0346400Y0060945D01*
X0347013Y0059346D02*
X0336587Y0059346D01*
X0335178Y0057748D02*
X0348422Y0057748D01*
X0348700Y0056149D02*
X0334900Y0056149D01*
X0334900Y0054551D02*
X0348700Y0054551D01*
X0348700Y0052952D02*
X0334900Y0052952D01*
X0334900Y0051354D02*
X0348700Y0051354D01*
X0347826Y0049755D02*
X0335774Y0049755D01*
X0336700Y0048157D02*
X0346900Y0048157D01*
X0354900Y0072134D02*
X0358546Y0072134D01*
X0356947Y0073733D02*
X0354900Y0073733D01*
X0354900Y0075332D02*
X0356200Y0075332D01*
X0356200Y0076930D02*
X0354900Y0076930D01*
X0366800Y0086800D02*
X0366800Y0096800D01*
X0381700Y0097711D02*
X0381900Y0097711D01*
X0381900Y0099309D02*
X0381700Y0099309D01*
X0381479Y0100908D02*
X0382121Y0100908D01*
X0382977Y0102506D02*
X0380623Y0102506D01*
X0376800Y0106800D02*
X0396800Y0106800D01*
X0396800Y0191800D01*
X0371800Y0191800D01*
X0371800Y0201800D01*
X0381800Y0196800D02*
X0401800Y0196800D01*
X0401800Y0096800D01*
X0386800Y0096800D01*
X0368700Y0110499D02*
X0196800Y0110499D01*
X0196800Y0112097D02*
X0368700Y0112097D01*
X0368700Y0113696D02*
X0196800Y0113696D01*
X0196800Y0115294D02*
X0368700Y0115294D01*
X0368700Y0116893D02*
X0196800Y0116893D01*
X0216403Y0137673D02*
X0217729Y0137673D01*
X0217425Y0139272D02*
X0216675Y0139272D01*
X0216426Y0140870D02*
X0217710Y0140870D01*
X0218782Y0142469D02*
X0215525Y0142469D01*
X0226800Y0147265D02*
X0263700Y0147265D01*
X0264479Y0148863D02*
X0226800Y0148863D01*
X0226800Y0150462D02*
X0303700Y0150462D01*
X0303700Y0152060D02*
X0226800Y0152060D01*
X0226800Y0153659D02*
X0303700Y0153659D01*
X0303700Y0155257D02*
X0226800Y0155257D01*
X0226800Y0156856D02*
X0303700Y0156856D01*
X0303700Y0158454D02*
X0226800Y0158454D01*
X0226800Y0160053D02*
X0303700Y0160053D01*
X0303700Y0161651D02*
X0226800Y0161651D01*
X0226800Y0163250D02*
X0303700Y0163250D01*
X0303700Y0164848D02*
X0226800Y0164848D01*
X0226800Y0166447D02*
X0303700Y0166447D01*
X0303700Y0168045D02*
X0226800Y0168045D01*
X0226800Y0169644D02*
X0303700Y0169644D01*
X0303700Y0171242D02*
X0226800Y0171242D01*
X0221800Y0171242D02*
X0174900Y0171242D01*
X0174900Y0169644D02*
X0221800Y0169644D01*
X0221800Y0168045D02*
X0203701Y0168045D01*
X0203902Y0167991D02*
X0203076Y0168213D01*
X0202575Y0168279D01*
X0202575Y0162575D01*
X0208279Y0162575D01*
X0208213Y0163076D01*
X0207991Y0163902D01*
X0207664Y0164692D01*
X0207236Y0165433D01*
X0206716Y0166111D01*
X0206111Y0166716D01*
X0205433Y0167236D01*
X0204692Y0167664D01*
X0203902Y0167991D01*
X0202575Y0168045D02*
X0201025Y0168045D01*
X0201025Y0168279D02*
X0200524Y0168213D01*
X0199698Y0167991D01*
X0198908Y0167664D01*
X0198167Y0167236D01*
X0197489Y0166716D01*
X0196884Y0166111D01*
X0196364Y0165433D01*
X0195936Y0164692D01*
X0195609Y0163902D01*
X0195387Y0163076D01*
X0195321Y0162575D01*
X0201025Y0162575D01*
X0201025Y0168279D01*
X0199899Y0168045D02*
X0175078Y0168045D01*
X0177087Y0166447D02*
X0183183Y0166447D01*
X0183490Y0166754D02*
X0181846Y0165110D01*
X0180957Y0162962D01*
X0180957Y0160638D01*
X0181846Y0158490D01*
X0183490Y0156846D01*
X0185638Y0155957D01*
X0187962Y0155957D01*
X0190110Y0156846D01*
X0191754Y0158490D01*
X0192643Y0160638D01*
X0192643Y0162962D01*
X0191754Y0165110D01*
X0190110Y0166754D01*
X0187962Y0167643D01*
X0185638Y0167643D01*
X0183490Y0166754D01*
X0181738Y0164848D02*
X0178141Y0164848D01*
X0178803Y0163250D02*
X0181076Y0163250D01*
X0180957Y0161651D02*
X0178824Y0161651D01*
X0178679Y0160053D02*
X0181199Y0160053D01*
X0181882Y0158454D02*
X0178017Y0158454D01*
X0176790Y0156856D02*
X0183481Y0156856D01*
X0190119Y0156856D02*
X0197526Y0156856D01*
X0197489Y0156884D02*
X0198167Y0156364D01*
X0198908Y0155936D01*
X0199698Y0155609D01*
X0200524Y0155387D01*
X0201025Y0155321D01*
X0201025Y0161025D01*
X0202575Y0161025D01*
X0202575Y0162575D01*
X0201025Y0162575D01*
X0201025Y0161025D01*
X0195321Y0161025D01*
X0195387Y0160524D01*
X0195609Y0159698D01*
X0195936Y0158908D01*
X0196364Y0158167D01*
X0196884Y0157489D01*
X0197489Y0156884D01*
X0196198Y0158454D02*
X0191718Y0158454D01*
X0192401Y0160053D02*
X0195514Y0160053D01*
X0195434Y0163250D02*
X0192524Y0163250D01*
X0192643Y0161651D02*
X0201025Y0161651D01*
X0202575Y0161651D02*
X0221800Y0161651D01*
X0221800Y0160053D02*
X0208086Y0160053D01*
X0207991Y0159698D02*
X0208213Y0160524D01*
X0208279Y0161025D01*
X0202575Y0161025D01*
X0202575Y0155321D01*
X0203076Y0155387D01*
X0203902Y0155609D01*
X0204692Y0155936D01*
X0205433Y0156364D01*
X0206111Y0156884D01*
X0206716Y0157489D01*
X0207236Y0158167D01*
X0207664Y0158908D01*
X0207991Y0159698D01*
X0207402Y0158454D02*
X0221800Y0158454D01*
X0221800Y0156856D02*
X0206074Y0156856D01*
X0202575Y0156856D02*
X0201025Y0156856D01*
X0201025Y0158454D02*
X0202575Y0158454D01*
X0202575Y0160053D02*
X0201025Y0160053D01*
X0201025Y0163250D02*
X0202575Y0163250D01*
X0202575Y0164848D02*
X0201025Y0164848D01*
X0201025Y0166447D02*
X0202575Y0166447D01*
X0206380Y0166447D02*
X0221800Y0166447D01*
X0221800Y0164848D02*
X0207574Y0164848D01*
X0208166Y0163250D02*
X0221800Y0163250D01*
X0221800Y0155257D02*
X0174360Y0155257D01*
X0171800Y0161800D02*
X0171800Y0176800D01*
X0099300Y0176800D01*
X0070075Y0180833D02*
X0068525Y0180833D01*
X0068525Y0179235D02*
X0016600Y0179235D01*
X0016600Y0180833D02*
X0062956Y0180833D01*
X0063574Y0182432D02*
X0016600Y0182432D01*
X0016600Y0184030D02*
X0064803Y0184030D01*
X0068525Y0184030D02*
X0070075Y0184030D01*
X0070075Y0182432D02*
X0068525Y0182432D01*
X0064350Y0208008D02*
X0026750Y0208008D01*
X0028349Y0209606D02*
X0062751Y0209606D01*
X0061977Y0211205D02*
X0029123Y0211205D01*
X0029750Y0212803D02*
X0061350Y0212803D01*
X0061350Y0214402D02*
X0029750Y0214402D01*
X0029700Y0216001D02*
X0061400Y0216001D01*
X0016850Y0208008D02*
X0016600Y0208008D01*
X0174900Y0176038D02*
X0221800Y0176038D01*
X0221800Y0177636D02*
X0190160Y0177636D01*
X0191490Y0179235D02*
X0221800Y0179235D01*
X0221800Y0180833D02*
X0192057Y0180833D01*
X0192110Y0182432D02*
X0221800Y0182432D01*
X0221800Y0184030D02*
X0191661Y0184030D01*
X0174900Y0174439D02*
X0221800Y0174439D01*
X0221800Y0172841D02*
X0174900Y0172841D01*
X0190417Y0166447D02*
X0197220Y0166447D01*
X0196026Y0164848D02*
X0191862Y0164848D01*
X0226800Y0185629D02*
X0244996Y0185629D01*
X0242058Y0187227D02*
X0226800Y0187227D01*
X0226800Y0188826D02*
X0240499Y0188826D01*
X0239519Y0190424D02*
X0226800Y0190424D01*
X0226800Y0192023D02*
X0238911Y0192023D01*
X0238628Y0193621D02*
X0226800Y0193621D01*
X0226800Y0208008D02*
X0266000Y0208008D01*
X0266000Y0206409D02*
X0267600Y0206409D01*
X0267600Y0204811D02*
X0266000Y0204811D01*
X0266000Y0203212D02*
X0267600Y0203212D01*
X0267600Y0201614D02*
X0266000Y0201614D01*
X0266000Y0200015D02*
X0267600Y0200015D01*
X0267600Y0208008D02*
X0299370Y0208008D01*
X0305829Y0209606D02*
X0307771Y0209606D01*
X0307400Y0211205D02*
X0306200Y0211205D01*
X0306200Y0212803D02*
X0307400Y0212803D01*
X0308179Y0214402D02*
X0305421Y0214402D01*
X0303822Y0216001D02*
X0309778Y0216001D01*
X0311800Y0216001D02*
X0311800Y0216001D01*
X0311800Y0214402D02*
X0311800Y0214402D01*
X0311800Y0212803D02*
X0311800Y0212803D01*
X0311800Y0211205D02*
X0311800Y0211205D01*
X0311800Y0209606D02*
X0311800Y0209606D01*
X0311800Y0208008D02*
X0311800Y0208008D01*
X0315829Y0209606D02*
X0317771Y0209606D01*
X0317400Y0211205D02*
X0316200Y0211205D01*
X0316200Y0212803D02*
X0317400Y0212803D01*
X0318179Y0214402D02*
X0315421Y0214402D01*
X0313822Y0216001D02*
X0319778Y0216001D01*
X0325421Y0214402D02*
X0328179Y0214402D01*
X0327400Y0212803D02*
X0326200Y0212803D01*
X0326200Y0211205D02*
X0327400Y0211205D01*
X0327771Y0209606D02*
X0325829Y0209606D01*
X0324230Y0208008D02*
X0329370Y0208008D01*
X0329480Y0206409D02*
X0324120Y0206409D01*
X0325719Y0204811D02*
X0327881Y0204811D01*
X0326900Y0203212D02*
X0326700Y0203212D01*
X0326700Y0201614D02*
X0326900Y0201614D01*
X0326900Y0200015D02*
X0326700Y0200015D01*
X0325347Y0198417D02*
X0328253Y0198417D01*
X0328700Y0193621D02*
X0314900Y0193621D01*
X0314900Y0192023D02*
X0328700Y0192023D01*
X0328700Y0190424D02*
X0314900Y0190424D01*
X0314900Y0188826D02*
X0328700Y0188826D01*
X0328700Y0187227D02*
X0314900Y0187227D01*
X0314900Y0185629D02*
X0328700Y0185629D01*
X0328700Y0184030D02*
X0314900Y0184030D01*
X0314316Y0182432D02*
X0328700Y0182432D01*
X0331800Y0179300D02*
X0331800Y0201800D01*
X0341800Y0208008D02*
X0341800Y0208008D01*
X0341800Y0209606D02*
X0341800Y0209606D01*
X0341800Y0211205D02*
X0341800Y0211205D01*
X0341800Y0212803D02*
X0341800Y0212803D01*
X0341800Y0214402D02*
X0341800Y0214402D01*
X0341800Y0216001D02*
X0341800Y0216001D01*
X0343822Y0216001D02*
X0349778Y0216001D01*
X0349977Y0216200D02*
X0347400Y0213623D01*
X0347400Y0211800D01*
X0351800Y0211800D01*
X0351800Y0211800D01*
X0351800Y0211800D01*
X0351800Y0216200D01*
X0349977Y0216200D01*
X0351800Y0216001D02*
X0351800Y0216001D01*
X0351800Y0214402D02*
X0351800Y0214402D01*
X0351800Y0212803D02*
X0351800Y0212803D01*
X0351800Y0211800D02*
X0347400Y0211800D01*
X0347400Y0209977D01*
X0349977Y0207400D01*
X0351800Y0207400D01*
X0351800Y0211800D01*
X0351800Y0211205D02*
X0351800Y0211205D01*
X0351800Y0209606D02*
X0351800Y0209606D01*
X0351800Y0208008D02*
X0351800Y0208008D01*
X0349370Y0208008D02*
X0344230Y0208008D01*
X0344120Y0206409D02*
X0349480Y0206409D01*
X0347881Y0204811D02*
X0345719Y0204811D01*
X0346700Y0203212D02*
X0346900Y0203212D01*
X0346900Y0201614D02*
X0346700Y0201614D01*
X0346700Y0200015D02*
X0346900Y0200015D01*
X0348253Y0198417D02*
X0345347Y0198417D01*
X0345829Y0209606D02*
X0347771Y0209606D01*
X0347400Y0211205D02*
X0346200Y0211205D01*
X0346200Y0212803D02*
X0347400Y0212803D01*
X0348179Y0214402D02*
X0345421Y0214402D01*
X0339778Y0216001D02*
X0333822Y0216001D01*
X0335421Y0214402D02*
X0338179Y0214402D01*
X0337400Y0212803D02*
X0336200Y0212803D01*
X0336200Y0211205D02*
X0337400Y0211205D01*
X0337771Y0209606D02*
X0335829Y0209606D01*
X0353822Y0216001D02*
X0359778Y0216001D01*
X0358179Y0214402D02*
X0355421Y0214402D01*
X0356200Y0212803D02*
X0357400Y0212803D01*
X0357400Y0211205D02*
X0356200Y0211205D01*
X0355829Y0209606D02*
X0357771Y0209606D01*
X0386700Y0200015D02*
X0405701Y0200015D01*
X0405701Y0198417D02*
X0404486Y0198417D01*
X0404900Y0196818D02*
X0405701Y0196818D01*
X0405701Y0195220D02*
X0404900Y0195220D01*
X0404900Y0193621D02*
X0405701Y0193621D01*
X0405701Y0192023D02*
X0404900Y0192023D01*
X0404900Y0190424D02*
X0405701Y0190424D01*
X0405701Y0188826D02*
X0404900Y0188826D01*
X0404900Y0187227D02*
X0405701Y0187227D01*
X0405701Y0185629D02*
X0404900Y0185629D01*
X0404900Y0184030D02*
X0405701Y0184030D01*
X0405701Y0182432D02*
X0404900Y0182432D01*
X0404900Y0180833D02*
X0405701Y0180833D01*
X0405701Y0179235D02*
X0404900Y0179235D01*
X0367000Y0166447D02*
X0366600Y0166447D01*
X0366600Y0164848D02*
X0367000Y0164848D01*
X0367000Y0163250D02*
X0366600Y0163250D01*
X0362568Y0166447D02*
X0351032Y0166447D01*
X0350924Y0166482D02*
X0350178Y0166600D01*
X0347000Y0166600D01*
X0347000Y0162000D01*
X0354600Y0162000D01*
X0354600Y0162178D01*
X0354482Y0162924D01*
X0354248Y0163643D01*
X0353905Y0164316D01*
X0353461Y0164927D01*
X0352927Y0165461D01*
X0352316Y0165905D01*
X0351643Y0166248D01*
X0350924Y0166482D01*
X0353518Y0164848D02*
X0360082Y0164848D01*
X0359224Y0163250D02*
X0354376Y0163250D01*
X0354279Y0160053D02*
X0359321Y0160053D01*
X0360358Y0158454D02*
X0353242Y0158454D01*
X0351444Y0156856D02*
X0362156Y0156856D01*
X0359762Y0155257D02*
X0353838Y0155257D01*
X0354767Y0153659D02*
X0358833Y0153659D01*
X0358500Y0152060D02*
X0355100Y0152060D01*
X0354982Y0150462D02*
X0358618Y0150462D01*
X0359280Y0148863D02*
X0354320Y0148863D01*
X0352700Y0147265D02*
X0360900Y0147265D01*
X0360171Y0145666D02*
X0353429Y0145666D01*
X0354597Y0144068D02*
X0359003Y0144068D01*
X0358500Y0142469D02*
X0355100Y0142469D01*
X0355100Y0140870D02*
X0358500Y0140870D01*
X0359110Y0139272D02*
X0354490Y0139272D01*
X0353169Y0137673D02*
X0360323Y0137673D01*
X0359258Y0136075D02*
X0349900Y0136075D01*
X0349900Y0134476D02*
X0358192Y0134476D01*
X0353348Y0132878D02*
X0350252Y0132878D01*
X0351325Y0131279D02*
X0352275Y0131279D01*
X0351900Y0129681D02*
X0351700Y0129681D01*
X0351700Y0128082D02*
X0351900Y0128082D01*
X0351900Y0126484D02*
X0351700Y0126484D01*
X0351700Y0124885D02*
X0351900Y0124885D01*
X0351900Y0123287D02*
X0351700Y0123287D01*
X0351063Y0121688D02*
X0352537Y0121688D01*
X0353981Y0120090D02*
X0349619Y0120090D01*
X0343981Y0120090D02*
X0339619Y0120090D01*
X0341063Y0121688D02*
X0342537Y0121688D01*
X0341900Y0123287D02*
X0341700Y0123287D01*
X0341700Y0124885D02*
X0341900Y0124885D01*
X0341900Y0126484D02*
X0341700Y0126484D01*
X0341700Y0128082D02*
X0341900Y0128082D01*
X0341900Y0129681D02*
X0341700Y0129681D01*
X0341325Y0131279D02*
X0342275Y0131279D01*
X0343348Y0132878D02*
X0340252Y0132878D01*
X0341689Y0134476D02*
X0343700Y0134476D01*
X0343700Y0136075D02*
X0341900Y0136075D01*
X0346800Y0141800D02*
X0346800Y0126800D01*
X0356800Y0126800D02*
X0366800Y0141800D01*
X0365643Y0134476D02*
X0388700Y0134476D01*
X0383348Y0132878D02*
X0380252Y0132878D01*
X0381325Y0131279D02*
X0382275Y0131279D01*
X0381900Y0129681D02*
X0381700Y0129681D01*
X0381700Y0128082D02*
X0381900Y0128082D01*
X0381900Y0126484D02*
X0381700Y0126484D01*
X0381700Y0124885D02*
X0381900Y0124885D01*
X0381900Y0123287D02*
X0381700Y0123287D01*
X0381063Y0121688D02*
X0382537Y0121688D01*
X0383981Y0120090D02*
X0379619Y0120090D01*
X0363981Y0120090D02*
X0359619Y0120090D01*
X0361063Y0121688D02*
X0362537Y0121688D01*
X0361900Y0123287D02*
X0361700Y0123287D01*
X0361700Y0124885D02*
X0361900Y0124885D01*
X0361900Y0126484D02*
X0361700Y0126484D01*
X0361700Y0128082D02*
X0361900Y0128082D01*
X0336800Y0142200D02*
X0334895Y0142200D01*
X0332200Y0144895D01*
X0332200Y0146800D01*
X0336800Y0146800D01*
X0336800Y0146800D01*
X0336800Y0146800D01*
X0336800Y0151400D01*
X0334895Y0151400D01*
X0332200Y0148705D01*
X0332200Y0146800D01*
X0336800Y0146800D01*
X0336800Y0142200D01*
X0336800Y0142469D02*
X0336800Y0142469D01*
X0336800Y0144068D02*
X0336800Y0144068D01*
X0336800Y0145666D02*
X0336800Y0145666D01*
X0336800Y0147265D02*
X0336800Y0147265D01*
X0336800Y0148863D02*
X0336800Y0148863D01*
X0336800Y0150462D02*
X0336800Y0150462D01*
X0338500Y0152060D02*
X0319900Y0152060D01*
X0319900Y0150462D02*
X0323956Y0150462D01*
X0324895Y0151400D02*
X0322200Y0148705D01*
X0322200Y0146800D01*
X0326800Y0146800D01*
X0326800Y0146800D01*
X0326800Y0151400D01*
X0328705Y0151400D01*
X0331400Y0148705D01*
X0331400Y0146800D01*
X0326800Y0146800D01*
X0326800Y0146800D01*
X0326800Y0146800D01*
X0326800Y0151400D01*
X0324895Y0151400D01*
X0326800Y0150462D02*
X0326800Y0150462D01*
X0326800Y0148863D02*
X0326800Y0148863D01*
X0326800Y0147265D02*
X0326800Y0147265D01*
X0326800Y0146800D02*
X0322200Y0146800D01*
X0322200Y0144895D01*
X0324895Y0142200D01*
X0326800Y0142200D01*
X0328705Y0142200D01*
X0331400Y0144895D01*
X0331400Y0146800D01*
X0326800Y0146800D01*
X0326800Y0142200D01*
X0326800Y0146800D01*
X0326800Y0146800D01*
X0326800Y0145666D02*
X0326800Y0145666D01*
X0326800Y0144068D02*
X0326800Y0144068D01*
X0326800Y0142469D02*
X0326800Y0142469D01*
X0328974Y0142469D02*
X0334626Y0142469D01*
X0333658Y0140870D02*
X0329942Y0140870D01*
X0331540Y0139272D02*
X0332059Y0139272D01*
X0331911Y0134476D02*
X0331689Y0134476D01*
X0330252Y0132878D02*
X0333348Y0132878D01*
X0332275Y0131279D02*
X0331325Y0131279D01*
X0331700Y0129681D02*
X0331900Y0129681D01*
X0331900Y0128082D02*
X0331700Y0128082D01*
X0331700Y0126484D02*
X0331900Y0126484D01*
X0331900Y0124885D02*
X0331700Y0124885D01*
X0331700Y0123287D02*
X0331900Y0123287D01*
X0332537Y0121688D02*
X0331063Y0121688D01*
X0329619Y0120090D02*
X0333981Y0120090D01*
X0323981Y0120090D02*
X0318389Y0120090D01*
X0318489Y0120122D02*
X0319106Y0120437D01*
X0319666Y0120844D01*
X0320156Y0121334D01*
X0320563Y0121894D01*
X0320878Y0122511D01*
X0321092Y0123170D01*
X0321200Y0123854D01*
X0321200Y0126800D01*
X0316800Y0126800D01*
X0316800Y0126800D01*
X0316800Y0119800D01*
X0317146Y0119800D01*
X0317830Y0119908D01*
X0318489Y0120122D01*
X0316800Y0120090D02*
X0316800Y0120090D01*
X0316800Y0119800D02*
X0316800Y0126800D01*
X0316800Y0126800D01*
X0316800Y0126800D01*
X0312400Y0126800D01*
X0312400Y0123854D01*
X0312508Y0123170D01*
X0312722Y0122511D01*
X0313037Y0121894D01*
X0313444Y0121334D01*
X0313934Y0120844D01*
X0314494Y0120437D01*
X0315111Y0120122D01*
X0315770Y0119908D01*
X0316454Y0119800D01*
X0316800Y0119800D01*
X0315211Y0120090D02*
X0309619Y0120090D01*
X0311063Y0121688D02*
X0313186Y0121688D01*
X0312490Y0123287D02*
X0311700Y0123287D01*
X0311700Y0124885D02*
X0312400Y0124885D01*
X0312400Y0126484D02*
X0311700Y0126484D01*
X0311700Y0128082D02*
X0312400Y0128082D01*
X0312400Y0129681D02*
X0311700Y0129681D01*
X0311325Y0131279D02*
X0312819Y0131279D01*
X0314101Y0132878D02*
X0310252Y0132878D01*
X0306800Y0136800D02*
X0316800Y0136800D01*
X0316800Y0156800D01*
X0319900Y0153659D02*
X0338833Y0153659D01*
X0339762Y0155257D02*
X0334516Y0155257D01*
X0334900Y0156856D02*
X0342156Y0156856D01*
X0340358Y0158454D02*
X0334900Y0158454D01*
X0333956Y0150462D02*
X0329644Y0150462D01*
X0331242Y0148863D02*
X0332358Y0148863D01*
X0332200Y0147265D02*
X0331400Y0147265D01*
X0331400Y0145666D02*
X0332200Y0145666D01*
X0333027Y0144068D02*
X0330573Y0144068D01*
X0324626Y0142469D02*
X0319900Y0142469D01*
X0319900Y0144068D02*
X0323027Y0144068D01*
X0322200Y0145666D02*
X0319900Y0145666D01*
X0319900Y0147265D02*
X0322200Y0147265D01*
X0322358Y0148863D02*
X0319900Y0148863D01*
X0319900Y0140870D02*
X0323658Y0140870D01*
X0322059Y0139272D02*
X0319900Y0139272D01*
X0319900Y0137673D02*
X0321700Y0137673D01*
X0321700Y0136075D02*
X0319855Y0136075D01*
X0318860Y0134476D02*
X0321911Y0134476D01*
X0323348Y0132878D02*
X0319499Y0132878D01*
X0320781Y0131279D02*
X0322275Y0131279D01*
X0321900Y0129681D02*
X0321200Y0129681D01*
X0321200Y0128082D02*
X0321900Y0128082D01*
X0321900Y0126484D02*
X0321200Y0126484D01*
X0321200Y0124885D02*
X0321900Y0124885D01*
X0321900Y0123287D02*
X0321110Y0123287D01*
X0320414Y0121688D02*
X0322537Y0121688D01*
X0316800Y0121688D02*
X0316800Y0121688D01*
X0316800Y0123287D02*
X0316800Y0123287D01*
X0316800Y0124885D02*
X0316800Y0124885D01*
X0316800Y0126484D02*
X0316800Y0126484D01*
X0306800Y0126800D02*
X0306800Y0136800D01*
X0303806Y0137673D02*
X0289900Y0137673D01*
X0289900Y0136075D02*
X0303700Y0136075D01*
X0303700Y0134476D02*
X0289900Y0134476D01*
X0290252Y0132878D02*
X0293348Y0132878D01*
X0294024Y0133554D02*
X0292646Y0132176D01*
X0291900Y0130375D01*
X0291900Y0123225D01*
X0292646Y0121424D01*
X0294024Y0120046D01*
X0295825Y0119300D01*
X0297775Y0119300D01*
X0299576Y0120046D01*
X0300954Y0121424D01*
X0301700Y0123225D01*
X0301700Y0130375D01*
X0300954Y0132176D01*
X0299576Y0133554D01*
X0297775Y0134300D01*
X0295825Y0134300D01*
X0294024Y0133554D01*
X0292275Y0131279D02*
X0291325Y0131279D01*
X0291700Y0129681D02*
X0291900Y0129681D01*
X0291900Y0128082D02*
X0291700Y0128082D01*
X0291700Y0126484D02*
X0291900Y0126484D01*
X0291900Y0124885D02*
X0291700Y0124885D01*
X0291700Y0123287D02*
X0291900Y0123287D01*
X0292537Y0121688D02*
X0291063Y0121688D01*
X0289619Y0120090D02*
X0293981Y0120090D01*
X0299619Y0120090D02*
X0303981Y0120090D01*
X0302537Y0121688D02*
X0301063Y0121688D01*
X0301700Y0123287D02*
X0301900Y0123287D01*
X0301900Y0124885D02*
X0301700Y0124885D01*
X0301700Y0126484D02*
X0301900Y0126484D01*
X0301900Y0128082D02*
X0301700Y0128082D01*
X0301700Y0129681D02*
X0301900Y0129681D01*
X0302275Y0131279D02*
X0301325Y0131279D01*
X0300252Y0132878D02*
X0303348Y0132878D01*
X0311800Y0141800D02*
X0286800Y0141800D01*
X0286800Y0126800D01*
X0281900Y0126484D02*
X0281700Y0126484D01*
X0281700Y0128082D02*
X0281900Y0128082D01*
X0281900Y0129681D02*
X0281700Y0129681D01*
X0281700Y0130375D02*
X0280954Y0132176D01*
X0279576Y0133554D01*
X0277775Y0134300D01*
X0275825Y0134300D01*
X0274024Y0133554D01*
X0272646Y0132176D01*
X0271900Y0130375D01*
X0271900Y0123225D01*
X0272646Y0121424D01*
X0274024Y0120046D01*
X0275825Y0119300D01*
X0277775Y0119300D01*
X0279576Y0120046D01*
X0280954Y0121424D01*
X0281700Y0123225D01*
X0281700Y0130375D01*
X0281325Y0131279D02*
X0282275Y0131279D01*
X0283348Y0132878D02*
X0280252Y0132878D01*
X0283700Y0134476D02*
X0269900Y0134476D01*
X0269900Y0136075D02*
X0283700Y0136075D01*
X0283700Y0137673D02*
X0269900Y0137673D01*
X0269900Y0139272D02*
X0283700Y0139272D01*
X0283700Y0140870D02*
X0269900Y0140870D01*
X0269900Y0142469D02*
X0283722Y0142469D01*
X0273348Y0132878D02*
X0270252Y0132878D01*
X0271325Y0131279D02*
X0272275Y0131279D01*
X0271900Y0129681D02*
X0271700Y0129681D01*
X0271700Y0128082D02*
X0271900Y0128082D01*
X0271900Y0126484D02*
X0271700Y0126484D01*
X0271700Y0124885D02*
X0271900Y0124885D01*
X0271900Y0123287D02*
X0271700Y0123287D01*
X0271063Y0121688D02*
X0272537Y0121688D01*
X0273981Y0120090D02*
X0269619Y0120090D01*
X0263981Y0120090D02*
X0259619Y0120090D01*
X0261063Y0121688D02*
X0262537Y0121688D01*
X0261900Y0123287D02*
X0261700Y0123287D01*
X0261700Y0124885D02*
X0261900Y0124885D01*
X0261900Y0126484D02*
X0261700Y0126484D01*
X0261700Y0128082D02*
X0261900Y0128082D01*
X0261900Y0129681D02*
X0261700Y0129681D01*
X0261325Y0131279D02*
X0262275Y0131279D01*
X0263348Y0132878D02*
X0260252Y0132878D01*
X0266800Y0126800D02*
X0266800Y0146800D01*
X0306800Y0146800D01*
X0306800Y0184300D01*
X0311800Y0184300D01*
X0311800Y0201800D01*
X0311800Y0179300D02*
X0331800Y0179300D01*
X0346600Y0166447D02*
X0347000Y0166447D01*
X0347000Y0164848D02*
X0346600Y0164848D01*
X0346600Y0163250D02*
X0347000Y0163250D01*
X0311800Y0179300D02*
X0311800Y0141800D01*
X0326800Y0136800D02*
X0326800Y0126800D01*
X0323684Y0102506D02*
X0320623Y0102506D01*
X0321479Y0100908D02*
X0322663Y0100908D01*
X0322400Y0099309D02*
X0321700Y0099309D01*
X0329916Y0102506D02*
X0332977Y0102506D01*
X0332121Y0100908D02*
X0330937Y0100908D01*
X0331200Y0099309D02*
X0331900Y0099309D01*
X0331900Y0097711D02*
X0331200Y0097711D01*
X0341700Y0097711D02*
X0341900Y0097711D01*
X0341900Y0099309D02*
X0341700Y0099309D01*
X0341479Y0100908D02*
X0342121Y0100908D01*
X0342977Y0102506D02*
X0340623Y0102506D01*
X0283981Y0120090D02*
X0279619Y0120090D01*
X0281063Y0121688D02*
X0282537Y0121688D01*
X0281900Y0123287D02*
X0281700Y0123287D01*
X0281700Y0124885D02*
X0281900Y0124885D01*
X0256891Y0187227D02*
X0253746Y0187227D01*
X0255306Y0188826D02*
X0257776Y0188826D01*
X0258978Y0190424D02*
X0256286Y0190424D01*
X0256893Y0192023D02*
X0260785Y0192023D01*
X0122826Y0049755D02*
X0120774Y0049755D01*
X0121542Y0048157D02*
X0122058Y0048157D01*
X0121900Y0046558D02*
X0121700Y0046558D01*
X0121700Y0044960D02*
X0121900Y0044960D01*
X0121900Y0043361D02*
X0121700Y0043361D01*
X0121700Y0041763D02*
X0121900Y0041763D01*
X0122091Y0040164D02*
X0121509Y0040164D01*
X0120695Y0038566D02*
X0122905Y0038566D01*
X0126800Y0046800D02*
X0126800Y0024300D01*
X0150045Y0028975D02*
X0156706Y0028975D01*
X0073700Y0028975D02*
X0016600Y0028975D01*
X0016600Y0030573D02*
X0073700Y0030573D01*
X0073700Y0032172D02*
X0016600Y0032172D01*
X0016600Y0033770D02*
X0073700Y0033770D01*
X0073700Y0035369D02*
X0016600Y0035369D01*
X0016600Y0036967D02*
X0055180Y0036967D01*
X0052905Y0038566D02*
X0016600Y0038566D01*
X0016600Y0040164D02*
X0052091Y0040164D01*
X0051900Y0041763D02*
X0016600Y0041763D01*
X0016600Y0043361D02*
X0051900Y0043361D01*
X0051900Y0044960D02*
X0016600Y0044960D01*
X0016600Y0046558D02*
X0051900Y0046558D01*
X0052058Y0048157D02*
X0016600Y0048157D01*
X0016600Y0049755D02*
X0052826Y0049755D01*
X0060774Y0049755D02*
X0062826Y0049755D01*
X0062058Y0048157D02*
X0061542Y0048157D01*
X0061700Y0046558D02*
X0061900Y0046558D01*
X0061900Y0044960D02*
X0061700Y0044960D01*
X0061700Y0043361D02*
X0061900Y0043361D01*
X0061900Y0041763D02*
X0061700Y0041763D01*
X0061509Y0040164D02*
X0062091Y0040164D01*
X0062905Y0038566D02*
X0060695Y0038566D01*
X0058420Y0036967D02*
X0065180Y0036967D01*
X0068420Y0036967D02*
X0073700Y0036967D01*
X0072905Y0038566D02*
X0070695Y0038566D01*
X0071509Y0040164D02*
X0072091Y0040164D01*
X0071900Y0041763D02*
X0071700Y0041763D01*
X0071700Y0043361D02*
X0071900Y0043361D01*
X0071900Y0044960D02*
X0071700Y0044960D01*
X0071700Y0046558D02*
X0071900Y0046558D01*
X0072058Y0048157D02*
X0071542Y0048157D01*
X0070774Y0049755D02*
X0072826Y0049755D01*
X0073700Y0027376D02*
X0016600Y0027376D01*
X0016600Y0025778D02*
X0073700Y0025778D01*
X0073700Y0024179D02*
X0016600Y0024179D01*
X0016600Y0022581D02*
X0073700Y0022581D01*
X0073700Y0020982D02*
X0016600Y0020982D01*
X0016600Y0019384D02*
X0019335Y0019384D01*
X0024265Y0019384D02*
X0073700Y0019384D01*
X0073700Y0017785D02*
X0027057Y0017785D01*
X0028588Y0016187D02*
X0073267Y0016187D01*
X0071669Y0014588D02*
X0029250Y0014588D01*
X0029750Y0012990D02*
X0071200Y0012990D01*
X0071200Y0011391D02*
X0029750Y0011391D01*
X0029573Y0009793D02*
X0071200Y0009793D01*
X0072486Y0008194D02*
X0028911Y0008194D01*
X0254494Y0024179D02*
X0259106Y0024179D01*
X0257327Y0025778D02*
X0256273Y0025778D01*
X0276600Y0025778D02*
X0277327Y0025778D01*
X0276600Y0024179D02*
X0279106Y0024179D01*
X0286947Y0027376D02*
X0303304Y0027376D01*
X0301706Y0028975D02*
X0287100Y0028975D01*
X0287100Y0030573D02*
X0298520Y0030573D01*
X0295323Y0032172D02*
X0287100Y0032172D01*
X0287100Y0033770D02*
X0293042Y0033770D01*
X0291443Y0035369D02*
X0287100Y0035369D01*
X0286639Y0036967D02*
X0289845Y0036967D01*
X0257000Y0038566D02*
X0255530Y0038566D01*
X0256639Y0036967D02*
X0256961Y0036967D01*
X0396089Y0032172D02*
X0397000Y0032172D01*
D23*
X0236800Y0069300D03*
X0216800Y0069300D03*
X0216800Y0116800D03*
X0236800Y0116800D03*
D24*
X0216800Y0016800D03*
X0199300Y0016800D03*
D25*
X0226800Y0031800D02*
X0226800Y0051800D01*
X0226800Y0031800D02*
X0251800Y0031800D01*
X0261800Y0031800D02*
X0261800Y0041800D01*
X0291800Y0041800D01*
X0296800Y0036800D01*
X0306800Y0031800D01*
X0321800Y0036800D02*
X0356800Y0036800D01*
X0361800Y0041800D01*
X0361800Y0046800D01*
X0371800Y0046800D01*
X0391800Y0046800D02*
X0401800Y0046800D01*
X0401800Y0024300D01*
X0326800Y0016800D01*
X0321800Y0036800D02*
X0316800Y0051800D01*
X0306800Y0051800D01*
X0306800Y0071800D01*
X0281800Y0061800D02*
X0266800Y0061800D01*
X0266800Y0051800D01*
X0271800Y0031800D02*
X0271800Y0016800D01*
X0286800Y0016800D01*
M02*
