G75*
%MOIN*%
%OFA0B0*%
%FSLAX25Y25*%
%IPPOS*%
%LPD*%
%AMOC8*
5,1,8,0,0,1.08239X$1,22.5*
%
%ADD10OC8,0.05600*%
%ADD11OC8,0.05200*%
%ADD12C,0.16598*%
%ADD13C,0.15024*%
%ADD14C,0.05150*%
%ADD15C,0.05200*%
%ADD16C,0.06000*%
%ADD17C,0.05200*%
%ADD18OC8,0.06600*%
%ADD19C,0.07087*%
%ADD20C,0.09449*%
%ADD21R,0.07677X0.07677*%
%ADD22C,0.05000*%
%ADD23R,0.04356X0.04356*%
%ADD24C,0.01600*%
D10*
X0039300Y0079300D03*
X0049300Y0079300D03*
X0096800Y0091800D03*
X0106800Y0091800D03*
X0059300Y0136800D03*
X0049300Y0136800D03*
X0316800Y0086800D03*
X0316800Y0076800D03*
X0326800Y0136800D03*
X0336800Y0136800D03*
X0336800Y0146800D03*
X0326800Y0146800D03*
D11*
X0321800Y0201800D03*
X0311800Y0201800D03*
X0301800Y0201800D03*
X0301800Y0211800D03*
X0311800Y0211800D03*
X0321800Y0211800D03*
X0331800Y0211800D03*
X0341800Y0211800D03*
X0351800Y0211800D03*
X0361800Y0211800D03*
X0371800Y0211800D03*
X0381800Y0211800D03*
X0381800Y0201800D03*
X0371800Y0201800D03*
X0361800Y0201800D03*
X0351800Y0201800D03*
X0341800Y0201800D03*
X0331800Y0201800D03*
X0331800Y0046800D03*
X0351800Y0046800D03*
X0351800Y0026800D03*
X0331800Y0026800D03*
D12*
X0266800Y0183257D03*
D13*
X0247902Y0194477D03*
X0266800Y0207863D03*
D14*
X0241800Y0139300D03*
X0231800Y0139300D03*
X0221800Y0139300D03*
X0211800Y0139300D03*
D15*
X0256800Y0129400D02*
X0256800Y0124200D01*
X0266800Y0124200D02*
X0266800Y0129400D01*
X0276800Y0129400D02*
X0276800Y0124200D01*
X0286800Y0124200D02*
X0286800Y0129400D01*
X0296800Y0129400D02*
X0296800Y0124200D01*
X0306800Y0124200D02*
X0306800Y0129400D01*
X0316800Y0129400D02*
X0316800Y0124200D01*
X0326800Y0124200D02*
X0326800Y0129400D01*
X0336800Y0129400D02*
X0336800Y0124200D01*
X0346800Y0124200D02*
X0346800Y0129400D01*
X0356800Y0129400D02*
X0356800Y0124200D01*
X0366800Y0124200D02*
X0366800Y0129400D01*
X0376800Y0129400D02*
X0376800Y0124200D01*
X0386800Y0124200D02*
X0386800Y0129400D01*
X0386800Y0099400D02*
X0386800Y0094200D01*
X0376800Y0094200D02*
X0376800Y0099400D01*
X0366800Y0099400D02*
X0366800Y0094200D01*
X0356800Y0094200D02*
X0356800Y0099400D01*
X0346800Y0099400D02*
X0346800Y0094200D01*
X0336800Y0094200D02*
X0336800Y0099400D01*
X0326800Y0099400D02*
X0326800Y0094200D01*
X0316800Y0094200D02*
X0316800Y0099400D01*
X0306800Y0099400D02*
X0306800Y0094200D01*
X0296800Y0094200D02*
X0296800Y0099400D01*
X0286800Y0099400D02*
X0286800Y0094200D01*
X0276800Y0094200D02*
X0276800Y0099400D01*
X0266800Y0099400D02*
X0266800Y0094200D01*
X0256800Y0094200D02*
X0256800Y0099400D01*
X0181800Y0082000D02*
X0181800Y0076800D01*
X0171800Y0076800D02*
X0171800Y0082000D01*
X0161800Y0082000D02*
X0161800Y0076800D01*
X0151800Y0076800D02*
X0151800Y0082000D01*
X0136800Y0082000D02*
X0136800Y0076800D01*
X0126800Y0076800D02*
X0126800Y0082000D01*
X0116800Y0082000D02*
X0116800Y0076800D01*
X0106800Y0076800D02*
X0106800Y0082000D01*
X0086800Y0082000D02*
X0086800Y0076800D01*
X0076800Y0076800D02*
X0076800Y0082000D01*
X0066800Y0082000D02*
X0066800Y0076800D01*
X0056800Y0076800D02*
X0056800Y0082000D01*
X0066800Y0104200D02*
X0066800Y0109400D01*
X0076800Y0109400D02*
X0076800Y0104200D01*
X0086800Y0104200D02*
X0086800Y0109400D01*
X0096800Y0109400D02*
X0096800Y0104200D01*
X0096800Y0134200D02*
X0096800Y0139400D01*
X0086800Y0139400D02*
X0086800Y0134200D01*
X0076800Y0134200D02*
X0076800Y0139400D01*
X0066800Y0139400D02*
X0066800Y0134200D01*
X0066800Y0046800D02*
X0066800Y0041600D01*
X0056800Y0041600D02*
X0056800Y0046800D01*
X0076800Y0046800D02*
X0076800Y0041600D01*
X0086800Y0041600D02*
X0086800Y0046800D01*
X0106800Y0046800D02*
X0106800Y0041600D01*
X0116800Y0041600D02*
X0116800Y0046800D01*
X0126800Y0046800D02*
X0126800Y0041600D01*
X0136800Y0041600D02*
X0136800Y0046800D01*
X0151800Y0046800D02*
X0151800Y0041600D01*
X0161800Y0041600D02*
X0161800Y0046800D01*
X0171800Y0046800D02*
X0171800Y0041600D01*
X0181800Y0041600D02*
X0181800Y0046800D01*
D16*
X0251800Y0034800D02*
X0251800Y0028800D01*
X0261800Y0028800D02*
X0261800Y0034800D01*
X0271800Y0034800D02*
X0271800Y0028800D01*
X0281800Y0028800D02*
X0281800Y0034800D01*
X0278800Y0051800D02*
X0284800Y0051800D01*
X0284800Y0061800D02*
X0278800Y0061800D01*
X0278800Y0071800D02*
X0284800Y0071800D01*
X0368800Y0056800D02*
X0374800Y0056800D01*
X0388800Y0056800D02*
X0394800Y0056800D01*
X0394800Y0046800D02*
X0388800Y0046800D01*
X0374800Y0046800D02*
X0368800Y0046800D01*
X0368800Y0036800D02*
X0374800Y0036800D01*
X0388800Y0036800D02*
X0394800Y0036800D01*
X0369800Y0141800D02*
X0363800Y0141800D01*
X0349800Y0141800D02*
X0343800Y0141800D01*
X0343800Y0151800D02*
X0349800Y0151800D01*
X0363800Y0151800D02*
X0369800Y0151800D01*
X0369800Y0161800D02*
X0363800Y0161800D01*
X0349800Y0161800D02*
X0343800Y0161800D01*
D17*
X0351300Y0061800D03*
X0332300Y0061800D03*
D18*
X0306800Y0071800D03*
X0296800Y0066800D03*
X0266800Y0051800D03*
X0226800Y0051800D03*
X0181800Y0031800D03*
X0161800Y0031800D03*
X0146800Y0024300D03*
X0126800Y0024300D03*
X0096800Y0011800D03*
X0076800Y0011800D03*
X0161800Y0091800D03*
X0176800Y0101800D03*
X0161800Y0111800D03*
X0176800Y0121800D03*
X0226800Y0096800D03*
X0246800Y0096800D03*
X0296800Y0086800D03*
X0331800Y0081800D03*
X0351800Y0081800D03*
X0361800Y0076800D03*
X0366800Y0086800D03*
X0381800Y0076800D03*
X0386800Y0086800D03*
X0306800Y0031800D03*
X0286800Y0016800D03*
X0326800Y0016800D03*
X0034300Y0121800D03*
X0034300Y0141800D03*
D19*
X0084300Y0161780D03*
X0051820Y0201820D03*
X0186800Y0181800D03*
X0186800Y0161800D03*
D20*
X0171800Y0161800D03*
X0201800Y0161800D03*
X0099300Y0176800D03*
X0069300Y0179300D03*
D21*
X0216800Y0116800D03*
X0236800Y0116800D03*
X0236800Y0069300D03*
X0216800Y0069300D03*
D22*
X0216800Y0116800D01*
X0236800Y0116800D02*
X0236800Y0069300D01*
X0226800Y0051800D02*
X0226800Y0031800D01*
X0251800Y0031800D01*
X0261800Y0031800D02*
X0261800Y0041800D01*
X0291800Y0041800D01*
X0296800Y0036800D01*
X0306800Y0031800D01*
X0321800Y0036800D02*
X0356800Y0036800D01*
X0361800Y0041800D01*
X0361800Y0046800D01*
X0371800Y0046800D01*
X0391800Y0046800D02*
X0401800Y0046800D01*
X0401800Y0024300D01*
X0326800Y0016800D01*
X0321800Y0036800D02*
X0316800Y0051800D01*
X0306800Y0051800D01*
X0306800Y0071800D01*
X0281800Y0061800D02*
X0266800Y0061800D01*
X0266800Y0051800D01*
X0271800Y0031800D02*
X0271800Y0016800D01*
X0286800Y0016800D01*
D23*
X0216800Y0016800D03*
X0199300Y0016800D03*
D24*
X0016600Y0017842D02*
X0016600Y0056800D01*
X0196800Y0056800D01*
X0196800Y0131800D01*
X0226800Y0131800D01*
X0226800Y0216961D01*
X0263124Y0216961D01*
X0261242Y0216181D01*
X0258482Y0213421D01*
X0256988Y0209815D01*
X0256988Y0205911D01*
X0258482Y0202305D01*
X0261242Y0199545D01*
X0264848Y0198051D01*
X0268752Y0198051D01*
X0272358Y0199545D01*
X0275118Y0202305D01*
X0276612Y0205911D01*
X0276612Y0209815D01*
X0275118Y0213421D01*
X0272358Y0216181D01*
X0270476Y0216961D01*
X0395718Y0216961D01*
X0395061Y0216303D01*
X0393850Y0213381D01*
X0393850Y0210219D01*
X0395061Y0207297D01*
X0397297Y0205061D01*
X0400219Y0203850D01*
X0403381Y0203850D01*
X0405701Y0204811D01*
X0405700Y0204811D01*
X0405701Y0204811D02*
X0405701Y0049687D01*
X0404519Y0050869D01*
X0402755Y0051600D01*
X0397061Y0051600D01*
X0396578Y0051800D01*
X0397802Y0052307D01*
X0399293Y0053798D01*
X0400100Y0055746D01*
X0400100Y0057854D01*
X0399293Y0059802D01*
X0397802Y0061293D01*
X0395854Y0062100D01*
X0394900Y0062100D01*
X0394900Y0087417D01*
X0394428Y0088556D01*
X0393556Y0089428D01*
X0392417Y0089900D01*
X0391620Y0089900D01*
X0390525Y0090995D01*
X0390954Y0091424D01*
X0391700Y0093225D01*
X0391700Y0100375D01*
X0390954Y0102176D01*
X0389576Y0103554D01*
X0387775Y0104300D01*
X0385825Y0104300D01*
X0384024Y0103554D01*
X0382646Y0102176D01*
X0381900Y0100375D01*
X0381900Y0093225D01*
X0382646Y0091424D01*
X0383075Y0090995D01*
X0381200Y0089120D01*
X0381200Y0084480D01*
X0383280Y0082400D01*
X0379480Y0082400D01*
X0376980Y0079900D01*
X0371183Y0079900D01*
X0370044Y0079428D01*
X0369172Y0078556D01*
X0368700Y0077417D01*
X0368700Y0062100D01*
X0367746Y0062100D01*
X0365798Y0061293D01*
X0364307Y0059802D01*
X0363500Y0057854D01*
X0363500Y0055746D01*
X0364307Y0053798D01*
X0365798Y0052307D01*
X0367022Y0051800D01*
X0366539Y0051600D01*
X0360845Y0051600D01*
X0359081Y0050869D01*
X0357731Y0049519D01*
X0357000Y0047755D01*
X0357000Y0043788D01*
X0354812Y0041600D01*
X0325260Y0041600D01*
X0321600Y0052579D01*
X0321600Y0052755D01*
X0321300Y0053479D01*
X0321052Y0054224D01*
X0320937Y0054357D01*
X0320869Y0054519D01*
X0320315Y0055074D01*
X0319801Y0055666D01*
X0319643Y0055745D01*
X0319519Y0055869D01*
X0318794Y0056169D01*
X0318093Y0056520D01*
X0317917Y0056533D01*
X0317755Y0056600D01*
X0316970Y0056600D01*
X0316188Y0056656D01*
X0316021Y0056600D01*
X0311600Y0056600D01*
X0311600Y0068680D01*
X0312400Y0069480D01*
X0312400Y0074120D01*
X0309120Y0077400D01*
X0304480Y0077400D01*
X0301200Y0074120D01*
X0301200Y0070320D01*
X0299120Y0072400D01*
X0294480Y0072400D01*
X0291200Y0069120D01*
X0291200Y0064480D01*
X0294480Y0061200D01*
X0299120Y0061200D01*
X0302000Y0064080D01*
X0302000Y0050845D01*
X0302731Y0049081D01*
X0304081Y0047731D01*
X0305845Y0047000D01*
X0313340Y0047000D01*
X0317000Y0036021D01*
X0317000Y0035845D01*
X0317300Y0035121D01*
X0317548Y0034376D01*
X0317663Y0034243D01*
X0317731Y0034081D01*
X0318285Y0033526D01*
X0318799Y0032934D01*
X0318957Y0032855D01*
X0319081Y0032731D01*
X0319806Y0032431D01*
X0320507Y0032080D01*
X0320683Y0032067D01*
X0320845Y0032000D01*
X0321630Y0032000D01*
X0322412Y0031944D01*
X0322579Y0032000D01*
X0357755Y0032000D01*
X0359519Y0032731D01*
X0363500Y0036712D01*
X0363500Y0035746D01*
X0364307Y0033798D01*
X0365798Y0032307D01*
X0367746Y0031500D01*
X0375854Y0031500D01*
X0377802Y0032307D01*
X0379293Y0033798D01*
X0380100Y0035746D01*
X0380100Y0037854D01*
X0379293Y0039802D01*
X0377802Y0041293D01*
X0376578Y0041800D01*
X0377802Y0042307D01*
X0379293Y0043798D01*
X0380100Y0045746D01*
X0380100Y0047854D01*
X0379293Y0049802D01*
X0377802Y0051293D01*
X0376578Y0051800D01*
X0377802Y0052307D01*
X0379293Y0053798D01*
X0380100Y0055746D01*
X0380100Y0057854D01*
X0379293Y0059802D01*
X0377802Y0061293D01*
X0375854Y0062100D01*
X0374900Y0062100D01*
X0374900Y0073700D01*
X0376980Y0073700D01*
X0379480Y0071200D01*
X0384120Y0071200D01*
X0387400Y0074480D01*
X0387400Y0079120D01*
X0385320Y0081200D01*
X0388700Y0081200D01*
X0388700Y0062100D01*
X0387746Y0062100D01*
X0385798Y0061293D01*
X0384307Y0059802D01*
X0383500Y0057854D01*
X0383500Y0055746D01*
X0384307Y0053798D01*
X0385798Y0052307D01*
X0387022Y0051800D01*
X0385798Y0051293D01*
X0384307Y0049802D01*
X0383500Y0047854D01*
X0383500Y0045746D01*
X0384307Y0043798D01*
X0385798Y0042307D01*
X0387022Y0041800D01*
X0385798Y0041293D01*
X0384307Y0039802D01*
X0383500Y0037854D01*
X0383500Y0035746D01*
X0384307Y0033798D01*
X0385798Y0032307D01*
X0387746Y0031500D01*
X0395854Y0031500D01*
X0397000Y0031975D01*
X0397000Y0028644D01*
X0356526Y0024597D01*
X0356700Y0024770D01*
X0356700Y0028830D01*
X0353830Y0031700D01*
X0349770Y0031700D01*
X0346900Y0028830D01*
X0346900Y0024770D01*
X0347933Y0023737D01*
X0334304Y0022374D01*
X0336700Y0024770D01*
X0336700Y0028830D01*
X0333830Y0031700D01*
X0329770Y0031700D01*
X0326900Y0028830D01*
X0326900Y0024770D01*
X0329751Y0021919D01*
X0329614Y0021905D01*
X0329120Y0022400D01*
X0324480Y0022400D01*
X0321200Y0019120D01*
X0321200Y0014480D01*
X0324480Y0011200D01*
X0329120Y0011200D01*
X0330240Y0012320D01*
X0398845Y0019181D01*
X0397297Y0018539D01*
X0395061Y0016303D01*
X0393850Y0013381D01*
X0393850Y0010219D01*
X0395061Y0007297D01*
X0395758Y0006600D01*
X0099520Y0006600D01*
X0102400Y0009480D01*
X0102400Y0014120D01*
X0099120Y0017400D01*
X0094480Y0017400D01*
X0091200Y0014120D01*
X0091200Y0009480D01*
X0094080Y0006600D01*
X0079520Y0006600D01*
X0082400Y0009480D01*
X0082400Y0014120D01*
X0079120Y0017400D01*
X0074480Y0017400D01*
X0071200Y0014120D01*
X0071200Y0009480D01*
X0074080Y0006600D01*
X0027842Y0006600D01*
X0028539Y0007297D01*
X0029750Y0010219D01*
X0029750Y0013381D01*
X0028539Y0016303D01*
X0026303Y0018539D01*
X0023381Y0019750D01*
X0020219Y0019750D01*
X0017297Y0018539D01*
X0016600Y0017842D01*
X0016600Y0019384D02*
X0019335Y0019384D01*
X0016600Y0020982D02*
X0122198Y0020982D01*
X0121200Y0021980D02*
X0124480Y0018700D01*
X0129120Y0018700D01*
X0132400Y0021980D01*
X0132400Y0026620D01*
X0129120Y0029900D01*
X0124480Y0029900D01*
X0121200Y0026620D01*
X0121200Y0021980D01*
X0121200Y0022581D02*
X0016600Y0022581D01*
X0016600Y0024179D02*
X0121200Y0024179D01*
X0121200Y0025778D02*
X0016600Y0025778D01*
X0016600Y0027376D02*
X0121957Y0027376D01*
X0123555Y0028975D02*
X0016600Y0028975D01*
X0016600Y0030573D02*
X0156200Y0030573D01*
X0156200Y0029480D02*
X0159480Y0026200D01*
X0164120Y0026200D01*
X0167400Y0029480D01*
X0167400Y0034120D01*
X0164221Y0037299D01*
X0164576Y0037446D01*
X0165954Y0038824D01*
X0166700Y0040625D01*
X0166700Y0047775D01*
X0165954Y0049576D01*
X0164576Y0050954D01*
X0162775Y0051700D01*
X0160825Y0051700D01*
X0159024Y0050954D01*
X0157646Y0049576D01*
X0156900Y0047775D01*
X0156900Y0040625D01*
X0157646Y0038824D01*
X0159024Y0037446D01*
X0159379Y0037299D01*
X0156200Y0034120D01*
X0156200Y0029480D01*
X0156706Y0028975D02*
X0150045Y0028975D01*
X0149120Y0029900D02*
X0144480Y0029900D01*
X0141200Y0026620D01*
X0141200Y0021980D01*
X0144480Y0018700D01*
X0149120Y0018700D01*
X0152400Y0021980D01*
X0152400Y0026620D01*
X0149120Y0029900D01*
X0151643Y0027376D02*
X0158304Y0027376D01*
X0152400Y0025778D02*
X0247327Y0025778D01*
X0247307Y0025798D02*
X0248798Y0024307D01*
X0250746Y0023500D01*
X0252854Y0023500D01*
X0254802Y0024307D01*
X0256293Y0025798D01*
X0256800Y0027022D01*
X0257307Y0025798D01*
X0258798Y0024307D01*
X0260746Y0023500D01*
X0262854Y0023500D01*
X0264802Y0024307D01*
X0266293Y0025798D01*
X0266800Y0027022D01*
X0267000Y0026539D01*
X0267000Y0015845D01*
X0267731Y0014081D01*
X0269081Y0012731D01*
X0270845Y0012000D01*
X0283680Y0012000D01*
X0284480Y0011200D01*
X0289120Y0011200D01*
X0292400Y0014480D01*
X0292400Y0019120D01*
X0289120Y0022400D01*
X0284480Y0022400D01*
X0283680Y0021600D01*
X0276600Y0021600D01*
X0276600Y0026539D01*
X0277100Y0027746D01*
X0277100Y0027791D01*
X0277118Y0027676D01*
X0277352Y0026957D01*
X0277695Y0026284D01*
X0278139Y0025673D01*
X0278673Y0025139D01*
X0279284Y0024695D01*
X0279957Y0024352D01*
X0280676Y0024118D01*
X0281422Y0024000D01*
X0281600Y0024000D01*
X0281600Y0031600D01*
X0282000Y0031600D01*
X0282000Y0032000D01*
X0286600Y0032000D01*
X0286600Y0035178D01*
X0286482Y0035924D01*
X0286248Y0036643D01*
X0286066Y0037000D01*
X0289812Y0037000D01*
X0293285Y0033526D01*
X0293799Y0032934D01*
X0293957Y0032855D01*
X0294081Y0032731D01*
X0294806Y0032431D01*
X0301694Y0028986D01*
X0304480Y0026200D01*
X0309120Y0026200D01*
X0312400Y0029480D01*
X0312400Y0034120D01*
X0309120Y0037400D01*
X0306333Y0037400D01*
X0299643Y0040745D01*
X0294519Y0045869D01*
X0292755Y0046600D01*
X0286096Y0046600D01*
X0287802Y0047307D01*
X0289293Y0048798D01*
X0290100Y0050746D01*
X0290100Y0052854D01*
X0289293Y0054802D01*
X0287802Y0056293D01*
X0286578Y0056800D01*
X0287802Y0057307D01*
X0289293Y0058798D01*
X0290100Y0060746D01*
X0290100Y0062854D01*
X0289293Y0064802D01*
X0287802Y0066293D01*
X0286578Y0066800D01*
X0287802Y0067307D01*
X0289293Y0068798D01*
X0290100Y0070746D01*
X0290100Y0072854D01*
X0289293Y0074802D01*
X0287802Y0076293D01*
X0285854Y0077100D01*
X0277746Y0077100D01*
X0275798Y0076293D01*
X0274307Y0074802D01*
X0273500Y0072854D01*
X0273500Y0070746D01*
X0274307Y0068798D01*
X0275798Y0067307D01*
X0277022Y0066800D01*
X0276539Y0066600D01*
X0265845Y0066600D01*
X0264081Y0065869D01*
X0262731Y0064519D01*
X0262000Y0062755D01*
X0262000Y0054920D01*
X0261200Y0054120D01*
X0261200Y0049480D01*
X0264080Y0046600D01*
X0260845Y0046600D01*
X0259081Y0045869D01*
X0257731Y0044519D01*
X0257000Y0042755D01*
X0257000Y0037061D01*
X0256800Y0036578D01*
X0256293Y0037802D01*
X0254802Y0039293D01*
X0252854Y0040100D01*
X0250746Y0040100D01*
X0248798Y0039293D01*
X0247307Y0037802D01*
X0246809Y0036600D01*
X0231600Y0036600D01*
X0231600Y0048680D01*
X0232400Y0049480D01*
X0232400Y0054120D01*
X0229120Y0057400D01*
X0224480Y0057400D01*
X0221200Y0054120D01*
X0221200Y0049480D01*
X0222000Y0048680D01*
X0222000Y0030845D01*
X0222731Y0029081D01*
X0224081Y0027731D01*
X0225845Y0027000D01*
X0246809Y0027000D01*
X0247307Y0025798D01*
X0249106Y0024179D02*
X0152400Y0024179D01*
X0152400Y0022581D02*
X0267000Y0022581D01*
X0267000Y0024179D02*
X0264494Y0024179D01*
X0266273Y0025778D02*
X0267000Y0025778D01*
X0267000Y0020982D02*
X0220226Y0020982D01*
X0219931Y0021278D02*
X0213669Y0021278D01*
X0212322Y0019931D01*
X0212322Y0019900D01*
X0203778Y0019900D01*
X0203778Y0019931D01*
X0202431Y0021278D01*
X0196169Y0021278D01*
X0194822Y0019931D01*
X0194822Y0013669D01*
X0196169Y0012322D01*
X0202431Y0012322D01*
X0203778Y0013669D01*
X0203778Y0013700D01*
X0212322Y0013700D01*
X0212322Y0013669D01*
X0213669Y0012322D01*
X0219931Y0012322D01*
X0221278Y0013669D01*
X0221278Y0019931D01*
X0219931Y0021278D01*
X0221278Y0019384D02*
X0267000Y0019384D01*
X0267000Y0017785D02*
X0221278Y0017785D01*
X0221278Y0016187D02*
X0267000Y0016187D01*
X0267521Y0014588D02*
X0221278Y0014588D01*
X0220598Y0012990D02*
X0268822Y0012990D01*
X0276600Y0022581D02*
X0329090Y0022581D01*
X0327491Y0024179D02*
X0283112Y0024179D01*
X0282924Y0024118D02*
X0283643Y0024352D01*
X0284316Y0024695D01*
X0284927Y0025139D01*
X0285461Y0025673D01*
X0285905Y0026284D01*
X0286248Y0026957D01*
X0286482Y0027676D01*
X0286600Y0028422D01*
X0286600Y0031600D01*
X0282000Y0031600D01*
X0282000Y0024000D01*
X0282178Y0024000D01*
X0282924Y0024118D01*
X0282000Y0024179D02*
X0281600Y0024179D01*
X0280488Y0024179D02*
X0276600Y0024179D01*
X0276600Y0025778D02*
X0278063Y0025778D01*
X0277216Y0027376D02*
X0276947Y0027376D01*
X0281600Y0027376D02*
X0282000Y0027376D01*
X0282000Y0025778D02*
X0281600Y0025778D01*
X0285537Y0025778D02*
X0326900Y0025778D01*
X0326900Y0027376D02*
X0310296Y0027376D01*
X0311894Y0028975D02*
X0327045Y0028975D01*
X0328644Y0030573D02*
X0312400Y0030573D01*
X0312400Y0032172D02*
X0320323Y0032172D01*
X0318042Y0033770D02*
X0312400Y0033770D01*
X0311151Y0035369D02*
X0317197Y0035369D01*
X0316685Y0036967D02*
X0309552Y0036967D01*
X0304002Y0038566D02*
X0316152Y0038566D01*
X0315619Y0040164D02*
X0300805Y0040164D01*
X0298625Y0041763D02*
X0315086Y0041763D01*
X0314553Y0043361D02*
X0297027Y0043361D01*
X0295428Y0044960D02*
X0314020Y0044960D01*
X0313488Y0046558D02*
X0292855Y0046558D01*
X0288652Y0048157D02*
X0303655Y0048157D01*
X0302451Y0049755D02*
X0289690Y0049755D01*
X0290100Y0051354D02*
X0302000Y0051354D01*
X0302000Y0052952D02*
X0290059Y0052952D01*
X0289397Y0054551D02*
X0302000Y0054551D01*
X0302000Y0056149D02*
X0287946Y0056149D01*
X0288243Y0057748D02*
X0302000Y0057748D01*
X0302000Y0059346D02*
X0289520Y0059346D01*
X0290100Y0060945D02*
X0302000Y0060945D01*
X0302000Y0062543D02*
X0300463Y0062543D01*
X0293137Y0062543D02*
X0290100Y0062543D01*
X0289567Y0064142D02*
X0291538Y0064142D01*
X0291200Y0065740D02*
X0288355Y0065740D01*
X0287834Y0067339D02*
X0291200Y0067339D01*
X0291200Y0068937D02*
X0289351Y0068937D01*
X0290013Y0070536D02*
X0292616Y0070536D01*
X0294215Y0072134D02*
X0290100Y0072134D01*
X0289736Y0073733D02*
X0301200Y0073733D01*
X0301200Y0072134D02*
X0299385Y0072134D01*
X0300984Y0070536D02*
X0301200Y0070536D01*
X0302412Y0075332D02*
X0288764Y0075332D01*
X0286265Y0076930D02*
X0304010Y0076930D01*
X0309590Y0076930D02*
X0312200Y0076930D01*
X0312200Y0076800D02*
X0316800Y0076800D01*
X0316800Y0076800D01*
X0316800Y0081400D01*
X0318705Y0081400D01*
X0321400Y0078705D01*
X0321400Y0076800D01*
X0316800Y0076800D01*
X0316800Y0076800D01*
X0316800Y0076800D01*
X0316800Y0081400D01*
X0314895Y0081400D01*
X0312200Y0078705D01*
X0312200Y0076800D01*
X0312200Y0074895D01*
X0314895Y0072200D01*
X0316800Y0072200D01*
X0318705Y0072200D01*
X0321400Y0074895D01*
X0321400Y0076800D01*
X0316800Y0076800D01*
X0316800Y0072200D01*
X0316800Y0076800D01*
X0316800Y0076800D01*
X0312200Y0076800D01*
X0312200Y0075332D02*
X0311188Y0075332D01*
X0312400Y0073733D02*
X0313362Y0073733D01*
X0312400Y0072134D02*
X0358546Y0072134D01*
X0359480Y0071200D02*
X0364120Y0071200D01*
X0367400Y0074480D01*
X0367400Y0079120D01*
X0365320Y0081200D01*
X0369120Y0081200D01*
X0372400Y0084480D01*
X0372400Y0089120D01*
X0370525Y0090995D01*
X0370954Y0091424D01*
X0371700Y0093225D01*
X0371700Y0100375D01*
X0370954Y0102176D01*
X0369576Y0103554D01*
X0367775Y0104300D01*
X0365825Y0104300D01*
X0364024Y0103554D01*
X0362646Y0102176D01*
X0361900Y0100375D01*
X0361900Y0093225D01*
X0362646Y0091424D01*
X0363075Y0090995D01*
X0361200Y0089120D01*
X0361200Y0084480D01*
X0363280Y0082400D01*
X0359480Y0082400D01*
X0357400Y0080320D01*
X0357400Y0084120D01*
X0354120Y0087400D01*
X0349480Y0087400D01*
X0346200Y0084120D01*
X0346200Y0079480D01*
X0349480Y0076200D01*
X0354120Y0076200D01*
X0356200Y0078280D01*
X0356200Y0074480D01*
X0359480Y0071200D01*
X0356947Y0073733D02*
X0320238Y0073733D01*
X0321400Y0075332D02*
X0356200Y0075332D01*
X0356200Y0076930D02*
X0354850Y0076930D01*
X0348750Y0076930D02*
X0334850Y0076930D01*
X0334120Y0076200D02*
X0337400Y0079480D01*
X0337400Y0084120D01*
X0334120Y0087400D01*
X0329480Y0087400D01*
X0326200Y0084120D01*
X0326200Y0079480D01*
X0329480Y0076200D01*
X0334120Y0076200D01*
X0336448Y0078529D02*
X0347152Y0078529D01*
X0346200Y0080127D02*
X0337400Y0080127D01*
X0337400Y0081726D02*
X0346200Y0081726D01*
X0346200Y0083324D02*
X0337400Y0083324D01*
X0336597Y0084923D02*
X0347003Y0084923D01*
X0348602Y0086521D02*
X0334998Y0086521D01*
X0335825Y0089300D02*
X0334024Y0090046D01*
X0332646Y0091424D01*
X0331900Y0093225D01*
X0331900Y0100375D01*
X0332646Y0102176D01*
X0334024Y0103554D01*
X0335825Y0104300D01*
X0337775Y0104300D01*
X0339576Y0103554D01*
X0340954Y0102176D01*
X0341700Y0100375D01*
X0341700Y0093225D01*
X0340954Y0091424D01*
X0339576Y0090046D01*
X0337775Y0089300D01*
X0335825Y0089300D01*
X0334816Y0089718D02*
X0328784Y0089718D01*
X0329576Y0090046D02*
X0330954Y0091424D01*
X0331700Y0093225D01*
X0331700Y0100375D01*
X0330954Y0102176D01*
X0329576Y0103554D01*
X0327775Y0104300D01*
X0325825Y0104300D01*
X0324024Y0103554D01*
X0322646Y0102176D01*
X0321900Y0100375D01*
X0321900Y0093225D01*
X0322646Y0091424D01*
X0324024Y0090046D01*
X0325825Y0089300D01*
X0327775Y0089300D01*
X0329576Y0090046D01*
X0330846Y0091317D02*
X0332754Y0091317D01*
X0332028Y0092915D02*
X0331572Y0092915D01*
X0331700Y0094514D02*
X0331900Y0094514D01*
X0331900Y0096112D02*
X0331700Y0096112D01*
X0331700Y0097711D02*
X0331900Y0097711D01*
X0331900Y0099309D02*
X0331700Y0099309D01*
X0331479Y0100908D02*
X0332121Y0100908D01*
X0332977Y0102506D02*
X0330623Y0102506D01*
X0328246Y0104105D02*
X0335354Y0104105D01*
X0338246Y0104105D02*
X0345354Y0104105D01*
X0345825Y0104300D02*
X0344024Y0103554D01*
X0342646Y0102176D01*
X0341900Y0100375D01*
X0341900Y0093225D01*
X0342646Y0091424D01*
X0344024Y0090046D01*
X0345825Y0089300D01*
X0347775Y0089300D01*
X0349576Y0090046D01*
X0350954Y0091424D01*
X0351700Y0093225D01*
X0351700Y0100375D01*
X0350954Y0102176D01*
X0349576Y0103554D01*
X0347775Y0104300D01*
X0345825Y0104300D01*
X0348246Y0104105D02*
X0355354Y0104105D01*
X0355825Y0104300D02*
X0354024Y0103554D01*
X0352646Y0102176D01*
X0351900Y0100375D01*
X0351900Y0093225D01*
X0352646Y0091424D01*
X0354024Y0090046D01*
X0355825Y0089300D01*
X0357775Y0089300D01*
X0359576Y0090046D01*
X0360954Y0091424D01*
X0361700Y0093225D01*
X0361700Y0100375D01*
X0360954Y0102176D01*
X0359576Y0103554D01*
X0357775Y0104300D01*
X0355825Y0104300D01*
X0358246Y0104105D02*
X0365354Y0104105D01*
X0362977Y0102506D02*
X0360623Y0102506D01*
X0361479Y0100908D02*
X0362121Y0100908D01*
X0361900Y0099309D02*
X0361700Y0099309D01*
X0361700Y0097711D02*
X0361900Y0097711D01*
X0361900Y0096112D02*
X0361700Y0096112D01*
X0361700Y0094514D02*
X0361900Y0094514D01*
X0362028Y0092915D02*
X0361572Y0092915D01*
X0360846Y0091317D02*
X0362754Y0091317D01*
X0361799Y0089718D02*
X0358784Y0089718D01*
X0361200Y0088120D02*
X0321900Y0088120D01*
X0321900Y0088912D02*
X0319817Y0090995D01*
X0320156Y0091334D01*
X0320563Y0091894D01*
X0320878Y0092511D01*
X0321092Y0093170D01*
X0321200Y0093854D01*
X0321200Y0096800D01*
X0321200Y0099746D01*
X0321092Y0100430D01*
X0320878Y0101089D01*
X0320563Y0101706D01*
X0320156Y0102266D01*
X0319666Y0102756D01*
X0319106Y0103163D01*
X0318489Y0103478D01*
X0317830Y0103692D01*
X0317146Y0103800D01*
X0316800Y0103800D01*
X0316800Y0096800D01*
X0321200Y0096800D01*
X0316800Y0096800D01*
X0316800Y0096800D01*
X0316800Y0096800D01*
X0316800Y0096800D01*
X0312400Y0096800D01*
X0312400Y0099746D01*
X0312508Y0100430D01*
X0312722Y0101089D01*
X0313037Y0101706D01*
X0313444Y0102266D01*
X0313934Y0102756D01*
X0314494Y0103163D01*
X0315111Y0103478D01*
X0315770Y0103692D01*
X0316454Y0103800D01*
X0316800Y0103800D01*
X0316800Y0096800D01*
X0312400Y0096800D01*
X0312400Y0093854D01*
X0312508Y0093170D01*
X0312722Y0092511D01*
X0313037Y0091894D01*
X0313444Y0091334D01*
X0313782Y0090995D01*
X0311700Y0088912D01*
X0311700Y0084688D01*
X0314688Y0081700D01*
X0318912Y0081700D01*
X0321900Y0084688D01*
X0321900Y0088912D01*
X0321094Y0089718D02*
X0324816Y0089718D01*
X0322754Y0091317D02*
X0320139Y0091317D01*
X0321009Y0092915D02*
X0322028Y0092915D01*
X0321900Y0094514D02*
X0321200Y0094514D01*
X0321200Y0096112D02*
X0321900Y0096112D01*
X0321900Y0097711D02*
X0321200Y0097711D01*
X0321200Y0099309D02*
X0321900Y0099309D01*
X0322121Y0100908D02*
X0320937Y0100908D01*
X0319916Y0102506D02*
X0322977Y0102506D01*
X0325354Y0104105D02*
X0308246Y0104105D01*
X0307775Y0104300D02*
X0305825Y0104300D01*
X0304024Y0103554D01*
X0302646Y0102176D01*
X0301900Y0100375D01*
X0301900Y0093225D01*
X0302646Y0091424D01*
X0304024Y0090046D01*
X0305825Y0089300D01*
X0307775Y0089300D01*
X0309576Y0090046D01*
X0310954Y0091424D01*
X0311700Y0093225D01*
X0311700Y0100375D01*
X0310954Y0102176D01*
X0309576Y0103554D01*
X0307775Y0104300D01*
X0305354Y0104105D02*
X0298246Y0104105D01*
X0297775Y0104300D02*
X0295825Y0104300D01*
X0294024Y0103554D01*
X0292646Y0102176D01*
X0291900Y0100375D01*
X0291900Y0093225D01*
X0292646Y0091424D01*
X0293075Y0090995D01*
X0291200Y0089120D01*
X0291200Y0084480D01*
X0294480Y0081200D01*
X0299120Y0081200D01*
X0302400Y0084480D01*
X0302400Y0089120D01*
X0300525Y0090995D01*
X0300954Y0091424D01*
X0301700Y0093225D01*
X0301700Y0100375D01*
X0300954Y0102176D01*
X0299576Y0103554D01*
X0297775Y0104300D01*
X0295354Y0104105D02*
X0288246Y0104105D01*
X0287775Y0104300D02*
X0285825Y0104300D01*
X0284024Y0103554D01*
X0282646Y0102176D01*
X0281900Y0100375D01*
X0281900Y0093225D01*
X0282646Y0091424D01*
X0284024Y0090046D01*
X0285825Y0089300D01*
X0287775Y0089300D01*
X0289576Y0090046D01*
X0290954Y0091424D01*
X0291700Y0093225D01*
X0291700Y0100375D01*
X0290954Y0102176D01*
X0289576Y0103554D01*
X0287775Y0104300D01*
X0285354Y0104105D02*
X0278246Y0104105D01*
X0277775Y0104300D02*
X0275825Y0104300D01*
X0274024Y0103554D01*
X0272646Y0102176D01*
X0271900Y0100375D01*
X0271900Y0093225D01*
X0272646Y0091424D01*
X0274024Y0090046D01*
X0275825Y0089300D01*
X0277775Y0089300D01*
X0279576Y0090046D01*
X0280954Y0091424D01*
X0281700Y0093225D01*
X0281700Y0100375D01*
X0280954Y0102176D01*
X0279576Y0103554D01*
X0277775Y0104300D01*
X0275354Y0104105D02*
X0268246Y0104105D01*
X0267775Y0104300D02*
X0269576Y0103554D01*
X0270954Y0102176D01*
X0271700Y0100375D01*
X0271700Y0093225D01*
X0270954Y0091424D01*
X0269576Y0090046D01*
X0267775Y0089300D01*
X0265825Y0089300D01*
X0264024Y0090046D01*
X0262646Y0091424D01*
X0261900Y0093225D01*
X0261900Y0100375D01*
X0262646Y0102176D01*
X0264024Y0103554D01*
X0265825Y0104300D01*
X0267775Y0104300D01*
X0265354Y0104105D02*
X0258246Y0104105D01*
X0257775Y0104300D02*
X0255825Y0104300D01*
X0254024Y0103554D01*
X0252646Y0102176D01*
X0251900Y0100375D01*
X0251900Y0099620D01*
X0249120Y0102400D01*
X0244480Y0102400D01*
X0241600Y0099520D01*
X0241600Y0110670D01*
X0242939Y0112009D01*
X0242939Y0121591D01*
X0241591Y0122939D01*
X0232009Y0122939D01*
X0230661Y0121591D01*
X0230661Y0112009D01*
X0232000Y0110670D01*
X0232000Y0075430D01*
X0230661Y0074091D01*
X0230661Y0064509D01*
X0232009Y0063161D01*
X0241591Y0063161D01*
X0242939Y0064509D01*
X0242939Y0074091D01*
X0241600Y0075430D01*
X0241600Y0094080D01*
X0244480Y0091200D01*
X0249120Y0091200D01*
X0251900Y0093980D01*
X0251900Y0093225D01*
X0252646Y0091424D01*
X0254024Y0090046D01*
X0255825Y0089300D01*
X0257775Y0089300D01*
X0259576Y0090046D01*
X0260954Y0091424D01*
X0261700Y0093225D01*
X0261700Y0100375D01*
X0260954Y0102176D01*
X0259576Y0103554D01*
X0257775Y0104300D01*
X0255354Y0104105D02*
X0241600Y0104105D01*
X0241600Y0105703D02*
X0405701Y0105703D01*
X0405701Y0104105D02*
X0388246Y0104105D01*
X0390623Y0102506D02*
X0405701Y0102506D01*
X0405701Y0100908D02*
X0391479Y0100908D01*
X0391700Y0099309D02*
X0405701Y0099309D01*
X0405701Y0097711D02*
X0391700Y0097711D01*
X0391700Y0096112D02*
X0405701Y0096112D01*
X0405701Y0094514D02*
X0391700Y0094514D01*
X0391572Y0092915D02*
X0405701Y0092915D01*
X0405701Y0091317D02*
X0390846Y0091317D01*
X0392856Y0089718D02*
X0405701Y0089718D01*
X0405701Y0088120D02*
X0394609Y0088120D01*
X0394900Y0086521D02*
X0405701Y0086521D01*
X0405701Y0084923D02*
X0394900Y0084923D01*
X0394900Y0083324D02*
X0405701Y0083324D01*
X0405701Y0081726D02*
X0394900Y0081726D01*
X0394900Y0080127D02*
X0405701Y0080127D01*
X0405701Y0078529D02*
X0394900Y0078529D01*
X0394900Y0076930D02*
X0405701Y0076930D01*
X0405701Y0075332D02*
X0394900Y0075332D01*
X0394900Y0073733D02*
X0405701Y0073733D01*
X0405701Y0072134D02*
X0394900Y0072134D01*
X0394900Y0070536D02*
X0405701Y0070536D01*
X0405701Y0068937D02*
X0394900Y0068937D01*
X0394900Y0067339D02*
X0405701Y0067339D01*
X0405701Y0065740D02*
X0394900Y0065740D01*
X0394900Y0064142D02*
X0405701Y0064142D01*
X0405701Y0062543D02*
X0394900Y0062543D01*
X0398150Y0060945D02*
X0405701Y0060945D01*
X0405701Y0059346D02*
X0399482Y0059346D01*
X0400100Y0057748D02*
X0405701Y0057748D01*
X0405701Y0056149D02*
X0400100Y0056149D01*
X0399605Y0054551D02*
X0405701Y0054551D01*
X0405701Y0052952D02*
X0398448Y0052952D01*
X0403349Y0051354D02*
X0405701Y0051354D01*
X0405701Y0049755D02*
X0405633Y0049755D01*
X0391800Y0056800D02*
X0391800Y0086800D01*
X0386800Y0086800D01*
X0381200Y0086521D02*
X0372400Y0086521D01*
X0372400Y0084923D02*
X0381200Y0084923D01*
X0382356Y0083324D02*
X0371244Y0083324D01*
X0369645Y0081726D02*
X0378806Y0081726D01*
X0377207Y0080127D02*
X0366393Y0080127D01*
X0367400Y0078529D02*
X0369161Y0078529D01*
X0368700Y0076930D02*
X0367400Y0076930D01*
X0367400Y0075332D02*
X0368700Y0075332D01*
X0368700Y0073733D02*
X0366653Y0073733D01*
X0365054Y0072134D02*
X0368700Y0072134D01*
X0368700Y0070536D02*
X0312400Y0070536D01*
X0311857Y0068937D02*
X0368700Y0068937D01*
X0368700Y0067339D02*
X0311600Y0067339D01*
X0311600Y0065740D02*
X0329311Y0065740D01*
X0329524Y0065954D02*
X0328146Y0064576D01*
X0327400Y0062775D01*
X0327400Y0060825D01*
X0328146Y0059024D01*
X0329524Y0057646D01*
X0331325Y0056900D01*
X0333275Y0056900D01*
X0335076Y0057646D01*
X0336454Y0059024D01*
X0337200Y0060825D01*
X0337200Y0062775D01*
X0336454Y0064576D01*
X0335076Y0065954D01*
X0333275Y0066700D01*
X0331325Y0066700D01*
X0329524Y0065954D01*
X0327966Y0064142D02*
X0311600Y0064142D01*
X0311600Y0062543D02*
X0327400Y0062543D01*
X0327400Y0060945D02*
X0311600Y0060945D01*
X0311600Y0059346D02*
X0328013Y0059346D01*
X0329422Y0057748D02*
X0311600Y0057748D01*
X0318843Y0056149D02*
X0363500Y0056149D01*
X0363500Y0057748D02*
X0354178Y0057748D01*
X0354076Y0057646D02*
X0355454Y0059024D01*
X0356200Y0060825D01*
X0356200Y0062775D01*
X0355454Y0064576D01*
X0354076Y0065954D01*
X0352275Y0066700D01*
X0350325Y0066700D01*
X0348524Y0065954D01*
X0347146Y0064576D01*
X0346400Y0062775D01*
X0346400Y0060825D01*
X0347146Y0059024D01*
X0348524Y0057646D01*
X0350325Y0056900D01*
X0352275Y0056900D01*
X0354076Y0057646D01*
X0355587Y0059346D02*
X0364118Y0059346D01*
X0365450Y0060945D02*
X0356200Y0060945D01*
X0356200Y0062543D02*
X0368700Y0062543D01*
X0368700Y0064142D02*
X0355634Y0064142D01*
X0354289Y0065740D02*
X0368700Y0065740D01*
X0374900Y0065740D02*
X0388700Y0065740D01*
X0388700Y0064142D02*
X0374900Y0064142D01*
X0374900Y0062543D02*
X0388700Y0062543D01*
X0385450Y0060945D02*
X0378150Y0060945D01*
X0379482Y0059346D02*
X0384118Y0059346D01*
X0383500Y0057748D02*
X0380100Y0057748D01*
X0380100Y0056149D02*
X0383500Y0056149D01*
X0383995Y0054551D02*
X0379605Y0054551D01*
X0378448Y0052952D02*
X0385152Y0052952D01*
X0385944Y0051354D02*
X0377656Y0051354D01*
X0379313Y0049755D02*
X0384287Y0049755D01*
X0383625Y0048157D02*
X0379975Y0048157D01*
X0380100Y0046558D02*
X0383500Y0046558D01*
X0383826Y0044960D02*
X0379774Y0044960D01*
X0378857Y0043361D02*
X0384743Y0043361D01*
X0386932Y0041763D02*
X0376668Y0041763D01*
X0378931Y0040164D02*
X0384669Y0040164D01*
X0383795Y0038566D02*
X0379805Y0038566D01*
X0380100Y0036967D02*
X0383500Y0036967D01*
X0383656Y0035369D02*
X0379944Y0035369D01*
X0379266Y0033770D02*
X0384334Y0033770D01*
X0386124Y0032172D02*
X0377476Y0032172D01*
X0384323Y0027376D02*
X0356700Y0027376D01*
X0356700Y0025778D02*
X0368337Y0025778D01*
X0366124Y0032172D02*
X0358169Y0032172D01*
X0360558Y0033770D02*
X0364334Y0033770D01*
X0363656Y0035369D02*
X0362157Y0035369D01*
X0356555Y0028975D02*
X0397000Y0028975D01*
X0397000Y0030573D02*
X0354956Y0030573D01*
X0348644Y0030573D02*
X0334956Y0030573D01*
X0336555Y0028975D02*
X0347045Y0028975D01*
X0346900Y0027376D02*
X0336700Y0027376D01*
X0336700Y0025778D02*
X0346900Y0025778D01*
X0347491Y0024179D02*
X0336109Y0024179D01*
X0336367Y0022581D02*
X0334510Y0022581D01*
X0323063Y0020982D02*
X0290537Y0020982D01*
X0292136Y0019384D02*
X0321464Y0019384D01*
X0321200Y0017785D02*
X0292400Y0017785D01*
X0292400Y0016187D02*
X0321200Y0016187D01*
X0321200Y0014588D02*
X0292400Y0014588D01*
X0290909Y0012990D02*
X0322691Y0012990D01*
X0324289Y0011391D02*
X0289311Y0011391D01*
X0284289Y0011391D02*
X0102400Y0011391D01*
X0102400Y0009793D02*
X0394027Y0009793D01*
X0393850Y0011391D02*
X0329311Y0011391D01*
X0336935Y0012990D02*
X0393850Y0012990D01*
X0394350Y0014588D02*
X0352920Y0014588D01*
X0368905Y0016187D02*
X0395012Y0016187D01*
X0396543Y0017785D02*
X0384890Y0017785D01*
X0394689Y0008194D02*
X0101114Y0008194D01*
X0102400Y0012990D02*
X0195502Y0012990D01*
X0194822Y0014588D02*
X0101931Y0014588D01*
X0100333Y0016187D02*
X0194822Y0016187D01*
X0194822Y0017785D02*
X0027057Y0017785D01*
X0028588Y0016187D02*
X0073267Y0016187D01*
X0071669Y0014588D02*
X0029250Y0014588D01*
X0029750Y0012990D02*
X0071200Y0012990D01*
X0071200Y0011391D02*
X0029750Y0011391D01*
X0029573Y0009793D02*
X0071200Y0009793D01*
X0072486Y0008194D02*
X0028911Y0008194D01*
X0024265Y0019384D02*
X0123797Y0019384D01*
X0129803Y0019384D02*
X0143797Y0019384D01*
X0142198Y0020982D02*
X0131402Y0020982D01*
X0132400Y0022581D02*
X0141200Y0022581D01*
X0141200Y0024179D02*
X0132400Y0024179D01*
X0132400Y0025778D02*
X0141200Y0025778D01*
X0141957Y0027376D02*
X0131643Y0027376D01*
X0130045Y0028975D02*
X0143555Y0028975D01*
X0156200Y0032172D02*
X0016600Y0032172D01*
X0016600Y0033770D02*
X0156200Y0033770D01*
X0157449Y0035369D02*
X0016600Y0035369D01*
X0016600Y0036967D02*
X0055180Y0036967D01*
X0055825Y0036700D02*
X0057775Y0036700D01*
X0059576Y0037446D01*
X0060954Y0038824D01*
X0061700Y0040625D01*
X0061700Y0047775D01*
X0060954Y0049576D01*
X0059576Y0050954D01*
X0057775Y0051700D01*
X0055825Y0051700D01*
X0054024Y0050954D01*
X0052646Y0049576D01*
X0051900Y0047775D01*
X0051900Y0040625D01*
X0052646Y0038824D01*
X0054024Y0037446D01*
X0055825Y0036700D01*
X0058420Y0036967D02*
X0075180Y0036967D01*
X0075825Y0036700D02*
X0077775Y0036700D01*
X0079576Y0037446D01*
X0080954Y0038824D01*
X0081700Y0040625D01*
X0081700Y0047775D01*
X0080954Y0049576D01*
X0079576Y0050954D01*
X0077775Y0051700D01*
X0075825Y0051700D01*
X0074024Y0050954D01*
X0072646Y0049576D01*
X0071900Y0047775D01*
X0071900Y0040625D01*
X0072646Y0038824D01*
X0074024Y0037446D01*
X0075825Y0036700D01*
X0078420Y0036967D02*
X0085180Y0036967D01*
X0085825Y0036700D02*
X0087775Y0036700D01*
X0089576Y0037446D01*
X0090954Y0038824D01*
X0091700Y0040625D01*
X0091700Y0047775D01*
X0090954Y0049576D01*
X0089576Y0050954D01*
X0087775Y0051700D01*
X0085825Y0051700D01*
X0084024Y0050954D01*
X0082646Y0049576D01*
X0081900Y0047775D01*
X0081900Y0040625D01*
X0082646Y0038824D01*
X0084024Y0037446D01*
X0085825Y0036700D01*
X0088420Y0036967D02*
X0105180Y0036967D01*
X0105825Y0036700D02*
X0107775Y0036700D01*
X0109576Y0037446D01*
X0110954Y0038824D01*
X0111700Y0040625D01*
X0111700Y0047775D01*
X0110954Y0049576D01*
X0109576Y0050954D01*
X0107775Y0051700D01*
X0105825Y0051700D01*
X0104024Y0050954D01*
X0102646Y0049576D01*
X0101900Y0047775D01*
X0101900Y0040625D01*
X0102646Y0038824D01*
X0104024Y0037446D01*
X0105825Y0036700D01*
X0108420Y0036967D02*
X0125180Y0036967D01*
X0125825Y0036700D02*
X0127775Y0036700D01*
X0129576Y0037446D01*
X0130954Y0038824D01*
X0131700Y0040625D01*
X0131700Y0047775D01*
X0130954Y0049576D01*
X0129576Y0050954D01*
X0127775Y0051700D01*
X0125825Y0051700D01*
X0124024Y0050954D01*
X0122646Y0049576D01*
X0121900Y0047775D01*
X0121900Y0040625D01*
X0122646Y0038824D01*
X0124024Y0037446D01*
X0125825Y0036700D01*
X0128420Y0036967D02*
X0135180Y0036967D01*
X0135825Y0036700D02*
X0137775Y0036700D01*
X0139576Y0037446D01*
X0140954Y0038824D01*
X0141700Y0040625D01*
X0141700Y0047775D01*
X0140954Y0049576D01*
X0139576Y0050954D01*
X0137775Y0051700D01*
X0135825Y0051700D01*
X0134024Y0050954D01*
X0132646Y0049576D01*
X0131900Y0047775D01*
X0131900Y0040625D01*
X0132646Y0038824D01*
X0134024Y0037446D01*
X0135825Y0036700D01*
X0138420Y0036967D02*
X0150180Y0036967D01*
X0150825Y0036700D02*
X0152775Y0036700D01*
X0154576Y0037446D01*
X0155954Y0038824D01*
X0156700Y0040625D01*
X0156700Y0047775D01*
X0155954Y0049576D01*
X0154576Y0050954D01*
X0152775Y0051700D01*
X0150825Y0051700D01*
X0149024Y0050954D01*
X0147646Y0049576D01*
X0146900Y0047775D01*
X0146900Y0040625D01*
X0147646Y0038824D01*
X0149024Y0037446D01*
X0150825Y0036700D01*
X0153420Y0036967D02*
X0159048Y0036967D01*
X0157905Y0038566D02*
X0155695Y0038566D01*
X0156509Y0040164D02*
X0157091Y0040164D01*
X0156900Y0041763D02*
X0156700Y0041763D01*
X0156700Y0043361D02*
X0156900Y0043361D01*
X0156900Y0044960D02*
X0156700Y0044960D01*
X0156700Y0046558D02*
X0156900Y0046558D01*
X0157058Y0048157D02*
X0156542Y0048157D01*
X0155774Y0049755D02*
X0157826Y0049755D01*
X0159990Y0051354D02*
X0153610Y0051354D01*
X0149990Y0051354D02*
X0138610Y0051354D01*
X0140774Y0049755D02*
X0147826Y0049755D01*
X0147058Y0048157D02*
X0141542Y0048157D01*
X0141700Y0046558D02*
X0146900Y0046558D01*
X0146900Y0044960D02*
X0141700Y0044960D01*
X0141700Y0043361D02*
X0146900Y0043361D01*
X0146900Y0041763D02*
X0141700Y0041763D01*
X0141509Y0040164D02*
X0147091Y0040164D01*
X0147905Y0038566D02*
X0140695Y0038566D01*
X0132905Y0038566D02*
X0130695Y0038566D01*
X0131509Y0040164D02*
X0132091Y0040164D01*
X0131900Y0041763D02*
X0131700Y0041763D01*
X0131700Y0043361D02*
X0131900Y0043361D01*
X0131900Y0044960D02*
X0131700Y0044960D01*
X0131700Y0046558D02*
X0131900Y0046558D01*
X0132058Y0048157D02*
X0131542Y0048157D01*
X0130774Y0049755D02*
X0132826Y0049755D01*
X0134990Y0051354D02*
X0128610Y0051354D01*
X0124990Y0051354D02*
X0108610Y0051354D01*
X0110774Y0049755D02*
X0113533Y0049755D01*
X0113444Y0049666D02*
X0113037Y0049106D01*
X0112722Y0048489D01*
X0112508Y0047830D01*
X0112400Y0047146D01*
X0112400Y0046800D01*
X0116800Y0046800D01*
X0116800Y0046800D01*
X0116800Y0051200D01*
X0117146Y0051200D01*
X0117830Y0051092D01*
X0118489Y0050878D01*
X0119106Y0050563D01*
X0119666Y0050156D01*
X0120156Y0049666D01*
X0120563Y0049106D01*
X0120878Y0048489D01*
X0121092Y0047830D01*
X0121200Y0047146D01*
X0121200Y0046800D01*
X0116800Y0046800D01*
X0116800Y0046800D01*
X0116800Y0046800D01*
X0116800Y0051200D01*
X0116454Y0051200D01*
X0115770Y0051092D01*
X0115111Y0050878D01*
X0114494Y0050563D01*
X0113934Y0050156D01*
X0113444Y0049666D01*
X0112614Y0048157D02*
X0111542Y0048157D01*
X0112400Y0046800D02*
X0112400Y0041254D01*
X0112508Y0040570D01*
X0112722Y0039911D01*
X0113037Y0039294D01*
X0113444Y0038734D01*
X0113934Y0038244D01*
X0114494Y0037837D01*
X0115111Y0037522D01*
X0115770Y0037308D01*
X0116454Y0037200D01*
X0116800Y0037200D01*
X0117146Y0037200D01*
X0117830Y0037308D01*
X0118489Y0037522D01*
X0119106Y0037837D01*
X0119666Y0038244D01*
X0120156Y0038734D01*
X0120563Y0039294D01*
X0120878Y0039911D01*
X0121092Y0040570D01*
X0121200Y0041254D01*
X0121200Y0046800D01*
X0116800Y0046800D01*
X0116800Y0037200D01*
X0116800Y0046800D01*
X0116800Y0046800D01*
X0112400Y0046800D01*
X0112400Y0046558D02*
X0111700Y0046558D01*
X0111700Y0044960D02*
X0112400Y0044960D01*
X0112400Y0043361D02*
X0111700Y0043361D01*
X0111700Y0041763D02*
X0112400Y0041763D01*
X0112640Y0040164D02*
X0111509Y0040164D01*
X0110695Y0038566D02*
X0113612Y0038566D01*
X0116800Y0038566D02*
X0116800Y0038566D01*
X0116800Y0040164D02*
X0116800Y0040164D01*
X0116800Y0041763D02*
X0116800Y0041763D01*
X0116800Y0043361D02*
X0116800Y0043361D01*
X0116800Y0044960D02*
X0116800Y0044960D01*
X0116800Y0046558D02*
X0116800Y0046558D01*
X0116800Y0048157D02*
X0116800Y0048157D01*
X0116800Y0049755D02*
X0116800Y0049755D01*
X0120067Y0049755D02*
X0122826Y0049755D01*
X0122058Y0048157D02*
X0120986Y0048157D01*
X0121200Y0046558D02*
X0121900Y0046558D01*
X0121900Y0044960D02*
X0121200Y0044960D01*
X0121200Y0043361D02*
X0121900Y0043361D01*
X0121900Y0041763D02*
X0121200Y0041763D01*
X0120960Y0040164D02*
X0122091Y0040164D01*
X0122905Y0038566D02*
X0119988Y0038566D01*
X0102905Y0038566D02*
X0090695Y0038566D01*
X0091509Y0040164D02*
X0102091Y0040164D01*
X0101900Y0041763D02*
X0091700Y0041763D01*
X0091700Y0043361D02*
X0101900Y0043361D01*
X0101900Y0044960D02*
X0091700Y0044960D01*
X0091700Y0046558D02*
X0101900Y0046558D01*
X0102058Y0048157D02*
X0091542Y0048157D01*
X0090774Y0049755D02*
X0102826Y0049755D01*
X0104990Y0051354D02*
X0088610Y0051354D01*
X0084990Y0051354D02*
X0078610Y0051354D01*
X0080774Y0049755D02*
X0082826Y0049755D01*
X0082058Y0048157D02*
X0081542Y0048157D01*
X0081700Y0046558D02*
X0081900Y0046558D01*
X0081900Y0044960D02*
X0081700Y0044960D01*
X0081700Y0043361D02*
X0081900Y0043361D01*
X0081900Y0041763D02*
X0081700Y0041763D01*
X0081509Y0040164D02*
X0082091Y0040164D01*
X0082905Y0038566D02*
X0080695Y0038566D01*
X0072905Y0038566D02*
X0069988Y0038566D01*
X0070156Y0038734D02*
X0069666Y0038244D01*
X0069106Y0037837D01*
X0068489Y0037522D01*
X0067830Y0037308D01*
X0067146Y0037200D01*
X0066800Y0037200D01*
X0066800Y0046800D01*
X0066800Y0046800D01*
X0066800Y0051200D01*
X0067146Y0051200D01*
X0067830Y0051092D01*
X0068489Y0050878D01*
X0069106Y0050563D01*
X0069666Y0050156D01*
X0070156Y0049666D01*
X0070563Y0049106D01*
X0070878Y0048489D01*
X0071092Y0047830D01*
X0071200Y0047146D01*
X0071200Y0046800D01*
X0066800Y0046800D01*
X0066800Y0046800D01*
X0066800Y0046800D01*
X0062400Y0046800D01*
X0062400Y0047146D01*
X0062508Y0047830D01*
X0062722Y0048489D01*
X0063037Y0049106D01*
X0063444Y0049666D01*
X0063934Y0050156D01*
X0064494Y0050563D01*
X0065111Y0050878D01*
X0065770Y0051092D01*
X0066454Y0051200D01*
X0066800Y0051200D01*
X0066800Y0046800D01*
X0071200Y0046800D01*
X0071200Y0041254D01*
X0071092Y0040570D01*
X0070878Y0039911D01*
X0070563Y0039294D01*
X0070156Y0038734D01*
X0070960Y0040164D02*
X0072091Y0040164D01*
X0071900Y0041763D02*
X0071200Y0041763D01*
X0071200Y0043361D02*
X0071900Y0043361D01*
X0071900Y0044960D02*
X0071200Y0044960D01*
X0071200Y0046558D02*
X0071900Y0046558D01*
X0072058Y0048157D02*
X0070986Y0048157D01*
X0070067Y0049755D02*
X0072826Y0049755D01*
X0074990Y0051354D02*
X0058610Y0051354D01*
X0060774Y0049755D02*
X0063533Y0049755D01*
X0062614Y0048157D02*
X0061542Y0048157D01*
X0062400Y0046800D02*
X0062400Y0041254D01*
X0062508Y0040570D01*
X0062722Y0039911D01*
X0063037Y0039294D01*
X0063444Y0038734D01*
X0063934Y0038244D01*
X0064494Y0037837D01*
X0065111Y0037522D01*
X0065770Y0037308D01*
X0066454Y0037200D01*
X0066800Y0037200D01*
X0066800Y0046800D01*
X0066800Y0046800D01*
X0062400Y0046800D01*
X0062400Y0046558D02*
X0061700Y0046558D01*
X0061700Y0044960D02*
X0062400Y0044960D01*
X0062400Y0043361D02*
X0061700Y0043361D01*
X0061700Y0041763D02*
X0062400Y0041763D01*
X0062640Y0040164D02*
X0061509Y0040164D01*
X0060695Y0038566D02*
X0063612Y0038566D01*
X0066800Y0038566D02*
X0066800Y0038566D01*
X0066800Y0040164D02*
X0066800Y0040164D01*
X0066800Y0041763D02*
X0066800Y0041763D01*
X0066800Y0043361D02*
X0066800Y0043361D01*
X0066800Y0044960D02*
X0066800Y0044960D01*
X0066800Y0046558D02*
X0066800Y0046558D01*
X0066800Y0048157D02*
X0066800Y0048157D01*
X0066800Y0049755D02*
X0066800Y0049755D01*
X0054990Y0051354D02*
X0016600Y0051354D01*
X0016600Y0052952D02*
X0221200Y0052952D01*
X0221200Y0051354D02*
X0173610Y0051354D01*
X0172775Y0051700D02*
X0170825Y0051700D01*
X0169024Y0050954D01*
X0167646Y0049576D01*
X0166900Y0047775D01*
X0166900Y0040625D01*
X0167646Y0038824D01*
X0169024Y0037446D01*
X0170825Y0036700D01*
X0172775Y0036700D01*
X0174576Y0037446D01*
X0175954Y0038824D01*
X0176700Y0040625D01*
X0176700Y0047775D01*
X0175954Y0049576D01*
X0174576Y0050954D01*
X0172775Y0051700D01*
X0169990Y0051354D02*
X0163610Y0051354D01*
X0165774Y0049755D02*
X0167826Y0049755D01*
X0167058Y0048157D02*
X0166542Y0048157D01*
X0166700Y0046558D02*
X0166900Y0046558D01*
X0166900Y0044960D02*
X0166700Y0044960D01*
X0166700Y0043361D02*
X0166900Y0043361D01*
X0166900Y0041763D02*
X0166700Y0041763D01*
X0166509Y0040164D02*
X0167091Y0040164D01*
X0167905Y0038566D02*
X0165695Y0038566D01*
X0164552Y0036967D02*
X0170180Y0036967D01*
X0173420Y0036967D02*
X0222000Y0036967D01*
X0222000Y0035369D02*
X0185444Y0035369D01*
X0186900Y0033912D02*
X0183912Y0036900D01*
X0181800Y0036900D01*
X0181800Y0031800D01*
X0186900Y0031800D01*
X0186900Y0033912D01*
X0186900Y0033770D02*
X0222000Y0033770D01*
X0222000Y0032172D02*
X0186900Y0032172D01*
X0186900Y0031800D02*
X0181800Y0031800D01*
X0181800Y0031800D01*
X0181800Y0031800D01*
X0181800Y0026700D01*
X0183912Y0026700D01*
X0186900Y0029688D01*
X0186900Y0031800D01*
X0186900Y0030573D02*
X0222113Y0030573D01*
X0222837Y0028975D02*
X0186187Y0028975D01*
X0184589Y0027376D02*
X0224937Y0027376D01*
X0213374Y0020982D02*
X0202726Y0020982D01*
X0199300Y0016800D02*
X0216800Y0016800D01*
X0213002Y0012990D02*
X0203098Y0012990D01*
X0194822Y0019384D02*
X0149803Y0019384D01*
X0151402Y0020982D02*
X0195874Y0020982D01*
X0181800Y0026700D02*
X0181800Y0031800D01*
X0181800Y0031800D01*
X0181800Y0031800D01*
X0176700Y0031800D01*
X0176700Y0033912D01*
X0179688Y0036900D01*
X0181800Y0036900D01*
X0181800Y0031800D01*
X0176700Y0031800D01*
X0176700Y0029688D01*
X0179688Y0026700D01*
X0181800Y0026700D01*
X0181800Y0027376D02*
X0181800Y0027376D01*
X0181800Y0028975D02*
X0181800Y0028975D01*
X0181800Y0030573D02*
X0181800Y0030573D01*
X0181800Y0032172D02*
X0181800Y0032172D01*
X0181800Y0033770D02*
X0181800Y0033770D01*
X0181800Y0035369D02*
X0181800Y0035369D01*
X0181800Y0037200D02*
X0182146Y0037200D01*
X0182830Y0037308D01*
X0183489Y0037522D01*
X0184106Y0037837D01*
X0184666Y0038244D01*
X0185156Y0038734D01*
X0185563Y0039294D01*
X0185878Y0039911D01*
X0186092Y0040570D01*
X0186200Y0041254D01*
X0186200Y0046800D01*
X0186200Y0047146D01*
X0186092Y0047830D01*
X0185878Y0048489D01*
X0185563Y0049106D01*
X0185156Y0049666D01*
X0184666Y0050156D01*
X0184106Y0050563D01*
X0183489Y0050878D01*
X0182830Y0051092D01*
X0182146Y0051200D01*
X0181800Y0051200D01*
X0181800Y0046800D01*
X0181800Y0046800D01*
X0186200Y0046800D01*
X0181800Y0046800D01*
X0181800Y0046800D01*
X0181800Y0046800D01*
X0177400Y0046800D01*
X0177400Y0047146D01*
X0177508Y0047830D01*
X0177722Y0048489D01*
X0178037Y0049106D01*
X0178444Y0049666D01*
X0178934Y0050156D01*
X0179494Y0050563D01*
X0180111Y0050878D01*
X0180770Y0051092D01*
X0181454Y0051200D01*
X0181800Y0051200D01*
X0181800Y0046800D01*
X0181800Y0037200D01*
X0181800Y0046800D01*
X0181800Y0046800D01*
X0177400Y0046800D01*
X0177400Y0041254D01*
X0177508Y0040570D01*
X0177722Y0039911D01*
X0178037Y0039294D01*
X0178444Y0038734D01*
X0178934Y0038244D01*
X0179494Y0037837D01*
X0180111Y0037522D01*
X0180770Y0037308D01*
X0181454Y0037200D01*
X0181800Y0037200D01*
X0181800Y0038566D02*
X0181800Y0038566D01*
X0181800Y0040164D02*
X0181800Y0040164D01*
X0181800Y0041763D02*
X0181800Y0041763D01*
X0181800Y0043361D02*
X0181800Y0043361D01*
X0181800Y0044960D02*
X0181800Y0044960D01*
X0181800Y0046558D02*
X0181800Y0046558D01*
X0181800Y0048157D02*
X0181800Y0048157D01*
X0181800Y0049755D02*
X0181800Y0049755D01*
X0185067Y0049755D02*
X0221200Y0049755D01*
X0222000Y0048157D02*
X0185986Y0048157D01*
X0186200Y0046558D02*
X0222000Y0046558D01*
X0222000Y0044960D02*
X0186200Y0044960D01*
X0186200Y0043361D02*
X0222000Y0043361D01*
X0222000Y0041763D02*
X0186200Y0041763D01*
X0185960Y0040164D02*
X0222000Y0040164D01*
X0222000Y0038566D02*
X0184988Y0038566D01*
X0178612Y0038566D02*
X0175695Y0038566D01*
X0176509Y0040164D02*
X0177640Y0040164D01*
X0177400Y0041763D02*
X0176700Y0041763D01*
X0176700Y0043361D02*
X0177400Y0043361D01*
X0177400Y0044960D02*
X0176700Y0044960D01*
X0176700Y0046558D02*
X0177400Y0046558D01*
X0177614Y0048157D02*
X0176542Y0048157D01*
X0175774Y0049755D02*
X0178533Y0049755D01*
X0191800Y0061800D02*
X0016600Y0061800D01*
X0016600Y0208258D01*
X0017297Y0207561D01*
X0020219Y0206350D01*
X0023381Y0206350D01*
X0026303Y0207561D01*
X0028539Y0209797D01*
X0029750Y0212719D01*
X0029750Y0215881D01*
X0029302Y0216961D01*
X0061797Y0216961D01*
X0061350Y0215881D01*
X0061350Y0212719D01*
X0062561Y0209797D01*
X0064797Y0207561D01*
X0067719Y0206350D01*
X0070881Y0206350D01*
X0073803Y0207561D01*
X0076039Y0209797D01*
X0077250Y0212719D01*
X0077250Y0215881D01*
X0076803Y0216961D01*
X0163850Y0216961D01*
X0163850Y0215219D01*
X0165061Y0212297D01*
X0167297Y0210061D01*
X0170219Y0208850D01*
X0173381Y0208850D01*
X0176303Y0210061D01*
X0178539Y0212297D01*
X0179750Y0215219D01*
X0179750Y0216961D01*
X0221800Y0216961D01*
X0221800Y0144175D01*
X0220830Y0144175D01*
X0219039Y0143433D01*
X0217667Y0142061D01*
X0216925Y0140270D01*
X0216925Y0138330D01*
X0217559Y0136800D01*
X0215391Y0136800D01*
X0215542Y0137007D01*
X0215854Y0137621D01*
X0216067Y0138276D01*
X0216175Y0138956D01*
X0216175Y0139300D01*
X0216175Y0139644D01*
X0216067Y0140324D01*
X0215854Y0140979D01*
X0215542Y0141593D01*
X0215137Y0142150D01*
X0214650Y0142637D01*
X0214093Y0143042D01*
X0213479Y0143354D01*
X0212824Y0143567D01*
X0212144Y0143675D01*
X0211800Y0143675D01*
X0211800Y0139300D01*
X0216175Y0139300D01*
X0211800Y0139300D01*
X0211800Y0139300D01*
X0211800Y0139300D01*
X0211800Y0139300D01*
X0207425Y0139300D01*
X0207425Y0139644D01*
X0207533Y0140324D01*
X0207746Y0140979D01*
X0208058Y0141593D01*
X0208463Y0142150D01*
X0208950Y0142637D01*
X0209507Y0143042D01*
X0210121Y0143354D01*
X0210776Y0143567D01*
X0211456Y0143675D01*
X0211800Y0143675D01*
X0211800Y0139300D01*
X0207425Y0139300D01*
X0207425Y0138956D01*
X0207533Y0138276D01*
X0207746Y0137621D01*
X0208058Y0137007D01*
X0208209Y0136800D01*
X0191800Y0136800D01*
X0191800Y0061800D01*
X0191800Y0062543D02*
X0016600Y0062543D01*
X0016600Y0064142D02*
X0191800Y0064142D01*
X0191800Y0065740D02*
X0016600Y0065740D01*
X0016600Y0067339D02*
X0191800Y0067339D01*
X0191800Y0068937D02*
X0016600Y0068937D01*
X0016600Y0070536D02*
X0191800Y0070536D01*
X0191800Y0072134D02*
X0183341Y0072134D01*
X0182775Y0071900D02*
X0184576Y0072646D01*
X0185954Y0074024D01*
X0186700Y0075825D01*
X0186700Y0082975D01*
X0185954Y0084776D01*
X0184576Y0086154D01*
X0182775Y0086900D01*
X0180825Y0086900D01*
X0179024Y0086154D01*
X0177646Y0084776D01*
X0176900Y0082975D01*
X0176900Y0075825D01*
X0177646Y0074024D01*
X0179024Y0072646D01*
X0180825Y0071900D01*
X0182775Y0071900D01*
X0180259Y0072134D02*
X0163341Y0072134D01*
X0162775Y0071900D02*
X0164576Y0072646D01*
X0165954Y0074024D01*
X0166700Y0075825D01*
X0166700Y0082975D01*
X0165954Y0084776D01*
X0164576Y0086154D01*
X0164221Y0086301D01*
X0167400Y0089480D01*
X0167400Y0094120D01*
X0164120Y0097400D01*
X0159480Y0097400D01*
X0156200Y0094120D01*
X0156200Y0089480D01*
X0159379Y0086301D01*
X0159024Y0086154D01*
X0157646Y0084776D01*
X0156900Y0082975D01*
X0156900Y0075825D01*
X0157646Y0074024D01*
X0159024Y0072646D01*
X0160825Y0071900D01*
X0162775Y0071900D01*
X0160259Y0072134D02*
X0153341Y0072134D01*
X0152775Y0071900D02*
X0154576Y0072646D01*
X0155954Y0074024D01*
X0156700Y0075825D01*
X0156700Y0082975D01*
X0155954Y0084776D01*
X0154576Y0086154D01*
X0152775Y0086900D01*
X0150825Y0086900D01*
X0149024Y0086154D01*
X0147646Y0084776D01*
X0146900Y0082975D01*
X0146900Y0075825D01*
X0147646Y0074024D01*
X0149024Y0072646D01*
X0150825Y0071900D01*
X0152775Y0071900D01*
X0150259Y0072134D02*
X0138341Y0072134D01*
X0137775Y0071900D02*
X0139576Y0072646D01*
X0140954Y0074024D01*
X0141700Y0075825D01*
X0141700Y0082975D01*
X0140954Y0084776D01*
X0139576Y0086154D01*
X0137775Y0086900D01*
X0135825Y0086900D01*
X0134024Y0086154D01*
X0132646Y0084776D01*
X0131900Y0082975D01*
X0131900Y0075825D01*
X0132646Y0074024D01*
X0134024Y0072646D01*
X0135825Y0071900D01*
X0137775Y0071900D01*
X0135259Y0072134D02*
X0128341Y0072134D01*
X0127775Y0071900D02*
X0129576Y0072646D01*
X0130954Y0074024D01*
X0131700Y0075825D01*
X0131700Y0082975D01*
X0130954Y0084776D01*
X0129576Y0086154D01*
X0127775Y0086900D01*
X0125825Y0086900D01*
X0124024Y0086154D01*
X0122646Y0084776D01*
X0121900Y0082975D01*
X0121900Y0075825D01*
X0122646Y0074024D01*
X0124024Y0072646D01*
X0125825Y0071900D01*
X0127775Y0071900D01*
X0125259Y0072134D02*
X0118341Y0072134D01*
X0117775Y0071900D02*
X0119576Y0072646D01*
X0120954Y0074024D01*
X0121700Y0075825D01*
X0121700Y0082975D01*
X0120954Y0084776D01*
X0119576Y0086154D01*
X0117775Y0086900D01*
X0115825Y0086900D01*
X0114024Y0086154D01*
X0112646Y0084776D01*
X0111900Y0082975D01*
X0111900Y0075825D01*
X0112646Y0074024D01*
X0114024Y0072646D01*
X0115825Y0071900D01*
X0117775Y0071900D01*
X0115259Y0072134D02*
X0088341Y0072134D01*
X0087775Y0071900D02*
X0089576Y0072646D01*
X0090954Y0074024D01*
X0091700Y0075825D01*
X0091700Y0082975D01*
X0090954Y0084776D01*
X0089576Y0086154D01*
X0087775Y0086900D01*
X0085825Y0086900D01*
X0084024Y0086154D01*
X0082646Y0084776D01*
X0081900Y0082975D01*
X0081900Y0075825D01*
X0082646Y0074024D01*
X0084024Y0072646D01*
X0085825Y0071900D01*
X0087775Y0071900D01*
X0085259Y0072134D02*
X0078341Y0072134D01*
X0077775Y0071900D02*
X0079576Y0072646D01*
X0080954Y0074024D01*
X0081700Y0075825D01*
X0081700Y0082975D01*
X0080954Y0084776D01*
X0079576Y0086154D01*
X0077775Y0086900D01*
X0075825Y0086900D01*
X0074024Y0086154D01*
X0072646Y0084776D01*
X0071900Y0082975D01*
X0071900Y0075825D01*
X0072646Y0074024D01*
X0074024Y0072646D01*
X0075825Y0071900D01*
X0077775Y0071900D01*
X0075259Y0072134D02*
X0068341Y0072134D01*
X0067775Y0071900D02*
X0069576Y0072646D01*
X0070954Y0074024D01*
X0071700Y0075825D01*
X0071700Y0082975D01*
X0070954Y0084776D01*
X0069576Y0086154D01*
X0067775Y0086900D01*
X0065825Y0086900D01*
X0064024Y0086154D01*
X0062646Y0084776D01*
X0061900Y0082975D01*
X0061900Y0075825D01*
X0062646Y0074024D01*
X0064024Y0072646D01*
X0065825Y0071900D01*
X0067775Y0071900D01*
X0065259Y0072134D02*
X0016600Y0072134D01*
X0016600Y0073733D02*
X0053644Y0073733D01*
X0053444Y0073934D02*
X0053934Y0073444D01*
X0054494Y0073037D01*
X0055111Y0072722D01*
X0055770Y0072508D01*
X0056454Y0072400D01*
X0056800Y0072400D01*
X0057146Y0072400D01*
X0057830Y0072508D01*
X0058489Y0072722D01*
X0059106Y0073037D01*
X0059666Y0073444D01*
X0060156Y0073934D01*
X0060563Y0074494D01*
X0060878Y0075111D01*
X0061092Y0075770D01*
X0061200Y0076454D01*
X0061200Y0076800D01*
X0061200Y0082346D01*
X0061092Y0083030D01*
X0060878Y0083689D01*
X0060563Y0084306D01*
X0060156Y0084866D01*
X0059666Y0085356D01*
X0059106Y0085763D01*
X0058489Y0086078D01*
X0057830Y0086292D01*
X0057146Y0086400D01*
X0056800Y0086400D01*
X0056800Y0076800D01*
X0061200Y0076800D01*
X0056800Y0076800D01*
X0056800Y0076800D01*
X0056800Y0076800D01*
X0056800Y0072400D01*
X0056800Y0076800D01*
X0056800Y0076800D01*
X0056800Y0086400D01*
X0056454Y0086400D01*
X0055770Y0086292D01*
X0055111Y0086078D01*
X0054494Y0085763D01*
X0053934Y0085356D01*
X0053444Y0084866D01*
X0053037Y0084306D01*
X0052722Y0083689D01*
X0052508Y0083030D01*
X0052449Y0082656D01*
X0051205Y0083900D01*
X0049300Y0083900D01*
X0049300Y0079300D01*
X0049300Y0079300D01*
X0049300Y0074700D01*
X0051205Y0074700D01*
X0052476Y0075971D01*
X0052508Y0075770D01*
X0052722Y0075111D01*
X0053037Y0074494D01*
X0053444Y0073934D01*
X0052651Y0075332D02*
X0051837Y0075332D01*
X0049300Y0075332D02*
X0049300Y0075332D01*
X0049300Y0074700D02*
X0047395Y0074700D01*
X0044700Y0077395D01*
X0044700Y0079300D01*
X0049300Y0079300D01*
X0049300Y0079300D01*
X0049300Y0079300D01*
X0049300Y0083900D01*
X0047395Y0083900D01*
X0044700Y0081205D01*
X0044700Y0079300D01*
X0049300Y0079300D01*
X0049300Y0074700D01*
X0049300Y0076930D02*
X0049300Y0076930D01*
X0049300Y0078529D02*
X0049300Y0078529D01*
X0049300Y0080127D02*
X0049300Y0080127D01*
X0049300Y0081726D02*
X0049300Y0081726D01*
X0049300Y0083324D02*
X0049300Y0083324D01*
X0051781Y0083324D02*
X0052604Y0083324D01*
X0053500Y0084923D02*
X0016600Y0084923D01*
X0016600Y0086521D02*
X0064911Y0086521D01*
X0062793Y0084923D02*
X0060100Y0084923D01*
X0060996Y0083324D02*
X0062045Y0083324D01*
X0061900Y0081726D02*
X0061200Y0081726D01*
X0061200Y0080127D02*
X0061900Y0080127D01*
X0061900Y0078529D02*
X0061200Y0078529D01*
X0061200Y0076930D02*
X0061900Y0076930D01*
X0062105Y0075332D02*
X0060949Y0075332D01*
X0059956Y0073733D02*
X0062937Y0073733D01*
X0070663Y0073733D02*
X0072937Y0073733D01*
X0072105Y0075332D02*
X0071495Y0075332D01*
X0071700Y0076930D02*
X0071900Y0076930D01*
X0071900Y0078529D02*
X0071700Y0078529D01*
X0071700Y0080127D02*
X0071900Y0080127D01*
X0071900Y0081726D02*
X0071700Y0081726D01*
X0071555Y0083324D02*
X0072045Y0083324D01*
X0072793Y0084923D02*
X0070807Y0084923D01*
X0068689Y0086521D02*
X0074911Y0086521D01*
X0078689Y0086521D02*
X0084911Y0086521D01*
X0082793Y0084923D02*
X0080807Y0084923D01*
X0081555Y0083324D02*
X0082045Y0083324D01*
X0081900Y0081726D02*
X0081700Y0081726D01*
X0081700Y0080127D02*
X0081900Y0080127D01*
X0081900Y0078529D02*
X0081700Y0078529D01*
X0081700Y0076930D02*
X0081900Y0076930D01*
X0082105Y0075332D02*
X0081495Y0075332D01*
X0080663Y0073733D02*
X0082937Y0073733D01*
X0090663Y0073733D02*
X0103644Y0073733D01*
X0103444Y0073934D02*
X0103934Y0073444D01*
X0104494Y0073037D01*
X0105111Y0072722D01*
X0105770Y0072508D01*
X0106454Y0072400D01*
X0106800Y0072400D01*
X0107146Y0072400D01*
X0107830Y0072508D01*
X0108489Y0072722D01*
X0109106Y0073037D01*
X0109666Y0073444D01*
X0110156Y0073934D01*
X0110563Y0074494D01*
X0110878Y0075111D01*
X0111092Y0075770D01*
X0111200Y0076454D01*
X0111200Y0076800D01*
X0111200Y0082346D01*
X0111092Y0083030D01*
X0110878Y0083689D01*
X0110563Y0084306D01*
X0110156Y0084866D01*
X0109666Y0085356D01*
X0109106Y0085763D01*
X0108489Y0086078D01*
X0107830Y0086292D01*
X0107146Y0086400D01*
X0106800Y0086400D01*
X0106800Y0076800D01*
X0111200Y0076800D01*
X0106800Y0076800D01*
X0106800Y0076800D01*
X0106800Y0076800D01*
X0106800Y0072400D01*
X0106800Y0076800D01*
X0106800Y0076800D01*
X0106800Y0076800D01*
X0102400Y0076800D01*
X0102400Y0082346D01*
X0102508Y0083030D01*
X0102722Y0083689D01*
X0103037Y0084306D01*
X0103444Y0084866D01*
X0103934Y0085356D01*
X0104494Y0085763D01*
X0105111Y0086078D01*
X0105770Y0086292D01*
X0106454Y0086400D01*
X0106800Y0086400D01*
X0106800Y0076800D01*
X0102400Y0076800D01*
X0102400Y0076454D01*
X0102508Y0075770D01*
X0102722Y0075111D01*
X0103037Y0074494D01*
X0103444Y0073934D01*
X0102651Y0075332D02*
X0091495Y0075332D01*
X0091700Y0076930D02*
X0102400Y0076930D01*
X0102400Y0078529D02*
X0091700Y0078529D01*
X0091700Y0080127D02*
X0102400Y0080127D01*
X0102400Y0081726D02*
X0091700Y0081726D01*
X0091555Y0083324D02*
X0102604Y0083324D01*
X0103500Y0084923D02*
X0090807Y0084923D01*
X0088689Y0086521D02*
X0114911Y0086521D01*
X0112793Y0084923D02*
X0110100Y0084923D01*
X0110996Y0083324D02*
X0112045Y0083324D01*
X0111900Y0081726D02*
X0111200Y0081726D01*
X0111200Y0080127D02*
X0111900Y0080127D01*
X0111900Y0078529D02*
X0111200Y0078529D01*
X0111200Y0076930D02*
X0111900Y0076930D01*
X0112105Y0075332D02*
X0110949Y0075332D01*
X0109956Y0073733D02*
X0112937Y0073733D01*
X0120663Y0073733D02*
X0122937Y0073733D01*
X0122105Y0075332D02*
X0121495Y0075332D01*
X0121700Y0076930D02*
X0121900Y0076930D01*
X0121900Y0078529D02*
X0121700Y0078529D01*
X0121700Y0080127D02*
X0121900Y0080127D01*
X0121900Y0081726D02*
X0121700Y0081726D01*
X0121555Y0083324D02*
X0122045Y0083324D01*
X0122793Y0084923D02*
X0120807Y0084923D01*
X0118689Y0086521D02*
X0124911Y0086521D01*
X0128689Y0086521D02*
X0134911Y0086521D01*
X0132793Y0084923D02*
X0130807Y0084923D01*
X0131555Y0083324D02*
X0132045Y0083324D01*
X0131900Y0081726D02*
X0131700Y0081726D01*
X0131700Y0080127D02*
X0131900Y0080127D01*
X0131900Y0078529D02*
X0131700Y0078529D01*
X0131700Y0076930D02*
X0131900Y0076930D01*
X0132105Y0075332D02*
X0131495Y0075332D01*
X0130663Y0073733D02*
X0132937Y0073733D01*
X0140663Y0073733D02*
X0147937Y0073733D01*
X0147105Y0075332D02*
X0141495Y0075332D01*
X0141700Y0076930D02*
X0146900Y0076930D01*
X0146900Y0078529D02*
X0141700Y0078529D01*
X0141700Y0080127D02*
X0146900Y0080127D01*
X0146900Y0081726D02*
X0141700Y0081726D01*
X0141555Y0083324D02*
X0147045Y0083324D01*
X0147793Y0084923D02*
X0140807Y0084923D01*
X0138689Y0086521D02*
X0149911Y0086521D01*
X0153689Y0086521D02*
X0159159Y0086521D01*
X0157793Y0084923D02*
X0155807Y0084923D01*
X0156555Y0083324D02*
X0157045Y0083324D01*
X0156900Y0081726D02*
X0156700Y0081726D01*
X0156700Y0080127D02*
X0156900Y0080127D01*
X0156900Y0078529D02*
X0156700Y0078529D01*
X0156700Y0076930D02*
X0156900Y0076930D01*
X0157105Y0075332D02*
X0156495Y0075332D01*
X0155663Y0073733D02*
X0157937Y0073733D01*
X0165663Y0073733D02*
X0168644Y0073733D01*
X0168444Y0073934D02*
X0168934Y0073444D01*
X0169494Y0073037D01*
X0170111Y0072722D01*
X0170770Y0072508D01*
X0171454Y0072400D01*
X0171800Y0072400D01*
X0172146Y0072400D01*
X0172830Y0072508D01*
X0173489Y0072722D01*
X0174106Y0073037D01*
X0174666Y0073444D01*
X0175156Y0073934D01*
X0175563Y0074494D01*
X0175878Y0075111D01*
X0176092Y0075770D01*
X0176200Y0076454D01*
X0176200Y0076800D01*
X0176200Y0082346D01*
X0176092Y0083030D01*
X0175878Y0083689D01*
X0175563Y0084306D01*
X0175156Y0084866D01*
X0174666Y0085356D01*
X0174106Y0085763D01*
X0173489Y0086078D01*
X0172830Y0086292D01*
X0172146Y0086400D01*
X0171800Y0086400D01*
X0171800Y0076800D01*
X0176200Y0076800D01*
X0171800Y0076800D01*
X0171800Y0076800D01*
X0171800Y0076800D01*
X0171800Y0072400D01*
X0171800Y0076800D01*
X0171800Y0076800D01*
X0171800Y0076800D01*
X0167400Y0076800D01*
X0167400Y0082346D01*
X0167508Y0083030D01*
X0167722Y0083689D01*
X0168037Y0084306D01*
X0168444Y0084866D01*
X0168934Y0085356D01*
X0169494Y0085763D01*
X0170111Y0086078D01*
X0170770Y0086292D01*
X0171454Y0086400D01*
X0171800Y0086400D01*
X0171800Y0076800D01*
X0167400Y0076800D01*
X0167400Y0076454D01*
X0167508Y0075770D01*
X0167722Y0075111D01*
X0168037Y0074494D01*
X0168444Y0073934D01*
X0167651Y0075332D02*
X0166495Y0075332D01*
X0166700Y0076930D02*
X0167400Y0076930D01*
X0167400Y0078529D02*
X0166700Y0078529D01*
X0166700Y0080127D02*
X0167400Y0080127D01*
X0167400Y0081726D02*
X0166700Y0081726D01*
X0166555Y0083324D02*
X0167604Y0083324D01*
X0168500Y0084923D02*
X0165807Y0084923D01*
X0164441Y0086521D02*
X0179911Y0086521D01*
X0177793Y0084923D02*
X0175100Y0084923D01*
X0175996Y0083324D02*
X0177045Y0083324D01*
X0176900Y0081726D02*
X0176200Y0081726D01*
X0176200Y0080127D02*
X0176900Y0080127D01*
X0176900Y0078529D02*
X0176200Y0078529D01*
X0176200Y0076930D02*
X0176900Y0076930D01*
X0177105Y0075332D02*
X0175949Y0075332D01*
X0174956Y0073733D02*
X0177937Y0073733D01*
X0171800Y0073733D02*
X0171800Y0073733D01*
X0171800Y0075332D02*
X0171800Y0075332D01*
X0171800Y0076930D02*
X0171800Y0076930D01*
X0171800Y0078529D02*
X0171800Y0078529D01*
X0171800Y0080127D02*
X0171800Y0080127D01*
X0171800Y0081726D02*
X0171800Y0081726D01*
X0171800Y0083324D02*
X0171800Y0083324D01*
X0171800Y0084923D02*
X0171800Y0084923D01*
X0167400Y0089718D02*
X0191800Y0089718D01*
X0191800Y0088120D02*
X0166039Y0088120D01*
X0167400Y0091317D02*
X0191800Y0091317D01*
X0191800Y0092915D02*
X0167400Y0092915D01*
X0167006Y0094514D02*
X0191800Y0094514D01*
X0191800Y0096112D02*
X0165407Y0096112D01*
X0171200Y0099480D02*
X0174480Y0096200D01*
X0179120Y0096200D01*
X0182400Y0099480D01*
X0182400Y0104120D01*
X0179120Y0107400D01*
X0174480Y0107400D01*
X0171200Y0104120D01*
X0171200Y0099480D01*
X0171371Y0099309D02*
X0097797Y0099309D01*
X0097775Y0099300D02*
X0099576Y0100046D01*
X0100954Y0101424D01*
X0101700Y0103225D01*
X0101700Y0110375D01*
X0100954Y0112176D01*
X0099576Y0113554D01*
X0097775Y0114300D01*
X0095825Y0114300D01*
X0094024Y0113554D01*
X0092646Y0112176D01*
X0091900Y0110375D01*
X0091900Y0103225D01*
X0092646Y0101424D01*
X0094024Y0100046D01*
X0095825Y0099300D01*
X0097775Y0099300D01*
X0095803Y0099309D02*
X0087797Y0099309D01*
X0087775Y0099300D02*
X0089576Y0100046D01*
X0090954Y0101424D01*
X0091700Y0103225D01*
X0091700Y0110375D01*
X0090954Y0112176D01*
X0089576Y0113554D01*
X0087775Y0114300D01*
X0085825Y0114300D01*
X0084024Y0113554D01*
X0082646Y0112176D01*
X0081900Y0110375D01*
X0081900Y0103225D01*
X0082646Y0101424D01*
X0084024Y0100046D01*
X0085825Y0099300D01*
X0087775Y0099300D01*
X0085803Y0099309D02*
X0077797Y0099309D01*
X0077775Y0099300D02*
X0079576Y0100046D01*
X0080954Y0101424D01*
X0081700Y0103225D01*
X0081700Y0110375D01*
X0080954Y0112176D01*
X0079576Y0113554D01*
X0077775Y0114300D01*
X0075825Y0114300D01*
X0074024Y0113554D01*
X0072646Y0112176D01*
X0071900Y0110375D01*
X0071900Y0103225D01*
X0072646Y0101424D01*
X0074024Y0100046D01*
X0075825Y0099300D01*
X0077775Y0099300D01*
X0075803Y0099309D02*
X0067797Y0099309D01*
X0067775Y0099300D02*
X0069576Y0100046D01*
X0070954Y0101424D01*
X0071700Y0103225D01*
X0071700Y0110375D01*
X0070954Y0112176D01*
X0069900Y0113230D01*
X0069900Y0123700D01*
X0158700Y0123700D01*
X0158700Y0116620D01*
X0156200Y0114120D01*
X0156200Y0109480D01*
X0159480Y0106200D01*
X0164120Y0106200D01*
X0167400Y0109480D01*
X0167400Y0114120D01*
X0164900Y0116620D01*
X0164900Y0127417D01*
X0164428Y0128556D01*
X0163556Y0129428D01*
X0162417Y0129900D01*
X0099223Y0129900D01*
X0099576Y0130046D01*
X0100954Y0131424D01*
X0101700Y0133225D01*
X0101700Y0140375D01*
X0100954Y0142176D01*
X0099576Y0143554D01*
X0097775Y0144300D01*
X0095825Y0144300D01*
X0094024Y0143554D01*
X0092646Y0142176D01*
X0091900Y0140375D01*
X0091900Y0133225D01*
X0092646Y0131424D01*
X0094024Y0130046D01*
X0094377Y0129900D01*
X0089223Y0129900D01*
X0089576Y0130046D01*
X0090954Y0131424D01*
X0091700Y0133225D01*
X0091700Y0140375D01*
X0090954Y0142176D01*
X0089900Y0143230D01*
X0089900Y0158700D01*
X0117417Y0158700D01*
X0118556Y0159172D01*
X0119428Y0160044D01*
X0119900Y0161183D01*
X0119900Y0168700D01*
X0170102Y0168700D01*
X0167821Y0167755D01*
X0165845Y0165779D01*
X0164776Y0163197D01*
X0164776Y0160403D01*
X0165845Y0157821D01*
X0167821Y0155845D01*
X0170403Y0154776D01*
X0173197Y0154776D01*
X0175779Y0155845D01*
X0177755Y0157821D01*
X0178824Y0160403D01*
X0178824Y0163197D01*
X0177755Y0165779D01*
X0175779Y0167755D01*
X0173498Y0168700D01*
X0183700Y0168700D01*
X0183700Y0166841D01*
X0183490Y0166754D01*
X0181846Y0165110D01*
X0180957Y0162962D01*
X0180957Y0160638D01*
X0181846Y0158490D01*
X0183490Y0156846D01*
X0185638Y0155957D01*
X0187962Y0155957D01*
X0190110Y0156846D01*
X0191754Y0158490D01*
X0192643Y0160638D01*
X0192643Y0162962D01*
X0191754Y0165110D01*
X0190110Y0166754D01*
X0189900Y0166841D01*
X0189900Y0172417D01*
X0189428Y0173556D01*
X0188556Y0174428D01*
X0187417Y0174900D01*
X0116183Y0174900D01*
X0115044Y0174428D01*
X0114172Y0173556D01*
X0113700Y0172417D01*
X0113700Y0164900D01*
X0089333Y0164900D01*
X0089254Y0165090D01*
X0087610Y0166734D01*
X0085462Y0167624D01*
X0083138Y0167624D01*
X0080990Y0166734D01*
X0079346Y0165090D01*
X0078457Y0162943D01*
X0078457Y0160618D01*
X0079346Y0158470D01*
X0080990Y0156827D01*
X0083138Y0155937D01*
X0083700Y0155937D01*
X0083700Y0143230D01*
X0082646Y0142176D01*
X0081900Y0140375D01*
X0081900Y0133225D01*
X0082646Y0131424D01*
X0084024Y0130046D01*
X0084377Y0129900D01*
X0079223Y0129900D01*
X0079576Y0130046D01*
X0080954Y0131424D01*
X0081700Y0133225D01*
X0081700Y0140375D01*
X0080954Y0142176D01*
X0079576Y0143554D01*
X0077775Y0144300D01*
X0075825Y0144300D01*
X0074024Y0143554D01*
X0072646Y0142176D01*
X0071900Y0140375D01*
X0071900Y0133225D01*
X0072646Y0131424D01*
X0074024Y0130046D01*
X0074377Y0129900D01*
X0067778Y0129900D01*
X0067830Y0129908D01*
X0068489Y0130122D01*
X0069106Y0130437D01*
X0069666Y0130844D01*
X0070156Y0131334D01*
X0070563Y0131894D01*
X0070878Y0132511D01*
X0071092Y0133170D01*
X0071200Y0133854D01*
X0071200Y0136800D01*
X0071200Y0139746D01*
X0071092Y0140430D01*
X0070878Y0141089D01*
X0070563Y0141706D01*
X0070156Y0142266D01*
X0069666Y0142756D01*
X0069106Y0143163D01*
X0068489Y0143478D01*
X0067830Y0143692D01*
X0067146Y0143800D01*
X0066800Y0143800D01*
X0066800Y0136800D01*
X0066800Y0136800D01*
X0071200Y0136800D01*
X0066800Y0136800D01*
X0066800Y0136800D01*
X0066800Y0143800D01*
X0066454Y0143800D01*
X0065770Y0143692D01*
X0065111Y0143478D01*
X0064494Y0143163D01*
X0063934Y0142756D01*
X0063444Y0142266D01*
X0063037Y0141706D01*
X0062722Y0141089D01*
X0062508Y0140430D01*
X0062463Y0140143D01*
X0061205Y0141400D01*
X0059300Y0141400D01*
X0059300Y0136800D01*
X0059300Y0136800D01*
X0066800Y0136800D01*
X0066800Y0136800D01*
X0063900Y0136800D01*
X0059300Y0136800D01*
X0059300Y0136800D01*
X0059300Y0132200D01*
X0061205Y0132200D01*
X0062463Y0133457D01*
X0062508Y0133170D01*
X0062722Y0132511D01*
X0063037Y0131894D01*
X0063444Y0131334D01*
X0063934Y0130844D01*
X0064494Y0130437D01*
X0065111Y0130122D01*
X0065770Y0129908D01*
X0066084Y0129859D01*
X0065044Y0129428D01*
X0064172Y0128556D01*
X0063700Y0127417D01*
X0063700Y0113230D01*
X0062646Y0112176D01*
X0061900Y0110375D01*
X0061900Y0103225D01*
X0062646Y0101424D01*
X0064024Y0100046D01*
X0065825Y0099300D01*
X0067775Y0099300D01*
X0065803Y0099309D02*
X0016600Y0099309D01*
X0016600Y0097711D02*
X0172970Y0097711D01*
X0171200Y0100908D02*
X0100437Y0100908D01*
X0101402Y0102506D02*
X0171200Y0102506D01*
X0171200Y0104105D02*
X0101700Y0104105D01*
X0101700Y0105703D02*
X0172784Y0105703D01*
X0174382Y0107302D02*
X0165221Y0107302D01*
X0166820Y0108900D02*
X0191800Y0108900D01*
X0191800Y0107302D02*
X0179218Y0107302D01*
X0180816Y0105703D02*
X0191800Y0105703D01*
X0191800Y0104105D02*
X0182400Y0104105D01*
X0182400Y0102506D02*
X0191800Y0102506D01*
X0191800Y0100908D02*
X0182400Y0100908D01*
X0182229Y0099309D02*
X0191800Y0099309D01*
X0191800Y0097711D02*
X0180630Y0097711D01*
X0183689Y0086521D02*
X0191800Y0086521D01*
X0191800Y0084923D02*
X0185807Y0084923D01*
X0186555Y0083324D02*
X0191800Y0083324D01*
X0191800Y0081726D02*
X0186700Y0081726D01*
X0186700Y0080127D02*
X0191800Y0080127D01*
X0191800Y0078529D02*
X0186700Y0078529D01*
X0186700Y0076930D02*
X0191800Y0076930D01*
X0191800Y0075332D02*
X0186495Y0075332D01*
X0185663Y0073733D02*
X0191800Y0073733D01*
X0196800Y0073733D02*
X0210661Y0073733D01*
X0210661Y0074091D02*
X0210661Y0064509D01*
X0212009Y0063161D01*
X0221591Y0063161D01*
X0222939Y0064509D01*
X0222939Y0074091D01*
X0221600Y0075430D01*
X0221600Y0110670D01*
X0222939Y0112009D01*
X0222939Y0121591D01*
X0221591Y0122939D01*
X0212009Y0122939D01*
X0210661Y0121591D01*
X0210661Y0112009D01*
X0212000Y0110670D01*
X0212000Y0075430D01*
X0210661Y0074091D01*
X0211902Y0075332D02*
X0196800Y0075332D01*
X0196800Y0076930D02*
X0212000Y0076930D01*
X0212000Y0078529D02*
X0196800Y0078529D01*
X0196800Y0080127D02*
X0212000Y0080127D01*
X0212000Y0081726D02*
X0196800Y0081726D01*
X0196800Y0083324D02*
X0212000Y0083324D01*
X0212000Y0084923D02*
X0196800Y0084923D01*
X0196800Y0086521D02*
X0212000Y0086521D01*
X0212000Y0088120D02*
X0196800Y0088120D01*
X0196800Y0089718D02*
X0212000Y0089718D01*
X0212000Y0091317D02*
X0196800Y0091317D01*
X0196800Y0092915D02*
X0212000Y0092915D01*
X0212000Y0094514D02*
X0196800Y0094514D01*
X0196800Y0096112D02*
X0212000Y0096112D01*
X0212000Y0097711D02*
X0196800Y0097711D01*
X0196800Y0099309D02*
X0212000Y0099309D01*
X0212000Y0100908D02*
X0196800Y0100908D01*
X0196800Y0102506D02*
X0212000Y0102506D01*
X0212000Y0104105D02*
X0196800Y0104105D01*
X0196800Y0105703D02*
X0212000Y0105703D01*
X0212000Y0107302D02*
X0196800Y0107302D01*
X0196800Y0108900D02*
X0212000Y0108900D01*
X0212000Y0110499D02*
X0196800Y0110499D01*
X0196800Y0112097D02*
X0210661Y0112097D01*
X0210661Y0113696D02*
X0196800Y0113696D01*
X0196800Y0115294D02*
X0210661Y0115294D01*
X0210661Y0116893D02*
X0196800Y0116893D01*
X0196800Y0118491D02*
X0210661Y0118491D01*
X0210661Y0120090D02*
X0196800Y0120090D01*
X0196800Y0121688D02*
X0210759Y0121688D01*
X0222841Y0121688D02*
X0230759Y0121688D01*
X0230661Y0120090D02*
X0222939Y0120090D01*
X0222939Y0118491D02*
X0230661Y0118491D01*
X0230661Y0116893D02*
X0222939Y0116893D01*
X0222939Y0115294D02*
X0230661Y0115294D01*
X0230661Y0113696D02*
X0222939Y0113696D01*
X0222939Y0112097D02*
X0230661Y0112097D01*
X0232000Y0110499D02*
X0221600Y0110499D01*
X0221600Y0108900D02*
X0232000Y0108900D01*
X0232000Y0107302D02*
X0221600Y0107302D01*
X0221600Y0105703D02*
X0232000Y0105703D01*
X0232000Y0104105D02*
X0221600Y0104105D01*
X0221600Y0102506D02*
X0232000Y0102506D01*
X0232000Y0100908D02*
X0229905Y0100908D01*
X0228912Y0101900D02*
X0226800Y0101900D01*
X0226800Y0096800D01*
X0231900Y0096800D01*
X0231900Y0098912D01*
X0228912Y0101900D01*
X0226800Y0101900D02*
X0224688Y0101900D01*
X0221700Y0098912D01*
X0221700Y0096800D01*
X0226800Y0096800D01*
X0226800Y0096800D01*
X0226800Y0096800D01*
X0231900Y0096800D01*
X0231900Y0094688D01*
X0228912Y0091700D01*
X0226800Y0091700D01*
X0226800Y0096800D01*
X0226800Y0096800D01*
X0226800Y0096800D01*
X0226800Y0101900D01*
X0226800Y0100908D02*
X0226800Y0100908D01*
X0226800Y0099309D02*
X0226800Y0099309D01*
X0226800Y0097711D02*
X0226800Y0097711D01*
X0226800Y0096800D02*
X0221700Y0096800D01*
X0221700Y0094688D01*
X0224688Y0091700D01*
X0226800Y0091700D01*
X0226800Y0096800D01*
X0226800Y0096112D02*
X0226800Y0096112D01*
X0226800Y0094514D02*
X0226800Y0094514D01*
X0226800Y0092915D02*
X0226800Y0092915D01*
X0230128Y0092915D02*
X0232000Y0092915D01*
X0232000Y0091317D02*
X0221600Y0091317D01*
X0221600Y0092915D02*
X0223472Y0092915D01*
X0221874Y0094514D02*
X0221600Y0094514D01*
X0221600Y0096112D02*
X0221700Y0096112D01*
X0221700Y0097711D02*
X0221600Y0097711D01*
X0221600Y0099309D02*
X0222097Y0099309D01*
X0221600Y0100908D02*
X0223695Y0100908D01*
X0231503Y0099309D02*
X0232000Y0099309D01*
X0232000Y0097711D02*
X0231900Y0097711D01*
X0231900Y0096112D02*
X0232000Y0096112D01*
X0232000Y0094514D02*
X0231726Y0094514D01*
X0232000Y0089718D02*
X0221600Y0089718D01*
X0221600Y0088120D02*
X0232000Y0088120D01*
X0232000Y0086521D02*
X0221600Y0086521D01*
X0221600Y0084923D02*
X0232000Y0084923D01*
X0232000Y0083324D02*
X0221600Y0083324D01*
X0221600Y0081726D02*
X0232000Y0081726D01*
X0232000Y0080127D02*
X0221600Y0080127D01*
X0221600Y0078529D02*
X0232000Y0078529D01*
X0232000Y0076930D02*
X0221600Y0076930D01*
X0221698Y0075332D02*
X0231902Y0075332D01*
X0230661Y0073733D02*
X0222939Y0073733D01*
X0222939Y0072134D02*
X0230661Y0072134D01*
X0230661Y0070536D02*
X0222939Y0070536D01*
X0222939Y0068937D02*
X0230661Y0068937D01*
X0230661Y0067339D02*
X0222939Y0067339D01*
X0222939Y0065740D02*
X0230661Y0065740D01*
X0231028Y0064142D02*
X0222572Y0064142D01*
X0211028Y0064142D02*
X0196800Y0064142D01*
X0196800Y0065740D02*
X0210661Y0065740D01*
X0210661Y0067339D02*
X0196800Y0067339D01*
X0196800Y0068937D02*
X0210661Y0068937D01*
X0210661Y0070536D02*
X0196800Y0070536D01*
X0196800Y0072134D02*
X0210661Y0072134D01*
X0196800Y0062543D02*
X0262000Y0062543D01*
X0262000Y0060945D02*
X0196800Y0060945D01*
X0196800Y0059346D02*
X0262000Y0059346D01*
X0262000Y0057748D02*
X0196800Y0057748D01*
X0221631Y0054551D02*
X0016600Y0054551D01*
X0016600Y0056149D02*
X0223230Y0056149D01*
X0230370Y0056149D02*
X0262000Y0056149D01*
X0261631Y0054551D02*
X0231969Y0054551D01*
X0232400Y0052952D02*
X0261200Y0052952D01*
X0261200Y0051354D02*
X0232400Y0051354D01*
X0232400Y0049755D02*
X0261200Y0049755D01*
X0262524Y0048157D02*
X0231600Y0048157D01*
X0231600Y0046558D02*
X0260745Y0046558D01*
X0258172Y0044960D02*
X0231600Y0044960D01*
X0231600Y0043361D02*
X0257251Y0043361D01*
X0257000Y0041763D02*
X0231600Y0041763D01*
X0231600Y0040164D02*
X0257000Y0040164D01*
X0257000Y0038566D02*
X0255530Y0038566D01*
X0256639Y0036967D02*
X0256961Y0036967D01*
X0248070Y0038566D02*
X0231600Y0038566D01*
X0231600Y0036967D02*
X0246961Y0036967D01*
X0256273Y0025778D02*
X0257327Y0025778D01*
X0259106Y0024179D02*
X0254494Y0024179D01*
X0281600Y0028975D02*
X0282000Y0028975D01*
X0282000Y0030573D02*
X0281600Y0030573D01*
X0286600Y0030573D02*
X0298520Y0030573D01*
X0301706Y0028975D02*
X0286600Y0028975D01*
X0286384Y0027376D02*
X0303304Y0027376D01*
X0295323Y0032172D02*
X0286600Y0032172D01*
X0286600Y0033770D02*
X0293042Y0033770D01*
X0291443Y0035369D02*
X0286570Y0035369D01*
X0286083Y0036967D02*
X0289845Y0036967D01*
X0321518Y0052952D02*
X0365152Y0052952D01*
X0363995Y0054551D02*
X0320837Y0054551D01*
X0322008Y0051354D02*
X0329424Y0051354D01*
X0329770Y0051700D02*
X0326900Y0048830D01*
X0326900Y0044770D01*
X0329770Y0041900D01*
X0333830Y0041900D01*
X0336700Y0044770D01*
X0336700Y0048830D01*
X0333830Y0051700D01*
X0329770Y0051700D01*
X0327826Y0049755D02*
X0322541Y0049755D01*
X0323074Y0048157D02*
X0326900Y0048157D01*
X0326900Y0046558D02*
X0323607Y0046558D01*
X0324140Y0044960D02*
X0326900Y0044960D01*
X0328309Y0043361D02*
X0324673Y0043361D01*
X0325205Y0041763D02*
X0354975Y0041763D01*
X0353830Y0041900D02*
X0356700Y0044770D01*
X0356700Y0048830D01*
X0353830Y0051700D01*
X0349770Y0051700D01*
X0346900Y0048830D01*
X0346900Y0044770D01*
X0349770Y0041900D01*
X0353830Y0041900D01*
X0355291Y0043361D02*
X0356573Y0043361D01*
X0356700Y0044960D02*
X0357000Y0044960D01*
X0357000Y0046558D02*
X0356700Y0046558D01*
X0356700Y0048157D02*
X0357167Y0048157D01*
X0357967Y0049755D02*
X0355774Y0049755D01*
X0354176Y0051354D02*
X0360251Y0051354D01*
X0349424Y0051354D02*
X0334176Y0051354D01*
X0335774Y0049755D02*
X0347826Y0049755D01*
X0346900Y0048157D02*
X0336700Y0048157D01*
X0336700Y0046558D02*
X0346900Y0046558D01*
X0346900Y0044960D02*
X0336700Y0044960D01*
X0335291Y0043361D02*
X0348309Y0043361D01*
X0348422Y0057748D02*
X0335178Y0057748D01*
X0336587Y0059346D02*
X0347013Y0059346D01*
X0346400Y0060945D02*
X0337200Y0060945D01*
X0337200Y0062543D02*
X0346400Y0062543D01*
X0346966Y0064142D02*
X0336634Y0064142D01*
X0335289Y0065740D02*
X0348311Y0065740D01*
X0328750Y0076930D02*
X0321400Y0076930D01*
X0321400Y0078529D02*
X0327152Y0078529D01*
X0326200Y0080127D02*
X0319978Y0080127D01*
X0318938Y0081726D02*
X0326200Y0081726D01*
X0326200Y0083324D02*
X0320537Y0083324D01*
X0321900Y0084923D02*
X0327003Y0084923D01*
X0328602Y0086521D02*
X0321900Y0086521D01*
X0316800Y0080127D02*
X0316800Y0080127D01*
X0316800Y0078529D02*
X0316800Y0078529D01*
X0316800Y0076930D02*
X0316800Y0076930D01*
X0316800Y0075332D02*
X0316800Y0075332D01*
X0316800Y0073733D02*
X0316800Y0073733D01*
X0312200Y0078529D02*
X0241600Y0078529D01*
X0241600Y0080127D02*
X0313622Y0080127D01*
X0314662Y0081726D02*
X0299645Y0081726D01*
X0301244Y0083324D02*
X0313063Y0083324D01*
X0311700Y0084923D02*
X0302400Y0084923D01*
X0302400Y0086521D02*
X0311700Y0086521D01*
X0311700Y0088120D02*
X0302400Y0088120D01*
X0301801Y0089718D02*
X0304816Y0089718D01*
X0302754Y0091317D02*
X0300846Y0091317D01*
X0301572Y0092915D02*
X0302028Y0092915D01*
X0301900Y0094514D02*
X0301700Y0094514D01*
X0301700Y0096112D02*
X0301900Y0096112D01*
X0301900Y0097711D02*
X0301700Y0097711D01*
X0301700Y0099309D02*
X0301900Y0099309D01*
X0302121Y0100908D02*
X0301479Y0100908D01*
X0300623Y0102506D02*
X0302977Y0102506D01*
X0310623Y0102506D02*
X0313684Y0102506D01*
X0312663Y0100908D02*
X0311479Y0100908D01*
X0311700Y0099309D02*
X0312400Y0099309D01*
X0312400Y0097711D02*
X0311700Y0097711D01*
X0311700Y0096112D02*
X0312400Y0096112D01*
X0312400Y0094514D02*
X0311700Y0094514D01*
X0311572Y0092915D02*
X0312591Y0092915D01*
X0313461Y0091317D02*
X0310846Y0091317D01*
X0312506Y0089718D02*
X0308784Y0089718D01*
X0316800Y0097711D02*
X0316800Y0097711D01*
X0316800Y0099309D02*
X0316800Y0099309D01*
X0316800Y0100908D02*
X0316800Y0100908D01*
X0316800Y0102506D02*
X0316800Y0102506D01*
X0292977Y0102506D02*
X0290623Y0102506D01*
X0291479Y0100908D02*
X0292121Y0100908D01*
X0291900Y0099309D02*
X0291700Y0099309D01*
X0291700Y0097711D02*
X0291900Y0097711D01*
X0291900Y0096112D02*
X0291700Y0096112D01*
X0291700Y0094514D02*
X0291900Y0094514D01*
X0292028Y0092915D02*
X0291572Y0092915D01*
X0290846Y0091317D02*
X0292754Y0091317D01*
X0291799Y0089718D02*
X0288784Y0089718D01*
X0291200Y0088120D02*
X0241600Y0088120D01*
X0241600Y0089718D02*
X0254816Y0089718D01*
X0252754Y0091317D02*
X0249236Y0091317D01*
X0250835Y0092915D02*
X0252028Y0092915D01*
X0258784Y0089718D02*
X0264816Y0089718D01*
X0262754Y0091317D02*
X0260846Y0091317D01*
X0261572Y0092915D02*
X0262028Y0092915D01*
X0261900Y0094514D02*
X0261700Y0094514D01*
X0261700Y0096112D02*
X0261900Y0096112D01*
X0261900Y0097711D02*
X0261700Y0097711D01*
X0261700Y0099309D02*
X0261900Y0099309D01*
X0262121Y0100908D02*
X0261479Y0100908D01*
X0260623Y0102506D02*
X0262977Y0102506D01*
X0270623Y0102506D02*
X0272977Y0102506D01*
X0272121Y0100908D02*
X0271479Y0100908D01*
X0271700Y0099309D02*
X0271900Y0099309D01*
X0271900Y0097711D02*
X0271700Y0097711D01*
X0271700Y0096112D02*
X0271900Y0096112D01*
X0271900Y0094514D02*
X0271700Y0094514D01*
X0271572Y0092915D02*
X0272028Y0092915D01*
X0272754Y0091317D02*
X0270846Y0091317D01*
X0268784Y0089718D02*
X0274816Y0089718D01*
X0278784Y0089718D02*
X0284816Y0089718D01*
X0282754Y0091317D02*
X0280846Y0091317D01*
X0281572Y0092915D02*
X0282028Y0092915D01*
X0281900Y0094514D02*
X0281700Y0094514D01*
X0281700Y0096112D02*
X0281900Y0096112D01*
X0281900Y0097711D02*
X0281700Y0097711D01*
X0281700Y0099309D02*
X0281900Y0099309D01*
X0282121Y0100908D02*
X0281479Y0100908D01*
X0280623Y0102506D02*
X0282977Y0102506D01*
X0291200Y0086521D02*
X0241600Y0086521D01*
X0241600Y0084923D02*
X0291200Y0084923D01*
X0292356Y0083324D02*
X0241600Y0083324D01*
X0241600Y0081726D02*
X0293955Y0081726D01*
X0277335Y0076930D02*
X0241600Y0076930D01*
X0241698Y0075332D02*
X0274836Y0075332D01*
X0273864Y0073733D02*
X0242939Y0073733D01*
X0242939Y0072134D02*
X0273500Y0072134D01*
X0273587Y0070536D02*
X0242939Y0070536D01*
X0242939Y0068937D02*
X0274249Y0068937D01*
X0275766Y0067339D02*
X0242939Y0067339D01*
X0242939Y0065740D02*
X0263952Y0065740D01*
X0262575Y0064142D02*
X0242572Y0064142D01*
X0241600Y0091317D02*
X0244364Y0091317D01*
X0242765Y0092915D02*
X0241600Y0092915D01*
X0241600Y0100908D02*
X0242988Y0100908D01*
X0241600Y0102506D02*
X0252977Y0102506D01*
X0252121Y0100908D02*
X0250612Y0100908D01*
X0241600Y0107302D02*
X0405701Y0107302D01*
X0405701Y0108900D02*
X0241600Y0108900D01*
X0241600Y0110499D02*
X0405701Y0110499D01*
X0405701Y0112097D02*
X0242939Y0112097D01*
X0242939Y0113696D02*
X0405701Y0113696D01*
X0405701Y0115294D02*
X0242939Y0115294D01*
X0242939Y0116893D02*
X0405701Y0116893D01*
X0405701Y0118491D02*
X0242939Y0118491D01*
X0242939Y0120090D02*
X0253981Y0120090D01*
X0254024Y0120046D02*
X0255825Y0119300D01*
X0257775Y0119300D01*
X0259576Y0120046D01*
X0260954Y0121424D01*
X0261700Y0123225D01*
X0261700Y0130375D01*
X0260954Y0132176D01*
X0259900Y0133230D01*
X0259900Y0133700D01*
X0264377Y0133700D01*
X0264024Y0133554D01*
X0262646Y0132176D01*
X0261900Y0130375D01*
X0261900Y0123225D01*
X0262646Y0121424D01*
X0264024Y0120046D01*
X0265825Y0119300D01*
X0267775Y0119300D01*
X0269576Y0120046D01*
X0270954Y0121424D01*
X0271700Y0123225D01*
X0271700Y0130375D01*
X0270954Y0132176D01*
X0269576Y0133554D01*
X0268320Y0134074D01*
X0268556Y0134172D01*
X0269428Y0135044D01*
X0269900Y0136183D01*
X0269900Y0143700D01*
X0274316Y0143700D01*
X0274172Y0143556D01*
X0273700Y0142417D01*
X0273700Y0133230D01*
X0272646Y0132176D01*
X0271900Y0130375D01*
X0271900Y0123225D01*
X0272646Y0121424D01*
X0274024Y0120046D01*
X0275825Y0119300D01*
X0277775Y0119300D01*
X0279576Y0120046D01*
X0280954Y0121424D01*
X0281700Y0123225D01*
X0281700Y0130375D01*
X0280954Y0132176D01*
X0279900Y0133230D01*
X0279900Y0138700D01*
X0294316Y0138700D01*
X0294172Y0138556D01*
X0293700Y0137417D01*
X0293700Y0133230D01*
X0292646Y0132176D01*
X0291900Y0130375D01*
X0291900Y0123225D01*
X0292646Y0121424D01*
X0294024Y0120046D01*
X0295825Y0119300D01*
X0297775Y0119300D01*
X0299576Y0120046D01*
X0300954Y0121424D01*
X0301700Y0123225D01*
X0301700Y0130375D01*
X0300954Y0132176D01*
X0299900Y0133230D01*
X0299900Y0133700D01*
X0304377Y0133700D01*
X0304024Y0133554D01*
X0302646Y0132176D01*
X0301900Y0130375D01*
X0301900Y0123225D01*
X0302646Y0121424D01*
X0304024Y0120046D01*
X0305825Y0119300D01*
X0307775Y0119300D01*
X0309576Y0120046D01*
X0310954Y0121424D01*
X0311700Y0123225D01*
X0311700Y0130375D01*
X0310954Y0132176D01*
X0309576Y0133554D01*
X0309223Y0133700D01*
X0314377Y0133700D01*
X0314024Y0133554D01*
X0312646Y0132176D01*
X0311900Y0130375D01*
X0311900Y0123225D01*
X0312646Y0121424D01*
X0314024Y0120046D01*
X0315825Y0119300D01*
X0317775Y0119300D01*
X0319576Y0120046D01*
X0320954Y0121424D01*
X0321700Y0123225D01*
X0321700Y0130375D01*
X0320954Y0132176D01*
X0319576Y0133554D01*
X0318320Y0134074D01*
X0318556Y0134172D01*
X0319428Y0135044D01*
X0319900Y0136183D01*
X0319900Y0153700D01*
X0332417Y0153700D01*
X0333556Y0154172D01*
X0334428Y0155044D01*
X0334900Y0156183D01*
X0334900Y0168700D01*
X0342417Y0168700D01*
X0343556Y0169172D01*
X0344428Y0170044D01*
X0344900Y0171183D01*
X0344900Y0197970D01*
X0346700Y0199770D01*
X0346700Y0203830D01*
X0343830Y0206700D01*
X0339770Y0206700D01*
X0336900Y0203830D01*
X0336900Y0199770D01*
X0338700Y0197970D01*
X0338700Y0174900D01*
X0331183Y0174900D01*
X0330044Y0174428D01*
X0329172Y0173556D01*
X0328700Y0172417D01*
X0328700Y0159900D01*
X0316183Y0159900D01*
X0315044Y0159428D01*
X0314900Y0159284D01*
X0314900Y0176200D01*
X0322417Y0176200D01*
X0323556Y0176672D01*
X0324428Y0177544D01*
X0324900Y0178683D01*
X0324900Y0197970D01*
X0326700Y0199770D01*
X0326700Y0203830D01*
X0323830Y0206700D01*
X0319770Y0206700D01*
X0316900Y0203830D01*
X0316900Y0199770D01*
X0318700Y0197970D01*
X0318700Y0182400D01*
X0311183Y0182400D01*
X0310044Y0181928D01*
X0309172Y0181056D01*
X0308700Y0179917D01*
X0308700Y0144900D01*
X0304284Y0144900D01*
X0304428Y0145044D01*
X0304900Y0146183D01*
X0304900Y0197970D01*
X0306700Y0199770D01*
X0306700Y0203830D01*
X0303830Y0206700D01*
X0299770Y0206700D01*
X0296900Y0203830D01*
X0296900Y0199770D01*
X0298700Y0197970D01*
X0298700Y0149900D01*
X0266183Y0149900D01*
X0265044Y0149428D01*
X0264172Y0148556D01*
X0263700Y0147417D01*
X0263700Y0139900D01*
X0256183Y0139900D01*
X0255044Y0139428D01*
X0254172Y0138556D01*
X0253700Y0137417D01*
X0253700Y0133230D01*
X0252646Y0132176D01*
X0251900Y0130375D01*
X0251900Y0123225D01*
X0252646Y0121424D01*
X0254024Y0120046D01*
X0252537Y0121688D02*
X0242841Y0121688D01*
X0251900Y0123287D02*
X0196800Y0123287D01*
X0196800Y0124885D02*
X0251900Y0124885D01*
X0251900Y0126484D02*
X0196800Y0126484D01*
X0196800Y0128082D02*
X0251900Y0128082D01*
X0251900Y0129681D02*
X0196800Y0129681D01*
X0196800Y0131279D02*
X0252275Y0131279D01*
X0253348Y0132878D02*
X0226800Y0132878D01*
X0226800Y0134476D02*
X0240707Y0134476D01*
X0240830Y0134425D02*
X0242770Y0134425D01*
X0244561Y0135167D01*
X0245933Y0136539D01*
X0246675Y0138330D01*
X0246675Y0140270D01*
X0245933Y0142061D01*
X0244561Y0143433D01*
X0242770Y0144175D01*
X0240830Y0144175D01*
X0239039Y0143433D01*
X0237667Y0142061D01*
X0236925Y0140270D01*
X0236925Y0138330D01*
X0237667Y0136539D01*
X0239039Y0135167D01*
X0240830Y0134425D01*
X0242893Y0134476D02*
X0253700Y0134476D01*
X0253700Y0136075D02*
X0245469Y0136075D01*
X0246403Y0137673D02*
X0253806Y0137673D01*
X0254888Y0139272D02*
X0246675Y0139272D01*
X0246426Y0140870D02*
X0263700Y0140870D01*
X0263700Y0142469D02*
X0245525Y0142469D01*
X0243029Y0144068D02*
X0263700Y0144068D01*
X0263700Y0145666D02*
X0226800Y0145666D01*
X0226800Y0144068D02*
X0240571Y0144068D01*
X0238075Y0142469D02*
X0234818Y0142469D01*
X0234650Y0142637D02*
X0234093Y0143042D01*
X0233479Y0143354D01*
X0232824Y0143567D01*
X0232144Y0143675D01*
X0231800Y0143675D01*
X0231800Y0139300D01*
X0236175Y0139300D01*
X0236175Y0139644D01*
X0236067Y0140324D01*
X0235854Y0140979D01*
X0235542Y0141593D01*
X0235137Y0142150D01*
X0234650Y0142637D01*
X0235890Y0140870D02*
X0237174Y0140870D01*
X0236925Y0139272D02*
X0236175Y0139272D01*
X0236175Y0139300D02*
X0231800Y0139300D01*
X0231800Y0139300D01*
X0231800Y0139300D01*
X0231800Y0134925D01*
X0232144Y0134925D01*
X0232824Y0135033D01*
X0233479Y0135246D01*
X0234093Y0135558D01*
X0234650Y0135963D01*
X0235137Y0136450D01*
X0235542Y0137007D01*
X0235854Y0137621D01*
X0236067Y0138276D01*
X0236175Y0138956D01*
X0236175Y0139300D01*
X0235871Y0137673D02*
X0237197Y0137673D01*
X0238131Y0136075D02*
X0234762Y0136075D01*
X0231800Y0136075D02*
X0231800Y0136075D01*
X0231800Y0134925D02*
X0231800Y0139300D01*
X0231800Y0139300D01*
X0231800Y0139300D01*
X0227425Y0139300D01*
X0227425Y0139644D01*
X0227533Y0140324D01*
X0227746Y0140979D01*
X0228058Y0141593D01*
X0228463Y0142150D01*
X0228950Y0142637D01*
X0229507Y0143042D01*
X0230121Y0143354D01*
X0230776Y0143567D01*
X0231456Y0143675D01*
X0231800Y0143675D01*
X0231800Y0139300D01*
X0227425Y0139300D01*
X0227425Y0138956D01*
X0227533Y0138276D01*
X0227746Y0137621D01*
X0228058Y0137007D01*
X0228463Y0136450D01*
X0228950Y0135963D01*
X0229507Y0135558D01*
X0230121Y0135246D01*
X0230776Y0135033D01*
X0231456Y0134925D01*
X0231800Y0134925D01*
X0231800Y0137673D02*
X0231800Y0137673D01*
X0231800Y0139272D02*
X0231800Y0139272D01*
X0231800Y0140870D02*
X0231800Y0140870D01*
X0231800Y0142469D02*
X0231800Y0142469D01*
X0228782Y0142469D02*
X0226800Y0142469D01*
X0226800Y0140870D02*
X0227710Y0140870D01*
X0227425Y0139272D02*
X0226800Y0139272D01*
X0226800Y0137673D02*
X0227729Y0137673D01*
X0226800Y0136075D02*
X0228838Y0136075D01*
X0220571Y0144068D02*
X0098336Y0144068D01*
X0100661Y0142469D02*
X0208782Y0142469D01*
X0207710Y0140870D02*
X0101495Y0140870D01*
X0101700Y0139272D02*
X0207425Y0139272D01*
X0207729Y0137673D02*
X0101700Y0137673D01*
X0101700Y0136075D02*
X0191800Y0136075D01*
X0191800Y0134476D02*
X0101700Y0134476D01*
X0101556Y0132878D02*
X0191800Y0132878D01*
X0191800Y0131279D02*
X0100809Y0131279D01*
X0092791Y0131279D02*
X0090809Y0131279D01*
X0091556Y0132878D02*
X0092044Y0132878D01*
X0091900Y0134476D02*
X0091700Y0134476D01*
X0091700Y0136075D02*
X0091900Y0136075D01*
X0091900Y0137673D02*
X0091700Y0137673D01*
X0091700Y0139272D02*
X0091900Y0139272D01*
X0092105Y0140870D02*
X0091495Y0140870D01*
X0090661Y0142469D02*
X0092939Y0142469D01*
X0095264Y0144068D02*
X0089900Y0144068D01*
X0089900Y0145666D02*
X0221800Y0145666D01*
X0221800Y0147265D02*
X0089900Y0147265D01*
X0089900Y0148863D02*
X0221800Y0148863D01*
X0221800Y0150462D02*
X0089900Y0150462D01*
X0089900Y0152060D02*
X0221800Y0152060D01*
X0221800Y0153659D02*
X0089900Y0153659D01*
X0089900Y0155257D02*
X0169240Y0155257D01*
X0166810Y0156856D02*
X0089900Y0156856D01*
X0089900Y0158454D02*
X0165583Y0158454D01*
X0164921Y0160053D02*
X0119432Y0160053D01*
X0119900Y0161651D02*
X0164776Y0161651D01*
X0164797Y0163250D02*
X0119900Y0163250D01*
X0119900Y0164848D02*
X0165459Y0164848D01*
X0166513Y0166447D02*
X0119900Y0166447D01*
X0119900Y0168045D02*
X0168522Y0168045D01*
X0175078Y0168045D02*
X0183700Y0168045D01*
X0183183Y0166447D02*
X0177087Y0166447D01*
X0178141Y0164848D02*
X0181738Y0164848D01*
X0181076Y0163250D02*
X0178803Y0163250D01*
X0178824Y0161651D02*
X0180957Y0161651D01*
X0181199Y0160053D02*
X0178679Y0160053D01*
X0178017Y0158454D02*
X0181882Y0158454D01*
X0183481Y0156856D02*
X0176790Y0156856D01*
X0174360Y0155257D02*
X0199240Y0155257D01*
X0200403Y0154776D02*
X0197821Y0155845D01*
X0195845Y0157821D01*
X0194776Y0160403D01*
X0194776Y0163197D01*
X0195845Y0165779D01*
X0197821Y0167755D01*
X0200403Y0168824D01*
X0203197Y0168824D01*
X0205779Y0167755D01*
X0207755Y0165779D01*
X0208824Y0163197D01*
X0208824Y0160403D01*
X0207755Y0157821D01*
X0205779Y0155845D01*
X0203197Y0154776D01*
X0200403Y0154776D01*
X0204360Y0155257D02*
X0221800Y0155257D01*
X0221800Y0156856D02*
X0206790Y0156856D01*
X0208017Y0158454D02*
X0221800Y0158454D01*
X0221800Y0160053D02*
X0208679Y0160053D01*
X0208824Y0161651D02*
X0221800Y0161651D01*
X0221800Y0163250D02*
X0208803Y0163250D01*
X0208141Y0164848D02*
X0221800Y0164848D01*
X0221800Y0166447D02*
X0207087Y0166447D01*
X0205078Y0168045D02*
X0221800Y0168045D01*
X0221800Y0169644D02*
X0189900Y0169644D01*
X0189900Y0171242D02*
X0221800Y0171242D01*
X0221800Y0172841D02*
X0189724Y0172841D01*
X0188529Y0174439D02*
X0221800Y0174439D01*
X0221800Y0176038D02*
X0188158Y0176038D01*
X0187962Y0175957D02*
X0190110Y0176846D01*
X0191754Y0178490D01*
X0192643Y0180638D01*
X0192643Y0182962D01*
X0191754Y0185110D01*
X0190110Y0186754D01*
X0187962Y0187643D01*
X0185638Y0187643D01*
X0183490Y0186754D01*
X0181846Y0185110D01*
X0180957Y0182962D01*
X0180957Y0180638D01*
X0181846Y0178490D01*
X0183490Y0176846D01*
X0185638Y0175957D01*
X0187962Y0175957D01*
X0185442Y0176038D02*
X0106324Y0176038D01*
X0106324Y0175403D02*
X0105255Y0172821D01*
X0103279Y0170845D01*
X0100697Y0169776D01*
X0097903Y0169776D01*
X0095321Y0170845D01*
X0093345Y0172821D01*
X0092276Y0175403D01*
X0092276Y0178197D01*
X0093345Y0180779D01*
X0095321Y0182755D01*
X0097903Y0183824D01*
X0100697Y0183824D01*
X0103279Y0182755D01*
X0105255Y0180779D01*
X0106324Y0178197D01*
X0106324Y0175403D01*
X0105925Y0174439D02*
X0115071Y0174439D01*
X0113876Y0172841D02*
X0105263Y0172841D01*
X0103676Y0171242D02*
X0113700Y0171242D01*
X0113700Y0169644D02*
X0016600Y0169644D01*
X0016600Y0171242D02*
X0094924Y0171242D01*
X0093337Y0172841D02*
X0072062Y0172841D01*
X0073279Y0173345D02*
X0075255Y0175321D01*
X0076324Y0177903D01*
X0076324Y0180697D01*
X0075255Y0183279D01*
X0073279Y0185255D01*
X0070697Y0186324D01*
X0067903Y0186324D01*
X0065321Y0185255D01*
X0063345Y0183279D01*
X0062276Y0180697D01*
X0062276Y0177903D01*
X0063345Y0175321D01*
X0065321Y0173345D01*
X0067903Y0172276D01*
X0070697Y0172276D01*
X0073279Y0173345D01*
X0074373Y0174439D02*
X0092675Y0174439D01*
X0092276Y0176038D02*
X0075552Y0176038D01*
X0076214Y0177636D02*
X0092276Y0177636D01*
X0092705Y0179235D02*
X0076324Y0179235D01*
X0076268Y0180833D02*
X0093399Y0180833D01*
X0094998Y0182432D02*
X0075606Y0182432D01*
X0074504Y0184030D02*
X0181399Y0184030D01*
X0180957Y0182432D02*
X0103602Y0182432D01*
X0105201Y0180833D02*
X0180957Y0180833D01*
X0181538Y0179235D02*
X0105895Y0179235D01*
X0106324Y0177636D02*
X0182700Y0177636D01*
X0186800Y0171800D02*
X0116800Y0171800D01*
X0116800Y0161800D01*
X0086800Y0161800D01*
X0086800Y0136800D01*
X0081900Y0136075D02*
X0081700Y0136075D01*
X0081700Y0137673D02*
X0081900Y0137673D01*
X0081900Y0139272D02*
X0081700Y0139272D01*
X0081495Y0140870D02*
X0082105Y0140870D01*
X0082939Y0142469D02*
X0080661Y0142469D01*
X0078336Y0144068D02*
X0083700Y0144068D01*
X0083700Y0145666D02*
X0037646Y0145666D01*
X0036412Y0146900D02*
X0034300Y0146900D01*
X0034300Y0141800D01*
X0034300Y0141800D01*
X0039400Y0141800D01*
X0039400Y0143912D01*
X0036412Y0146900D01*
X0034300Y0146900D02*
X0032188Y0146900D01*
X0029200Y0143912D01*
X0029200Y0141800D01*
X0034300Y0141800D01*
X0034300Y0141800D01*
X0034300Y0141800D01*
X0034300Y0146900D01*
X0034300Y0145666D02*
X0034300Y0145666D01*
X0034300Y0144068D02*
X0034300Y0144068D01*
X0034300Y0142469D02*
X0034300Y0142469D01*
X0034300Y0141800D02*
X0029200Y0141800D01*
X0029200Y0139688D01*
X0032188Y0136700D01*
X0034300Y0136700D01*
X0036412Y0136700D01*
X0039400Y0139688D01*
X0039400Y0141800D01*
X0034300Y0141800D01*
X0034300Y0136700D01*
X0034300Y0141800D01*
X0034300Y0141800D01*
X0034300Y0140870D02*
X0034300Y0140870D01*
X0034300Y0139272D02*
X0034300Y0139272D01*
X0034300Y0137673D02*
X0034300Y0137673D01*
X0037386Y0137673D02*
X0044200Y0137673D01*
X0044200Y0138912D02*
X0044200Y0134688D01*
X0047188Y0131700D01*
X0051412Y0131700D01*
X0054400Y0134688D01*
X0054400Y0138912D01*
X0051412Y0141900D01*
X0047188Y0141900D01*
X0044200Y0138912D01*
X0044559Y0139272D02*
X0038984Y0139272D01*
X0039400Y0140870D02*
X0046158Y0140870D01*
X0052442Y0140870D02*
X0056865Y0140870D01*
X0057395Y0141400D02*
X0054700Y0138705D01*
X0054700Y0136800D01*
X0059300Y0136800D01*
X0059300Y0136800D01*
X0059300Y0136800D01*
X0059300Y0141400D01*
X0057395Y0141400D01*
X0059300Y0140870D02*
X0059300Y0140870D01*
X0059300Y0139272D02*
X0059300Y0139272D01*
X0059300Y0137673D02*
X0059300Y0137673D01*
X0059300Y0136800D02*
X0054700Y0136800D01*
X0054700Y0134895D01*
X0057395Y0132200D01*
X0059300Y0132200D01*
X0059300Y0136800D01*
X0059300Y0136075D02*
X0059300Y0136075D01*
X0059300Y0134476D02*
X0059300Y0134476D01*
X0059300Y0132878D02*
X0059300Y0132878D01*
X0061883Y0132878D02*
X0062603Y0132878D01*
X0063498Y0131279D02*
X0016600Y0131279D01*
X0016600Y0129681D02*
X0065654Y0129681D01*
X0063976Y0128082D02*
X0016600Y0128082D01*
X0016600Y0126484D02*
X0031064Y0126484D01*
X0031980Y0127400D02*
X0028700Y0124120D01*
X0028700Y0119480D01*
X0031980Y0116200D01*
X0036620Y0116200D01*
X0039900Y0119480D01*
X0039900Y0124120D01*
X0036620Y0127400D01*
X0031980Y0127400D01*
X0029466Y0124885D02*
X0016600Y0124885D01*
X0016600Y0123287D02*
X0028700Y0123287D01*
X0028700Y0121688D02*
X0016600Y0121688D01*
X0016600Y0120090D02*
X0028700Y0120090D01*
X0029689Y0118491D02*
X0016600Y0118491D01*
X0016600Y0116893D02*
X0031288Y0116893D01*
X0037312Y0116893D02*
X0063700Y0116893D01*
X0063700Y0118491D02*
X0038911Y0118491D01*
X0039900Y0120090D02*
X0063700Y0120090D01*
X0063700Y0121688D02*
X0039900Y0121688D01*
X0039900Y0123287D02*
X0063700Y0123287D01*
X0063700Y0124885D02*
X0039134Y0124885D01*
X0037536Y0126484D02*
X0063700Y0126484D01*
X0066800Y0126800D02*
X0066800Y0106800D01*
X0061900Y0107302D02*
X0016600Y0107302D01*
X0016600Y0108900D02*
X0061900Y0108900D01*
X0061951Y0110499D02*
X0016600Y0110499D01*
X0016600Y0112097D02*
X0062614Y0112097D01*
X0063700Y0113696D02*
X0016600Y0113696D01*
X0016600Y0115294D02*
X0063700Y0115294D01*
X0069900Y0115294D02*
X0157375Y0115294D01*
X0156200Y0113696D02*
X0099233Y0113696D01*
X0100986Y0112097D02*
X0156200Y0112097D01*
X0156200Y0110499D02*
X0101649Y0110499D01*
X0101700Y0108900D02*
X0156780Y0108900D01*
X0158379Y0107302D02*
X0101700Y0107302D01*
X0091900Y0107302D02*
X0091700Y0107302D01*
X0091700Y0108900D02*
X0091900Y0108900D01*
X0091951Y0110499D02*
X0091649Y0110499D01*
X0090986Y0112097D02*
X0092614Y0112097D01*
X0094367Y0113696D02*
X0089233Y0113696D01*
X0084367Y0113696D02*
X0079233Y0113696D01*
X0080986Y0112097D02*
X0082614Y0112097D01*
X0081951Y0110499D02*
X0081649Y0110499D01*
X0081700Y0108900D02*
X0081900Y0108900D01*
X0081900Y0107302D02*
X0081700Y0107302D01*
X0081700Y0105703D02*
X0081900Y0105703D01*
X0081900Y0104105D02*
X0081700Y0104105D01*
X0081402Y0102506D02*
X0082198Y0102506D01*
X0083163Y0100908D02*
X0080437Y0100908D01*
X0073163Y0100908D02*
X0070437Y0100908D01*
X0071402Y0102506D02*
X0072198Y0102506D01*
X0071900Y0104105D02*
X0071700Y0104105D01*
X0071700Y0105703D02*
X0071900Y0105703D01*
X0071900Y0107302D02*
X0071700Y0107302D01*
X0071700Y0108900D02*
X0071900Y0108900D01*
X0071951Y0110499D02*
X0071649Y0110499D01*
X0070986Y0112097D02*
X0072614Y0112097D01*
X0074367Y0113696D02*
X0069900Y0113696D01*
X0069900Y0116893D02*
X0158700Y0116893D01*
X0158700Y0118491D02*
X0069900Y0118491D01*
X0069900Y0120090D02*
X0158700Y0120090D01*
X0158700Y0121688D02*
X0069900Y0121688D01*
X0069900Y0123287D02*
X0158700Y0123287D01*
X0164900Y0123287D02*
X0171700Y0123287D01*
X0171700Y0123912D02*
X0171700Y0121800D01*
X0176800Y0121800D01*
X0176800Y0121800D01*
X0176800Y0126900D01*
X0178912Y0126900D01*
X0181900Y0123912D01*
X0181900Y0121800D01*
X0176800Y0121800D01*
X0176800Y0121800D01*
X0176800Y0121800D01*
X0176800Y0126900D01*
X0174688Y0126900D01*
X0171700Y0123912D01*
X0172673Y0124885D02*
X0164900Y0124885D01*
X0164900Y0126484D02*
X0174271Y0126484D01*
X0176800Y0126484D02*
X0176800Y0126484D01*
X0176800Y0124885D02*
X0176800Y0124885D01*
X0176800Y0123287D02*
X0176800Y0123287D01*
X0176800Y0121800D02*
X0171700Y0121800D01*
X0171700Y0119688D01*
X0174688Y0116700D01*
X0176800Y0116700D01*
X0178912Y0116700D01*
X0181900Y0119688D01*
X0181900Y0121800D01*
X0176800Y0121800D01*
X0176800Y0116700D01*
X0176800Y0121800D01*
X0176800Y0121800D01*
X0176800Y0121688D02*
X0176800Y0121688D01*
X0176800Y0120090D02*
X0176800Y0120090D01*
X0176800Y0118491D02*
X0176800Y0118491D01*
X0176800Y0116893D02*
X0176800Y0116893D01*
X0179105Y0116893D02*
X0191800Y0116893D01*
X0191800Y0118491D02*
X0180704Y0118491D01*
X0181900Y0120090D02*
X0191800Y0120090D01*
X0191800Y0121688D02*
X0181900Y0121688D01*
X0181900Y0123287D02*
X0191800Y0123287D01*
X0191800Y0124885D02*
X0180927Y0124885D01*
X0179329Y0126484D02*
X0191800Y0126484D01*
X0191800Y0128082D02*
X0164624Y0128082D01*
X0162946Y0129681D02*
X0191800Y0129681D01*
X0171700Y0121688D02*
X0164900Y0121688D01*
X0164900Y0120090D02*
X0171700Y0120090D01*
X0172896Y0118491D02*
X0164900Y0118491D01*
X0164900Y0116893D02*
X0174495Y0116893D01*
X0167400Y0113696D02*
X0191800Y0113696D01*
X0191800Y0115294D02*
X0166225Y0115294D01*
X0167400Y0112097D02*
X0191800Y0112097D01*
X0191800Y0110499D02*
X0167400Y0110499D01*
X0161800Y0111800D02*
X0161800Y0126800D01*
X0066800Y0126800D01*
X0070102Y0131279D02*
X0072791Y0131279D01*
X0072044Y0132878D02*
X0070997Y0132878D01*
X0071200Y0134476D02*
X0071900Y0134476D01*
X0071900Y0136075D02*
X0071200Y0136075D01*
X0071200Y0137673D02*
X0071900Y0137673D01*
X0071900Y0139272D02*
X0071200Y0139272D01*
X0070949Y0140870D02*
X0072105Y0140870D01*
X0072939Y0142469D02*
X0069954Y0142469D01*
X0066800Y0142469D02*
X0066800Y0142469D01*
X0066800Y0140870D02*
X0066800Y0140870D01*
X0066800Y0139272D02*
X0066800Y0139272D01*
X0066800Y0137673D02*
X0066800Y0137673D01*
X0062651Y0140870D02*
X0061735Y0140870D01*
X0063646Y0142469D02*
X0039400Y0142469D01*
X0039245Y0144068D02*
X0075264Y0144068D01*
X0083700Y0147265D02*
X0016600Y0147265D01*
X0016600Y0148863D02*
X0083700Y0148863D01*
X0083700Y0150462D02*
X0016600Y0150462D01*
X0016600Y0152060D02*
X0083700Y0152060D01*
X0083700Y0153659D02*
X0016600Y0153659D01*
X0016600Y0155257D02*
X0083700Y0155257D01*
X0080961Y0156856D02*
X0016600Y0156856D01*
X0016600Y0158454D02*
X0079363Y0158454D01*
X0078691Y0160053D02*
X0016600Y0160053D01*
X0016600Y0161651D02*
X0078457Y0161651D01*
X0078584Y0163250D02*
X0016600Y0163250D01*
X0016600Y0164848D02*
X0079246Y0164848D01*
X0080703Y0166447D02*
X0016600Y0166447D01*
X0016600Y0168045D02*
X0113700Y0168045D01*
X0113700Y0166447D02*
X0087897Y0166447D01*
X0086800Y0161800D02*
X0084300Y0161800D01*
X0066538Y0172841D02*
X0016600Y0172841D01*
X0016600Y0174439D02*
X0064227Y0174439D01*
X0063048Y0176038D02*
X0016600Y0176038D01*
X0016600Y0177636D02*
X0062386Y0177636D01*
X0062276Y0179235D02*
X0016600Y0179235D01*
X0016600Y0180833D02*
X0062332Y0180833D01*
X0062994Y0182432D02*
X0016600Y0182432D01*
X0016600Y0184030D02*
X0064096Y0184030D01*
X0066223Y0185629D02*
X0016600Y0185629D01*
X0016600Y0187227D02*
X0095602Y0187227D01*
X0094797Y0187561D02*
X0097719Y0186350D01*
X0100881Y0186350D01*
X0103803Y0187561D01*
X0106039Y0189797D01*
X0107250Y0192719D01*
X0107250Y0195881D01*
X0106039Y0198803D01*
X0103803Y0201039D01*
X0100881Y0202250D01*
X0097719Y0202250D01*
X0094797Y0201039D01*
X0092561Y0198803D01*
X0091350Y0195881D01*
X0091350Y0192719D01*
X0092561Y0189797D01*
X0094797Y0187561D01*
X0093532Y0188826D02*
X0016600Y0188826D01*
X0016600Y0190424D02*
X0092301Y0190424D01*
X0091639Y0192023D02*
X0016600Y0192023D01*
X0016600Y0193621D02*
X0091350Y0193621D01*
X0091350Y0195220D02*
X0016600Y0195220D01*
X0016600Y0196818D02*
X0048625Y0196818D01*
X0048510Y0196866D02*
X0050657Y0195976D01*
X0052982Y0195976D01*
X0055130Y0196866D01*
X0056773Y0198510D01*
X0057663Y0200657D01*
X0057663Y0202982D01*
X0056773Y0205130D01*
X0055130Y0206773D01*
X0052982Y0207663D01*
X0050657Y0207663D01*
X0048510Y0206773D01*
X0046866Y0205130D01*
X0045976Y0202982D01*
X0045976Y0200657D01*
X0046866Y0198510D01*
X0048510Y0196866D01*
X0046959Y0198417D02*
X0016600Y0198417D01*
X0016600Y0200015D02*
X0046242Y0200015D01*
X0045976Y0201614D02*
X0016600Y0201614D01*
X0016600Y0203212D02*
X0046072Y0203212D01*
X0046734Y0204811D02*
X0016600Y0204811D01*
X0016600Y0206409D02*
X0020076Y0206409D01*
X0023524Y0206409D02*
X0048146Y0206409D01*
X0055494Y0206409D02*
X0067576Y0206409D01*
X0071024Y0206409D02*
X0221800Y0206409D01*
X0221800Y0204811D02*
X0056905Y0204811D01*
X0057568Y0203212D02*
X0196970Y0203212D01*
X0197297Y0203539D02*
X0195061Y0201303D01*
X0193850Y0198381D01*
X0193850Y0195219D01*
X0195061Y0192297D01*
X0197297Y0190061D01*
X0200219Y0188850D01*
X0203381Y0188850D01*
X0206303Y0190061D01*
X0208539Y0192297D01*
X0209750Y0195219D01*
X0209750Y0198381D01*
X0208539Y0201303D01*
X0206303Y0203539D01*
X0203381Y0204750D01*
X0200219Y0204750D01*
X0197297Y0203539D01*
X0195371Y0201614D02*
X0102416Y0201614D01*
X0104827Y0200015D02*
X0194527Y0200015D01*
X0193865Y0198417D02*
X0106199Y0198417D01*
X0106861Y0196818D02*
X0193850Y0196818D01*
X0193850Y0195220D02*
X0107250Y0195220D01*
X0107250Y0193621D02*
X0194512Y0193621D01*
X0195335Y0192023D02*
X0106961Y0192023D01*
X0106299Y0190424D02*
X0196933Y0190424D01*
X0191235Y0185629D02*
X0221800Y0185629D01*
X0221800Y0187227D02*
X0188967Y0187227D01*
X0184633Y0187227D02*
X0102998Y0187227D01*
X0105068Y0188826D02*
X0221800Y0188826D01*
X0221800Y0190424D02*
X0206667Y0190424D01*
X0208265Y0192023D02*
X0221800Y0192023D01*
X0221800Y0193621D02*
X0209088Y0193621D01*
X0209750Y0195220D02*
X0221800Y0195220D01*
X0221800Y0196818D02*
X0209750Y0196818D01*
X0209735Y0198417D02*
X0221800Y0198417D01*
X0221800Y0200015D02*
X0209073Y0200015D01*
X0208229Y0201614D02*
X0221800Y0201614D01*
X0221800Y0203212D02*
X0206630Y0203212D01*
X0221800Y0208008D02*
X0074250Y0208008D01*
X0075849Y0209606D02*
X0168393Y0209606D01*
X0166153Y0211205D02*
X0076623Y0211205D01*
X0077250Y0212803D02*
X0164851Y0212803D01*
X0164189Y0214402D02*
X0077250Y0214402D01*
X0077200Y0216001D02*
X0163850Y0216001D01*
X0175207Y0209606D02*
X0221800Y0209606D01*
X0221800Y0211205D02*
X0177447Y0211205D01*
X0178749Y0212803D02*
X0221800Y0212803D01*
X0221800Y0214402D02*
X0179411Y0214402D01*
X0179750Y0216001D02*
X0221800Y0216001D01*
X0226800Y0216001D02*
X0261062Y0216001D01*
X0259463Y0214402D02*
X0226800Y0214402D01*
X0226800Y0212803D02*
X0258226Y0212803D01*
X0257564Y0211205D02*
X0226800Y0211205D01*
X0226800Y0209606D02*
X0256988Y0209606D01*
X0256988Y0208008D02*
X0226800Y0208008D01*
X0226800Y0206409D02*
X0256988Y0206409D01*
X0257444Y0204811D02*
X0226800Y0204811D01*
X0226800Y0203212D02*
X0243352Y0203212D01*
X0242344Y0202795D02*
X0239584Y0200035D01*
X0238091Y0196429D01*
X0238091Y0192525D01*
X0239584Y0188919D01*
X0242344Y0186159D01*
X0245951Y0184665D01*
X0249854Y0184665D01*
X0253460Y0186159D01*
X0256220Y0188919D01*
X0257714Y0192525D01*
X0257714Y0196429D01*
X0256220Y0200035D01*
X0253460Y0202795D01*
X0249854Y0204289D01*
X0245951Y0204289D01*
X0242344Y0202795D01*
X0241163Y0201614D02*
X0226800Y0201614D01*
X0226800Y0200015D02*
X0239576Y0200015D01*
X0238914Y0198417D02*
X0226800Y0198417D01*
X0226800Y0196818D02*
X0238252Y0196818D01*
X0238091Y0195220D02*
X0226800Y0195220D01*
X0226800Y0193621D02*
X0238091Y0193621D01*
X0238299Y0192023D02*
X0226800Y0192023D01*
X0226800Y0190424D02*
X0238961Y0190424D01*
X0239678Y0188826D02*
X0226800Y0188826D01*
X0226800Y0187227D02*
X0241276Y0187227D01*
X0243625Y0185629D02*
X0226800Y0185629D01*
X0226800Y0184030D02*
X0266000Y0184030D01*
X0266000Y0184057D02*
X0266000Y0182457D01*
X0256727Y0182457D01*
X0256828Y0181562D01*
X0257080Y0180456D01*
X0257455Y0179386D01*
X0257947Y0178364D01*
X0258550Y0177403D01*
X0259258Y0176517D01*
X0260060Y0175714D01*
X0260947Y0175007D01*
X0261907Y0174404D01*
X0262929Y0173912D01*
X0264000Y0173537D01*
X0265106Y0173284D01*
X0266000Y0173184D01*
X0266000Y0182457D01*
X0267600Y0182457D01*
X0267600Y0184057D01*
X0266000Y0184057D01*
X0266000Y0193330D01*
X0265106Y0193229D01*
X0264000Y0192976D01*
X0262929Y0192602D01*
X0261907Y0192110D01*
X0260947Y0191506D01*
X0260060Y0190799D01*
X0259258Y0189997D01*
X0258550Y0189110D01*
X0257947Y0188150D01*
X0257455Y0187128D01*
X0257080Y0186057D01*
X0256828Y0184951D01*
X0256727Y0184057D01*
X0266000Y0184057D01*
X0266000Y0185629D02*
X0267600Y0185629D01*
X0267600Y0184057D02*
X0267600Y0193330D01*
X0268494Y0193229D01*
X0269600Y0192976D01*
X0270671Y0192602D01*
X0271693Y0192110D01*
X0272653Y0191506D01*
X0273540Y0190799D01*
X0274342Y0189997D01*
X0275049Y0189110D01*
X0275653Y0188150D01*
X0276145Y0187128D01*
X0276520Y0186057D01*
X0276772Y0184951D01*
X0276873Y0184057D01*
X0267600Y0184057D01*
X0267600Y0184030D02*
X0298700Y0184030D01*
X0298700Y0182432D02*
X0276870Y0182432D01*
X0276873Y0182457D02*
X0267600Y0182457D01*
X0267600Y0173184D01*
X0268494Y0173284D01*
X0269600Y0173537D01*
X0270671Y0173912D01*
X0271693Y0174404D01*
X0272653Y0175007D01*
X0273540Y0175714D01*
X0274342Y0176517D01*
X0275049Y0177403D01*
X0275653Y0178364D01*
X0276145Y0179386D01*
X0276520Y0180456D01*
X0276772Y0181562D01*
X0276873Y0182457D01*
X0276606Y0180833D02*
X0298700Y0180833D01*
X0298700Y0179235D02*
X0276072Y0179235D01*
X0275196Y0177636D02*
X0298700Y0177636D01*
X0298700Y0176038D02*
X0273863Y0176038D01*
X0271749Y0174439D02*
X0298700Y0174439D01*
X0298700Y0172841D02*
X0226800Y0172841D01*
X0226800Y0174439D02*
X0261851Y0174439D01*
X0259737Y0176038D02*
X0226800Y0176038D01*
X0226800Y0177636D02*
X0258404Y0177636D01*
X0257528Y0179235D02*
X0226800Y0179235D01*
X0226800Y0180833D02*
X0256994Y0180833D01*
X0256730Y0182432D02*
X0226800Y0182432D01*
X0221800Y0182432D02*
X0192643Y0182432D01*
X0192643Y0180833D02*
X0221800Y0180833D01*
X0221800Y0179235D02*
X0192062Y0179235D01*
X0190900Y0177636D02*
X0221800Y0177636D01*
X0226800Y0171242D02*
X0298700Y0171242D01*
X0298700Y0169644D02*
X0226800Y0169644D01*
X0226800Y0168045D02*
X0298700Y0168045D01*
X0298700Y0166447D02*
X0226800Y0166447D01*
X0226800Y0164848D02*
X0298700Y0164848D01*
X0298700Y0163250D02*
X0226800Y0163250D01*
X0226800Y0161651D02*
X0298700Y0161651D01*
X0298700Y0160053D02*
X0226800Y0160053D01*
X0226800Y0158454D02*
X0298700Y0158454D01*
X0298700Y0156856D02*
X0226800Y0156856D01*
X0226800Y0155257D02*
X0298700Y0155257D01*
X0298700Y0153659D02*
X0226800Y0153659D01*
X0226800Y0152060D02*
X0298700Y0152060D01*
X0298700Y0150462D02*
X0226800Y0150462D01*
X0226800Y0148863D02*
X0264479Y0148863D01*
X0263700Y0147265D02*
X0226800Y0147265D01*
X0218075Y0142469D02*
X0214818Y0142469D01*
X0215890Y0140870D02*
X0217174Y0140870D01*
X0216925Y0139272D02*
X0216175Y0139272D01*
X0215871Y0137673D02*
X0217197Y0137673D01*
X0211800Y0140870D02*
X0211800Y0140870D01*
X0211800Y0142469D02*
X0211800Y0142469D01*
X0196810Y0156856D02*
X0190119Y0156856D01*
X0191718Y0158454D02*
X0195583Y0158454D01*
X0194921Y0160053D02*
X0192401Y0160053D01*
X0192643Y0161651D02*
X0194776Y0161651D01*
X0194797Y0163250D02*
X0192524Y0163250D01*
X0191862Y0164848D02*
X0195459Y0164848D01*
X0196513Y0166447D02*
X0190417Y0166447D01*
X0189900Y0168045D02*
X0198522Y0168045D01*
X0186800Y0171800D02*
X0186800Y0161800D01*
X0192201Y0184030D02*
X0221800Y0184030D01*
X0252180Y0185629D02*
X0256982Y0185629D01*
X0257503Y0187227D02*
X0254528Y0187227D01*
X0256127Y0188826D02*
X0258372Y0188826D01*
X0259685Y0190424D02*
X0256844Y0190424D01*
X0257506Y0192023D02*
X0261769Y0192023D01*
X0266000Y0192023D02*
X0267600Y0192023D01*
X0267600Y0190424D02*
X0266000Y0190424D01*
X0266000Y0188826D02*
X0267600Y0188826D01*
X0267600Y0187227D02*
X0266000Y0187227D01*
X0266000Y0182432D02*
X0267600Y0182432D01*
X0267600Y0180833D02*
X0266000Y0180833D01*
X0266000Y0179235D02*
X0267600Y0179235D01*
X0267600Y0177636D02*
X0266000Y0177636D01*
X0266000Y0176038D02*
X0267600Y0176038D01*
X0267600Y0174439D02*
X0266000Y0174439D01*
X0276618Y0185629D02*
X0298700Y0185629D01*
X0298700Y0187227D02*
X0276097Y0187227D01*
X0275228Y0188826D02*
X0298700Y0188826D01*
X0298700Y0190424D02*
X0273915Y0190424D01*
X0271831Y0192023D02*
X0298700Y0192023D01*
X0298700Y0193621D02*
X0257714Y0193621D01*
X0257714Y0195220D02*
X0298700Y0195220D01*
X0298700Y0196818D02*
X0257553Y0196818D01*
X0256891Y0198417D02*
X0263965Y0198417D01*
X0260772Y0200015D02*
X0256229Y0200015D01*
X0254642Y0201614D02*
X0259173Y0201614D01*
X0258106Y0203212D02*
X0252453Y0203212D01*
X0269635Y0198417D02*
X0298253Y0198417D01*
X0296900Y0200015D02*
X0272828Y0200015D01*
X0274427Y0201614D02*
X0296900Y0201614D01*
X0296900Y0203212D02*
X0275494Y0203212D01*
X0276156Y0204811D02*
X0297881Y0204811D01*
X0299480Y0206409D02*
X0276612Y0206409D01*
X0276612Y0208008D02*
X0298662Y0208008D01*
X0299770Y0206900D02*
X0296900Y0209770D01*
X0296900Y0213830D01*
X0299770Y0216700D01*
X0303830Y0216700D01*
X0306700Y0213830D01*
X0306700Y0209770D01*
X0303830Y0206900D01*
X0299770Y0206900D01*
X0297064Y0209606D02*
X0276612Y0209606D01*
X0276036Y0211205D02*
X0296900Y0211205D01*
X0296900Y0212803D02*
X0275374Y0212803D01*
X0274137Y0214402D02*
X0297472Y0214402D01*
X0299071Y0216001D02*
X0272538Y0216001D01*
X0301800Y0201800D02*
X0301800Y0146800D01*
X0266800Y0146800D01*
X0266800Y0136800D01*
X0256800Y0136800D01*
X0256800Y0126800D01*
X0261700Y0126484D02*
X0261900Y0126484D01*
X0261900Y0128082D02*
X0261700Y0128082D01*
X0261700Y0129681D02*
X0261900Y0129681D01*
X0262275Y0131279D02*
X0261325Y0131279D01*
X0260252Y0132878D02*
X0263348Y0132878D01*
X0268860Y0134476D02*
X0273700Y0134476D01*
X0273700Y0136075D02*
X0269855Y0136075D01*
X0269900Y0137673D02*
X0273700Y0137673D01*
X0273700Y0139272D02*
X0269900Y0139272D01*
X0269900Y0140870D02*
X0273700Y0140870D01*
X0273722Y0142469D02*
X0269900Y0142469D01*
X0276800Y0141800D02*
X0311800Y0141800D01*
X0311800Y0179300D01*
X0321800Y0179300D01*
X0321800Y0201800D01*
X0316900Y0201614D02*
X0316700Y0201614D01*
X0316700Y0203212D02*
X0316900Y0203212D01*
X0316700Y0203830D02*
X0313830Y0206700D01*
X0309770Y0206700D01*
X0306900Y0203830D01*
X0306900Y0199770D01*
X0309770Y0196900D01*
X0313830Y0196900D01*
X0316700Y0199770D01*
X0316700Y0203830D01*
X0315719Y0204811D02*
X0317881Y0204811D01*
X0319480Y0206409D02*
X0314120Y0206409D01*
X0313830Y0206900D02*
X0309770Y0206900D01*
X0306900Y0209770D01*
X0306900Y0213830D01*
X0309770Y0216700D01*
X0313830Y0216700D01*
X0316700Y0213830D01*
X0316700Y0209770D01*
X0313830Y0206900D01*
X0314938Y0208008D02*
X0318662Y0208008D01*
X0319770Y0206900D02*
X0323830Y0206900D01*
X0326700Y0209770D01*
X0326700Y0213830D01*
X0323830Y0216700D01*
X0319770Y0216700D01*
X0316900Y0213830D01*
X0316900Y0209770D01*
X0319770Y0206900D01*
X0317064Y0209606D02*
X0316536Y0209606D01*
X0316700Y0211205D02*
X0316900Y0211205D01*
X0316900Y0212803D02*
X0316700Y0212803D01*
X0316128Y0214402D02*
X0317472Y0214402D01*
X0319071Y0216001D02*
X0314529Y0216001D01*
X0309071Y0216001D02*
X0304529Y0216001D01*
X0306128Y0214402D02*
X0307472Y0214402D01*
X0306900Y0212803D02*
X0306700Y0212803D01*
X0306700Y0211205D02*
X0306900Y0211205D01*
X0307064Y0209606D02*
X0306536Y0209606D01*
X0304938Y0208008D02*
X0308662Y0208008D01*
X0309480Y0206409D02*
X0304120Y0206409D01*
X0305719Y0204811D02*
X0307881Y0204811D01*
X0306900Y0203212D02*
X0306700Y0203212D01*
X0306700Y0201614D02*
X0306900Y0201614D01*
X0306900Y0200015D02*
X0306700Y0200015D01*
X0305347Y0198417D02*
X0308253Y0198417D01*
X0304900Y0196818D02*
X0318700Y0196818D01*
X0318700Y0195220D02*
X0304900Y0195220D01*
X0304900Y0193621D02*
X0318700Y0193621D01*
X0318700Y0192023D02*
X0304900Y0192023D01*
X0304900Y0190424D02*
X0318700Y0190424D01*
X0318700Y0188826D02*
X0304900Y0188826D01*
X0304900Y0187227D02*
X0318700Y0187227D01*
X0318700Y0185629D02*
X0304900Y0185629D01*
X0304900Y0184030D02*
X0318700Y0184030D01*
X0318700Y0182432D02*
X0304900Y0182432D01*
X0304900Y0180833D02*
X0309080Y0180833D01*
X0308700Y0179235D02*
X0304900Y0179235D01*
X0304900Y0177636D02*
X0308700Y0177636D01*
X0308700Y0176038D02*
X0304900Y0176038D01*
X0304900Y0174439D02*
X0308700Y0174439D01*
X0308700Y0172841D02*
X0304900Y0172841D01*
X0304900Y0171242D02*
X0308700Y0171242D01*
X0308700Y0169644D02*
X0304900Y0169644D01*
X0304900Y0168045D02*
X0308700Y0168045D01*
X0308700Y0166447D02*
X0304900Y0166447D01*
X0304900Y0164848D02*
X0308700Y0164848D01*
X0308700Y0163250D02*
X0304900Y0163250D01*
X0304900Y0161651D02*
X0308700Y0161651D01*
X0308700Y0160053D02*
X0304900Y0160053D01*
X0304900Y0158454D02*
X0308700Y0158454D01*
X0308700Y0156856D02*
X0304900Y0156856D01*
X0304900Y0155257D02*
X0308700Y0155257D01*
X0308700Y0153659D02*
X0304900Y0153659D01*
X0304900Y0152060D02*
X0308700Y0152060D01*
X0308700Y0150462D02*
X0304900Y0150462D01*
X0304900Y0148863D02*
X0308700Y0148863D01*
X0308700Y0147265D02*
X0304900Y0147265D01*
X0304686Y0145666D02*
X0308700Y0145666D01*
X0319900Y0145666D02*
X0321700Y0145666D01*
X0321700Y0144688D02*
X0324588Y0141800D01*
X0321700Y0138912D01*
X0321700Y0134688D01*
X0323429Y0132959D01*
X0322646Y0132176D01*
X0321900Y0130375D01*
X0321900Y0123225D01*
X0322646Y0121424D01*
X0324024Y0120046D01*
X0325825Y0119300D01*
X0327775Y0119300D01*
X0329576Y0120046D01*
X0330954Y0121424D01*
X0331700Y0123225D01*
X0331700Y0130375D01*
X0330954Y0132176D01*
X0330171Y0132959D01*
X0331900Y0134688D01*
X0331900Y0138912D01*
X0329012Y0141800D01*
X0331800Y0144588D01*
X0334688Y0141700D01*
X0338500Y0141700D01*
X0338500Y0141400D01*
X0336800Y0141400D01*
X0336800Y0136800D01*
X0341400Y0136800D01*
X0341400Y0137057D01*
X0342746Y0136500D01*
X0350854Y0136500D01*
X0352802Y0137307D01*
X0354293Y0138798D01*
X0355100Y0140746D01*
X0355100Y0142854D01*
X0354293Y0144802D01*
X0352802Y0146293D01*
X0350854Y0147100D01*
X0350809Y0147100D01*
X0350924Y0147118D01*
X0351643Y0147352D01*
X0352316Y0147695D01*
X0352927Y0148139D01*
X0353461Y0148673D01*
X0353905Y0149284D01*
X0354248Y0149957D01*
X0354482Y0150676D01*
X0354600Y0151422D01*
X0354600Y0151600D01*
X0347000Y0151600D01*
X0347000Y0152000D01*
X0354600Y0152000D01*
X0354600Y0152178D01*
X0354482Y0152924D01*
X0354248Y0153643D01*
X0353905Y0154316D01*
X0353461Y0154927D01*
X0352927Y0155461D01*
X0352316Y0155905D01*
X0351643Y0156248D01*
X0350924Y0156482D01*
X0350809Y0156500D01*
X0350854Y0156500D01*
X0352802Y0157307D01*
X0354293Y0158798D01*
X0355100Y0160746D01*
X0355100Y0162854D01*
X0354293Y0164802D01*
X0352802Y0166293D01*
X0350854Y0167100D01*
X0342746Y0167100D01*
X0340798Y0166293D01*
X0339307Y0164802D01*
X0338500Y0162854D01*
X0338500Y0160746D01*
X0339307Y0158798D01*
X0340798Y0157307D01*
X0342746Y0156500D01*
X0342791Y0156500D01*
X0342676Y0156482D01*
X0341957Y0156248D01*
X0341284Y0155905D01*
X0340673Y0155461D01*
X0340139Y0154927D01*
X0339695Y0154316D01*
X0339352Y0153643D01*
X0339118Y0152924D01*
X0339000Y0152178D01*
X0339000Y0152000D01*
X0346600Y0152000D01*
X0346600Y0151600D01*
X0339212Y0151600D01*
X0338912Y0151900D01*
X0334688Y0151900D01*
X0331800Y0149012D01*
X0328912Y0151900D01*
X0324688Y0151900D01*
X0321700Y0148912D01*
X0321700Y0144688D01*
X0322320Y0144068D02*
X0319900Y0144068D01*
X0319900Y0142469D02*
X0323919Y0142469D01*
X0323658Y0140870D02*
X0319900Y0140870D01*
X0319900Y0139272D02*
X0322059Y0139272D01*
X0321700Y0137673D02*
X0319900Y0137673D01*
X0319855Y0136075D02*
X0321700Y0136075D01*
X0321911Y0134476D02*
X0318860Y0134476D01*
X0320252Y0132878D02*
X0323348Y0132878D01*
X0322275Y0131279D02*
X0321325Y0131279D01*
X0321700Y0129681D02*
X0321900Y0129681D01*
X0321900Y0128082D02*
X0321700Y0128082D01*
X0321700Y0126484D02*
X0321900Y0126484D01*
X0321900Y0124885D02*
X0321700Y0124885D01*
X0321700Y0123287D02*
X0321900Y0123287D01*
X0322537Y0121688D02*
X0321063Y0121688D01*
X0319619Y0120090D02*
X0323981Y0120090D01*
X0329619Y0120090D02*
X0335211Y0120090D01*
X0335111Y0120122D02*
X0335770Y0119908D01*
X0336454Y0119800D01*
X0336800Y0119800D01*
X0337146Y0119800D01*
X0337830Y0119908D01*
X0338489Y0120122D01*
X0339106Y0120437D01*
X0339666Y0120844D01*
X0340156Y0121334D01*
X0340563Y0121894D01*
X0340878Y0122511D01*
X0341092Y0123170D01*
X0341200Y0123854D01*
X0341200Y0126800D01*
X0341200Y0129746D01*
X0341092Y0130430D01*
X0340878Y0131089D01*
X0340563Y0131706D01*
X0340156Y0132266D01*
X0339666Y0132756D01*
X0339432Y0132927D01*
X0341400Y0134895D01*
X0341400Y0136800D01*
X0336800Y0136800D01*
X0336800Y0136800D01*
X0336800Y0136800D01*
X0336800Y0136800D01*
X0332200Y0136800D01*
X0332200Y0138705D01*
X0334895Y0141400D01*
X0336800Y0141400D01*
X0336800Y0136800D01*
X0336800Y0126800D01*
X0341200Y0126800D01*
X0336800Y0126800D01*
X0336800Y0126800D01*
X0336800Y0126800D01*
X0336800Y0119800D01*
X0336800Y0126800D01*
X0336800Y0126800D01*
X0336800Y0126800D01*
X0332400Y0126800D01*
X0332400Y0129746D01*
X0332508Y0130430D01*
X0332722Y0131089D01*
X0333037Y0131706D01*
X0333444Y0132266D01*
X0333934Y0132756D01*
X0334168Y0132927D01*
X0332200Y0134895D01*
X0332200Y0136800D01*
X0336800Y0136800D01*
X0336800Y0136800D01*
X0336800Y0133800D01*
X0336800Y0126800D01*
X0332400Y0126800D01*
X0332400Y0123854D01*
X0332508Y0123170D01*
X0332722Y0122511D01*
X0333037Y0121894D01*
X0333444Y0121334D01*
X0333934Y0120844D01*
X0334494Y0120437D01*
X0335111Y0120122D01*
X0336800Y0120090D02*
X0336800Y0120090D01*
X0338389Y0120090D02*
X0343981Y0120090D01*
X0344024Y0120046D02*
X0345825Y0119300D01*
X0347775Y0119300D01*
X0349576Y0120046D01*
X0350954Y0121424D01*
X0351700Y0123225D01*
X0351700Y0130375D01*
X0350954Y0132176D01*
X0349576Y0133554D01*
X0347775Y0134300D01*
X0345825Y0134300D01*
X0344024Y0133554D01*
X0342646Y0132176D01*
X0341900Y0130375D01*
X0341900Y0123225D01*
X0342646Y0121424D01*
X0344024Y0120046D01*
X0342537Y0121688D02*
X0340414Y0121688D01*
X0341110Y0123287D02*
X0341900Y0123287D01*
X0341900Y0124885D02*
X0341200Y0124885D01*
X0341200Y0126484D02*
X0341900Y0126484D01*
X0341900Y0128082D02*
X0341200Y0128082D01*
X0341200Y0129681D02*
X0341900Y0129681D01*
X0342275Y0131279D02*
X0340781Y0131279D01*
X0339499Y0132878D02*
X0343348Y0132878D01*
X0340982Y0134476D02*
X0405701Y0134476D01*
X0405701Y0132878D02*
X0390252Y0132878D01*
X0389576Y0133554D02*
X0387775Y0134300D01*
X0385825Y0134300D01*
X0384024Y0133554D01*
X0382646Y0132176D01*
X0381900Y0130375D01*
X0381900Y0123225D01*
X0382646Y0121424D01*
X0384024Y0120046D01*
X0385825Y0119300D01*
X0387775Y0119300D01*
X0389576Y0120046D01*
X0390954Y0121424D01*
X0391700Y0123225D01*
X0391700Y0130375D01*
X0390954Y0132176D01*
X0389576Y0133554D01*
X0391325Y0131279D02*
X0405701Y0131279D01*
X0405701Y0129681D02*
X0391700Y0129681D01*
X0391700Y0128082D02*
X0405701Y0128082D01*
X0405701Y0126484D02*
X0391700Y0126484D01*
X0391700Y0124885D02*
X0405701Y0124885D01*
X0405701Y0123287D02*
X0391700Y0123287D01*
X0391063Y0121688D02*
X0405701Y0121688D01*
X0405701Y0120090D02*
X0389619Y0120090D01*
X0383981Y0120090D02*
X0379619Y0120090D01*
X0379576Y0120046D02*
X0380954Y0121424D01*
X0381700Y0123225D01*
X0381700Y0130375D01*
X0380954Y0132176D01*
X0379576Y0133554D01*
X0377775Y0134300D01*
X0375825Y0134300D01*
X0374024Y0133554D01*
X0372646Y0132176D01*
X0371900Y0130375D01*
X0371900Y0123225D01*
X0372646Y0121424D01*
X0374024Y0120046D01*
X0375825Y0119300D01*
X0377775Y0119300D01*
X0379576Y0120046D01*
X0381063Y0121688D02*
X0382537Y0121688D01*
X0381900Y0123287D02*
X0381700Y0123287D01*
X0381700Y0124885D02*
X0381900Y0124885D01*
X0381900Y0126484D02*
X0381700Y0126484D01*
X0381700Y0128082D02*
X0381900Y0128082D01*
X0381900Y0129681D02*
X0381700Y0129681D01*
X0381325Y0131279D02*
X0382275Y0131279D01*
X0383348Y0132878D02*
X0380252Y0132878D01*
X0373348Y0132878D02*
X0370252Y0132878D01*
X0369576Y0133554D02*
X0367775Y0134300D01*
X0365825Y0134300D01*
X0364024Y0133554D01*
X0362646Y0132176D01*
X0361900Y0130375D01*
X0361900Y0123225D01*
X0362646Y0121424D01*
X0364024Y0120046D01*
X0365825Y0119300D01*
X0367775Y0119300D01*
X0369576Y0120046D01*
X0370954Y0121424D01*
X0371700Y0123225D01*
X0371700Y0130375D01*
X0370954Y0132176D01*
X0369576Y0133554D01*
X0371325Y0131279D02*
X0372275Y0131279D01*
X0371900Y0129681D02*
X0371700Y0129681D01*
X0371700Y0128082D02*
X0371900Y0128082D01*
X0371900Y0126484D02*
X0371700Y0126484D01*
X0371700Y0124885D02*
X0371900Y0124885D01*
X0371900Y0123287D02*
X0371700Y0123287D01*
X0371063Y0121688D02*
X0372537Y0121688D01*
X0373981Y0120090D02*
X0369619Y0120090D01*
X0363981Y0120090D02*
X0359619Y0120090D01*
X0359576Y0120046D02*
X0360954Y0121424D01*
X0361700Y0123225D01*
X0361700Y0130375D01*
X0360954Y0132176D01*
X0359576Y0133554D01*
X0357775Y0134300D01*
X0355825Y0134300D01*
X0354024Y0133554D01*
X0352646Y0132176D01*
X0351900Y0130375D01*
X0351900Y0123225D01*
X0352646Y0121424D01*
X0354024Y0120046D01*
X0355825Y0119300D01*
X0357775Y0119300D01*
X0359576Y0120046D01*
X0361063Y0121688D02*
X0362537Y0121688D01*
X0361900Y0123287D02*
X0361700Y0123287D01*
X0361700Y0124885D02*
X0361900Y0124885D01*
X0361900Y0126484D02*
X0361700Y0126484D01*
X0361700Y0128082D02*
X0361900Y0128082D01*
X0361900Y0129681D02*
X0361700Y0129681D01*
X0361325Y0131279D02*
X0362275Y0131279D01*
X0363348Y0132878D02*
X0360252Y0132878D01*
X0362746Y0136500D02*
X0370854Y0136500D01*
X0372802Y0137307D01*
X0374293Y0138798D01*
X0375100Y0140746D01*
X0375100Y0142854D01*
X0374293Y0144802D01*
X0372802Y0146293D01*
X0370854Y0147100D01*
X0370809Y0147100D01*
X0370924Y0147118D01*
X0371643Y0147352D01*
X0372316Y0147695D01*
X0372927Y0148139D01*
X0373461Y0148673D01*
X0373905Y0149284D01*
X0374248Y0149957D01*
X0374482Y0150676D01*
X0374600Y0151422D01*
X0374600Y0151600D01*
X0367000Y0151600D01*
X0367000Y0152000D01*
X0374600Y0152000D01*
X0374600Y0152178D01*
X0374482Y0152924D01*
X0374248Y0153643D01*
X0373905Y0154316D01*
X0373461Y0154927D01*
X0372927Y0155461D01*
X0372316Y0155905D01*
X0371643Y0156248D01*
X0370924Y0156482D01*
X0370809Y0156500D01*
X0370854Y0156500D01*
X0372802Y0157307D01*
X0374293Y0158798D01*
X0375100Y0160746D01*
X0375100Y0162854D01*
X0374293Y0164802D01*
X0372802Y0166293D01*
X0370854Y0167100D01*
X0362746Y0167100D01*
X0360798Y0166293D01*
X0359307Y0164802D01*
X0358500Y0162854D01*
X0358500Y0160746D01*
X0359307Y0158798D01*
X0360798Y0157307D01*
X0362746Y0156500D01*
X0362791Y0156500D01*
X0362676Y0156482D01*
X0361957Y0156248D01*
X0361284Y0155905D01*
X0360673Y0155461D01*
X0360139Y0154927D01*
X0359695Y0154316D01*
X0359352Y0153643D01*
X0359118Y0152924D01*
X0359000Y0152178D01*
X0359000Y0152000D01*
X0366600Y0152000D01*
X0366600Y0151600D01*
X0359000Y0151600D01*
X0359000Y0151422D01*
X0359118Y0150676D01*
X0359352Y0149957D01*
X0359695Y0149284D01*
X0360139Y0148673D01*
X0360673Y0148139D01*
X0361284Y0147695D01*
X0361957Y0147352D01*
X0362676Y0147118D01*
X0362791Y0147100D01*
X0362746Y0147100D01*
X0360798Y0146293D01*
X0359307Y0144802D01*
X0358500Y0142854D01*
X0358500Y0140746D01*
X0359307Y0138798D01*
X0360798Y0137307D01*
X0362746Y0136500D01*
X0360431Y0137673D02*
X0353169Y0137673D01*
X0354490Y0139272D02*
X0359110Y0139272D01*
X0358500Y0140870D02*
X0355100Y0140870D01*
X0355100Y0142469D02*
X0358500Y0142469D01*
X0359003Y0144068D02*
X0354597Y0144068D01*
X0353429Y0145666D02*
X0360171Y0145666D01*
X0362226Y0147265D02*
X0351374Y0147265D01*
X0353599Y0148863D02*
X0360001Y0148863D01*
X0359188Y0150462D02*
X0354412Y0150462D01*
X0354600Y0152060D02*
X0359000Y0152060D01*
X0359360Y0153659D02*
X0354240Y0153659D01*
X0353131Y0155257D02*
X0360469Y0155257D01*
X0361887Y0156856D02*
X0351713Y0156856D01*
X0353949Y0158454D02*
X0359651Y0158454D01*
X0358787Y0160053D02*
X0354813Y0160053D01*
X0355100Y0161651D02*
X0358500Y0161651D01*
X0358664Y0163250D02*
X0354936Y0163250D01*
X0354247Y0164848D02*
X0359353Y0164848D01*
X0361169Y0166447D02*
X0352431Y0166447D01*
X0344900Y0171242D02*
X0405701Y0171242D01*
X0405701Y0169644D02*
X0344028Y0169644D01*
X0341800Y0171800D02*
X0341800Y0201800D01*
X0346700Y0201614D02*
X0346900Y0201614D01*
X0346900Y0203212D02*
X0346700Y0203212D01*
X0346900Y0203830D02*
X0346900Y0199770D01*
X0349770Y0196900D01*
X0353830Y0196900D01*
X0356700Y0199770D01*
X0356700Y0203830D01*
X0353830Y0206700D01*
X0349770Y0206700D01*
X0346900Y0203830D01*
X0347881Y0204811D02*
X0345719Y0204811D01*
X0344120Y0206409D02*
X0349480Y0206409D01*
X0349770Y0206900D02*
X0353830Y0206900D01*
X0356700Y0209770D01*
X0356700Y0213830D01*
X0353830Y0216700D01*
X0349770Y0216700D01*
X0346900Y0213830D01*
X0346900Y0209770D01*
X0349770Y0206900D01*
X0348662Y0208008D02*
X0344938Y0208008D01*
X0343830Y0206900D02*
X0346700Y0209770D01*
X0346700Y0213830D01*
X0343830Y0216700D01*
X0339770Y0216700D01*
X0336900Y0213830D01*
X0336900Y0209770D01*
X0339770Y0206900D01*
X0343830Y0206900D01*
X0346536Y0209606D02*
X0347064Y0209606D01*
X0346900Y0211205D02*
X0346700Y0211205D01*
X0346700Y0212803D02*
X0346900Y0212803D01*
X0347472Y0214402D02*
X0346128Y0214402D01*
X0344529Y0216001D02*
X0349071Y0216001D01*
X0354529Y0216001D02*
X0359071Y0216001D01*
X0359770Y0216700D02*
X0356900Y0213830D01*
X0356900Y0209770D01*
X0359770Y0206900D01*
X0363830Y0206900D01*
X0366700Y0209770D01*
X0366700Y0213830D01*
X0363830Y0216700D01*
X0359770Y0216700D01*
X0357472Y0214402D02*
X0356128Y0214402D01*
X0356700Y0212803D02*
X0356900Y0212803D01*
X0356900Y0211205D02*
X0356700Y0211205D01*
X0356536Y0209606D02*
X0357064Y0209606D01*
X0358662Y0208008D02*
X0354938Y0208008D01*
X0354120Y0206409D02*
X0359480Y0206409D01*
X0359770Y0206700D02*
X0356900Y0203830D01*
X0356900Y0199770D01*
X0359770Y0196900D01*
X0363830Y0196900D01*
X0366700Y0199770D01*
X0366700Y0203830D01*
X0363830Y0206700D01*
X0359770Y0206700D01*
X0357881Y0204811D02*
X0355719Y0204811D01*
X0356700Y0203212D02*
X0356900Y0203212D01*
X0356900Y0201614D02*
X0356700Y0201614D01*
X0356700Y0200015D02*
X0356900Y0200015D01*
X0358253Y0198417D02*
X0355347Y0198417D01*
X0348253Y0198417D02*
X0345347Y0198417D01*
X0344900Y0196818D02*
X0405701Y0196818D01*
X0405701Y0195220D02*
X0344900Y0195220D01*
X0344900Y0193621D02*
X0405701Y0193621D01*
X0405701Y0192023D02*
X0344900Y0192023D01*
X0344900Y0190424D02*
X0405701Y0190424D01*
X0405701Y0188826D02*
X0344900Y0188826D01*
X0344900Y0187227D02*
X0405701Y0187227D01*
X0405701Y0185629D02*
X0344900Y0185629D01*
X0344900Y0184030D02*
X0405701Y0184030D01*
X0405701Y0182432D02*
X0344900Y0182432D01*
X0344900Y0180833D02*
X0405701Y0180833D01*
X0405701Y0179235D02*
X0344900Y0179235D01*
X0344900Y0177636D02*
X0405701Y0177636D01*
X0405701Y0176038D02*
X0344900Y0176038D01*
X0344900Y0174439D02*
X0405701Y0174439D01*
X0405701Y0172841D02*
X0344900Y0172841D01*
X0341800Y0171800D02*
X0331800Y0171800D01*
X0331800Y0156800D01*
X0316800Y0156800D01*
X0316800Y0136800D01*
X0296800Y0136800D01*
X0296800Y0126800D01*
X0301700Y0126484D02*
X0301900Y0126484D01*
X0301900Y0128082D02*
X0301700Y0128082D01*
X0301700Y0129681D02*
X0301900Y0129681D01*
X0302275Y0131279D02*
X0301325Y0131279D01*
X0300252Y0132878D02*
X0303348Y0132878D01*
X0310252Y0132878D02*
X0313348Y0132878D01*
X0312275Y0131279D02*
X0311325Y0131279D01*
X0311700Y0129681D02*
X0311900Y0129681D01*
X0311900Y0128082D02*
X0311700Y0128082D01*
X0311700Y0126484D02*
X0311900Y0126484D01*
X0311900Y0124885D02*
X0311700Y0124885D01*
X0311700Y0123287D02*
X0311900Y0123287D01*
X0312537Y0121688D02*
X0311063Y0121688D01*
X0309619Y0120090D02*
X0313981Y0120090D01*
X0303981Y0120090D02*
X0299619Y0120090D01*
X0301063Y0121688D02*
X0302537Y0121688D01*
X0301900Y0123287D02*
X0301700Y0123287D01*
X0301700Y0124885D02*
X0301900Y0124885D01*
X0293981Y0120090D02*
X0289619Y0120090D01*
X0289576Y0120046D02*
X0290954Y0121424D01*
X0291700Y0123225D01*
X0291700Y0130375D01*
X0290954Y0132176D01*
X0289576Y0133554D01*
X0287775Y0134300D01*
X0285825Y0134300D01*
X0284024Y0133554D01*
X0282646Y0132176D01*
X0281900Y0130375D01*
X0281900Y0123225D01*
X0282646Y0121424D01*
X0284024Y0120046D01*
X0285825Y0119300D01*
X0287775Y0119300D01*
X0289576Y0120046D01*
X0291063Y0121688D02*
X0292537Y0121688D01*
X0291900Y0123287D02*
X0291700Y0123287D01*
X0291700Y0124885D02*
X0291900Y0124885D01*
X0291900Y0126484D02*
X0291700Y0126484D01*
X0291700Y0128082D02*
X0291900Y0128082D01*
X0291900Y0129681D02*
X0291700Y0129681D01*
X0291325Y0131279D02*
X0292275Y0131279D01*
X0293348Y0132878D02*
X0290252Y0132878D01*
X0293700Y0134476D02*
X0279900Y0134476D01*
X0279900Y0136075D02*
X0293700Y0136075D01*
X0293806Y0137673D02*
X0279900Y0137673D01*
X0276800Y0141800D02*
X0276800Y0126800D01*
X0271900Y0126484D02*
X0271700Y0126484D01*
X0271700Y0128082D02*
X0271900Y0128082D01*
X0271900Y0129681D02*
X0271700Y0129681D01*
X0271325Y0131279D02*
X0272275Y0131279D01*
X0273348Y0132878D02*
X0270252Y0132878D01*
X0280252Y0132878D02*
X0283348Y0132878D01*
X0282275Y0131279D02*
X0281325Y0131279D01*
X0281700Y0129681D02*
X0281900Y0129681D01*
X0281900Y0128082D02*
X0281700Y0128082D01*
X0281700Y0126484D02*
X0281900Y0126484D01*
X0281900Y0124885D02*
X0281700Y0124885D01*
X0281700Y0123287D02*
X0281900Y0123287D01*
X0282537Y0121688D02*
X0281063Y0121688D01*
X0279619Y0120090D02*
X0283981Y0120090D01*
X0273981Y0120090D02*
X0269619Y0120090D01*
X0271063Y0121688D02*
X0272537Y0121688D01*
X0271900Y0123287D02*
X0271700Y0123287D01*
X0271700Y0124885D02*
X0271900Y0124885D01*
X0263981Y0120090D02*
X0259619Y0120090D01*
X0261063Y0121688D02*
X0262537Y0121688D01*
X0261900Y0123287D02*
X0261700Y0123287D01*
X0261700Y0124885D02*
X0261900Y0124885D01*
X0319900Y0147265D02*
X0321700Y0147265D01*
X0321700Y0148863D02*
X0319900Y0148863D01*
X0319900Y0150462D02*
X0323249Y0150462D01*
X0319900Y0152060D02*
X0339000Y0152060D01*
X0339360Y0153659D02*
X0319900Y0153659D01*
X0330351Y0150462D02*
X0333249Y0150462D01*
X0334516Y0155257D02*
X0340469Y0155257D01*
X0341887Y0156856D02*
X0334900Y0156856D01*
X0334900Y0158454D02*
X0339651Y0158454D01*
X0338787Y0160053D02*
X0334900Y0160053D01*
X0334900Y0161651D02*
X0338500Y0161651D01*
X0338664Y0163250D02*
X0334900Y0163250D01*
X0334900Y0164848D02*
X0339353Y0164848D01*
X0341169Y0166447D02*
X0334900Y0166447D01*
X0334900Y0168045D02*
X0405701Y0168045D01*
X0405701Y0166447D02*
X0372431Y0166447D01*
X0374247Y0164848D02*
X0405701Y0164848D01*
X0405701Y0163250D02*
X0374936Y0163250D01*
X0375100Y0161651D02*
X0405701Y0161651D01*
X0405701Y0160053D02*
X0374813Y0160053D01*
X0373949Y0158454D02*
X0405701Y0158454D01*
X0405701Y0156856D02*
X0371713Y0156856D01*
X0373131Y0155257D02*
X0405701Y0155257D01*
X0405701Y0153659D02*
X0374240Y0153659D01*
X0374600Y0152060D02*
X0405701Y0152060D01*
X0405701Y0150462D02*
X0374412Y0150462D01*
X0373599Y0148863D02*
X0405701Y0148863D01*
X0405701Y0147265D02*
X0371374Y0147265D01*
X0373429Y0145666D02*
X0405701Y0145666D01*
X0405701Y0144068D02*
X0374597Y0144068D01*
X0375100Y0142469D02*
X0405701Y0142469D01*
X0405701Y0140870D02*
X0375100Y0140870D01*
X0374490Y0139272D02*
X0405701Y0139272D01*
X0405701Y0137673D02*
X0373169Y0137673D01*
X0353348Y0132878D02*
X0350252Y0132878D01*
X0351325Y0131279D02*
X0352275Y0131279D01*
X0351900Y0129681D02*
X0351700Y0129681D01*
X0351700Y0128082D02*
X0351900Y0128082D01*
X0351900Y0126484D02*
X0351700Y0126484D01*
X0351700Y0124885D02*
X0351900Y0124885D01*
X0351900Y0123287D02*
X0351700Y0123287D01*
X0351063Y0121688D02*
X0352537Y0121688D01*
X0353981Y0120090D02*
X0349619Y0120090D01*
X0336800Y0121688D02*
X0336800Y0121688D01*
X0336800Y0123287D02*
X0336800Y0123287D01*
X0336800Y0124885D02*
X0336800Y0124885D01*
X0336800Y0126484D02*
X0336800Y0126484D01*
X0336800Y0128082D02*
X0336800Y0128082D01*
X0336800Y0129681D02*
X0336800Y0129681D01*
X0336800Y0131279D02*
X0336800Y0131279D01*
X0336800Y0132878D02*
X0336800Y0132878D01*
X0336800Y0134476D02*
X0336800Y0134476D01*
X0336800Y0136075D02*
X0336800Y0136075D01*
X0336800Y0137673D02*
X0336800Y0137673D01*
X0336800Y0139272D02*
X0336800Y0139272D01*
X0336800Y0140870D02*
X0336800Y0140870D01*
X0334365Y0140870D02*
X0329942Y0140870D01*
X0329681Y0142469D02*
X0333919Y0142469D01*
X0332320Y0144068D02*
X0331280Y0144068D01*
X0331540Y0139272D02*
X0332767Y0139272D01*
X0332200Y0137673D02*
X0331900Y0137673D01*
X0331900Y0136075D02*
X0332200Y0136075D01*
X0332618Y0134476D02*
X0331689Y0134476D01*
X0330252Y0132878D02*
X0334101Y0132878D01*
X0332819Y0131279D02*
X0331325Y0131279D01*
X0331700Y0129681D02*
X0332400Y0129681D01*
X0332400Y0128082D02*
X0331700Y0128082D01*
X0331700Y0126484D02*
X0332400Y0126484D01*
X0332400Y0124885D02*
X0331700Y0124885D01*
X0331700Y0123287D02*
X0332490Y0123287D01*
X0333186Y0121688D02*
X0331063Y0121688D01*
X0341400Y0136075D02*
X0405701Y0136075D01*
X0385354Y0104105D02*
X0378246Y0104105D01*
X0377775Y0104300D02*
X0375825Y0104300D01*
X0374024Y0103554D01*
X0372646Y0102176D01*
X0371900Y0100375D01*
X0371900Y0093225D01*
X0372646Y0091424D01*
X0374024Y0090046D01*
X0375825Y0089300D01*
X0377775Y0089300D01*
X0379576Y0090046D01*
X0380954Y0091424D01*
X0381700Y0093225D01*
X0381700Y0100375D01*
X0380954Y0102176D01*
X0379576Y0103554D01*
X0377775Y0104300D01*
X0375354Y0104105D02*
X0368246Y0104105D01*
X0370623Y0102506D02*
X0372977Y0102506D01*
X0372121Y0100908D02*
X0371479Y0100908D01*
X0371700Y0099309D02*
X0371900Y0099309D01*
X0371900Y0097711D02*
X0371700Y0097711D01*
X0371700Y0096112D02*
X0371900Y0096112D01*
X0371900Y0094514D02*
X0371700Y0094514D01*
X0371572Y0092915D02*
X0372028Y0092915D01*
X0372754Y0091317D02*
X0370846Y0091317D01*
X0371801Y0089718D02*
X0374816Y0089718D01*
X0372400Y0088120D02*
X0381200Y0088120D01*
X0381799Y0089718D02*
X0378784Y0089718D01*
X0380846Y0091317D02*
X0382754Y0091317D01*
X0382028Y0092915D02*
X0381572Y0092915D01*
X0381700Y0094514D02*
X0381900Y0094514D01*
X0381900Y0096112D02*
X0381700Y0096112D01*
X0381700Y0097711D02*
X0381900Y0097711D01*
X0381900Y0099309D02*
X0381700Y0099309D01*
X0381479Y0100908D02*
X0382121Y0100908D01*
X0382977Y0102506D02*
X0380623Y0102506D01*
X0361200Y0086521D02*
X0354998Y0086521D01*
X0356597Y0084923D02*
X0361200Y0084923D01*
X0362356Y0083324D02*
X0357400Y0083324D01*
X0357400Y0081726D02*
X0358806Y0081726D01*
X0354816Y0089718D02*
X0348784Y0089718D01*
X0350846Y0091317D02*
X0352754Y0091317D01*
X0352028Y0092915D02*
X0351572Y0092915D01*
X0351700Y0094514D02*
X0351900Y0094514D01*
X0351900Y0096112D02*
X0351700Y0096112D01*
X0351700Y0097711D02*
X0351900Y0097711D01*
X0351900Y0099309D02*
X0351700Y0099309D01*
X0351479Y0100908D02*
X0352121Y0100908D01*
X0352977Y0102506D02*
X0350623Y0102506D01*
X0342977Y0102506D02*
X0340623Y0102506D01*
X0341479Y0100908D02*
X0342121Y0100908D01*
X0341900Y0099309D02*
X0341700Y0099309D01*
X0341700Y0097711D02*
X0341900Y0097711D01*
X0341900Y0096112D02*
X0341700Y0096112D01*
X0341700Y0094514D02*
X0341900Y0094514D01*
X0342028Y0092915D02*
X0341572Y0092915D01*
X0340846Y0091317D02*
X0342754Y0091317D01*
X0344816Y0089718D02*
X0338784Y0089718D01*
X0371800Y0076800D02*
X0381800Y0076800D01*
X0387400Y0076930D02*
X0388700Y0076930D01*
X0388700Y0075332D02*
X0387400Y0075332D01*
X0386653Y0073733D02*
X0388700Y0073733D01*
X0388700Y0072134D02*
X0385054Y0072134D01*
X0388700Y0070536D02*
X0374900Y0070536D01*
X0374900Y0072134D02*
X0378546Y0072134D01*
X0374900Y0068937D02*
X0388700Y0068937D01*
X0388700Y0067339D02*
X0374900Y0067339D01*
X0371800Y0076800D02*
X0371800Y0056800D01*
X0387400Y0078529D02*
X0388700Y0078529D01*
X0388700Y0080127D02*
X0386393Y0080127D01*
X0328700Y0160053D02*
X0314900Y0160053D01*
X0314900Y0161651D02*
X0328700Y0161651D01*
X0328700Y0163250D02*
X0314900Y0163250D01*
X0314900Y0164848D02*
X0328700Y0164848D01*
X0328700Y0166447D02*
X0314900Y0166447D01*
X0314900Y0168045D02*
X0328700Y0168045D01*
X0328700Y0169644D02*
X0314900Y0169644D01*
X0314900Y0171242D02*
X0328700Y0171242D01*
X0328876Y0172841D02*
X0314900Y0172841D01*
X0314900Y0174439D02*
X0330071Y0174439D01*
X0324466Y0177636D02*
X0338700Y0177636D01*
X0338700Y0176038D02*
X0314900Y0176038D01*
X0324900Y0179235D02*
X0338700Y0179235D01*
X0338700Y0180833D02*
X0324900Y0180833D01*
X0324900Y0182432D02*
X0338700Y0182432D01*
X0338700Y0184030D02*
X0324900Y0184030D01*
X0324900Y0185629D02*
X0338700Y0185629D01*
X0338700Y0187227D02*
X0324900Y0187227D01*
X0324900Y0188826D02*
X0338700Y0188826D01*
X0338700Y0190424D02*
X0324900Y0190424D01*
X0324900Y0192023D02*
X0338700Y0192023D01*
X0338700Y0193621D02*
X0324900Y0193621D01*
X0324900Y0195220D02*
X0338700Y0195220D01*
X0338700Y0196818D02*
X0324900Y0196818D01*
X0325347Y0198417D02*
X0328253Y0198417D01*
X0326900Y0199770D02*
X0329770Y0196900D01*
X0333830Y0196900D01*
X0336700Y0199770D01*
X0336700Y0203830D01*
X0333830Y0206700D01*
X0329770Y0206700D01*
X0326900Y0203830D01*
X0326900Y0199770D01*
X0326900Y0200015D02*
X0326700Y0200015D01*
X0326700Y0201614D02*
X0326900Y0201614D01*
X0326900Y0203212D02*
X0326700Y0203212D01*
X0325719Y0204811D02*
X0327881Y0204811D01*
X0329480Y0206409D02*
X0324120Y0206409D01*
X0324938Y0208008D02*
X0328662Y0208008D01*
X0329770Y0206900D02*
X0333830Y0206900D01*
X0336700Y0209770D01*
X0336700Y0213830D01*
X0333830Y0216700D01*
X0329770Y0216700D01*
X0326900Y0213830D01*
X0326900Y0209770D01*
X0329770Y0206900D01*
X0327064Y0209606D02*
X0326536Y0209606D01*
X0326700Y0211205D02*
X0326900Y0211205D01*
X0326900Y0212803D02*
X0326700Y0212803D01*
X0326128Y0214402D02*
X0327472Y0214402D01*
X0329071Y0216001D02*
X0324529Y0216001D01*
X0334529Y0216001D02*
X0339071Y0216001D01*
X0337472Y0214402D02*
X0336128Y0214402D01*
X0336700Y0212803D02*
X0336900Y0212803D01*
X0336900Y0211205D02*
X0336700Y0211205D01*
X0336536Y0209606D02*
X0337064Y0209606D01*
X0338662Y0208008D02*
X0334938Y0208008D01*
X0334120Y0206409D02*
X0339480Y0206409D01*
X0337881Y0204811D02*
X0335719Y0204811D01*
X0336700Y0203212D02*
X0336900Y0203212D01*
X0336900Y0201614D02*
X0336700Y0201614D01*
X0336700Y0200015D02*
X0336900Y0200015D01*
X0338253Y0198417D02*
X0335347Y0198417D01*
X0346700Y0200015D02*
X0346900Y0200015D01*
X0364120Y0206409D02*
X0369480Y0206409D01*
X0369770Y0206700D02*
X0366900Y0203830D01*
X0366900Y0199770D01*
X0369770Y0196900D01*
X0373830Y0196900D01*
X0376700Y0199770D01*
X0376700Y0203830D01*
X0373830Y0206700D01*
X0369770Y0206700D01*
X0369770Y0206900D02*
X0373830Y0206900D01*
X0376700Y0209770D01*
X0376700Y0213830D01*
X0373830Y0216700D01*
X0369770Y0216700D01*
X0366900Y0213830D01*
X0366900Y0209770D01*
X0369770Y0206900D01*
X0368662Y0208008D02*
X0364938Y0208008D01*
X0366536Y0209606D02*
X0367064Y0209606D01*
X0366900Y0211205D02*
X0366700Y0211205D01*
X0366700Y0212803D02*
X0366900Y0212803D01*
X0367472Y0214402D02*
X0366128Y0214402D01*
X0364529Y0216001D02*
X0369071Y0216001D01*
X0374529Y0216001D02*
X0379071Y0216001D01*
X0379770Y0216700D02*
X0376900Y0213830D01*
X0376900Y0209770D01*
X0379770Y0206900D01*
X0383830Y0206900D01*
X0386700Y0209770D01*
X0386700Y0213830D01*
X0383830Y0216700D01*
X0379770Y0216700D01*
X0377472Y0214402D02*
X0376128Y0214402D01*
X0376700Y0212803D02*
X0376900Y0212803D01*
X0376900Y0211205D02*
X0376700Y0211205D01*
X0376536Y0209606D02*
X0377064Y0209606D01*
X0378662Y0208008D02*
X0374938Y0208008D01*
X0374120Y0206409D02*
X0379480Y0206409D01*
X0379770Y0206700D02*
X0376900Y0203830D01*
X0376900Y0199770D01*
X0379770Y0196900D01*
X0383830Y0196900D01*
X0386700Y0199770D01*
X0386700Y0203830D01*
X0383830Y0206700D01*
X0379770Y0206700D01*
X0377881Y0204811D02*
X0375719Y0204811D01*
X0376700Y0203212D02*
X0376900Y0203212D01*
X0376900Y0201614D02*
X0376700Y0201614D01*
X0376700Y0200015D02*
X0376900Y0200015D01*
X0378253Y0198417D02*
X0375347Y0198417D01*
X0368253Y0198417D02*
X0365347Y0198417D01*
X0366700Y0200015D02*
X0366900Y0200015D01*
X0366900Y0201614D02*
X0366700Y0201614D01*
X0366700Y0203212D02*
X0366900Y0203212D01*
X0367881Y0204811D02*
X0365719Y0204811D01*
X0384120Y0206409D02*
X0395948Y0206409D01*
X0394766Y0208008D02*
X0384938Y0208008D01*
X0386536Y0209606D02*
X0394104Y0209606D01*
X0393850Y0211205D02*
X0386700Y0211205D01*
X0386700Y0212803D02*
X0393850Y0212803D01*
X0394273Y0214402D02*
X0386128Y0214402D01*
X0384529Y0216001D02*
X0394935Y0216001D01*
X0397900Y0204811D02*
X0385719Y0204811D01*
X0386700Y0203212D02*
X0405701Y0203212D01*
X0405701Y0201614D02*
X0386700Y0201614D01*
X0386700Y0200015D02*
X0405701Y0200015D01*
X0405701Y0198417D02*
X0385347Y0198417D01*
X0318253Y0198417D02*
X0315347Y0198417D01*
X0316700Y0200015D02*
X0316900Y0200015D01*
X0182365Y0185629D02*
X0072377Y0185629D01*
X0056681Y0198417D02*
X0092401Y0198417D01*
X0091739Y0196818D02*
X0055015Y0196818D01*
X0057397Y0200015D02*
X0093773Y0200015D01*
X0096184Y0201614D02*
X0057663Y0201614D01*
X0064350Y0208008D02*
X0026750Y0208008D01*
X0028349Y0209606D02*
X0062751Y0209606D01*
X0061977Y0211205D02*
X0029123Y0211205D01*
X0029750Y0212803D02*
X0061350Y0212803D01*
X0061350Y0214402D02*
X0029750Y0214402D01*
X0029700Y0216001D02*
X0061400Y0216001D01*
X0016850Y0208008D02*
X0016600Y0208008D01*
X0016600Y0145666D02*
X0030954Y0145666D01*
X0029355Y0144068D02*
X0016600Y0144068D01*
X0016600Y0142469D02*
X0029200Y0142469D01*
X0029200Y0140870D02*
X0016600Y0140870D01*
X0016600Y0139272D02*
X0029616Y0139272D01*
X0031214Y0137673D02*
X0016600Y0137673D01*
X0016600Y0136075D02*
X0044200Y0136075D01*
X0044411Y0134476D02*
X0016600Y0134476D01*
X0016600Y0132878D02*
X0046010Y0132878D01*
X0052590Y0132878D02*
X0056717Y0132878D01*
X0055118Y0134476D02*
X0054189Y0134476D01*
X0054400Y0136075D02*
X0054700Y0136075D01*
X0054700Y0137673D02*
X0054400Y0137673D01*
X0054040Y0139272D02*
X0055267Y0139272D01*
X0080809Y0131279D02*
X0082791Y0131279D01*
X0082044Y0132878D02*
X0081556Y0132878D01*
X0081700Y0134476D02*
X0081900Y0134476D01*
X0091700Y0105703D02*
X0091900Y0105703D01*
X0091900Y0104105D02*
X0091700Y0104105D01*
X0091402Y0102506D02*
X0092198Y0102506D01*
X0093163Y0100908D02*
X0090437Y0100908D01*
X0094688Y0096900D02*
X0091700Y0093912D01*
X0091700Y0089688D01*
X0094688Y0086700D01*
X0098912Y0086700D01*
X0101900Y0089688D01*
X0101900Y0093912D01*
X0098912Y0096900D01*
X0094688Y0096900D01*
X0093900Y0096112D02*
X0016600Y0096112D01*
X0016600Y0094514D02*
X0092301Y0094514D01*
X0091700Y0092915D02*
X0016600Y0092915D01*
X0016600Y0091317D02*
X0091700Y0091317D01*
X0091700Y0089718D02*
X0016600Y0089718D01*
X0016600Y0088120D02*
X0093268Y0088120D01*
X0100332Y0088120D02*
X0103975Y0088120D01*
X0104895Y0087200D02*
X0106800Y0087200D01*
X0108705Y0087200D01*
X0111400Y0089895D01*
X0111400Y0091800D01*
X0111400Y0093705D01*
X0108705Y0096400D01*
X0106800Y0096400D01*
X0106800Y0091800D01*
X0111400Y0091800D01*
X0106800Y0091800D01*
X0106800Y0091800D01*
X0106800Y0091800D01*
X0106800Y0087200D01*
X0106800Y0091800D01*
X0106800Y0091800D01*
X0106800Y0091800D01*
X0102200Y0091800D01*
X0102200Y0093705D01*
X0104895Y0096400D01*
X0106800Y0096400D01*
X0106800Y0091800D01*
X0102200Y0091800D01*
X0102200Y0089895D01*
X0104895Y0087200D01*
X0106800Y0088120D02*
X0106800Y0088120D01*
X0106800Y0089718D02*
X0106800Y0089718D01*
X0106800Y0091317D02*
X0106800Y0091317D01*
X0106800Y0092915D02*
X0106800Y0092915D01*
X0106800Y0094514D02*
X0106800Y0094514D01*
X0106800Y0096112D02*
X0106800Y0096112D01*
X0108993Y0096112D02*
X0158193Y0096112D01*
X0156594Y0094514D02*
X0110592Y0094514D01*
X0111400Y0092915D02*
X0156200Y0092915D01*
X0156200Y0091317D02*
X0111400Y0091317D01*
X0111223Y0089718D02*
X0156200Y0089718D01*
X0157561Y0088120D02*
X0109625Y0088120D01*
X0106800Y0084923D02*
X0106800Y0084923D01*
X0106800Y0083324D02*
X0106800Y0083324D01*
X0106800Y0081726D02*
X0106800Y0081726D01*
X0106800Y0080127D02*
X0106800Y0080127D01*
X0106800Y0078529D02*
X0106800Y0078529D01*
X0106800Y0076930D02*
X0106800Y0076930D01*
X0106800Y0075332D02*
X0106800Y0075332D01*
X0106800Y0073733D02*
X0106800Y0073733D01*
X0102376Y0089718D02*
X0101900Y0089718D01*
X0101900Y0091317D02*
X0102200Y0091317D01*
X0102200Y0092915D02*
X0101900Y0092915D01*
X0101299Y0094514D02*
X0103008Y0094514D01*
X0104607Y0096112D02*
X0099700Y0096112D01*
X0063163Y0100908D02*
X0016600Y0100908D01*
X0016600Y0102506D02*
X0062198Y0102506D01*
X0061900Y0104105D02*
X0016600Y0104105D01*
X0016600Y0105703D02*
X0061900Y0105703D01*
X0056800Y0084923D02*
X0056800Y0084923D01*
X0056800Y0083324D02*
X0056800Y0083324D01*
X0056800Y0081726D02*
X0056800Y0081726D01*
X0056800Y0080127D02*
X0056800Y0080127D01*
X0056800Y0078529D02*
X0056800Y0078529D01*
X0056800Y0076930D02*
X0056800Y0076930D01*
X0056800Y0075332D02*
X0056800Y0075332D01*
X0056800Y0073733D02*
X0056800Y0073733D01*
X0046763Y0075332D02*
X0042544Y0075332D01*
X0041412Y0074200D02*
X0044400Y0077188D01*
X0044400Y0081412D01*
X0041412Y0084400D01*
X0037188Y0084400D01*
X0034200Y0081412D01*
X0034200Y0077188D01*
X0037188Y0074200D01*
X0041412Y0074200D01*
X0044143Y0076930D02*
X0045165Y0076930D01*
X0044700Y0078529D02*
X0044400Y0078529D01*
X0044400Y0080127D02*
X0044700Y0080127D01*
X0045220Y0081726D02*
X0044087Y0081726D01*
X0042488Y0083324D02*
X0046819Y0083324D01*
X0036112Y0083324D02*
X0016600Y0083324D01*
X0016600Y0081726D02*
X0034513Y0081726D01*
X0034200Y0080127D02*
X0016600Y0080127D01*
X0016600Y0078529D02*
X0034200Y0078529D01*
X0034457Y0076930D02*
X0016600Y0076930D01*
X0016600Y0075332D02*
X0036056Y0075332D01*
X0052826Y0049755D02*
X0016600Y0049755D01*
X0016600Y0048157D02*
X0052058Y0048157D01*
X0051900Y0046558D02*
X0016600Y0046558D01*
X0016600Y0044960D02*
X0051900Y0044960D01*
X0051900Y0043361D02*
X0016600Y0043361D01*
X0016600Y0041763D02*
X0051900Y0041763D01*
X0052091Y0040164D02*
X0016600Y0040164D01*
X0016600Y0038566D02*
X0052905Y0038566D01*
X0080333Y0016187D02*
X0093267Y0016187D01*
X0091669Y0014588D02*
X0081931Y0014588D01*
X0082400Y0012990D02*
X0091200Y0012990D01*
X0091200Y0011391D02*
X0082400Y0011391D01*
X0082400Y0009793D02*
X0091200Y0009793D01*
X0092486Y0008194D02*
X0081114Y0008194D01*
X0165296Y0027376D02*
X0179011Y0027376D01*
X0177413Y0028975D02*
X0166894Y0028975D01*
X0167400Y0030573D02*
X0176700Y0030573D01*
X0176700Y0032172D02*
X0167400Y0032172D01*
X0167400Y0033770D02*
X0176700Y0033770D01*
X0178156Y0035369D02*
X0166151Y0035369D01*
M02*
