%
M48
M72
T01C0.02756
T02C0.03150
T03C0.03200
T04C0.04000
T05C0.04724
T06C0.05118
T07C0.06299
T08C0.11024
T09C0.12598
%
T01
X199300Y16800
X216800Y16800
T02
X211800Y139300
X221800Y139300
X231800Y139300
X241800Y139300
T03
X256800Y126800
X266800Y126800
X276800Y126800
X286800Y126800
X296800Y126800
X306800Y126800
X316800Y126800
X326800Y126800
X336800Y126800
X346800Y126800
X356800Y126800
X366800Y126800
X376800Y126800
X386800Y126800
X336800Y136800
X326800Y136800
X326800Y146800
X336800Y146800
X336800Y96800
X326800Y96800
X316800Y96800
X306800Y96800
X296800Y96800
X286800Y96800
X276800Y96800
X266800Y96800
X256800Y96800
X246800Y96800
X226800Y96800
X181800Y76800
X171800Y76800
X161800Y76800
X151800Y76800
X136800Y76800
X126800Y76800
X116800Y76800
X106800Y76800
X86800Y76800
X76800Y76800
X66800Y76800
X56800Y76800
X49300Y79300
X39300Y79300
X66800Y106800
X76800Y106800
X86800Y106800
X96800Y106800
X96800Y91800
X106800Y91800
X161800Y91800
X176800Y101800
X161800Y111800
X176800Y121800
X96800Y136800
X86800Y136800
X76800Y136800
X66800Y136800
X59300Y136800
X49300Y136800
X34300Y141800
X34300Y121800
X56800Y46800
X66800Y46800
X76800Y46800
X86800Y46800
X106800Y46800
X116800Y46800
X126800Y46800
X136800Y46800
X151800Y46800
X161800Y46800
X171800Y46800
X181800Y46800
X181800Y31800
X161800Y31800
X146800Y24300
X126800Y24300
X96800Y11800
X76800Y11800
X226800Y51800
X266800Y51800
X296800Y66800
X306800Y71800
X316800Y76800
X316800Y86800
X331800Y81800
X351800Y81800
X361800Y76800
X366800Y86800
X366800Y96800
X376800Y96800
X386800Y96800
X386800Y86800
X381800Y76800
X351300Y61800
X332300Y61800
X331800Y46800
X351800Y46800
X351800Y26800
X331800Y26800
X326800Y16800
X306800Y31800
X286800Y16800
X296800Y86800
X346800Y96800
X356800Y96800
X351800Y201800
X341800Y201800
X331800Y201800
X321800Y201800
X311800Y201800
X301800Y201800
X301800Y211800
X311800Y211800
X321800Y211800
X331800Y211800
X341800Y211800
X351800Y211800
X361800Y211800
X371800Y211800
X381800Y211800
X381800Y201800
X371800Y201800
X361800Y201800
T04
X366800Y161800
X366800Y151800
X366800Y141800
X346800Y141800
X346800Y151800
X346800Y161800
X281800Y71800
X281800Y61800
X281800Y51800
X281800Y31800
X271800Y31800
X261800Y31800
X251800Y31800
X371800Y36800
X371800Y46800
X371800Y56800
X391800Y56800
X391800Y46800
X391800Y36800
T05
X186800Y161800
X186800Y181800
X84300Y161780
X51820Y201820
T06
X216800Y116800
X236800Y116800
X236800Y69300
X216800Y69300
T07
X21800Y11800
X171800Y161800
X201800Y161800
X201800Y196800
X171800Y216800
X99300Y194300
X99300Y176800
X69300Y179300
X69300Y214300
X21800Y214300
X401800Y211800
X401800Y11800
T08
X247902Y194477
X266800Y207863
T09
X266800Y183257
M30
